%TF.GenerationSoftware,KiCad,Pcbnew,9.0.9*%
%TF.CreationDate,2026-09-07T22:05:22+05:30*%
%TF.ProjectId,featherbyte-uno-v1.0.0,66656174-6865-4726-9279-74652d756e6f,rev?*%
%TF.SameCoordinates,Original*%
%TF.FileFunction,Copper,L2,Bot*%
%TF.FilePolarity,Positive*%
%FSLAX46Y46*%
G04 Gerber Fmt 4.6, Leading zero omitted, Abs format (unit mm)*
G04 Created by KiCad (PCBNEW 9.0.9) date 2026-09-07 22:05:22*
%MOMM*%
%LPD*%
G01*
G04 APERTURE LIST*
G04 Aperture macros list*
%AMRoundRect*
0 Rectangle with rounded corners*
0 $1 Rounding radius*
0 $2 $3 $4 $5 $6 $7 $8 $9 X,Y pos of 4 corners*
0 Add a 4 corners polygon primitive as box body*
4,1,4,$2,$3,$4,$5,$6,$7,$8,$9,$2,$3,0*
0 Add four circle primitives for the rounded corners*
1,1,$1+$1,$2,$3*
1,1,$1+$1,$4,$5*
1,1,$1+$1,$6,$7*
1,1,$1+$1,$8,$9*
0 Add four rect primitives between the rounded corners*
20,1,$1+$1,$2,$3,$4,$5,0*
20,1,$1+$1,$4,$5,$6,$7,0*
20,1,$1+$1,$6,$7,$8,$9,0*
20,1,$1+$1,$8,$9,$2,$3,0*%
%AMRotRect*
0 Rectangle, with rotation*
0 The origin of the aperture is its center*
0 $1 length*
0 $2 width*
0 $3 Rotation angle, in degrees counterclockwise*
0 Add horizontal line*
21,1,$1,$2,0,0,$3*%
%AMFreePoly0*
4,1,6,1.000000,0.000000,0.499999,-0.750000,-0.499999,-0.750000,-0.499999,0.750000,0.499999,0.750000,1.000000,0.000000,1.000000,0.000000,$1*%
%AMFreePoly1*
4,1,6,0.499999,-0.750000,-0.649999,-0.750000,-0.150000,0.000000,-0.649999,0.750000,0.499999,0.750000,0.499999,-0.750000,0.499999,-0.750000,$1*%
G04 Aperture macros list end*
%TA.AperFunction,ComponentPad*%
%ADD10R,1.700000X1.700000*%
%TD*%
%TA.AperFunction,ComponentPad*%
%ADD11C,1.700000*%
%TD*%
%TA.AperFunction,HeatsinkPad*%
%ADD12O,1.000000X2.100000*%
%TD*%
%TA.AperFunction,HeatsinkPad*%
%ADD13O,1.000000X1.600000*%
%TD*%
%TA.AperFunction,ComponentPad*%
%ADD14RoundRect,0.250001X-1.149999X-1.149999X1.149999X-1.149999X1.149999X1.149999X-1.149999X1.149999X0*%
%TD*%
%TA.AperFunction,ComponentPad*%
%ADD15C,2.800000*%
%TD*%
%TA.AperFunction,ComponentPad*%
%ADD16RotRect,1.700000X1.700000X315.000000*%
%TD*%
%TA.AperFunction,SMDPad,CuDef*%
%ADD17FreePoly0,315.000000*%
%TD*%
%TA.AperFunction,SMDPad,CuDef*%
%ADD18FreePoly1,315.000000*%
%TD*%
%TA.AperFunction,ViaPad*%
%ADD19C,0.800000*%
%TD*%
%TA.AperFunction,ViaPad*%
%ADD20C,1.000000*%
%TD*%
%TA.AperFunction,Conductor*%
%ADD21C,1.000000*%
%TD*%
%TA.AperFunction,Conductor*%
%ADD22C,0.750000*%
%TD*%
%TA.AperFunction,Conductor*%
%ADD23C,0.300000*%
%TD*%
%TA.AperFunction,Conductor*%
%ADD24C,0.200000*%
%TD*%
%TA.AperFunction,Conductor*%
%ADD25C,0.254000*%
%TD*%
G04 APERTURE END LIST*
D10*
%TO.P,J10,1,Pin_1*%
%TO.N,+5V*%
X133190000Y-98635000D03*
D11*
%TO.P,J10,2,Pin_2*%
%TO.N,GND*%
X133190000Y-96095000D03*
%TO.P,J10,3,Pin_3*%
X133190000Y-93555000D03*
%TO.P,J10,4,Pin_4*%
%TO.N,+5V*%
X133190000Y-91015000D03*
%TO.P,J10,5,Pin_5*%
%TO.N,+3.3V*%
X133190000Y-88475000D03*
%TO.P,J10,6,Pin_6*%
%TO.N,/NRST*%
X133190000Y-85935000D03*
%TO.P,J10,7,Pin_7*%
%TO.N,+3.3V*%
X133190000Y-83395000D03*
%TO.P,J10,8,Pin_8*%
X133190000Y-80855000D03*
%TO.P,J10,9,Pin_9*%
X133190000Y-78315000D03*
%TD*%
D12*
%TO.P,J8,S1,SHIELD*%
%TO.N,GND*%
X175440000Y-68355000D03*
D13*
X175440000Y-64175000D03*
D12*
X166800000Y-68355000D03*
D13*
X166800000Y-64175000D03*
%TD*%
D10*
%TO.P,J2,1,Pin_1*%
%TO.N,/SCL*%
X182100000Y-71715000D03*
D11*
%TO.P,J2,2,Pin_2*%
%TO.N,/SDA*%
X182100000Y-74255000D03*
%TO.P,J2,3,Pin_3*%
%TO.N,GND*%
X182100000Y-76795000D03*
%TO.P,J2,4,Pin_4*%
X182100000Y-79335000D03*
%TO.P,J2,5,Pin_5*%
%TO.N,/D13*%
X182100000Y-81875000D03*
%TO.P,J2,6,Pin_6*%
%TO.N,/D12*%
X182100000Y-84415000D03*
%TO.P,J2,7,Pin_7*%
%TO.N,/D11*%
X182100000Y-86955000D03*
%TO.P,J2,8,Pin_8*%
%TO.N,/D10*%
X182100000Y-89495000D03*
%TO.P,J2,9,Pin_9*%
%TO.N,/D9*%
X182100000Y-92035000D03*
%TO.P,J2,10,Pin_10*%
%TO.N,/D8*%
X182100000Y-94575000D03*
%TD*%
D10*
%TO.P,J6,1,Pin_1*%
%TO.N,+3.3V*%
X137125000Y-76275000D03*
D11*
%TO.P,J6,2,Pin_2*%
%TO.N,/SWDIO*%
X139665000Y-76275000D03*
%TO.P,J6,3,Pin_3*%
%TO.N,/NRST*%
X137125000Y-78815000D03*
%TO.P,J6,4,Pin_4*%
%TO.N,/SWCLK*%
X139665000Y-78815000D03*
%TO.P,J6,5,Pin_5*%
%TO.N,GND*%
X137125000Y-81355000D03*
%TO.P,J6,6,Pin_6*%
X139665000Y-81355000D03*
%TD*%
D14*
%TO.P,J7,1,Pin_1*%
%TO.N,/CAN0L*%
X156050000Y-117332500D03*
D15*
%TO.P,J7,2,Pin_2*%
%TO.N,/CAN0H*%
X161050000Y-117332500D03*
%TD*%
D16*
%TO.P,J9,1,Pin_1*%
%TO.N,+3.3V*%
X171596051Y-94943949D03*
D11*
%TO.P,J9,2,Pin_2*%
%TO.N,/BOOT1*%
X169800000Y-96740000D03*
%TO.P,J9,3,Pin_3*%
%TO.N,GND*%
X168003949Y-98536051D03*
%TD*%
D10*
%TO.P,J3,1,Pin_1*%
%TO.N,/A5*%
X133190000Y-116415000D03*
D11*
%TO.P,J3,2,Pin_2*%
%TO.N,/A4*%
X133190000Y-113875000D03*
%TO.P,J3,3,Pin_3*%
%TO.N,/A3*%
X133190000Y-111335000D03*
%TO.P,J3,4,Pin_4*%
%TO.N,/A2*%
X133190000Y-108795000D03*
%TO.P,J3,5,Pin_5*%
%TO.N,/A1*%
X133190000Y-106255000D03*
%TO.P,J3,6,Pin_6*%
%TO.N,/A0*%
X133190000Y-103715000D03*
%TD*%
D12*
%TO.P,J5,S1,SHIELD*%
%TO.N,GND*%
X148440000Y-68355000D03*
D13*
X148440000Y-64175000D03*
D12*
X139800000Y-68355000D03*
D13*
X139800000Y-64175000D03*
%TD*%
D10*
%TO.P,J1,1,Pin_1*%
%TO.N,/D0*%
X182100000Y-116415000D03*
D11*
%TO.P,J1,2,Pin_2*%
%TO.N,/D1*%
X182100000Y-113875000D03*
%TO.P,J1,3,Pin_3*%
%TO.N,/D2*%
X182100000Y-111335000D03*
%TO.P,J1,4,Pin_4*%
%TO.N,/D3*%
X182100000Y-108795000D03*
%TO.P,J1,5,Pin_5*%
%TO.N,/D4*%
X182100000Y-106255000D03*
%TO.P,J1,6,Pin_6*%
%TO.N,/D5*%
X182100000Y-103715000D03*
%TO.P,J1,7,Pin_7*%
%TO.N,/D6*%
X182100000Y-101175000D03*
%TO.P,J1,8,Pin_8*%
%TO.N,/D7*%
X182100000Y-98635000D03*
%TD*%
D17*
%TO.P,JP3,1,A*%
%TO.N,/A5*%
X164337348Y-94727348D03*
D18*
%TO.P,JP3,2,B*%
%TO.N,/SCL*%
X165362652Y-95752652D03*
%TD*%
D17*
%TO.P,JP2,1,A*%
%TO.N,/A4*%
X166187348Y-92927348D03*
D18*
%TO.P,JP2,2,B*%
%TO.N,/SDA*%
X167212652Y-93952652D03*
%TD*%
D19*
%TO.N,GND*%
X170400000Y-84715000D03*
X169350000Y-79615000D03*
X143300000Y-64215000D03*
X152919975Y-96084975D03*
X173833333Y-112315000D03*
X161400000Y-105715000D03*
X137500000Y-72515000D03*
X161882322Y-83800672D03*
X152680025Y-101695025D03*
X168350000Y-112865000D03*
X171700000Y-83775000D03*
X146750000Y-79265000D03*
X166800000Y-109915000D03*
X175400000Y-62515000D03*
X145000000Y-64215000D03*
X143550000Y-91965000D03*
X140650000Y-97715000D03*
X143850000Y-100115000D03*
X167950000Y-72415000D03*
X142750000Y-91165000D03*
X155383333Y-81465000D03*
X164500000Y-81315000D03*
X173700000Y-64115000D03*
X150450000Y-90965000D03*
X145800000Y-92415000D03*
X164050000Y-89215000D03*
X148400000Y-118215000D03*
X164650000Y-63265000D03*
X168520000Y-62515000D03*
X155978592Y-89886408D03*
X179100000Y-85665000D03*
X135100000Y-66815000D03*
X171950000Y-105815000D03*
X176200000Y-78135000D03*
X137900000Y-86865000D03*
X173800000Y-114515000D03*
X166800000Y-70115000D03*
X139800000Y-62615000D03*
X165650000Y-89215000D03*
X179500000Y-104965000D03*
X148233333Y-112948333D03*
X155100000Y-68315000D03*
X148100000Y-87115000D03*
X177050000Y-98865000D03*
X176700000Y-106015000D03*
X146700000Y-64215000D03*
X143100000Y-108715000D03*
X175400000Y-66815000D03*
X143750000Y-83965000D03*
X132200000Y-63243000D03*
X179550000Y-72915000D03*
X140850000Y-85015000D03*
X169200000Y-91015000D03*
X161133997Y-84548997D03*
X149400000Y-90115000D03*
X168800000Y-66865000D03*
X161150000Y-91098020D03*
X171960000Y-62515000D03*
X148750000Y-102715000D03*
X183150000Y-67898333D03*
X147750000Y-101765000D03*
X151350000Y-97715000D03*
X182000000Y-63790000D03*
X164650000Y-64765000D03*
X132200000Y-65328000D03*
X146680000Y-62615000D03*
X150900000Y-103415000D03*
X137900000Y-97465000D03*
X139900000Y-112815000D03*
X179500000Y-107515000D03*
X137150000Y-113065000D03*
X171950000Y-71965000D03*
X151800000Y-110315000D03*
X172650000Y-70815000D03*
X176550000Y-68365000D03*
X174400000Y-72915000D03*
X169000000Y-83615000D03*
X146750000Y-95415000D03*
X173680000Y-62515000D03*
X154896630Y-90818370D03*
X174950000Y-104215000D03*
X144350000Y-92815000D03*
X155100000Y-66815000D03*
X161300000Y-107215000D03*
X174300000Y-99515000D03*
X144100000Y-119915000D03*
X143800000Y-101915000D03*
X152077443Y-98436112D03*
X144100000Y-110315000D03*
X150600000Y-98515000D03*
X152216666Y-81515000D03*
X146000000Y-94615000D03*
X172350000Y-74265000D03*
X169800000Y-108315000D03*
X153969975Y-95034975D03*
X139800000Y-66915000D03*
X134600000Y-120415000D03*
X159400000Y-81315000D03*
X176800000Y-110015000D03*
X179100000Y-80565000D03*
X141750000Y-110365000D03*
X142600000Y-100765000D03*
X169375000Y-76679000D03*
X165800000Y-68365000D03*
X143400000Y-79215000D03*
X147200000Y-90965000D03*
X168600000Y-64115000D03*
X152169975Y-96834975D03*
X179700000Y-69748333D03*
X148400000Y-70515000D03*
X176500000Y-101915000D03*
X149269975Y-86195025D03*
X176975000Y-72915000D03*
X160033333Y-107215000D03*
X174400000Y-110065000D03*
X145850000Y-77265000D03*
X179500000Y-112615000D03*
X148400000Y-62615000D03*
X144960000Y-62615000D03*
X151750000Y-94465000D03*
X141500000Y-96915000D03*
X179100000Y-83115000D03*
X155596630Y-91518370D03*
X165775000Y-77440000D03*
X160200000Y-105715000D03*
X171800000Y-79095000D03*
X171550000Y-67065000D03*
X145150000Y-93665000D03*
X169100000Y-73165000D03*
X141950000Y-77265000D03*
X179100000Y-77965000D03*
X153400000Y-99615000D03*
X171700000Y-86115000D03*
X163100000Y-104690000D03*
X140800000Y-83665000D03*
X152250000Y-100715000D03*
X171600000Y-118115000D03*
X132200000Y-120415000D03*
X179500000Y-115215000D03*
X152300000Y-80215000D03*
X167700000Y-89615000D03*
X138500000Y-114115000D03*
X146750000Y-102815000D03*
X157300000Y-80315000D03*
X170240000Y-62515000D03*
X170900000Y-114515000D03*
X140200000Y-72915000D03*
X145500000Y-70915000D03*
X153750000Y-80215000D03*
X173650000Y-107465000D03*
X135850000Y-70865000D03*
X175700000Y-120015000D03*
X141600000Y-64215000D03*
X169550000Y-114015000D03*
X140800000Y-94465000D03*
X158766667Y-107215000D03*
X171800000Y-81435000D03*
X158250000Y-81315000D03*
X152300000Y-74115000D03*
X145800000Y-103565000D03*
X166800000Y-107915000D03*
X132200000Y-71583000D03*
X159850000Y-89215000D03*
X141800000Y-92065000D03*
X142600000Y-71315000D03*
X150150000Y-117565000D03*
X170500000Y-104315000D03*
X147650000Y-96215000D03*
X169550000Y-70715000D03*
X146500000Y-72315000D03*
X148850000Y-96315000D03*
X165600000Y-75415000D03*
X175400000Y-70215000D03*
X179500000Y-96415000D03*
X138560000Y-68355000D03*
X150850000Y-95315000D03*
X137900000Y-91115000D03*
X149233333Y-110315000D03*
X144800000Y-102815000D03*
X179200000Y-90715000D03*
X145700000Y-79315000D03*
X147050000Y-89515000D03*
X143650000Y-82165000D03*
X165650000Y-79915000D03*
X170400000Y-82375000D03*
X166800000Y-105815000D03*
X155100000Y-63315000D03*
X176666667Y-112315000D03*
X183200000Y-65515000D03*
X175800000Y-118215000D03*
X151250000Y-99715000D03*
X167300000Y-81815000D03*
X166800000Y-66815000D03*
X160500000Y-81315000D03*
X141550000Y-99765000D03*
X176200000Y-86065000D03*
X142200000Y-75465000D03*
X137900000Y-100015000D03*
X170300000Y-64115000D03*
X180950000Y-66665000D03*
X176200000Y-80415000D03*
X151805025Y-102570025D03*
X160700000Y-90015000D03*
X140850000Y-92965000D03*
X164450000Y-75415000D03*
X143240000Y-62615000D03*
X153500000Y-74115000D03*
X143100000Y-112948333D03*
X156350000Y-88165000D03*
X137900000Y-94915000D03*
X132200000Y-67413000D03*
X145666667Y-112948333D03*
X150800000Y-112948333D03*
X157850000Y-89215000D03*
X158700000Y-90815000D03*
X144200000Y-118115000D03*
X183150000Y-63131666D03*
X171500000Y-119915000D03*
X139400000Y-108715000D03*
X142300000Y-95965000D03*
X139900000Y-70115000D03*
X181975000Y-65390000D03*
X137900000Y-103515000D03*
X176700000Y-114515000D03*
X148300000Y-120015000D03*
X143500000Y-77315000D03*
X146666667Y-110315000D03*
X160408997Y-85273997D03*
X157250001Y-91175051D03*
X151450000Y-91815000D03*
X140650000Y-98765000D03*
X150633333Y-81515000D03*
X137150000Y-110765000D03*
X132200000Y-69498000D03*
X171000000Y-112315000D03*
X141600000Y-95315000D03*
X169200000Y-71915000D03*
X154209618Y-90140150D03*
X172800000Y-102115000D03*
X172000000Y-64115000D03*
X140100000Y-93815000D03*
X166800000Y-62515000D03*
X171800000Y-76755000D03*
X154750000Y-107765000D03*
X157500000Y-107315000D03*
X159050000Y-88415000D03*
X149700000Y-103715000D03*
X148000000Y-79315000D03*
X158850000Y-89765000D03*
X159850000Y-90865000D03*
X176200000Y-83065000D03*
X179300000Y-93215000D03*
X171550000Y-110115000D03*
X145700000Y-90865000D03*
X150000000Y-96115000D03*
X153800000Y-81515000D03*
X141520000Y-62615000D03*
X142450000Y-72915000D03*
D20*
%TO.N,+5V*%
X151850000Y-108915000D03*
X142650000Y-81315000D03*
X139100000Y-87615000D03*
X157000000Y-72515000D03*
%TO.N,+3.3V*%
X165650000Y-90965000D03*
D19*
X169700000Y-116615000D03*
X166825000Y-113040000D03*
D20*
X158650000Y-84036016D03*
X169100000Y-102915000D03*
X165800000Y-104715000D03*
X156100000Y-99915000D03*
X164700000Y-91915000D03*
X147250000Y-77265000D03*
D19*
%TO.N,/NRST*%
X155600000Y-92565000D03*
%TO.N,/BOOT0*%
X161000000Y-100015000D03*
X157299998Y-90115002D03*
%TO.N,/D2*%
X161200000Y-96965000D03*
%TO.N,/D6*%
X165656993Y-84623158D03*
%TO.N,/D3*%
X162000000Y-97965000D03*
%TO.N,/D4*%
X163850000Y-86255000D03*
%TO.N,/D5*%
X164600000Y-85465000D03*
%TO.N,/D7*%
X157633470Y-86890956D03*
%TO.N,/D13*%
X178900000Y-88115000D03*
%TO.N,/D9*%
X154150000Y-84720860D03*
%TO.N,/D8*%
X155022006Y-85252868D03*
%TO.N,/SDA*%
X175850000Y-89831760D03*
X168000000Y-94815000D03*
%TO.N,/SCL*%
X166316233Y-96500059D03*
X176750000Y-90965000D03*
%TO.N,/A5*%
X159132401Y-92857400D03*
%TO.N,/A4*%
X159184415Y-91815435D03*
%TO.N,Net-(J5-CC2)*%
X142900000Y-67315000D03*
X150225000Y-65815000D03*
%TO.N,Net-(J5-CC1)*%
X145373695Y-67665000D03*
X154750000Y-64965000D03*
%TO.N,/SWDIO*%
X158200000Y-87715000D03*
%TO.N,/SWCLK*%
X154037044Y-83277956D03*
%TO.N,Net-(J8-CC2)*%
X178100000Y-63815000D03*
X169900000Y-67365000D03*
%TO.N,Net-(J8-CC1)*%
X172800000Y-67365000D03*
X178267430Y-65387649D03*
%TO.N,/BOOT1*%
X163824265Y-96390735D03*
%TO.N,/CAN0TX*%
X160169642Y-101775066D03*
X152618705Y-87796295D03*
%TO.N,/CAN0RX*%
X158700000Y-101765000D03*
X156600000Y-93015000D03*
%TD*%
D21*
%TO.N,GND*%
X137125000Y-81355000D02*
X139665000Y-81355000D01*
D22*
%TO.N,+5V*%
X137500000Y-101115000D02*
X145300000Y-108915000D01*
X138200000Y-93215000D02*
X136150000Y-93215000D01*
X133190000Y-98635000D02*
X133190000Y-100305000D01*
X133190000Y-100305000D02*
X134000000Y-101115000D01*
X142650000Y-81315000D02*
X142650000Y-81265000D01*
X139100000Y-92315000D02*
X138200000Y-93215000D01*
X134000000Y-101115000D02*
X137500000Y-101115000D01*
X143400000Y-80515000D02*
X149000000Y-80515000D01*
X135130000Y-98635000D02*
X133190000Y-98635000D01*
X133190000Y-91015000D02*
X135200000Y-91015000D01*
X136150000Y-91965000D02*
X136150000Y-97615000D01*
X139100000Y-87615000D02*
X139100000Y-92315000D01*
X136150000Y-97615000D02*
X135130000Y-98635000D01*
X142650000Y-81265000D02*
X143400000Y-80515000D01*
X149000000Y-80515000D02*
X157000000Y-72515000D01*
X135200000Y-91015000D02*
X136150000Y-91965000D01*
X145300000Y-108915000D02*
X151850000Y-108915000D01*
%TO.N,+3.3V*%
X156100000Y-99915000D02*
X156100000Y-101965000D01*
X167617102Y-90965000D02*
X171596051Y-94943949D01*
D21*
X137125000Y-75740000D02*
X137125000Y-76275000D01*
D22*
X169100000Y-102915000D02*
X172650000Y-99365000D01*
D21*
X171596051Y-94911051D02*
X171596051Y-94943949D01*
X147250000Y-76065000D02*
X145550000Y-74365000D01*
X147250000Y-77265000D02*
X147250000Y-76065000D01*
X171596051Y-94961051D02*
X171596051Y-94943949D01*
X135540000Y-76275000D02*
X137125000Y-76275000D01*
X133190000Y-79215000D02*
X133190000Y-78315000D01*
D22*
X156100000Y-101965000D02*
X157850000Y-103715000D01*
D21*
X133190000Y-83395000D02*
X133190000Y-79215000D01*
D22*
X165650000Y-90965000D02*
X167617102Y-90965000D01*
D21*
X145550000Y-74365000D02*
X138500000Y-74365000D01*
X133500000Y-78315000D02*
X135540000Y-76275000D01*
D22*
X158650000Y-85965000D02*
X158650000Y-84036016D01*
X164700000Y-91915000D02*
X164600000Y-91915000D01*
X172650000Y-99365000D02*
X172650000Y-96015000D01*
X164800000Y-103715000D02*
X165800000Y-104715000D01*
D23*
X166825000Y-113040000D02*
X166825000Y-114290000D01*
X168850000Y-114815000D02*
X169700000Y-115665000D01*
D22*
X164600000Y-91915000D02*
X158650000Y-85965000D01*
D23*
X169700000Y-115665000D02*
X169700000Y-116615000D01*
X167350000Y-114815000D02*
X168850000Y-114815000D01*
D21*
X133190000Y-78315000D02*
X133500000Y-78315000D01*
X138500000Y-74365000D02*
X137125000Y-75740000D01*
D23*
X166825000Y-114290000D02*
X167350000Y-114815000D01*
D22*
X157850000Y-103715000D02*
X164800000Y-103715000D01*
X172650000Y-96015000D02*
X171596051Y-94961051D01*
D24*
%TO.N,/NRST*%
X155600000Y-92565000D02*
X153750000Y-90715000D01*
X153750000Y-90715000D02*
X152800000Y-90715000D01*
X135200000Y-83915000D02*
X135200000Y-79765000D01*
X148050000Y-85965000D02*
X133220000Y-85965000D01*
X133190000Y-85925000D02*
X135200000Y-83915000D01*
X133190000Y-85935000D02*
X133190000Y-85925000D01*
X152800000Y-90715000D02*
X148050000Y-85965000D01*
X136150000Y-78815000D02*
X137125000Y-78815000D01*
X135200000Y-79765000D02*
X136150000Y-78815000D01*
X133220000Y-85965000D02*
X133190000Y-85935000D01*
%TO.N,/BOOT0*%
X157950000Y-90765004D02*
X157950000Y-96965000D01*
X157299998Y-90115002D02*
X157950000Y-90765004D01*
X157950000Y-96965000D02*
X161000000Y-100015000D01*
%TO.N,/D2*%
X161200000Y-96965000D02*
X161200000Y-98365000D01*
X161200000Y-98365000D02*
X174170000Y-111335000D01*
X174170000Y-111335000D02*
X182100000Y-111335000D01*
%TO.N,/D6*%
X180410000Y-101175000D02*
X182100000Y-101175000D01*
X177000000Y-97765000D02*
X180410000Y-101175000D01*
X165656993Y-84623158D02*
X165708158Y-84623158D01*
X165708158Y-84623158D02*
X177000000Y-95915000D01*
X177000000Y-95915000D02*
X177000000Y-97765000D01*
%TO.N,/D3*%
X172800000Y-108765000D02*
X182070000Y-108765000D01*
X162000000Y-97965000D02*
X172800000Y-108765000D01*
D25*
X182070000Y-108765000D02*
X182100000Y-108795000D01*
D24*
%TO.N,/D4*%
X165640000Y-86305000D02*
X175150000Y-95815000D01*
X175150000Y-102565000D02*
X178850000Y-106265000D01*
X163850000Y-86255000D02*
X163900000Y-86305000D01*
X175150000Y-95815000D02*
X175150000Y-102565000D01*
X178850000Y-106265000D02*
X182090000Y-106265000D01*
X182090000Y-106265000D02*
X182100000Y-106255000D01*
X163900000Y-86305000D02*
X165640000Y-86305000D01*
%TO.N,/D5*%
X176250000Y-96115000D02*
X176250000Y-99365000D01*
X164600000Y-85465000D02*
X165600000Y-85465000D01*
X176250000Y-99365000D02*
X180600000Y-103715000D01*
X180600000Y-103715000D02*
X182100000Y-103715000D01*
X165600000Y-85465000D02*
X176250000Y-96115000D01*
%TO.N,/D7*%
X156900000Y-84265000D02*
X158350000Y-82815000D01*
X156900000Y-85115000D02*
X156900000Y-84265000D01*
X178450000Y-95815000D02*
X178450000Y-97765000D01*
X178450000Y-97765000D02*
X179320000Y-98635000D01*
X165450000Y-82815000D02*
X178450000Y-95815000D01*
X179320000Y-98635000D02*
X182100000Y-98635000D01*
X157633470Y-85848470D02*
X156900000Y-85115000D01*
X157633470Y-86890956D02*
X157633470Y-85848470D01*
X158350000Y-82815000D02*
X165450000Y-82815000D01*
%TO.N,/D13*%
X180050000Y-87515000D02*
X180050000Y-82515000D01*
X178900000Y-88115000D02*
X179450000Y-88115000D01*
X180690000Y-81875000D02*
X182100000Y-81875000D01*
X180050000Y-82515000D02*
X180690000Y-81875000D01*
X179450000Y-88115000D02*
X180050000Y-87515000D01*
%TO.N,/D9*%
X165850001Y-82015000D02*
X175870001Y-92035000D01*
X175870001Y-92035000D02*
X182100000Y-92035000D01*
X154347929Y-84522931D02*
X154892069Y-84522931D01*
X154892069Y-84522931D02*
X157400000Y-82015000D01*
X154150000Y-84720860D02*
X154347929Y-84522931D01*
X157400000Y-82015000D02*
X165850001Y-82015000D01*
%TO.N,/D8*%
X155022006Y-85252868D02*
X157859874Y-82415000D01*
X177844315Y-94575000D02*
X182100000Y-94575000D01*
X157859874Y-82415000D02*
X165684315Y-82415000D01*
X165684315Y-82415000D02*
X177844315Y-94575000D01*
D25*
%TO.N,/SDA*%
X168000000Y-94815000D02*
X168050000Y-94865000D01*
D24*
X178560000Y-74255000D02*
X182100000Y-74255000D01*
X176616760Y-89831760D02*
X177100000Y-89348520D01*
X175850000Y-89831760D02*
X176616760Y-89831760D01*
X168000000Y-94740000D02*
X167212652Y-93952652D01*
D25*
X168000000Y-94815000D02*
X168000000Y-94740000D01*
D24*
X177100000Y-75715000D02*
X178560000Y-74255000D01*
D25*
X168050000Y-94865000D02*
X168100000Y-94865000D01*
D24*
X177100000Y-89348520D02*
X177100000Y-75715000D01*
%TO.N,/SCL*%
X177800000Y-89915000D02*
X177800000Y-76065000D01*
X183000000Y-71715000D02*
X182100000Y-71715000D01*
X166316233Y-96500059D02*
X166110059Y-96500059D01*
X166110059Y-96500059D02*
X165362652Y-95752652D01*
D25*
X165437652Y-95752652D02*
X165362652Y-95752652D01*
D24*
X177800000Y-76065000D02*
X178350000Y-75515000D01*
X183650000Y-74965000D02*
X183650000Y-72365000D01*
X183650000Y-72365000D02*
X183000000Y-71715000D01*
X176750000Y-90965000D02*
X177800000Y-89915000D01*
D25*
X165362652Y-95677652D02*
X165262652Y-95677652D01*
D24*
X178350000Y-75515000D02*
X183100000Y-75515000D01*
X183100000Y-75515000D02*
X183650000Y-74965000D01*
%TO.N,/A5*%
X159674801Y-92315000D02*
X161050000Y-92315000D01*
X163675000Y-94065000D02*
X164337348Y-94727348D01*
X161050000Y-92315000D02*
X162800000Y-94065000D01*
X162800000Y-94065000D02*
X163675000Y-94065000D01*
X159132401Y-92857400D02*
X159674801Y-92315000D01*
%TO.N,/A4*%
X159184415Y-91815435D02*
X159699565Y-91815435D01*
X165999696Y-93115000D02*
X166187348Y-92927348D01*
X164100000Y-93615000D02*
X164600000Y-93115000D01*
X164600000Y-93115000D02*
X165999696Y-93115000D01*
X159700000Y-91815000D02*
X161150000Y-91815000D01*
X159699565Y-91815435D02*
X159700000Y-91815000D01*
X161150000Y-91815000D02*
X162950000Y-93615000D01*
X162950000Y-93615000D02*
X164100000Y-93615000D01*
D23*
%TO.N,Net-(J5-CC2)*%
X144400000Y-65815000D02*
X142900000Y-67315000D01*
X150225000Y-65815000D02*
X144400000Y-65815000D01*
%TO.N,Net-(J5-CC1)*%
X145373695Y-67641305D02*
X145373695Y-67665000D01*
X154750000Y-65565000D02*
X153750000Y-66565000D01*
X153750000Y-66565000D02*
X146450000Y-66565000D01*
X146450000Y-66565000D02*
X145373695Y-67641305D01*
X154750000Y-64965000D02*
X154750000Y-65565000D01*
D24*
%TO.N,/SWDIO*%
X138400000Y-79665000D02*
X138400000Y-77515000D01*
X141050000Y-82515000D02*
X141050000Y-80415000D01*
X150500000Y-84665000D02*
X143200000Y-84665000D01*
X158200000Y-87715000D02*
X156800000Y-89115000D01*
X141050000Y-80415000D02*
X140700000Y-80065000D01*
X156800000Y-89115000D02*
X154950000Y-89115000D01*
X154950000Y-89115000D02*
X150500000Y-84665000D01*
X138400000Y-77515000D02*
X139640000Y-76275000D01*
X143200000Y-84665000D02*
X141050000Y-82515000D01*
X138800000Y-80065000D02*
X138400000Y-79665000D01*
X140700000Y-80065000D02*
X138800000Y-80065000D01*
X139640000Y-76275000D02*
X139665000Y-76275000D01*
%TO.N,/SWCLK*%
X141200000Y-78815000D02*
X139665000Y-78815000D01*
X141750000Y-79365000D02*
X141200000Y-78815000D01*
X141750000Y-81915000D02*
X141750000Y-79365000D01*
X142950000Y-83115000D02*
X141750000Y-81915000D01*
X153874088Y-83115000D02*
X142950000Y-83115000D01*
X154037044Y-83277956D02*
X153874088Y-83115000D01*
%TO.N,Net-(J8-CC2)*%
X176400000Y-65515000D02*
X171750000Y-65515000D01*
X178100000Y-63815000D02*
X176400000Y-65515000D01*
X171750000Y-65515000D02*
X169900000Y-67365000D01*
%TO.N,Net-(J8-CC1)*%
X172800000Y-66465000D02*
X173350000Y-65915000D01*
X173350000Y-65915000D02*
X177150000Y-65915000D01*
X177150000Y-65915000D02*
X177677351Y-65387649D01*
X177677351Y-65387649D02*
X178267430Y-65387649D01*
X172800000Y-67365000D02*
X172800000Y-66465000D01*
%TO.N,/BOOT1*%
X163824265Y-96390735D02*
X164798530Y-97365000D01*
X164798530Y-97365000D02*
X168300000Y-97365000D01*
X168925000Y-96740000D02*
X169800000Y-96740000D01*
X168300000Y-97365000D02*
X168925000Y-96740000D01*
%TO.N,/CAN0TX*%
X152618705Y-87796295D02*
X152881295Y-87796295D01*
X159750000Y-101355424D02*
X160169642Y-101775066D01*
X159750000Y-100315000D02*
X159750000Y-101355424D01*
X152881295Y-87796295D02*
X157550000Y-92465000D01*
X157550000Y-98115000D02*
X159750000Y-100315000D01*
X157550000Y-92465000D02*
X157550000Y-98115000D01*
%TO.N,/CAN0RX*%
X157000000Y-98330687D02*
X159150000Y-100480687D01*
X159150000Y-101315000D02*
X158700000Y-101765000D01*
X159150000Y-100480687D02*
X159150000Y-101315000D01*
X156600000Y-93015000D02*
X157000000Y-93415000D01*
X157000000Y-93415000D02*
X157000000Y-98330687D01*
%TD*%
%TA.AperFunction,Conductor*%
%TO.N,GND*%
G36*
X134977297Y-91610185D02*
G01*
X134997939Y-91626819D01*
X135538181Y-92167061D01*
X135571666Y-92228384D01*
X135574500Y-92254742D01*
X135574500Y-97325258D01*
X135554815Y-97392297D01*
X135538181Y-97412939D01*
X134927939Y-98023181D01*
X134866616Y-98056666D01*
X134840258Y-98059500D01*
X134364500Y-98059500D01*
X134297461Y-98039815D01*
X134251706Y-97987011D01*
X134240500Y-97935500D01*
X134240500Y-97765249D01*
X134240499Y-97765247D01*
X134228868Y-97706770D01*
X134228867Y-97706769D01*
X134184552Y-97640447D01*
X134118230Y-97596132D01*
X134118229Y-97596131D01*
X134059752Y-97584500D01*
X134059748Y-97584500D01*
X133756048Y-97584500D01*
X133689009Y-97564815D01*
X133643254Y-97512011D01*
X133633310Y-97442853D01*
X133662335Y-97379297D01*
X133704264Y-97349061D01*
X133703879Y-97348306D01*
X133897554Y-97249622D01*
X133951716Y-97210270D01*
X133951717Y-97210270D01*
X133319408Y-96577962D01*
X133382993Y-96560925D01*
X133497007Y-96495099D01*
X133590099Y-96402007D01*
X133655925Y-96287993D01*
X133672962Y-96224408D01*
X134305270Y-96856717D01*
X134305270Y-96856716D01*
X134344622Y-96802554D01*
X134441095Y-96613217D01*
X134506757Y-96411130D01*
X134506757Y-96411127D01*
X134540000Y-96201246D01*
X134540000Y-95988753D01*
X134506757Y-95778872D01*
X134506757Y-95778869D01*
X134441095Y-95576782D01*
X134344624Y-95387449D01*
X134305270Y-95333282D01*
X134305269Y-95333282D01*
X133672962Y-95965590D01*
X133655925Y-95902007D01*
X133590099Y-95787993D01*
X133497007Y-95694901D01*
X133382993Y-95629075D01*
X133319409Y-95612037D01*
X133951716Y-94979728D01*
X133897550Y-94940375D01*
X133887954Y-94935486D01*
X133837157Y-94887512D01*
X133820361Y-94819692D01*
X133842897Y-94753556D01*
X133887954Y-94714514D01*
X133897554Y-94709622D01*
X133951716Y-94670270D01*
X133951717Y-94670270D01*
X133319408Y-94037962D01*
X133382993Y-94020925D01*
X133497007Y-93955099D01*
X133590099Y-93862007D01*
X133655925Y-93747993D01*
X133672962Y-93684408D01*
X134305270Y-94316717D01*
X134305270Y-94316716D01*
X134344622Y-94262554D01*
X134441095Y-94073217D01*
X134506757Y-93871130D01*
X134506757Y-93871127D01*
X134540000Y-93661246D01*
X134540000Y-93448753D01*
X134506757Y-93238872D01*
X134506757Y-93238869D01*
X134441095Y-93036782D01*
X134344624Y-92847449D01*
X134305270Y-92793282D01*
X134305269Y-92793282D01*
X133672962Y-93425590D01*
X133655925Y-93362007D01*
X133590099Y-93247993D01*
X133497007Y-93154901D01*
X133382993Y-93089075D01*
X133319409Y-93072037D01*
X133951716Y-92439728D01*
X133897550Y-92400375D01*
X133708216Y-92303904D01*
X133532026Y-92246656D01*
X133474350Y-92207218D01*
X133447152Y-92142860D01*
X133459067Y-92074013D01*
X133506311Y-92022538D01*
X133522882Y-92014168D01*
X133687598Y-91945941D01*
X133859655Y-91830977D01*
X134005977Y-91684655D01*
X134032065Y-91645610D01*
X134085676Y-91600805D01*
X134135168Y-91590500D01*
X134910258Y-91590500D01*
X134977297Y-91610185D01*
G37*
%TD.AperFunction*%
%TA.AperFunction,Conductor*%
G36*
X168196988Y-97685185D02*
G01*
X168242743Y-97737989D01*
X168253949Y-97789500D01*
X168253949Y-98103039D01*
X168196942Y-98070126D01*
X168069775Y-98036051D01*
X167938123Y-98036051D01*
X167810956Y-98070126D01*
X167753949Y-98103039D01*
X167753949Y-97789500D01*
X167773634Y-97722461D01*
X167826438Y-97676706D01*
X167877949Y-97665500D01*
X168129949Y-97665500D01*
X168196988Y-97685185D01*
G37*
%TD.AperFunction*%
%TA.AperFunction,Conductor*%
G36*
X136171494Y-79320988D02*
G01*
X136227428Y-79362859D01*
X136231263Y-79368279D01*
X136309022Y-79484655D01*
X136455342Y-79630975D01*
X136627405Y-79745943D01*
X136712015Y-79780989D01*
X136792108Y-79814164D01*
X136846511Y-79858005D01*
X136868576Y-79924299D01*
X136851297Y-79991998D01*
X136800160Y-80039609D01*
X136782974Y-80046656D01*
X136606781Y-80103905D01*
X136417439Y-80200380D01*
X136363282Y-80239727D01*
X136363282Y-80239728D01*
X136995591Y-80872037D01*
X136932007Y-80889075D01*
X136817993Y-80954901D01*
X136724901Y-81047993D01*
X136659075Y-81162007D01*
X136642037Y-81225591D01*
X136009728Y-80593282D01*
X136009727Y-80593282D01*
X135970380Y-80647439D01*
X135873904Y-80836782D01*
X135808242Y-81038869D01*
X135808242Y-81038872D01*
X135775000Y-81248753D01*
X135775000Y-81461246D01*
X135808242Y-81671127D01*
X135808242Y-81671130D01*
X135873904Y-81873217D01*
X135970375Y-82062550D01*
X136009728Y-82116716D01*
X136642037Y-81484408D01*
X136659075Y-81547993D01*
X136724901Y-81662007D01*
X136817993Y-81755099D01*
X136932007Y-81820925D01*
X136995590Y-81837962D01*
X136363282Y-82470269D01*
X136363282Y-82470270D01*
X136417449Y-82509624D01*
X136606782Y-82606095D01*
X136808870Y-82671757D01*
X137018754Y-82705000D01*
X137231246Y-82705000D01*
X137441127Y-82671757D01*
X137441130Y-82671757D01*
X137643217Y-82606095D01*
X137832554Y-82509622D01*
X137886716Y-82470270D01*
X137886717Y-82470270D01*
X137254408Y-81837962D01*
X137317993Y-81820925D01*
X137432007Y-81755099D01*
X137525099Y-81662007D01*
X137590925Y-81547993D01*
X137607962Y-81484408D01*
X138240270Y-82116717D01*
X138240270Y-82116716D01*
X138279622Y-82062554D01*
X138284514Y-82052954D01*
X138332488Y-82002157D01*
X138400308Y-81985361D01*
X138466444Y-82007897D01*
X138505486Y-82052954D01*
X138510375Y-82062550D01*
X138549728Y-82116716D01*
X139182037Y-81484408D01*
X139199075Y-81547993D01*
X139264901Y-81662007D01*
X139357993Y-81755099D01*
X139472007Y-81820925D01*
X139535590Y-81837962D01*
X138903282Y-82470269D01*
X138903282Y-82470270D01*
X138957449Y-82509624D01*
X139146782Y-82606095D01*
X139348870Y-82671757D01*
X139558754Y-82705000D01*
X139771246Y-82705000D01*
X139981127Y-82671757D01*
X139981130Y-82671757D01*
X140183217Y-82606095D01*
X140372554Y-82509622D01*
X140426716Y-82470270D01*
X140426717Y-82470270D01*
X139794408Y-81837962D01*
X139857993Y-81820925D01*
X139972007Y-81755099D01*
X140065099Y-81662007D01*
X140130925Y-81547993D01*
X140147962Y-81484408D01*
X140713181Y-82049627D01*
X140746666Y-82110950D01*
X140749500Y-82137308D01*
X140749500Y-82554562D01*
X140750557Y-82558505D01*
X140769979Y-82630991D01*
X140769981Y-82630994D01*
X140796806Y-82677455D01*
X140796808Y-82677457D01*
X140809542Y-82699514D01*
X140809543Y-82699515D01*
X141900558Y-83790529D01*
X142959540Y-84849511D01*
X143015489Y-84905460D01*
X143015491Y-84905461D01*
X143015495Y-84905464D01*
X143083966Y-84944995D01*
X143084011Y-84945021D01*
X143160438Y-84965500D01*
X143239562Y-84965500D01*
X150324167Y-84965500D01*
X150391206Y-84985185D01*
X150411848Y-85001819D01*
X152439971Y-87029942D01*
X152473456Y-87091265D01*
X152468472Y-87160957D01*
X152426600Y-87216890D01*
X152394052Y-87232702D01*
X152394428Y-87233609D01*
X152386914Y-87236721D01*
X152249995Y-87315770D01*
X152249987Y-87315776D01*
X152138186Y-87427577D01*
X152138180Y-87427585D01*
X152059131Y-87564504D01*
X152059128Y-87564511D01*
X152018205Y-87717238D01*
X152018205Y-87875352D01*
X152045550Y-87977403D01*
X152059128Y-88028078D01*
X152059131Y-88028085D01*
X152138180Y-88165004D01*
X152138184Y-88165009D01*
X152138185Y-88165011D01*
X152249989Y-88276815D01*
X152249991Y-88276816D01*
X152249995Y-88276819D01*
X152358991Y-88339747D01*
X152386921Y-88355872D01*
X152539648Y-88396795D01*
X152539650Y-88396795D01*
X152697760Y-88396795D01*
X152697762Y-88396795D01*
X152850489Y-88355872D01*
X152872956Y-88342900D01*
X152940854Y-88326428D01*
X153006881Y-88349280D01*
X153022636Y-88362607D01*
X156892051Y-92232022D01*
X156925536Y-92293345D01*
X156920552Y-92363037D01*
X156878680Y-92418970D01*
X156813216Y-92443387D01*
X156772277Y-92439478D01*
X156735176Y-92429537D01*
X156679057Y-92414500D01*
X156520943Y-92414500D01*
X156368216Y-92455423D01*
X156368213Y-92455424D01*
X156355830Y-92462573D01*
X156287928Y-92479041D01*
X156221903Y-92456185D01*
X156178716Y-92401261D01*
X156174064Y-92387285D01*
X156159577Y-92333216D01*
X156152756Y-92321402D01*
X156080524Y-92196290D01*
X156080518Y-92196282D01*
X155968717Y-92084481D01*
X155968709Y-92084475D01*
X155831790Y-92005426D01*
X155831786Y-92005424D01*
X155831784Y-92005423D01*
X155679057Y-91964500D01*
X155520943Y-91964500D01*
X155520939Y-91964500D01*
X155514002Y-91966359D01*
X155444152Y-91964692D01*
X155394234Y-91934263D01*
X153934512Y-90474541D01*
X153934507Y-90474537D01*
X153908806Y-90459699D01*
X153908806Y-90459698D01*
X153908804Y-90459698D01*
X153865994Y-90434981D01*
X153865991Y-90434979D01*
X153827775Y-90424739D01*
X153789562Y-90414500D01*
X153789560Y-90414500D01*
X152975833Y-90414500D01*
X152908794Y-90394815D01*
X152888152Y-90378181D01*
X148234512Y-85724541D01*
X148234507Y-85724537D01*
X148201462Y-85705459D01*
X148201462Y-85705458D01*
X148201460Y-85705458D01*
X148184084Y-85695426D01*
X148165990Y-85684979D01*
X148165991Y-85684979D01*
X148127775Y-85674739D01*
X148089562Y-85664500D01*
X148089560Y-85664500D01*
X134297862Y-85664500D01*
X134278680Y-85658867D01*
X134258703Y-85658154D01*
X134245843Y-85649225D01*
X134230823Y-85644815D01*
X134217732Y-85629707D01*
X134201311Y-85618306D01*
X134187100Y-85594356D01*
X134185068Y-85592011D01*
X134183314Y-85587983D01*
X134147265Y-85500955D01*
X134139797Y-85431487D01*
X134171072Y-85369008D01*
X134174117Y-85365853D01*
X135440460Y-84099511D01*
X135478542Y-84033551D01*
X135478543Y-84033550D01*
X135479394Y-84032074D01*
X135480021Y-84030989D01*
X135500500Y-83954562D01*
X135500500Y-79940832D01*
X135520185Y-79873793D01*
X135536815Y-79853155D01*
X136040482Y-79349487D01*
X136101803Y-79316004D01*
X136171494Y-79320988D01*
G37*
%TD.AperFunction*%
%TA.AperFunction,Conductor*%
G36*
X156842524Y-89415500D02*
G01*
X156847690Y-89415500D01*
X156847690Y-89416557D01*
X156873241Y-89421789D01*
X156904965Y-89426731D01*
X156907243Y-89428752D01*
X156910226Y-89429363D01*
X156933204Y-89451786D01*
X156957229Y-89473102D01*
X156958052Y-89476034D01*
X156960232Y-89478161D01*
X156967441Y-89509452D01*
X156976126Y-89540367D01*
X156975234Y-89543278D01*
X156975918Y-89546247D01*
X156965062Y-89576474D01*
X156955657Y-89607172D01*
X156953021Y-89610004D01*
X156952303Y-89612005D01*
X156936496Y-89628202D01*
X156937029Y-89628735D01*
X156819479Y-89746284D01*
X156819473Y-89746292D01*
X156740424Y-89883211D01*
X156740421Y-89883218D01*
X156699498Y-90035945D01*
X156699498Y-90194059D01*
X156739735Y-90344223D01*
X156740421Y-90346785D01*
X156740424Y-90346792D01*
X156819473Y-90483711D01*
X156819477Y-90483716D01*
X156819478Y-90483718D01*
X156931282Y-90595522D01*
X156931284Y-90595523D01*
X156931288Y-90595526D01*
X157023937Y-90649016D01*
X157068214Y-90674579D01*
X157220941Y-90715502D01*
X157220943Y-90715502D01*
X157379052Y-90715502D01*
X157379055Y-90715502D01*
X157385985Y-90713645D01*
X157397984Y-90713930D01*
X157409235Y-90709734D01*
X157432266Y-90714744D01*
X157455831Y-90715304D01*
X157467481Y-90722404D01*
X157477508Y-90724586D01*
X157505762Y-90745737D01*
X157613181Y-90853156D01*
X157646666Y-90914479D01*
X157649500Y-90940837D01*
X157649500Y-91840167D01*
X157629815Y-91907206D01*
X157577011Y-91952961D01*
X157507853Y-91962905D01*
X157444297Y-91933880D01*
X157437819Y-91927848D01*
X155137152Y-89627181D01*
X155103667Y-89565858D01*
X155108651Y-89496166D01*
X155150523Y-89440233D01*
X155215987Y-89415816D01*
X155224833Y-89415500D01*
X156841382Y-89415500D01*
X156841777Y-89415347D01*
X156842524Y-89415500D01*
G37*
%TD.AperFunction*%
%TA.AperFunction,Conductor*%
G36*
X180966632Y-75835185D02*
G01*
X181012387Y-75887989D01*
X181022331Y-75957147D01*
X180999911Y-76012385D01*
X180945379Y-76087442D01*
X180848904Y-76276782D01*
X180783242Y-76478869D01*
X180783242Y-76478872D01*
X180750000Y-76688753D01*
X180750000Y-76901246D01*
X180783242Y-77111127D01*
X180783242Y-77111130D01*
X180848904Y-77313217D01*
X180945375Y-77502550D01*
X180984728Y-77556716D01*
X181617036Y-76924407D01*
X181634075Y-76987993D01*
X181699901Y-77102007D01*
X181792993Y-77195099D01*
X181907007Y-77260925D01*
X181970591Y-77277962D01*
X181369971Y-77878581D01*
X181448711Y-77995895D01*
X181449920Y-77999729D01*
X181452844Y-78002491D01*
X181460343Y-78032778D01*
X181469727Y-78062529D01*
X181468671Y-78066408D01*
X181469638Y-78070312D01*
X181459573Y-78099844D01*
X181451383Y-78129947D01*
X181448397Y-78132640D01*
X181447100Y-78136447D01*
X181402051Y-78175483D01*
X181392440Y-78180380D01*
X181338282Y-78219727D01*
X181338282Y-78219728D01*
X181970591Y-78852037D01*
X181907007Y-78869075D01*
X181792993Y-78934901D01*
X181699901Y-79027993D01*
X181634075Y-79142007D01*
X181617037Y-79205591D01*
X180984728Y-78573282D01*
X180984727Y-78573282D01*
X180945380Y-78627439D01*
X180848904Y-78816782D01*
X180783242Y-79018869D01*
X180783242Y-79018872D01*
X180750000Y-79228753D01*
X180750000Y-79441246D01*
X180783242Y-79651127D01*
X180783242Y-79651130D01*
X180848904Y-79853217D01*
X180945375Y-80042550D01*
X180984728Y-80096716D01*
X181617037Y-79464408D01*
X181634075Y-79527993D01*
X181699901Y-79642007D01*
X181792993Y-79735099D01*
X181907007Y-79800925D01*
X181970590Y-79817962D01*
X181338282Y-80450269D01*
X181338282Y-80450270D01*
X181392449Y-80489624D01*
X181581782Y-80586095D01*
X181757973Y-80643343D01*
X181815648Y-80682780D01*
X181842847Y-80747139D01*
X181830932Y-80815985D01*
X181783688Y-80867461D01*
X181767108Y-80875835D01*
X181602403Y-80944057D01*
X181430342Y-81059024D01*
X181284024Y-81205342D01*
X181169058Y-81377403D01*
X181119125Y-81497953D01*
X181075284Y-81552356D01*
X181008990Y-81574421D01*
X181004564Y-81574500D01*
X180650438Y-81574500D01*
X180574010Y-81594978D01*
X180505489Y-81634540D01*
X180505486Y-81634542D01*
X179809541Y-82330487D01*
X179809535Y-82330495D01*
X179769982Y-82399004D01*
X179769979Y-82399009D01*
X179749500Y-82475439D01*
X179749500Y-87339166D01*
X179729815Y-87406205D01*
X179713181Y-87426847D01*
X179474813Y-87665215D01*
X179413490Y-87698700D01*
X179343798Y-87693716D01*
X179299451Y-87665215D01*
X179268717Y-87634481D01*
X179268709Y-87634475D01*
X179131790Y-87555426D01*
X179131786Y-87555424D01*
X179131784Y-87555423D01*
X178979057Y-87514500D01*
X178820943Y-87514500D01*
X178668216Y-87555423D01*
X178668209Y-87555426D01*
X178531290Y-87634475D01*
X178531282Y-87634481D01*
X178419481Y-87746282D01*
X178419475Y-87746290D01*
X178340422Y-87883215D01*
X178339060Y-87886505D01*
X178337167Y-87888852D01*
X178336359Y-87890254D01*
X178336140Y-87890127D01*
X178295219Y-87940908D01*
X178228924Y-87962972D01*
X178161225Y-87945692D01*
X178113615Y-87894554D01*
X178100500Y-87839051D01*
X178100500Y-76240833D01*
X178120185Y-76173794D01*
X178136819Y-76153152D01*
X178438152Y-75851819D01*
X178499475Y-75818334D01*
X178525833Y-75815500D01*
X180899593Y-75815500D01*
X180966632Y-75835185D01*
G37*
%TD.AperFunction*%
%TA.AperFunction,Conductor*%
G36*
X138018834Y-79509313D02*
G01*
X138074767Y-79551185D01*
X138097584Y-79603778D01*
X138099500Y-79614549D01*
X138099500Y-79704562D01*
X138119979Y-79780989D01*
X138122283Y-79784979D01*
X138133171Y-79803839D01*
X138133172Y-79803840D01*
X138159537Y-79849507D01*
X138159539Y-79849510D01*
X138159540Y-79849511D01*
X138559540Y-80249511D01*
X138615489Y-80305460D01*
X138615491Y-80305461D01*
X138615495Y-80305464D01*
X138678174Y-80341651D01*
X138684011Y-80345021D01*
X138760438Y-80365500D01*
X138977692Y-80365500D01*
X139044731Y-80385185D01*
X139065373Y-80401819D01*
X139535591Y-80872037D01*
X139472007Y-80889075D01*
X139357993Y-80954901D01*
X139264901Y-81047993D01*
X139199075Y-81162007D01*
X139182037Y-81225591D01*
X138549728Y-80593282D01*
X138549727Y-80593282D01*
X138510380Y-80647440D01*
X138505483Y-80657051D01*
X138457506Y-80707845D01*
X138389684Y-80724638D01*
X138323550Y-80702098D01*
X138284516Y-80657048D01*
X138279626Y-80647452D01*
X138240270Y-80593282D01*
X138240269Y-80593282D01*
X137607962Y-81225590D01*
X137590925Y-81162007D01*
X137525099Y-81047993D01*
X137432007Y-80954901D01*
X137317993Y-80889075D01*
X137254409Y-80872037D01*
X137886716Y-80239728D01*
X137832550Y-80200375D01*
X137643216Y-80103904D01*
X137467026Y-80046656D01*
X137409350Y-80007218D01*
X137382152Y-79942860D01*
X137394067Y-79874013D01*
X137441311Y-79822538D01*
X137457882Y-79814168D01*
X137622598Y-79745941D01*
X137794655Y-79630977D01*
X137821854Y-79603778D01*
X137887819Y-79537814D01*
X137949142Y-79504329D01*
X138018834Y-79509313D01*
G37*
%TD.AperFunction*%
%TA.AperFunction,Conductor*%
G36*
X182629418Y-62055616D02*
G01*
X182857341Y-62071916D01*
X182874842Y-62074433D01*
X183093788Y-62122062D01*
X183110754Y-62127043D01*
X183320700Y-62205348D01*
X183336783Y-62212694D01*
X183533441Y-62320077D01*
X183548324Y-62329642D01*
X183727693Y-62463916D01*
X183741064Y-62475502D01*
X183899497Y-62633935D01*
X183911083Y-62647306D01*
X184045357Y-62826675D01*
X184054922Y-62841558D01*
X184162303Y-63038211D01*
X184169653Y-63054305D01*
X184247954Y-63264240D01*
X184252938Y-63281215D01*
X184300565Y-63500151D01*
X184303083Y-63517663D01*
X184319384Y-63745581D01*
X184319700Y-63754427D01*
X184319700Y-119745572D01*
X184319384Y-119754418D01*
X184303083Y-119982336D01*
X184300565Y-119999848D01*
X184252938Y-120218784D01*
X184247954Y-120235759D01*
X184169653Y-120445694D01*
X184162303Y-120461788D01*
X184054922Y-120658441D01*
X184045357Y-120673324D01*
X183911083Y-120852693D01*
X183899497Y-120866064D01*
X183741064Y-121024497D01*
X183727693Y-121036083D01*
X183548324Y-121170357D01*
X183533441Y-121179922D01*
X183336788Y-121287303D01*
X183320694Y-121294653D01*
X183110759Y-121372954D01*
X183093784Y-121377938D01*
X182874848Y-121425565D01*
X182857336Y-121428083D01*
X182629418Y-121444384D01*
X182620572Y-121444700D01*
X132624428Y-121444700D01*
X132615582Y-121444384D01*
X132387663Y-121428083D01*
X132370151Y-121425565D01*
X132151215Y-121377938D01*
X132134240Y-121372954D01*
X131924305Y-121294653D01*
X131908211Y-121287303D01*
X131711558Y-121179922D01*
X131696675Y-121170357D01*
X131517306Y-121036083D01*
X131503935Y-121024497D01*
X131345502Y-120866064D01*
X131333916Y-120852693D01*
X131199642Y-120673324D01*
X131190077Y-120658441D01*
X131082696Y-120461788D01*
X131075348Y-120445700D01*
X130997043Y-120235754D01*
X130992061Y-120218784D01*
X130991009Y-120213947D01*
X130944433Y-119999842D01*
X130941916Y-119982336D01*
X130925616Y-119754418D01*
X130925300Y-119745572D01*
X130925300Y-118830126D01*
X136364700Y-118830126D01*
X136364700Y-119079873D01*
X136364701Y-119079890D01*
X136397299Y-119327499D01*
X136461943Y-119568753D01*
X136557517Y-119799492D01*
X136557525Y-119799508D01*
X136682397Y-120015791D01*
X136682408Y-120015807D01*
X136834444Y-120213945D01*
X136834450Y-120213952D01*
X137011047Y-120390549D01*
X137011053Y-120390554D01*
X137209201Y-120542598D01*
X137209208Y-120542602D01*
X137425491Y-120667474D01*
X137425507Y-120667482D01*
X137549991Y-120719044D01*
X137656247Y-120763057D01*
X137897497Y-120827700D01*
X138145120Y-120860300D01*
X138145127Y-120860300D01*
X138394873Y-120860300D01*
X138394880Y-120860300D01*
X138642503Y-120827700D01*
X138883753Y-120763057D01*
X139100388Y-120673324D01*
X139114492Y-120667482D01*
X139114495Y-120667480D01*
X139114501Y-120667478D01*
X139330799Y-120542598D01*
X139528947Y-120390554D01*
X139705554Y-120213947D01*
X139857598Y-120015799D01*
X139982478Y-119799501D01*
X140078057Y-119568753D01*
X140142700Y-119327503D01*
X140175300Y-119079880D01*
X140175300Y-118830120D01*
X140142700Y-118582497D01*
X140078057Y-118341247D01*
X140034044Y-118234991D01*
X139982482Y-118110507D01*
X139982474Y-118110491D01*
X139857602Y-117894208D01*
X139857598Y-117894201D01*
X139705554Y-117696053D01*
X139705549Y-117696047D01*
X139528952Y-117519450D01*
X139528945Y-117519444D01*
X139330807Y-117367408D01*
X139330805Y-117367406D01*
X139330799Y-117367402D01*
X139330794Y-117367399D01*
X139330791Y-117367397D01*
X139114508Y-117242525D01*
X139114492Y-117242517D01*
X138883753Y-117146943D01*
X138691855Y-117095524D01*
X138642503Y-117082300D01*
X138642502Y-117082299D01*
X138642499Y-117082299D01*
X138394890Y-117049701D01*
X138394885Y-117049700D01*
X138394880Y-117049700D01*
X138145120Y-117049700D01*
X138145114Y-117049700D01*
X138145109Y-117049701D01*
X137897500Y-117082299D01*
X137656246Y-117146943D01*
X137425507Y-117242517D01*
X137425491Y-117242525D01*
X137209208Y-117367397D01*
X137209192Y-117367408D01*
X137011054Y-117519444D01*
X137011047Y-117519450D01*
X136834450Y-117696047D01*
X136834444Y-117696054D01*
X136682408Y-117894192D01*
X136682397Y-117894208D01*
X136557525Y-118110491D01*
X136557517Y-118110507D01*
X136461943Y-118341246D01*
X136397299Y-118582500D01*
X136364701Y-118830109D01*
X136364700Y-118830126D01*
X130925300Y-118830126D01*
X130925300Y-115545247D01*
X132139500Y-115545247D01*
X132139500Y-117284752D01*
X132151131Y-117343229D01*
X132151132Y-117343230D01*
X132195447Y-117409552D01*
X132261769Y-117453867D01*
X132261770Y-117453868D01*
X132320247Y-117465499D01*
X132320250Y-117465500D01*
X132320252Y-117465500D01*
X134059750Y-117465500D01*
X134059751Y-117465499D01*
X134074568Y-117462552D01*
X134118229Y-117453868D01*
X134118229Y-117453867D01*
X134118231Y-117453867D01*
X134184552Y-117409552D01*
X134228867Y-117343231D01*
X134228867Y-117343229D01*
X134228868Y-117343229D01*
X134240499Y-117284752D01*
X134240500Y-117284750D01*
X134240500Y-116128231D01*
X154449500Y-116128231D01*
X154449500Y-118536758D01*
X154452354Y-118567198D01*
X154452354Y-118567199D01*
X154497206Y-118695381D01*
X154497207Y-118695382D01*
X154577850Y-118804650D01*
X154687118Y-118885293D01*
X154815302Y-118930146D01*
X154815301Y-118930146D01*
X154819271Y-118930518D01*
X154845735Y-118933000D01*
X157254264Y-118932999D01*
X157284698Y-118930146D01*
X157412882Y-118885293D01*
X157522150Y-118804650D01*
X157602793Y-118695382D01*
X157647646Y-118567198D01*
X157650500Y-118536765D01*
X157650499Y-117206538D01*
X159449500Y-117206538D01*
X159449500Y-117458461D01*
X159488910Y-117707285D01*
X159566760Y-117946883D01*
X159645413Y-118101247D01*
X159650127Y-118110499D01*
X159681132Y-118171348D01*
X159829201Y-118375149D01*
X159829205Y-118375154D01*
X160007345Y-118553294D01*
X160007350Y-118553298D01*
X160185117Y-118682452D01*
X160211155Y-118701370D01*
X160354184Y-118774247D01*
X160435616Y-118815739D01*
X160435618Y-118815739D01*
X160435621Y-118815741D01*
X160675215Y-118893590D01*
X160924038Y-118933000D01*
X160924039Y-118933000D01*
X161175961Y-118933000D01*
X161175962Y-118933000D01*
X161424785Y-118893590D01*
X161620107Y-118830126D01*
X164264700Y-118830126D01*
X164264700Y-119079873D01*
X164264701Y-119079890D01*
X164297299Y-119327499D01*
X164361943Y-119568753D01*
X164457517Y-119799492D01*
X164457525Y-119799508D01*
X164582397Y-120015791D01*
X164582408Y-120015807D01*
X164734444Y-120213945D01*
X164734450Y-120213952D01*
X164911047Y-120390549D01*
X164911053Y-120390554D01*
X165109201Y-120542598D01*
X165109208Y-120542602D01*
X165325491Y-120667474D01*
X165325507Y-120667482D01*
X165449991Y-120719044D01*
X165556247Y-120763057D01*
X165797497Y-120827700D01*
X166045120Y-120860300D01*
X166045127Y-120860300D01*
X166294873Y-120860300D01*
X166294880Y-120860300D01*
X166542503Y-120827700D01*
X166783753Y-120763057D01*
X167000388Y-120673324D01*
X167014492Y-120667482D01*
X167014495Y-120667480D01*
X167014501Y-120667478D01*
X167230799Y-120542598D01*
X167428947Y-120390554D01*
X167605554Y-120213947D01*
X167757598Y-120015799D01*
X167882478Y-119799501D01*
X167978057Y-119568753D01*
X168042700Y-119327503D01*
X168075300Y-119079880D01*
X168075300Y-118830120D01*
X168042700Y-118582497D01*
X167978057Y-118341247D01*
X167934044Y-118234991D01*
X167882482Y-118110507D01*
X167882474Y-118110491D01*
X167757602Y-117894208D01*
X167757598Y-117894201D01*
X167605554Y-117696053D01*
X167605549Y-117696047D01*
X167428952Y-117519450D01*
X167428945Y-117519444D01*
X167230807Y-117367408D01*
X167230805Y-117367406D01*
X167230799Y-117367402D01*
X167230794Y-117367399D01*
X167230791Y-117367397D01*
X167014508Y-117242525D01*
X167014492Y-117242517D01*
X166783753Y-117146943D01*
X166591855Y-117095524D01*
X166542503Y-117082300D01*
X166542502Y-117082299D01*
X166542499Y-117082299D01*
X166294890Y-117049701D01*
X166294885Y-117049700D01*
X166294880Y-117049700D01*
X166045120Y-117049700D01*
X166045114Y-117049700D01*
X166045109Y-117049701D01*
X165797500Y-117082299D01*
X165556246Y-117146943D01*
X165325507Y-117242517D01*
X165325491Y-117242525D01*
X165109208Y-117367397D01*
X165109192Y-117367408D01*
X164911054Y-117519444D01*
X164911047Y-117519450D01*
X164734450Y-117696047D01*
X164734444Y-117696054D01*
X164582408Y-117894192D01*
X164582397Y-117894208D01*
X164457525Y-118110491D01*
X164457517Y-118110507D01*
X164361943Y-118341246D01*
X164297299Y-118582500D01*
X164264701Y-118830109D01*
X164264700Y-118830126D01*
X161620107Y-118830126D01*
X161664379Y-118815741D01*
X161888845Y-118701370D01*
X162092656Y-118553293D01*
X162270793Y-118375156D01*
X162418870Y-118171345D01*
X162533241Y-117946879D01*
X162611090Y-117707285D01*
X162650500Y-117458462D01*
X162650500Y-117206538D01*
X162611090Y-116957715D01*
X162533241Y-116718121D01*
X162533239Y-116718118D01*
X162533239Y-116718116D01*
X162491747Y-116636684D01*
X162418870Y-116493655D01*
X162338632Y-116383216D01*
X162270798Y-116289850D01*
X162270794Y-116289845D01*
X162092654Y-116111705D01*
X162092649Y-116111701D01*
X161888848Y-115963632D01*
X161888847Y-115963631D01*
X161888845Y-115963630D01*
X161818747Y-115927913D01*
X161664383Y-115849260D01*
X161424785Y-115771410D01*
X161175962Y-115732000D01*
X160924038Y-115732000D01*
X160799626Y-115751705D01*
X160675214Y-115771410D01*
X160435616Y-115849260D01*
X160211151Y-115963632D01*
X160007350Y-116111701D01*
X160007345Y-116111705D01*
X159829205Y-116289845D01*
X159829201Y-116289850D01*
X159681132Y-116493651D01*
X159566760Y-116718116D01*
X159488910Y-116957714D01*
X159449500Y-117206538D01*
X157650499Y-117206538D01*
X157650499Y-116128236D01*
X157647646Y-116097802D01*
X157602793Y-115969618D01*
X157522150Y-115860350D01*
X157412882Y-115779707D01*
X157412881Y-115779706D01*
X157284695Y-115734853D01*
X157284698Y-115734853D01*
X157254268Y-115732000D01*
X154845741Y-115732000D01*
X154815301Y-115734854D01*
X154815300Y-115734854D01*
X154687118Y-115779706D01*
X154577850Y-115860350D01*
X154497206Y-115969618D01*
X154452353Y-116097802D01*
X154449500Y-116128231D01*
X134240500Y-116128231D01*
X134240500Y-115545249D01*
X134240499Y-115545247D01*
X134228868Y-115486770D01*
X134228867Y-115486769D01*
X134184552Y-115420447D01*
X134118230Y-115376132D01*
X134118229Y-115376131D01*
X134059752Y-115364500D01*
X134059748Y-115364500D01*
X132320252Y-115364500D01*
X132320247Y-115364500D01*
X132261770Y-115376131D01*
X132261769Y-115376132D01*
X132195447Y-115420447D01*
X132151132Y-115486769D01*
X132151131Y-115486770D01*
X132139500Y-115545247D01*
X130925300Y-115545247D01*
X130925300Y-113771530D01*
X132139500Y-113771530D01*
X132139500Y-113978469D01*
X132179868Y-114181412D01*
X132179870Y-114181420D01*
X132259059Y-114372598D01*
X132296198Y-114428181D01*
X132374024Y-114544657D01*
X132520342Y-114690975D01*
X132520345Y-114690977D01*
X132692402Y-114805941D01*
X132883580Y-114885130D01*
X133086530Y-114925499D01*
X133086534Y-114925500D01*
X133086535Y-114925500D01*
X133293466Y-114925500D01*
X133293467Y-114925499D01*
X133496420Y-114885130D01*
X133687598Y-114805941D01*
X133859655Y-114690977D01*
X134005977Y-114544655D01*
X134120941Y-114372598D01*
X134200130Y-114181420D01*
X134240500Y-113978465D01*
X134240500Y-113771535D01*
X134200130Y-113568580D01*
X134120941Y-113377402D01*
X134005977Y-113205345D01*
X134005975Y-113205342D01*
X133859656Y-113059023D01*
X133855011Y-113055920D01*
X133855009Y-113055918D01*
X133712868Y-112960943D01*
X166224500Y-112960943D01*
X166224500Y-113119056D01*
X166265423Y-113271783D01*
X166265426Y-113271790D01*
X166344475Y-113408709D01*
X166344481Y-113408717D01*
X166438181Y-113502417D01*
X166471666Y-113563740D01*
X166474500Y-113590098D01*
X166474500Y-114336144D01*
X166484268Y-114372596D01*
X166498386Y-114425287D01*
X166498387Y-114425290D01*
X166544527Y-114505208D01*
X166544529Y-114505211D01*
X166544530Y-114505212D01*
X167134788Y-115095470D01*
X167214712Y-115141614D01*
X167303856Y-115165500D01*
X168653456Y-115165500D01*
X168720495Y-115185185D01*
X168741137Y-115201819D01*
X169313181Y-115773863D01*
X169327884Y-115800790D01*
X169344477Y-115826609D01*
X169345368Y-115832809D01*
X169346666Y-115835186D01*
X169349500Y-115861544D01*
X169349500Y-116064902D01*
X169329815Y-116131941D01*
X169313181Y-116152583D01*
X169219481Y-116246282D01*
X169219475Y-116246290D01*
X169140426Y-116383209D01*
X169140423Y-116383216D01*
X169099500Y-116535943D01*
X169099500Y-116694056D01*
X169140423Y-116846783D01*
X169140426Y-116846790D01*
X169219475Y-116983709D01*
X169219479Y-116983714D01*
X169219480Y-116983716D01*
X169331284Y-117095520D01*
X169331286Y-117095521D01*
X169331290Y-117095524D01*
X169420352Y-117146943D01*
X169468216Y-117174577D01*
X169620943Y-117215500D01*
X169620945Y-117215500D01*
X169779055Y-117215500D01*
X169779057Y-117215500D01*
X169931784Y-117174577D01*
X170068716Y-117095520D01*
X170180520Y-116983716D01*
X170259577Y-116846784D01*
X170300500Y-116694057D01*
X170300500Y-116535943D01*
X170259577Y-116383216D01*
X170205670Y-116289845D01*
X170180524Y-116246290D01*
X170180518Y-116246282D01*
X170086819Y-116152583D01*
X170053334Y-116091260D01*
X170050500Y-116064902D01*
X170050500Y-115618858D01*
X170050500Y-115618856D01*
X170030777Y-115545247D01*
X181049500Y-115545247D01*
X181049500Y-117284752D01*
X181061131Y-117343229D01*
X181061132Y-117343230D01*
X181105447Y-117409552D01*
X181171769Y-117453867D01*
X181171770Y-117453868D01*
X181230247Y-117465499D01*
X181230250Y-117465500D01*
X181230252Y-117465500D01*
X182969750Y-117465500D01*
X182969751Y-117465499D01*
X182984568Y-117462552D01*
X183028229Y-117453868D01*
X183028229Y-117453867D01*
X183028231Y-117453867D01*
X183094552Y-117409552D01*
X183138867Y-117343231D01*
X183138867Y-117343229D01*
X183138868Y-117343229D01*
X183150499Y-117284752D01*
X183150500Y-117284750D01*
X183150500Y-115545249D01*
X183150499Y-115545247D01*
X183138868Y-115486770D01*
X183138867Y-115486769D01*
X183094552Y-115420447D01*
X183028230Y-115376132D01*
X183028229Y-115376131D01*
X182969752Y-115364500D01*
X182969748Y-115364500D01*
X181230252Y-115364500D01*
X181230247Y-115364500D01*
X181171770Y-115376131D01*
X181171769Y-115376132D01*
X181105447Y-115420447D01*
X181061132Y-115486769D01*
X181061131Y-115486770D01*
X181049500Y-115545247D01*
X170030777Y-115545247D01*
X170026614Y-115529712D01*
X169980470Y-115449788D01*
X169065212Y-114534530D01*
X169065211Y-114534529D01*
X169065208Y-114534527D01*
X168985290Y-114488387D01*
X168985289Y-114488386D01*
X168985288Y-114488386D01*
X168896144Y-114464500D01*
X168896143Y-114464500D01*
X167546544Y-114464500D01*
X167479505Y-114444815D01*
X167458863Y-114428181D01*
X167211819Y-114181137D01*
X167178334Y-114119814D01*
X167175500Y-114093456D01*
X167175500Y-113771530D01*
X181049500Y-113771530D01*
X181049500Y-113978469D01*
X181089868Y-114181412D01*
X181089870Y-114181420D01*
X181169059Y-114372598D01*
X181206198Y-114428181D01*
X181284024Y-114544657D01*
X181430342Y-114690975D01*
X181430345Y-114690977D01*
X181602402Y-114805941D01*
X181793580Y-114885130D01*
X181996530Y-114925499D01*
X181996534Y-114925500D01*
X181996535Y-114925500D01*
X182203466Y-114925500D01*
X182203467Y-114925499D01*
X182406420Y-114885130D01*
X182597598Y-114805941D01*
X182769655Y-114690977D01*
X182915977Y-114544655D01*
X183030941Y-114372598D01*
X183110130Y-114181420D01*
X183150500Y-113978465D01*
X183150500Y-113771535D01*
X183110130Y-113568580D01*
X183030941Y-113377402D01*
X182915977Y-113205345D01*
X182915975Y-113205342D01*
X182769657Y-113059024D01*
X182622867Y-112960943D01*
X182597598Y-112944059D01*
X182406420Y-112864870D01*
X182406412Y-112864868D01*
X182203469Y-112824500D01*
X182203465Y-112824500D01*
X181996535Y-112824500D01*
X181996530Y-112824500D01*
X181793587Y-112864868D01*
X181793579Y-112864870D01*
X181602403Y-112944058D01*
X181430342Y-113059024D01*
X181284024Y-113205342D01*
X181169058Y-113377403D01*
X181089870Y-113568579D01*
X181089868Y-113568587D01*
X181049500Y-113771530D01*
X167175500Y-113771530D01*
X167175500Y-113590098D01*
X167195185Y-113523059D01*
X167211819Y-113502417D01*
X167305520Y-113408716D01*
X167384577Y-113271784D01*
X167425500Y-113119057D01*
X167425500Y-112960943D01*
X167384577Y-112808216D01*
X167384573Y-112808209D01*
X167305524Y-112671290D01*
X167305518Y-112671282D01*
X167193717Y-112559481D01*
X167193709Y-112559475D01*
X167056790Y-112480426D01*
X167056786Y-112480424D01*
X167056784Y-112480423D01*
X166904057Y-112439500D01*
X166745943Y-112439500D01*
X166593216Y-112480423D01*
X166593209Y-112480426D01*
X166456290Y-112559475D01*
X166456282Y-112559481D01*
X166344481Y-112671282D01*
X166344475Y-112671290D01*
X166265426Y-112808209D01*
X166265423Y-112808216D01*
X166224500Y-112960943D01*
X133712868Y-112960943D01*
X133687599Y-112944059D01*
X133496420Y-112864870D01*
X133496412Y-112864868D01*
X133293469Y-112824500D01*
X133293465Y-112824500D01*
X133086535Y-112824500D01*
X133086530Y-112824500D01*
X132883587Y-112864868D01*
X132883579Y-112864870D01*
X132692403Y-112944058D01*
X132520342Y-113059024D01*
X132374024Y-113205342D01*
X132259058Y-113377403D01*
X132179870Y-113568579D01*
X132179868Y-113568587D01*
X132139500Y-113771530D01*
X130925300Y-113771530D01*
X130925300Y-111231530D01*
X132139500Y-111231530D01*
X132139500Y-111438469D01*
X132179868Y-111641412D01*
X132179870Y-111641420D01*
X132259058Y-111832596D01*
X132374024Y-112004657D01*
X132520342Y-112150975D01*
X132520345Y-112150977D01*
X132692402Y-112265941D01*
X132883580Y-112345130D01*
X133086530Y-112385499D01*
X133086534Y-112385500D01*
X133086535Y-112385500D01*
X133293466Y-112385500D01*
X133293467Y-112385499D01*
X133496420Y-112345130D01*
X133687598Y-112265941D01*
X133859655Y-112150977D01*
X134005977Y-112004655D01*
X134120941Y-111832598D01*
X134200130Y-111641420D01*
X134240500Y-111438465D01*
X134240500Y-111231535D01*
X134200130Y-111028580D01*
X134120941Y-110837402D01*
X134005977Y-110665345D01*
X134005975Y-110665342D01*
X133859657Y-110519024D01*
X133773626Y-110461541D01*
X133687598Y-110404059D01*
X133496420Y-110324870D01*
X133496412Y-110324868D01*
X133293469Y-110284500D01*
X133293465Y-110284500D01*
X133086535Y-110284500D01*
X133086530Y-110284500D01*
X132883587Y-110324868D01*
X132883579Y-110324870D01*
X132692403Y-110404058D01*
X132520342Y-110519024D01*
X132374024Y-110665342D01*
X132259058Y-110837403D01*
X132179870Y-111028579D01*
X132179868Y-111028587D01*
X132139500Y-111231530D01*
X130925300Y-111231530D01*
X130925300Y-108691530D01*
X132139500Y-108691530D01*
X132139500Y-108898469D01*
X132179868Y-109101412D01*
X132179870Y-109101420D01*
X132259058Y-109292596D01*
X132374024Y-109464657D01*
X132520342Y-109610975D01*
X132520345Y-109610977D01*
X132692402Y-109725941D01*
X132883580Y-109805130D01*
X133086530Y-109845499D01*
X133086534Y-109845500D01*
X133086535Y-109845500D01*
X133293466Y-109845500D01*
X133293467Y-109845499D01*
X133496420Y-109805130D01*
X133687598Y-109725941D01*
X133859655Y-109610977D01*
X134005977Y-109464655D01*
X134120941Y-109292598D01*
X134200130Y-109101420D01*
X134240500Y-108898465D01*
X134240500Y-108691535D01*
X134200130Y-108488580D01*
X134120941Y-108297402D01*
X134005977Y-108125345D01*
X134005975Y-108125342D01*
X133859657Y-107979024D01*
X133773626Y-107921541D01*
X133687598Y-107864059D01*
X133496420Y-107784870D01*
X133496412Y-107784868D01*
X133293469Y-107744500D01*
X133293465Y-107744500D01*
X133086535Y-107744500D01*
X133086530Y-107744500D01*
X132883587Y-107784868D01*
X132883579Y-107784870D01*
X132692403Y-107864058D01*
X132520342Y-107979024D01*
X132374024Y-108125342D01*
X132259058Y-108297403D01*
X132179870Y-108488579D01*
X132179868Y-108488587D01*
X132139500Y-108691530D01*
X130925300Y-108691530D01*
X130925300Y-106151530D01*
X132139500Y-106151530D01*
X132139500Y-106358469D01*
X132179868Y-106561412D01*
X132179870Y-106561420D01*
X132259058Y-106752596D01*
X132374024Y-106924657D01*
X132520342Y-107070975D01*
X132520345Y-107070977D01*
X132692402Y-107185941D01*
X132883580Y-107265130D01*
X133086530Y-107305499D01*
X133086534Y-107305500D01*
X133086535Y-107305500D01*
X133293466Y-107305500D01*
X133293467Y-107305499D01*
X133496420Y-107265130D01*
X133687598Y-107185941D01*
X133859655Y-107070977D01*
X134005977Y-106924655D01*
X134120941Y-106752598D01*
X134200130Y-106561420D01*
X134240500Y-106358465D01*
X134240500Y-106151535D01*
X134200130Y-105948580D01*
X134120941Y-105757402D01*
X134005977Y-105585345D01*
X134005975Y-105585342D01*
X133859657Y-105439024D01*
X133773626Y-105381541D01*
X133687598Y-105324059D01*
X133496420Y-105244870D01*
X133496412Y-105244868D01*
X133293469Y-105204500D01*
X133293465Y-105204500D01*
X133086535Y-105204500D01*
X133086530Y-105204500D01*
X132883587Y-105244868D01*
X132883579Y-105244870D01*
X132692403Y-105324058D01*
X132520342Y-105439024D01*
X132374024Y-105585342D01*
X132259058Y-105757403D01*
X132179870Y-105948579D01*
X132179868Y-105948587D01*
X132139500Y-106151530D01*
X130925300Y-106151530D01*
X130925300Y-103611530D01*
X132139500Y-103611530D01*
X132139500Y-103818469D01*
X132179868Y-104021412D01*
X132179870Y-104021420D01*
X132259058Y-104212596D01*
X132374024Y-104384657D01*
X132520342Y-104530975D01*
X132520345Y-104530977D01*
X132692402Y-104645941D01*
X132883580Y-104725130D01*
X133086530Y-104765499D01*
X133086534Y-104765500D01*
X133086535Y-104765500D01*
X133293466Y-104765500D01*
X133293467Y-104765499D01*
X133496420Y-104725130D01*
X133687598Y-104645941D01*
X133859655Y-104530977D01*
X134005977Y-104384655D01*
X134120941Y-104212598D01*
X134200130Y-104021420D01*
X134240500Y-103818465D01*
X134240500Y-103611535D01*
X134200130Y-103408580D01*
X134120941Y-103217402D01*
X134005977Y-103045345D01*
X134005975Y-103045342D01*
X133859657Y-102899024D01*
X133773626Y-102841541D01*
X133687598Y-102784059D01*
X133604175Y-102749504D01*
X133496420Y-102704870D01*
X133496412Y-102704868D01*
X133293469Y-102664500D01*
X133293465Y-102664500D01*
X133086535Y-102664500D01*
X133086530Y-102664500D01*
X132883587Y-102704868D01*
X132883579Y-102704870D01*
X132692403Y-102784058D01*
X132520342Y-102899024D01*
X132374024Y-103045342D01*
X132259058Y-103217403D01*
X132179870Y-103408579D01*
X132179868Y-103408587D01*
X132139500Y-103611530D01*
X130925300Y-103611530D01*
X130925300Y-93448753D01*
X131840000Y-93448753D01*
X131840000Y-93661246D01*
X131873242Y-93871127D01*
X131873242Y-93871130D01*
X131938904Y-94073217D01*
X132035375Y-94262550D01*
X132074728Y-94316716D01*
X132707037Y-93684408D01*
X132724075Y-93747993D01*
X132789901Y-93862007D01*
X132882993Y-93955099D01*
X132997007Y-94020925D01*
X133060591Y-94037962D01*
X132459971Y-94638581D01*
X132538711Y-94755895D01*
X132539920Y-94759729D01*
X132542844Y-94762491D01*
X132550343Y-94792778D01*
X132559727Y-94822529D01*
X132558671Y-94826408D01*
X132559638Y-94830312D01*
X132549573Y-94859844D01*
X132541383Y-94889947D01*
X132538397Y-94892640D01*
X132537100Y-94896447D01*
X132492051Y-94935483D01*
X132482440Y-94940380D01*
X132428282Y-94979727D01*
X132428282Y-94979728D01*
X133060591Y-95612037D01*
X132997007Y-95629075D01*
X132882993Y-95694901D01*
X132789901Y-95787993D01*
X132724075Y-95902007D01*
X132707037Y-95965591D01*
X132074728Y-95333282D01*
X132074727Y-95333282D01*
X132035380Y-95387439D01*
X131938904Y-95576782D01*
X131873242Y-95778869D01*
X131873242Y-95778872D01*
X131840000Y-95988753D01*
X131840000Y-96201246D01*
X131873242Y-96411127D01*
X131873242Y-96411130D01*
X131938904Y-96613217D01*
X132035375Y-96802550D01*
X132074728Y-96856716D01*
X132707037Y-96224408D01*
X132724075Y-96287993D01*
X132789901Y-96402007D01*
X132882993Y-96495099D01*
X132997007Y-96560925D01*
X133060590Y-96577962D01*
X132428282Y-97210269D01*
X132428282Y-97210270D01*
X132482449Y-97249624D01*
X132676121Y-97348306D01*
X132675603Y-97349321D01*
X132725808Y-97389779D01*
X132747873Y-97456073D01*
X132730594Y-97523772D01*
X132679458Y-97571383D01*
X132623952Y-97584500D01*
X132320247Y-97584500D01*
X132261770Y-97596131D01*
X132261769Y-97596132D01*
X132195447Y-97640447D01*
X132151132Y-97706769D01*
X132151131Y-97706770D01*
X132139500Y-97765247D01*
X132139500Y-99504752D01*
X132151131Y-99563229D01*
X132151132Y-99563230D01*
X132195447Y-99629552D01*
X132261769Y-99673867D01*
X132261770Y-99673868D01*
X132320247Y-99685499D01*
X132320250Y-99685500D01*
X132320252Y-99685500D01*
X132490500Y-99685500D01*
X132557539Y-99705185D01*
X132603294Y-99757989D01*
X132614500Y-99809500D01*
X132614500Y-100229234D01*
X132614500Y-100380766D01*
X132615291Y-100383717D01*
X132653719Y-100527136D01*
X132677797Y-100568839D01*
X132729485Y-100658365D01*
X133539485Y-101468365D01*
X133646635Y-101575515D01*
X133777865Y-101651281D01*
X133924234Y-101690500D01*
X137210258Y-101690500D01*
X137277297Y-101710185D01*
X137297939Y-101726819D01*
X144839485Y-109268365D01*
X144946635Y-109375515D01*
X145077865Y-109451281D01*
X145224234Y-109490500D01*
X151412815Y-109490500D01*
X151479854Y-109510185D01*
X151481705Y-109511398D01*
X151518187Y-109535774D01*
X151518190Y-109535776D01*
X151645667Y-109588578D01*
X151645672Y-109588580D01*
X151645676Y-109588580D01*
X151645677Y-109588581D01*
X151781004Y-109615500D01*
X151781007Y-109615500D01*
X151918995Y-109615500D01*
X152010041Y-109597389D01*
X152054328Y-109588580D01*
X152181811Y-109535775D01*
X152296542Y-109459114D01*
X152394114Y-109361542D01*
X152470775Y-109246811D01*
X152523580Y-109119328D01*
X152538361Y-109045020D01*
X152550500Y-108983995D01*
X152550500Y-108846004D01*
X152523581Y-108710677D01*
X152523580Y-108710676D01*
X152523580Y-108710672D01*
X152515651Y-108691530D01*
X152470778Y-108583195D01*
X152470771Y-108583182D01*
X152394114Y-108468458D01*
X152394111Y-108468454D01*
X152296545Y-108370888D01*
X152296541Y-108370885D01*
X152181817Y-108294228D01*
X152181804Y-108294221D01*
X152054332Y-108241421D01*
X152054322Y-108241418D01*
X151918995Y-108214500D01*
X151918993Y-108214500D01*
X151781007Y-108214500D01*
X151781005Y-108214500D01*
X151645677Y-108241418D01*
X151645667Y-108241421D01*
X151518190Y-108294223D01*
X151518187Y-108294225D01*
X151481705Y-108318602D01*
X151415028Y-108339480D01*
X151412815Y-108339500D01*
X145589742Y-108339500D01*
X145522703Y-108319815D01*
X145502061Y-108303181D01*
X137853367Y-100654487D01*
X137853365Y-100654485D01*
X137785840Y-100615499D01*
X137722136Y-100578719D01*
X137648950Y-100559109D01*
X137575766Y-100539500D01*
X137575765Y-100539500D01*
X134289742Y-100539500D01*
X134222703Y-100519815D01*
X134202061Y-100503181D01*
X133801819Y-100102939D01*
X133787115Y-100076011D01*
X133770523Y-100050193D01*
X133769631Y-100043992D01*
X133768334Y-100041616D01*
X133765500Y-100015258D01*
X133765500Y-99983995D01*
X155399499Y-99983995D01*
X155426418Y-100119322D01*
X155426421Y-100119332D01*
X155479222Y-100246806D01*
X155479223Y-100246807D01*
X155479225Y-100246811D01*
X155498353Y-100275438D01*
X155503602Y-100283293D01*
X155524480Y-100349970D01*
X155524500Y-100352184D01*
X155524500Y-102040765D01*
X155563719Y-102187136D01*
X155597427Y-102245518D01*
X155639485Y-102318365D01*
X157389485Y-104068365D01*
X157496635Y-104175515D01*
X157627865Y-104251281D01*
X157774234Y-104290500D01*
X164510258Y-104290500D01*
X164577297Y-104310185D01*
X164597939Y-104326819D01*
X165083923Y-104812803D01*
X165117408Y-104874126D01*
X165117859Y-104876292D01*
X165126418Y-104919322D01*
X165126421Y-104919332D01*
X165179221Y-105046804D01*
X165179228Y-105046817D01*
X165255885Y-105161541D01*
X165255888Y-105161545D01*
X165353454Y-105259111D01*
X165353458Y-105259114D01*
X165468182Y-105335771D01*
X165468195Y-105335778D01*
X165595667Y-105388578D01*
X165595672Y-105388580D01*
X165595676Y-105388580D01*
X165595677Y-105388581D01*
X165731004Y-105415500D01*
X165731007Y-105415500D01*
X165868995Y-105415500D01*
X165960041Y-105397389D01*
X166004328Y-105388580D01*
X166131811Y-105335775D01*
X166246542Y-105259114D01*
X166344114Y-105161542D01*
X166420775Y-105046811D01*
X166473580Y-104919328D01*
X166489479Y-104839401D01*
X166500500Y-104783995D01*
X166500500Y-104646004D01*
X166473581Y-104510677D01*
X166473580Y-104510676D01*
X166473580Y-104510672D01*
X166473578Y-104510667D01*
X166420778Y-104383195D01*
X166420771Y-104383182D01*
X166370258Y-104307584D01*
X166349380Y-104240906D01*
X166367865Y-104173526D01*
X166419843Y-104126836D01*
X166488813Y-104115660D01*
X166552877Y-104143546D01*
X166561041Y-104151012D01*
X173929540Y-111519511D01*
X173985489Y-111575460D01*
X173985491Y-111575461D01*
X173985495Y-111575464D01*
X174054004Y-111615017D01*
X174054011Y-111615021D01*
X174130438Y-111635500D01*
X181004564Y-111635500D01*
X181071603Y-111655185D01*
X181117358Y-111707989D01*
X181119125Y-111712047D01*
X181169058Y-111832596D01*
X181284024Y-112004657D01*
X181430342Y-112150975D01*
X181430345Y-112150977D01*
X181602402Y-112265941D01*
X181793580Y-112345130D01*
X181996530Y-112385499D01*
X181996534Y-112385500D01*
X181996535Y-112385500D01*
X182203466Y-112385500D01*
X182203467Y-112385499D01*
X182406420Y-112345130D01*
X182597598Y-112265941D01*
X182769655Y-112150977D01*
X182915977Y-112004655D01*
X183030941Y-111832598D01*
X183110130Y-111641420D01*
X183150500Y-111438465D01*
X183150500Y-111231535D01*
X183110130Y-111028580D01*
X183030941Y-110837402D01*
X182915977Y-110665345D01*
X182915975Y-110665342D01*
X182769657Y-110519024D01*
X182683626Y-110461541D01*
X182597598Y-110404059D01*
X182406420Y-110324870D01*
X182406412Y-110324868D01*
X182203469Y-110284500D01*
X182203465Y-110284500D01*
X181996535Y-110284500D01*
X181996530Y-110284500D01*
X181793587Y-110324868D01*
X181793579Y-110324870D01*
X181602403Y-110404058D01*
X181430342Y-110519024D01*
X181284024Y-110665342D01*
X181169058Y-110837403D01*
X181119125Y-110957953D01*
X181075284Y-111012356D01*
X181008990Y-111034421D01*
X181004564Y-111034500D01*
X174345833Y-111034500D01*
X174278794Y-111014815D01*
X174258152Y-110998181D01*
X172448736Y-109188765D01*
X172415251Y-109127442D01*
X172420235Y-109057750D01*
X172462107Y-109001817D01*
X172527571Y-108977400D01*
X172595844Y-108992252D01*
X172611907Y-109002711D01*
X172615494Y-109005464D01*
X172684004Y-109045017D01*
X172684011Y-109045021D01*
X172760438Y-109065500D01*
X172839562Y-109065500D01*
X180992137Y-109065500D01*
X181059176Y-109085185D01*
X181104931Y-109137989D01*
X181106698Y-109142047D01*
X181169057Y-109292596D01*
X181284024Y-109464657D01*
X181430342Y-109610975D01*
X181430345Y-109610977D01*
X181602402Y-109725941D01*
X181793580Y-109805130D01*
X181996530Y-109845499D01*
X181996534Y-109845500D01*
X181996535Y-109845500D01*
X182203466Y-109845500D01*
X182203467Y-109845499D01*
X182406420Y-109805130D01*
X182597598Y-109725941D01*
X182769655Y-109610977D01*
X182915977Y-109464655D01*
X183030941Y-109292598D01*
X183110130Y-109101420D01*
X183150500Y-108898465D01*
X183150500Y-108691535D01*
X183110130Y-108488580D01*
X183030941Y-108297402D01*
X182915977Y-108125345D01*
X182915975Y-108125342D01*
X182769657Y-107979024D01*
X182683626Y-107921541D01*
X182597598Y-107864059D01*
X182406420Y-107784870D01*
X182406412Y-107784868D01*
X182203469Y-107744500D01*
X182203465Y-107744500D01*
X181996535Y-107744500D01*
X181996530Y-107744500D01*
X181793587Y-107784868D01*
X181793579Y-107784870D01*
X181602403Y-107864058D01*
X181430342Y-107979024D01*
X181284024Y-108125342D01*
X181169057Y-108297404D01*
X181131551Y-108387953D01*
X181087710Y-108442356D01*
X181021415Y-108464421D01*
X181016990Y-108464500D01*
X172975833Y-108464500D01*
X172908794Y-108444815D01*
X172888152Y-108428181D01*
X162630735Y-98170764D01*
X162597250Y-98109441D01*
X162598642Y-98050987D01*
X162600500Y-98044057D01*
X162600500Y-97885943D01*
X162559577Y-97733216D01*
X162531847Y-97685185D01*
X162480524Y-97596290D01*
X162480518Y-97596282D01*
X162368717Y-97484481D01*
X162368709Y-97484475D01*
X162231790Y-97405426D01*
X162231786Y-97405424D01*
X162231784Y-97405423D01*
X162079057Y-97364500D01*
X161920943Y-97364500D01*
X161904163Y-97368996D01*
X161834313Y-97367331D01*
X161776452Y-97328167D01*
X161748950Y-97263938D01*
X161757514Y-97201762D01*
X161759571Y-97196794D01*
X161759577Y-97196784D01*
X161800500Y-97044057D01*
X161800500Y-96885943D01*
X161759577Y-96733216D01*
X161758788Y-96731849D01*
X161680524Y-96596290D01*
X161680518Y-96596282D01*
X161568717Y-96484481D01*
X161568709Y-96484475D01*
X161431790Y-96405426D01*
X161431786Y-96405424D01*
X161431784Y-96405423D01*
X161279057Y-96364500D01*
X161120943Y-96364500D01*
X160968216Y-96405423D01*
X160968209Y-96405426D01*
X160831290Y-96484475D01*
X160831282Y-96484481D01*
X160719481Y-96596282D01*
X160719475Y-96596290D01*
X160640426Y-96733209D01*
X160640423Y-96733216D01*
X160599500Y-96885943D01*
X160599500Y-97044057D01*
X160604219Y-97061666D01*
X160640423Y-97196783D01*
X160640426Y-97196790D01*
X160719475Y-97333709D01*
X160719481Y-97333717D01*
X160831284Y-97445520D01*
X160837499Y-97449108D01*
X160885715Y-97499675D01*
X160899500Y-97556496D01*
X160899500Y-98404562D01*
X160910785Y-98446676D01*
X160919979Y-98480989D01*
X160919981Y-98480994D01*
X160949161Y-98531534D01*
X160949163Y-98531536D01*
X160959542Y-98549514D01*
X160959543Y-98549515D01*
X166363987Y-103953958D01*
X166397472Y-104015281D01*
X166392488Y-104084973D01*
X166350616Y-104140906D01*
X166285152Y-104165323D01*
X166216879Y-104150471D01*
X166207416Y-104144741D01*
X166131822Y-104094231D01*
X166131804Y-104094221D01*
X166004332Y-104041421D01*
X166004322Y-104041418D01*
X165961292Y-104032859D01*
X165899381Y-104000474D01*
X165897803Y-103998923D01*
X165153367Y-103254487D01*
X165153365Y-103254485D01*
X165087750Y-103216602D01*
X165022136Y-103178719D01*
X164948950Y-103159109D01*
X164875766Y-103139500D01*
X164875765Y-103139500D01*
X158139742Y-103139500D01*
X158072703Y-103119815D01*
X158052061Y-103103181D01*
X156711819Y-101762939D01*
X156678334Y-101701616D01*
X156675500Y-101675258D01*
X156675500Y-100352184D01*
X156695185Y-100285145D01*
X156696398Y-100283293D01*
X156701646Y-100275439D01*
X156720775Y-100246811D01*
X156773580Y-100119328D01*
X156787332Y-100050193D01*
X156800500Y-99983995D01*
X156800500Y-99846004D01*
X156773581Y-99710677D01*
X156773580Y-99710676D01*
X156773580Y-99710672D01*
X156765295Y-99690671D01*
X156720778Y-99583195D01*
X156720771Y-99583182D01*
X156644114Y-99468458D01*
X156644111Y-99468454D01*
X156546545Y-99370888D01*
X156546541Y-99370885D01*
X156431817Y-99294228D01*
X156431804Y-99294221D01*
X156304332Y-99241421D01*
X156304322Y-99241418D01*
X156168995Y-99214500D01*
X156168993Y-99214500D01*
X156031007Y-99214500D01*
X156031005Y-99214500D01*
X155895677Y-99241418D01*
X155895667Y-99241421D01*
X155768195Y-99294221D01*
X155768182Y-99294228D01*
X155653458Y-99370885D01*
X155653454Y-99370888D01*
X155555888Y-99468454D01*
X155555885Y-99468458D01*
X155479228Y-99583182D01*
X155479221Y-99583195D01*
X155426421Y-99710667D01*
X155426418Y-99710677D01*
X155399500Y-99846004D01*
X155399500Y-99846007D01*
X155399500Y-99983993D01*
X155399500Y-99983995D01*
X155399499Y-99983995D01*
X133765500Y-99983995D01*
X133765500Y-99809500D01*
X133785185Y-99742461D01*
X133837989Y-99696706D01*
X133889500Y-99685500D01*
X134059750Y-99685500D01*
X134059751Y-99685499D01*
X134074568Y-99682552D01*
X134118229Y-99673868D01*
X134118229Y-99673867D01*
X134118231Y-99673867D01*
X134184552Y-99629552D01*
X134228867Y-99563231D01*
X134228867Y-99563229D01*
X134228868Y-99563229D01*
X134240499Y-99504752D01*
X134240500Y-99504750D01*
X134240500Y-99334500D01*
X134260185Y-99267461D01*
X134312989Y-99221706D01*
X134364500Y-99210500D01*
X135205764Y-99210500D01*
X135205766Y-99210500D01*
X135352135Y-99171281D01*
X135483365Y-99095515D01*
X136610515Y-97968365D01*
X136686281Y-97837135D01*
X136725500Y-97690766D01*
X136725500Y-97539233D01*
X136725500Y-93914500D01*
X136745185Y-93847461D01*
X136797989Y-93801706D01*
X136849500Y-93790500D01*
X138275764Y-93790500D01*
X138275766Y-93790500D01*
X138422135Y-93751281D01*
X138553365Y-93675515D01*
X139443155Y-92785722D01*
X139443160Y-92785719D01*
X139453363Y-92775515D01*
X139453365Y-92775515D01*
X139560515Y-92668365D01*
X139636281Y-92537135D01*
X139651845Y-92479050D01*
X139675500Y-92390767D01*
X139675500Y-92239234D01*
X139675500Y-88052184D01*
X139695185Y-87985145D01*
X139696398Y-87983293D01*
X139720775Y-87946811D01*
X139773580Y-87819328D01*
X139788108Y-87746290D01*
X139800500Y-87683995D01*
X139800500Y-87546004D01*
X139773581Y-87410677D01*
X139773580Y-87410676D01*
X139773580Y-87410672D01*
X139746909Y-87346282D01*
X139720778Y-87283195D01*
X139720771Y-87283182D01*
X139644114Y-87168458D01*
X139644111Y-87168454D01*
X139546545Y-87070888D01*
X139546541Y-87070885D01*
X139431817Y-86994228D01*
X139431804Y-86994221D01*
X139304332Y-86941421D01*
X139304322Y-86941418D01*
X139168995Y-86914500D01*
X139168993Y-86914500D01*
X139031007Y-86914500D01*
X139031005Y-86914500D01*
X138895677Y-86941418D01*
X138895667Y-86941421D01*
X138768195Y-86994221D01*
X138768182Y-86994228D01*
X138653458Y-87070885D01*
X138653454Y-87070888D01*
X138555888Y-87168454D01*
X138555885Y-87168458D01*
X138479228Y-87283182D01*
X138479221Y-87283195D01*
X138426421Y-87410667D01*
X138426418Y-87410677D01*
X138399500Y-87546004D01*
X138399500Y-87546007D01*
X138399500Y-87683993D01*
X138399500Y-87683995D01*
X138399499Y-87683995D01*
X138426418Y-87819322D01*
X138426421Y-87819332D01*
X138479222Y-87946806D01*
X138479223Y-87946807D01*
X138479225Y-87946811D01*
X138499666Y-87977402D01*
X138503602Y-87983293D01*
X138524480Y-88049970D01*
X138524500Y-88052184D01*
X138524500Y-92025258D01*
X138504815Y-92092297D01*
X138488181Y-92112939D01*
X137997939Y-92603181D01*
X137936616Y-92636666D01*
X137910258Y-92639500D01*
X136849500Y-92639500D01*
X136782461Y-92619815D01*
X136736706Y-92567011D01*
X136725500Y-92515500D01*
X136725500Y-91889236D01*
X136725500Y-91889234D01*
X136686281Y-91742865D01*
X136681451Y-91734500D01*
X136670086Y-91714815D01*
X136610515Y-91611635D01*
X136503365Y-91504485D01*
X135553365Y-90554485D01*
X135467880Y-90505130D01*
X135422136Y-90478719D01*
X135348950Y-90459109D01*
X135275766Y-90439500D01*
X135275765Y-90439500D01*
X134135168Y-90439500D01*
X134068129Y-90419815D01*
X134032065Y-90384389D01*
X134005978Y-90345346D01*
X134005974Y-90345341D01*
X133859657Y-90199024D01*
X133729087Y-90111781D01*
X133687598Y-90084059D01*
X133659016Y-90072220D01*
X133496420Y-90004870D01*
X133496412Y-90004868D01*
X133293469Y-89964500D01*
X133293465Y-89964500D01*
X133086535Y-89964500D01*
X133086530Y-89964500D01*
X132883587Y-90004868D01*
X132883579Y-90004870D01*
X132692403Y-90084058D01*
X132520342Y-90199024D01*
X132374024Y-90345342D01*
X132259058Y-90517403D01*
X132179871Y-90708577D01*
X132179868Y-90708587D01*
X132139500Y-90911530D01*
X132139500Y-91118469D01*
X132179868Y-91321412D01*
X132179870Y-91321420D01*
X132259059Y-91512598D01*
X132291666Y-91561398D01*
X132374024Y-91684657D01*
X132520342Y-91830975D01*
X132692405Y-91945943D01*
X132784267Y-91983993D01*
X132857108Y-92014164D01*
X132911511Y-92058005D01*
X132933576Y-92124299D01*
X132916297Y-92191998D01*
X132865160Y-92239609D01*
X132847974Y-92246656D01*
X132671781Y-92303905D01*
X132482439Y-92400380D01*
X132428282Y-92439727D01*
X132428282Y-92439728D01*
X133060591Y-93072037D01*
X132997007Y-93089075D01*
X132882993Y-93154901D01*
X132789901Y-93247993D01*
X132724075Y-93362007D01*
X132707037Y-93425591D01*
X132074728Y-92793282D01*
X132074727Y-92793282D01*
X132035380Y-92847439D01*
X131938904Y-93036782D01*
X131873242Y-93238869D01*
X131873242Y-93238872D01*
X131840000Y-93448753D01*
X130925300Y-93448753D01*
X130925300Y-88371530D01*
X132139500Y-88371530D01*
X132139500Y-88578469D01*
X132179868Y-88781412D01*
X132179870Y-88781420D01*
X132259059Y-88972598D01*
X132275633Y-88997403D01*
X132374024Y-89144657D01*
X132520342Y-89290975D01*
X132520345Y-89290977D01*
X132692402Y-89405941D01*
X132883580Y-89485130D01*
X133074374Y-89523081D01*
X133086530Y-89525499D01*
X133086534Y-89525500D01*
X133086535Y-89525500D01*
X133293466Y-89525500D01*
X133293467Y-89525499D01*
X133496420Y-89485130D01*
X133687598Y-89405941D01*
X133859655Y-89290977D01*
X134005977Y-89144655D01*
X134120941Y-88972598D01*
X134200130Y-88781420D01*
X134240500Y-88578465D01*
X134240500Y-88371535D01*
X134200130Y-88168580D01*
X134120941Y-87977402D01*
X134005977Y-87805345D01*
X134005975Y-87805342D01*
X133859657Y-87659024D01*
X133740675Y-87579524D01*
X133687598Y-87544059D01*
X133621492Y-87516677D01*
X133496420Y-87464870D01*
X133496412Y-87464868D01*
X133293469Y-87424500D01*
X133293465Y-87424500D01*
X133086535Y-87424500D01*
X133086530Y-87424500D01*
X132883587Y-87464868D01*
X132883579Y-87464870D01*
X132692403Y-87544058D01*
X132520342Y-87659024D01*
X132374024Y-87805342D01*
X132259058Y-87977403D01*
X132179870Y-88168579D01*
X132179868Y-88168587D01*
X132139500Y-88371530D01*
X130925300Y-88371530D01*
X130925300Y-74630126D01*
X131284700Y-74630126D01*
X131284700Y-74879873D01*
X131284701Y-74879890D01*
X131316547Y-75121789D01*
X131317300Y-75127503D01*
X131358282Y-75280448D01*
X131381943Y-75368753D01*
X131477517Y-75599492D01*
X131477525Y-75599508D01*
X131602397Y-75815791D01*
X131602408Y-75815807D01*
X131754444Y-76013945D01*
X131754450Y-76013952D01*
X131931047Y-76190549D01*
X131931053Y-76190554D01*
X132129201Y-76342598D01*
X132129208Y-76342602D01*
X132345491Y-76467474D01*
X132345507Y-76467482D01*
X132469991Y-76519044D01*
X132576247Y-76563057D01*
X132817497Y-76627700D01*
X133065120Y-76660300D01*
X133065127Y-76660300D01*
X133314873Y-76660300D01*
X133314880Y-76660300D01*
X133562503Y-76627700D01*
X133803753Y-76563057D01*
X134008871Y-76478093D01*
X134078341Y-76470625D01*
X134140820Y-76501900D01*
X134176472Y-76561989D01*
X134173978Y-76631814D01*
X134144005Y-76680336D01*
X133562514Y-77261827D01*
X133501191Y-77295312D01*
X133450642Y-77295764D01*
X133390256Y-77283752D01*
X133293465Y-77264500D01*
X133086535Y-77264500D01*
X133086530Y-77264500D01*
X132883587Y-77304868D01*
X132883579Y-77304870D01*
X132692403Y-77384058D01*
X132520342Y-77499024D01*
X132374024Y-77645342D01*
X132259058Y-77817403D01*
X132179870Y-78008579D01*
X132179868Y-78008587D01*
X132139500Y-78211530D01*
X132139500Y-78418469D01*
X132179868Y-78621412D01*
X132179870Y-78621420D01*
X132259059Y-78812598D01*
X132374023Y-78984655D01*
X132453182Y-79063814D01*
X132486666Y-79125135D01*
X132489500Y-79151494D01*
X132489500Y-80018505D01*
X132469815Y-80085544D01*
X132453181Y-80106186D01*
X132374025Y-80185341D01*
X132374024Y-80185342D01*
X132259058Y-80357403D01*
X132179870Y-80548579D01*
X132179868Y-80548587D01*
X132139500Y-80751530D01*
X132139500Y-80958469D01*
X132172987Y-81126819D01*
X132179870Y-81161420D01*
X132259059Y-81352598D01*
X132374023Y-81524655D01*
X132453182Y-81603814D01*
X132486666Y-81665135D01*
X132489500Y-81691494D01*
X132489500Y-82558505D01*
X132469815Y-82625544D01*
X132453181Y-82646186D01*
X132374025Y-82725341D01*
X132374024Y-82725342D01*
X132259058Y-82897403D01*
X132179870Y-83088579D01*
X132179868Y-83088587D01*
X132139500Y-83291530D01*
X132139500Y-83498469D01*
X132179868Y-83701412D01*
X132179870Y-83701420D01*
X132236248Y-83837529D01*
X132259059Y-83892598D01*
X132308786Y-83967020D01*
X132374024Y-84064657D01*
X132520342Y-84210975D01*
X132520345Y-84210977D01*
X132692402Y-84325941D01*
X132883580Y-84405130D01*
X133086530Y-84445499D01*
X133086534Y-84445500D01*
X133086535Y-84445500D01*
X133293466Y-84445500D01*
X133293467Y-84445499D01*
X133496420Y-84405130D01*
X133687598Y-84325941D01*
X133859655Y-84210977D01*
X134005977Y-84064655D01*
X134120941Y-83892598D01*
X134200130Y-83701420D01*
X134240500Y-83498465D01*
X134240500Y-83291535D01*
X134200130Y-83088580D01*
X134120941Y-82897402D01*
X134005977Y-82725345D01*
X134005975Y-82725342D01*
X133926819Y-82646186D01*
X133893334Y-82584863D01*
X133890500Y-82558505D01*
X133890500Y-81691494D01*
X133910185Y-81624455D01*
X133926814Y-81603817D01*
X134005977Y-81524655D01*
X134120941Y-81352598D01*
X134200130Y-81161420D01*
X134240500Y-80958465D01*
X134240500Y-80751535D01*
X134200130Y-80548580D01*
X134120941Y-80357402D01*
X134005977Y-80185345D01*
X134005975Y-80185342D01*
X133926819Y-80106186D01*
X133893334Y-80044863D01*
X133890500Y-80018505D01*
X133890500Y-79151494D01*
X133910185Y-79084455D01*
X133926814Y-79063817D01*
X134005977Y-78984655D01*
X134120941Y-78812598D01*
X134200130Y-78621420D01*
X134200130Y-78621416D01*
X134201929Y-78617075D01*
X134228806Y-78576849D01*
X135793838Y-77011819D01*
X135820765Y-76997115D01*
X135846584Y-76980523D01*
X135852784Y-76979631D01*
X135855161Y-76978334D01*
X135881519Y-76975500D01*
X135950500Y-76975500D01*
X136017539Y-76995185D01*
X136063294Y-77047989D01*
X136074500Y-77099500D01*
X136074500Y-77144752D01*
X136086131Y-77203229D01*
X136086132Y-77203230D01*
X136130447Y-77269552D01*
X136196769Y-77313867D01*
X136196770Y-77313868D01*
X136255247Y-77325499D01*
X136255250Y-77325500D01*
X137978076Y-77325500D01*
X138045115Y-77345185D01*
X138090870Y-77397989D01*
X138100814Y-77467147D01*
X138100193Y-77470170D01*
X138099500Y-77475439D01*
X138099500Y-78004505D01*
X138079815Y-78071544D01*
X138027011Y-78117299D01*
X137957853Y-78127243D01*
X137894297Y-78098218D01*
X137887819Y-78092186D01*
X137794657Y-77999024D01*
X137708626Y-77941541D01*
X137622598Y-77884059D01*
X137431420Y-77804870D01*
X137431412Y-77804868D01*
X137228469Y-77764500D01*
X137228465Y-77764500D01*
X137021535Y-77764500D01*
X137021530Y-77764500D01*
X136818587Y-77804868D01*
X136818579Y-77804870D01*
X136627403Y-77884058D01*
X136455342Y-77999024D01*
X136309024Y-78145342D01*
X136194057Y-78317403D01*
X136136066Y-78457408D01*
X136092225Y-78511811D01*
X136053603Y-78529729D01*
X136034010Y-78534979D01*
X136034004Y-78534982D01*
X135965495Y-78574535D01*
X135965487Y-78574541D01*
X134959541Y-79580487D01*
X134959535Y-79580495D01*
X134919982Y-79649004D01*
X134919979Y-79649009D01*
X134899500Y-79725439D01*
X134899500Y-83739166D01*
X134879815Y-83806205D01*
X134863181Y-83826847D01*
X133745033Y-84944995D01*
X133683710Y-84978480D01*
X133614018Y-84973496D01*
X133609899Y-84971875D01*
X133496420Y-84924870D01*
X133496412Y-84924868D01*
X133293469Y-84884500D01*
X133293465Y-84884500D01*
X133086535Y-84884500D01*
X133086530Y-84884500D01*
X132883587Y-84924868D01*
X132883579Y-84924870D01*
X132692403Y-85004058D01*
X132520342Y-85119024D01*
X132374024Y-85265342D01*
X132259058Y-85437403D01*
X132179870Y-85628579D01*
X132179868Y-85628587D01*
X132139500Y-85831530D01*
X132139500Y-86038469D01*
X132169072Y-86187135D01*
X132179870Y-86241420D01*
X132259059Y-86432598D01*
X132275633Y-86457403D01*
X132374024Y-86604657D01*
X132520342Y-86750975D01*
X132520345Y-86750977D01*
X132692402Y-86865941D01*
X132883580Y-86945130D01*
X133027559Y-86973769D01*
X133086530Y-86985499D01*
X133086534Y-86985500D01*
X133086535Y-86985500D01*
X133293466Y-86985500D01*
X133293467Y-86985499D01*
X133496420Y-86945130D01*
X133687598Y-86865941D01*
X133859655Y-86750977D01*
X134005977Y-86604655D01*
X134120941Y-86432598D01*
X134158449Y-86342047D01*
X134202290Y-86287644D01*
X134268585Y-86265579D01*
X134273010Y-86265500D01*
X147874167Y-86265500D01*
X147941206Y-86285185D01*
X147961848Y-86301819D01*
X152559540Y-90899511D01*
X152615489Y-90955460D01*
X152615491Y-90955461D01*
X152615495Y-90955464D01*
X152665788Y-90984500D01*
X152684011Y-90995021D01*
X152760438Y-91015500D01*
X152839562Y-91015500D01*
X153574167Y-91015500D01*
X153641206Y-91035185D01*
X153661848Y-91051819D01*
X154969263Y-92359234D01*
X155002748Y-92420557D01*
X155001359Y-92479002D01*
X154999500Y-92485939D01*
X154999500Y-92485943D01*
X154999500Y-92644057D01*
X155039896Y-92794815D01*
X155040423Y-92796783D01*
X155040426Y-92796790D01*
X155119475Y-92933709D01*
X155119479Y-92933714D01*
X155119480Y-92933716D01*
X155231284Y-93045520D01*
X155231286Y-93045521D01*
X155231290Y-93045524D01*
X155368209Y-93124573D01*
X155368216Y-93124577D01*
X155520943Y-93165500D01*
X155520945Y-93165500D01*
X155679055Y-93165500D01*
X155679057Y-93165500D01*
X155831784Y-93124577D01*
X155844163Y-93117429D01*
X155912063Y-93100957D01*
X155978090Y-93123810D01*
X156021281Y-93178731D01*
X156025935Y-93192714D01*
X156040423Y-93246784D01*
X156040424Y-93246785D01*
X156040426Y-93246790D01*
X156119475Y-93383709D01*
X156119479Y-93383714D01*
X156119480Y-93383716D01*
X156231284Y-93495520D01*
X156231286Y-93495521D01*
X156231290Y-93495524D01*
X156351399Y-93564868D01*
X156368216Y-93574577D01*
X156520943Y-93615500D01*
X156520945Y-93615500D01*
X156575500Y-93615500D01*
X156642539Y-93635185D01*
X156688294Y-93687989D01*
X156699500Y-93739500D01*
X156699500Y-98370249D01*
X156713152Y-98421200D01*
X156719979Y-98446677D01*
X156729884Y-98463832D01*
X156739789Y-98480988D01*
X156749664Y-98498093D01*
X156759539Y-98515197D01*
X158813181Y-100568839D01*
X158846666Y-100630162D01*
X158849500Y-100656520D01*
X158849500Y-101040500D01*
X158829815Y-101107539D01*
X158777011Y-101153294D01*
X158725500Y-101164500D01*
X158620943Y-101164500D01*
X158468216Y-101205423D01*
X158468209Y-101205426D01*
X158331290Y-101284475D01*
X158331282Y-101284481D01*
X158219481Y-101396282D01*
X158219475Y-101396290D01*
X158140426Y-101533209D01*
X158140423Y-101533216D01*
X158099500Y-101685943D01*
X158099500Y-101844057D01*
X158138867Y-101990975D01*
X158140423Y-101996783D01*
X158140426Y-101996790D01*
X158219475Y-102133709D01*
X158219479Y-102133714D01*
X158219480Y-102133716D01*
X158331284Y-102245520D01*
X158331286Y-102245521D01*
X158331290Y-102245524D01*
X158457455Y-102318364D01*
X158468216Y-102324577D01*
X158620943Y-102365500D01*
X158620945Y-102365500D01*
X158779055Y-102365500D01*
X158779057Y-102365500D01*
X158931784Y-102324577D01*
X159068716Y-102245520D01*
X159180520Y-102133716D01*
X159259577Y-101996784D01*
X159300500Y-101844057D01*
X159300500Y-101685943D01*
X159298642Y-101679009D01*
X159298927Y-101667006D01*
X159294732Y-101655757D01*
X159299741Y-101632729D01*
X159300302Y-101609164D01*
X159307404Y-101597512D01*
X159309586Y-101587484D01*
X159330739Y-101559231D01*
X159342111Y-101547860D01*
X159403435Y-101514378D01*
X159473127Y-101519365D01*
X159517469Y-101547864D01*
X159538905Y-101569300D01*
X159572390Y-101630623D01*
X159571001Y-101689068D01*
X159569142Y-101696005D01*
X159569142Y-101696009D01*
X159569142Y-101854123D01*
X159607370Y-101996790D01*
X159610065Y-102006849D01*
X159610068Y-102006856D01*
X159689117Y-102143775D01*
X159689121Y-102143780D01*
X159689122Y-102143782D01*
X159800926Y-102255586D01*
X159800928Y-102255587D01*
X159800932Y-102255590D01*
X159909663Y-102318365D01*
X159937858Y-102334643D01*
X160090585Y-102375566D01*
X160090587Y-102375566D01*
X160248697Y-102375566D01*
X160248699Y-102375566D01*
X160401426Y-102334643D01*
X160538358Y-102255586D01*
X160650162Y-102143782D01*
X160729219Y-102006850D01*
X160770142Y-101854123D01*
X160770142Y-101696009D01*
X160729219Y-101543282D01*
X160727287Y-101539935D01*
X160650166Y-101406356D01*
X160650160Y-101406348D01*
X160538359Y-101294547D01*
X160538351Y-101294541D01*
X160401432Y-101215492D01*
X160401428Y-101215490D01*
X160401426Y-101215489D01*
X160248699Y-101174566D01*
X160174500Y-101174566D01*
X160107461Y-101154881D01*
X160061706Y-101102077D01*
X160050500Y-101050566D01*
X160050500Y-100275439D01*
X160042828Y-100246806D01*
X160030021Y-100199011D01*
X160010309Y-100164868D01*
X159990464Y-100130495D01*
X159990458Y-100130487D01*
X157886819Y-98026848D01*
X157853334Y-97965525D01*
X157850500Y-97939167D01*
X157850500Y-97589833D01*
X157870185Y-97522794D01*
X157922989Y-97477039D01*
X157992147Y-97467095D01*
X158055703Y-97496120D01*
X158062181Y-97502152D01*
X160369263Y-99809234D01*
X160402748Y-99870557D01*
X160401359Y-99929002D01*
X160399500Y-99935939D01*
X160399500Y-99935943D01*
X160399500Y-100094057D01*
X160427623Y-100199011D01*
X160440423Y-100246783D01*
X160440426Y-100246790D01*
X160519475Y-100383709D01*
X160519479Y-100383714D01*
X160519480Y-100383716D01*
X160631284Y-100495520D01*
X160631286Y-100495521D01*
X160631290Y-100495524D01*
X160707460Y-100539500D01*
X160768216Y-100574577D01*
X160920943Y-100615500D01*
X160920945Y-100615500D01*
X161079055Y-100615500D01*
X161079057Y-100615500D01*
X161231784Y-100574577D01*
X161368716Y-100495520D01*
X161480520Y-100383716D01*
X161559577Y-100246784D01*
X161600500Y-100094057D01*
X161600500Y-99935943D01*
X161559577Y-99783216D01*
X161517694Y-99710672D01*
X161480524Y-99646290D01*
X161480518Y-99646282D01*
X161368717Y-99534481D01*
X161368709Y-99534475D01*
X161231790Y-99455426D01*
X161231786Y-99455424D01*
X161231784Y-99455423D01*
X161079057Y-99414500D01*
X160920943Y-99414500D01*
X160920939Y-99414500D01*
X160914002Y-99416359D01*
X160844152Y-99414692D01*
X160794234Y-99384263D01*
X158286819Y-96876848D01*
X158253334Y-96815525D01*
X158250500Y-96789167D01*
X158250500Y-90725445D01*
X158250500Y-90725442D01*
X158245982Y-90708580D01*
X158230022Y-90649016D01*
X158190460Y-90580493D01*
X157930733Y-90320766D01*
X157897248Y-90259443D01*
X157898640Y-90200989D01*
X157900498Y-90194059D01*
X157900498Y-90035945D01*
X157859575Y-89883218D01*
X157859571Y-89883211D01*
X157780522Y-89746292D01*
X157780516Y-89746284D01*
X157668715Y-89634483D01*
X157668707Y-89634477D01*
X157531788Y-89555428D01*
X157531784Y-89555426D01*
X157531782Y-89555425D01*
X157379055Y-89514502D01*
X157220941Y-89514502D01*
X157127720Y-89539480D01*
X157057870Y-89537817D01*
X157000008Y-89498654D01*
X156972504Y-89434425D01*
X156984091Y-89365523D01*
X157007942Y-89332028D01*
X157040460Y-89299511D01*
X157994236Y-88345733D01*
X158055557Y-88312250D01*
X158114008Y-88313641D01*
X158120943Y-88315500D01*
X158120945Y-88315500D01*
X158279055Y-88315500D01*
X158279057Y-88315500D01*
X158431784Y-88274577D01*
X158568716Y-88195520D01*
X158680520Y-88083716D01*
X158759577Y-87946784D01*
X158800500Y-87794057D01*
X158800500Y-87635943D01*
X158759577Y-87483216D01*
X158727459Y-87427585D01*
X158680524Y-87346290D01*
X158680518Y-87346282D01*
X158568717Y-87234481D01*
X158568709Y-87234475D01*
X158431790Y-87155426D01*
X158431785Y-87155423D01*
X158383872Y-87142585D01*
X158320640Y-87125642D01*
X158260982Y-87089278D01*
X158230453Y-87026431D01*
X158232962Y-86973771D01*
X158233970Y-86970013D01*
X158233970Y-86811899D01*
X158193047Y-86659172D01*
X158193046Y-86659170D01*
X158190943Y-86651321D01*
X158192233Y-86650975D01*
X158185670Y-86589926D01*
X158216945Y-86527447D01*
X158277033Y-86491794D01*
X158346859Y-86494287D01*
X158395381Y-86524261D01*
X164034413Y-92163293D01*
X164061293Y-92203520D01*
X164079225Y-92246812D01*
X164079226Y-92246813D01*
X164155882Y-92361537D01*
X164155888Y-92361545D01*
X164253454Y-92459111D01*
X164253458Y-92459114D01*
X164368182Y-92535771D01*
X164368195Y-92535778D01*
X164495667Y-92588578D01*
X164495672Y-92588580D01*
X164495676Y-92588580D01*
X164501504Y-92590349D01*
X164501125Y-92591596D01*
X164557077Y-92620864D01*
X164591652Y-92681579D01*
X164587913Y-92751349D01*
X164547047Y-92808021D01*
X164503072Y-92829870D01*
X164484012Y-92834978D01*
X164484010Y-92834978D01*
X164484010Y-92834979D01*
X164415489Y-92874540D01*
X164415486Y-92874542D01*
X164011848Y-93278181D01*
X163950525Y-93311666D01*
X163924167Y-93314500D01*
X163125833Y-93314500D01*
X163058794Y-93294815D01*
X163038152Y-93278181D01*
X161334512Y-91574541D01*
X161334507Y-91574537D01*
X161318853Y-91565499D01*
X161318851Y-91565499D01*
X161289297Y-91548436D01*
X161265990Y-91534979D01*
X161227169Y-91524577D01*
X161189562Y-91514500D01*
X161189560Y-91514500D01*
X159775660Y-91514500D01*
X159708621Y-91494815D01*
X159668273Y-91452500D01*
X159664937Y-91446722D01*
X159664933Y-91446717D01*
X159553132Y-91334916D01*
X159553124Y-91334910D01*
X159416205Y-91255861D01*
X159416201Y-91255859D01*
X159416199Y-91255858D01*
X159263472Y-91214935D01*
X159105358Y-91214935D01*
X158952631Y-91255858D01*
X158952624Y-91255861D01*
X158815705Y-91334910D01*
X158815697Y-91334916D01*
X158703896Y-91446717D01*
X158703890Y-91446725D01*
X158624841Y-91583644D01*
X158624838Y-91583651D01*
X158583915Y-91736378D01*
X158583915Y-91894492D01*
X158618920Y-92025130D01*
X158624838Y-92047218D01*
X158624841Y-92047225D01*
X158703890Y-92184144D01*
X158703896Y-92184152D01*
X158742473Y-92222729D01*
X158775958Y-92284052D01*
X158770974Y-92353744D01*
X158742474Y-92398091D01*
X158651879Y-92488686D01*
X158651876Y-92488690D01*
X158572827Y-92625609D01*
X158572824Y-92625616D01*
X158531901Y-92778343D01*
X158531901Y-92936457D01*
X158563665Y-93055000D01*
X158572824Y-93089183D01*
X158572827Y-93089190D01*
X158651876Y-93226109D01*
X158651880Y-93226114D01*
X158651881Y-93226116D01*
X158763685Y-93337920D01*
X158763687Y-93337921D01*
X158763691Y-93337924D01*
X158843008Y-93383717D01*
X158900617Y-93416977D01*
X159053344Y-93457900D01*
X159053346Y-93457900D01*
X159211456Y-93457900D01*
X159211458Y-93457900D01*
X159364185Y-93416977D01*
X159501117Y-93337920D01*
X159612921Y-93226116D01*
X159691978Y-93089184D01*
X159732901Y-92936457D01*
X159732901Y-92778343D01*
X159731092Y-92771591D01*
X159732755Y-92701743D01*
X159771918Y-92643881D01*
X159836146Y-92616377D01*
X159850867Y-92615500D01*
X160874167Y-92615500D01*
X160941206Y-92635185D01*
X160961848Y-92651819D01*
X162615489Y-94305460D01*
X162684012Y-94345022D01*
X162760438Y-94365500D01*
X163402107Y-94365500D01*
X163469146Y-94385185D01*
X163514901Y-94437989D01*
X163524845Y-94507147D01*
X163495820Y-94570703D01*
X163489788Y-94577181D01*
X163308158Y-94758811D01*
X163308157Y-94758811D01*
X163279462Y-94794792D01*
X163249257Y-94881116D01*
X163249256Y-94881117D01*
X163259496Y-94971992D01*
X163259497Y-94971997D01*
X163259498Y-94971998D01*
X163308154Y-95049434D01*
X163837274Y-95578554D01*
X163870759Y-95639877D01*
X163865775Y-95709569D01*
X163823903Y-95765502D01*
X163758439Y-95789919D01*
X163749593Y-95790235D01*
X163745208Y-95790235D01*
X163592481Y-95831158D01*
X163592474Y-95831161D01*
X163455555Y-95910210D01*
X163455547Y-95910216D01*
X163343746Y-96022017D01*
X163343740Y-96022025D01*
X163264691Y-96158944D01*
X163264688Y-96158951D01*
X163223765Y-96311678D01*
X163223765Y-96469792D01*
X163260715Y-96607689D01*
X163264688Y-96622518D01*
X163264691Y-96622525D01*
X163343740Y-96759444D01*
X163343744Y-96759449D01*
X163343745Y-96759451D01*
X163455549Y-96871255D01*
X163455551Y-96871256D01*
X163455555Y-96871259D01*
X163544920Y-96922853D01*
X163592481Y-96950312D01*
X163745208Y-96991235D01*
X163745210Y-96991235D01*
X163903319Y-96991235D01*
X163903322Y-96991235D01*
X163910252Y-96989378D01*
X163980098Y-96991037D01*
X164030029Y-97021470D01*
X164614019Y-97605460D01*
X164682542Y-97645022D01*
X164758968Y-97665500D01*
X164758970Y-97665500D01*
X166730027Y-97665500D01*
X166797066Y-97685185D01*
X166842821Y-97737989D01*
X166852765Y-97807147D01*
X166840512Y-97845795D01*
X166752853Y-98017833D01*
X166687191Y-98219921D01*
X166687191Y-98219924D01*
X166676718Y-98286051D01*
X167570937Y-98286051D01*
X167538024Y-98343058D01*
X167503949Y-98470225D01*
X167503949Y-98601877D01*
X167538024Y-98729044D01*
X167570937Y-98786051D01*
X166676718Y-98786051D01*
X166687191Y-98852177D01*
X166687191Y-98852180D01*
X166752853Y-99054268D01*
X166849328Y-99243608D01*
X166974221Y-99415510D01*
X166974225Y-99415515D01*
X167124484Y-99565774D01*
X167124489Y-99565778D01*
X167296391Y-99690671D01*
X167485731Y-99787146D01*
X167687820Y-99852808D01*
X167753949Y-99863282D01*
X167753949Y-98969063D01*
X167810956Y-99001976D01*
X167938123Y-99036051D01*
X168069775Y-99036051D01*
X168196942Y-99001976D01*
X168253949Y-98969063D01*
X168253949Y-99863281D01*
X168320075Y-99852808D01*
X168320078Y-99852808D01*
X168522166Y-99787146D01*
X168711506Y-99690671D01*
X168883408Y-99565778D01*
X168883413Y-99565774D01*
X169033672Y-99415515D01*
X169033676Y-99415510D01*
X169158569Y-99243608D01*
X169255044Y-99054268D01*
X169320706Y-98852180D01*
X169320706Y-98852177D01*
X169331180Y-98786051D01*
X168436961Y-98786051D01*
X168469874Y-98729044D01*
X168503949Y-98601877D01*
X168503949Y-98470225D01*
X168469874Y-98343058D01*
X168436961Y-98286051D01*
X169331180Y-98286051D01*
X169320706Y-98219924D01*
X169320706Y-98219921D01*
X169255043Y-98017830D01*
X169255041Y-98017826D01*
X169170936Y-97852762D01*
X169158039Y-97784093D01*
X169184315Y-97719353D01*
X169241421Y-97679095D01*
X169311227Y-97676103D01*
X169328873Y-97681906D01*
X169350261Y-97690765D01*
X169493580Y-97750130D01*
X169664325Y-97784093D01*
X169696530Y-97790499D01*
X169696534Y-97790500D01*
X169696535Y-97790500D01*
X169903466Y-97790500D01*
X169903467Y-97790499D01*
X170106420Y-97750130D01*
X170297598Y-97670941D01*
X170469655Y-97555977D01*
X170615977Y-97409655D01*
X170730941Y-97237598D01*
X170810130Y-97046420D01*
X170850500Y-96843465D01*
X170850500Y-96636535D01*
X170810130Y-96433580D01*
X170730941Y-96242402D01*
X170615977Y-96070345D01*
X170615975Y-96070342D01*
X170469657Y-95924024D01*
X170330676Y-95831161D01*
X170297598Y-95809059D01*
X170273335Y-95799009D01*
X170106420Y-95729870D01*
X170106412Y-95729868D01*
X169903469Y-95689500D01*
X169903465Y-95689500D01*
X169696535Y-95689500D01*
X169696530Y-95689500D01*
X169493587Y-95729868D01*
X169493579Y-95729870D01*
X169302403Y-95809058D01*
X169130342Y-95924024D01*
X168984024Y-96070342D01*
X168869058Y-96242403D01*
X168830746Y-96334897D01*
X168789871Y-96433579D01*
X168787539Y-96439208D01*
X168786062Y-96438596D01*
X168752009Y-96490541D01*
X168746709Y-96494289D01*
X168746940Y-96494590D01*
X168740487Y-96499541D01*
X168211848Y-97028181D01*
X168150525Y-97061666D01*
X168124167Y-97064500D01*
X166898015Y-97064500D01*
X166830976Y-97044815D01*
X166785221Y-96992011D01*
X166775277Y-96922853D01*
X166794621Y-96876929D01*
X166792690Y-96875814D01*
X166859870Y-96759452D01*
X166875810Y-96731843D01*
X166916733Y-96579116D01*
X166916733Y-96421002D01*
X166875810Y-96268275D01*
X166873616Y-96264475D01*
X166796757Y-96131349D01*
X166796751Y-96131341D01*
X166684950Y-96019540D01*
X166684942Y-96019534D01*
X166548023Y-95940485D01*
X166548018Y-95940482D01*
X166460735Y-95917095D01*
X166458181Y-95916410D01*
X166398522Y-95880046D01*
X166367993Y-95817198D01*
X166376288Y-95747823D01*
X166393326Y-95719326D01*
X166420537Y-95685208D01*
X166450743Y-95598884D01*
X166450305Y-95595000D01*
X166440503Y-95508007D01*
X166440503Y-95508003D01*
X166391845Y-95430565D01*
X165987138Y-95025858D01*
X165578682Y-94617401D01*
X165578677Y-94617397D01*
X165578673Y-94617393D01*
X165536493Y-94588312D01*
X165517494Y-94575213D01*
X165511671Y-94574049D01*
X165449793Y-94541600D01*
X165418945Y-94493407D01*
X165415199Y-94482701D01*
X165415199Y-94482699D01*
X165366541Y-94405261D01*
X165016280Y-94055000D01*
X164659439Y-93698158D01*
X164646847Y-93688116D01*
X164637675Y-93675048D01*
X164624892Y-93665479D01*
X164618013Y-93647036D01*
X164606707Y-93630927D01*
X164606055Y-93614972D01*
X164600477Y-93600014D01*
X164604660Y-93580783D01*
X164603858Y-93561116D01*
X164612111Y-93546536D01*
X164615330Y-93531741D01*
X164636473Y-93503497D01*
X164688154Y-93451815D01*
X164749477Y-93418333D01*
X164775833Y-93415500D01*
X165272858Y-93415500D01*
X165339897Y-93435185D01*
X165360537Y-93451817D01*
X165865261Y-93956541D01*
X165878152Y-93968379D01*
X165916712Y-93988248D01*
X165965490Y-94013384D01*
X166016066Y-94061590D01*
X166025732Y-94082653D01*
X166028734Y-94091234D01*
X166077392Y-94168672D01*
X166890561Y-94981842D01*
X166890565Y-94981845D01*
X166926542Y-95010537D01*
X167012866Y-95040743D01*
X167103747Y-95030503D01*
X167181185Y-94981845D01*
X167220049Y-94942980D01*
X167281370Y-94909496D01*
X167351061Y-94914480D01*
X167406995Y-94956350D01*
X167427504Y-94998568D01*
X167440423Y-95046785D01*
X167440426Y-95046790D01*
X167519475Y-95183709D01*
X167519479Y-95183714D01*
X167519480Y-95183716D01*
X167631284Y-95295520D01*
X167631286Y-95295521D01*
X167631290Y-95295524D01*
X167696690Y-95333282D01*
X167768216Y-95374577D01*
X167920943Y-95415500D01*
X167920945Y-95415500D01*
X168079055Y-95415500D01*
X168079057Y-95415500D01*
X168231784Y-95374577D01*
X168368716Y-95295520D01*
X168480520Y-95183716D01*
X168559577Y-95046784D01*
X168600500Y-94894057D01*
X168600500Y-94735943D01*
X168559577Y-94583216D01*
X168554957Y-94575213D01*
X168480524Y-94446290D01*
X168480518Y-94446282D01*
X168368717Y-94334481D01*
X168368709Y-94334475D01*
X168231790Y-94255426D01*
X168231785Y-94255423D01*
X168200591Y-94247065D01*
X168183568Y-94242503D01*
X168123908Y-94206138D01*
X168093380Y-94143291D01*
X168101675Y-94073916D01*
X168127979Y-94035050D01*
X168241845Y-93921185D01*
X168270537Y-93885208D01*
X168300743Y-93798884D01*
X168300214Y-93794193D01*
X168290503Y-93708007D01*
X168290503Y-93708003D01*
X168241845Y-93630565D01*
X167837389Y-93226109D01*
X167428682Y-92817401D01*
X167428677Y-92817397D01*
X167428673Y-92817393D01*
X167386493Y-92788312D01*
X167367494Y-92775213D01*
X167361671Y-92774049D01*
X167299793Y-92741600D01*
X167268945Y-92693407D01*
X167265199Y-92682701D01*
X167265199Y-92682699D01*
X167216541Y-92605261D01*
X166866022Y-92254742D01*
X166509438Y-91898157D01*
X166473457Y-91869462D01*
X166387131Y-91839256D01*
X166296257Y-91849496D01*
X166296254Y-91849496D01*
X166296253Y-91849497D01*
X166296251Y-91849497D01*
X166296251Y-91849498D01*
X166218815Y-91898154D01*
X165338789Y-92778181D01*
X165277466Y-92811666D01*
X165251108Y-92814500D01*
X164982299Y-92814500D01*
X164915260Y-92794815D01*
X164869505Y-92742011D01*
X164859561Y-92672853D01*
X164888586Y-92609297D01*
X164934847Y-92575939D01*
X165031804Y-92535778D01*
X165031804Y-92535777D01*
X165031811Y-92535775D01*
X165146542Y-92459114D01*
X165244114Y-92361542D01*
X165320775Y-92246811D01*
X165323914Y-92239234D01*
X165346729Y-92184152D01*
X165373580Y-92119328D01*
X165387922Y-92047225D01*
X165400500Y-91983995D01*
X165400500Y-91846005D01*
X165391884Y-91802694D01*
X165398110Y-91733102D01*
X165440973Y-91677924D01*
X165506862Y-91654679D01*
X165537690Y-91656883D01*
X165563467Y-91662011D01*
X165581006Y-91665500D01*
X165581007Y-91665500D01*
X165718995Y-91665500D01*
X165818981Y-91645611D01*
X165854328Y-91638580D01*
X165981811Y-91585775D01*
X165998624Y-91574541D01*
X166018295Y-91561398D01*
X166084972Y-91540520D01*
X166087185Y-91540500D01*
X167327360Y-91540500D01*
X167394399Y-91560185D01*
X167415041Y-91576819D01*
X170358614Y-94520392D01*
X170392099Y-94581715D01*
X170387115Y-94651407D01*
X170358616Y-94695752D01*
X170339855Y-94714514D01*
X170238229Y-94816140D01*
X170205102Y-94865717D01*
X170205102Y-94865718D01*
X170189542Y-94943946D01*
X170189542Y-94943951D01*
X170205102Y-95022179D01*
X170205102Y-95022180D01*
X170238232Y-95071761D01*
X170238235Y-95071765D01*
X171468234Y-96301764D01*
X171468237Y-96301766D01*
X171468240Y-96301769D01*
X171517820Y-96334897D01*
X171596049Y-96350458D01*
X171596051Y-96350458D01*
X171596053Y-96350458D01*
X171648205Y-96340084D01*
X171674282Y-96334897D01*
X171723862Y-96301769D01*
X171835693Y-96189936D01*
X171843639Y-96185597D01*
X171849065Y-96178350D01*
X171873823Y-96169115D01*
X171897016Y-96156451D01*
X171906046Y-96157096D01*
X171914529Y-96153933D01*
X171940349Y-96159549D01*
X171966708Y-96161435D01*
X171975761Y-96167253D01*
X171982802Y-96168785D01*
X172011056Y-96189936D01*
X172038181Y-96217061D01*
X172071666Y-96278384D01*
X172074500Y-96304742D01*
X172074500Y-99075257D01*
X172054815Y-99142296D01*
X172038181Y-99162938D01*
X169002195Y-102198923D01*
X168940872Y-102232408D01*
X168938706Y-102232859D01*
X168895677Y-102241418D01*
X168895669Y-102241420D01*
X168768195Y-102294221D01*
X168768182Y-102294228D01*
X168653458Y-102370885D01*
X168653454Y-102370888D01*
X168555888Y-102468454D01*
X168555885Y-102468458D01*
X168479228Y-102583182D01*
X168479221Y-102583195D01*
X168426421Y-102710667D01*
X168426418Y-102710677D01*
X168399500Y-102846004D01*
X168399500Y-102846007D01*
X168399500Y-102983993D01*
X168399500Y-102983995D01*
X168399499Y-102983995D01*
X168426418Y-103119322D01*
X168426421Y-103119332D01*
X168479221Y-103246804D01*
X168479228Y-103246817D01*
X168555885Y-103361541D01*
X168555888Y-103361545D01*
X168653454Y-103459111D01*
X168653458Y-103459114D01*
X168768182Y-103535771D01*
X168768195Y-103535778D01*
X168895667Y-103588578D01*
X168895672Y-103588580D01*
X168895676Y-103588580D01*
X168895677Y-103588581D01*
X169031004Y-103615500D01*
X169031007Y-103615500D01*
X169168995Y-103615500D01*
X169260041Y-103597389D01*
X169304328Y-103588580D01*
X169431811Y-103535775D01*
X169546542Y-103459114D01*
X169644114Y-103361542D01*
X169720775Y-103246811D01*
X169773580Y-103119328D01*
X169782140Y-103076290D01*
X169814524Y-103014382D01*
X169816020Y-103012858D01*
X173110515Y-99718365D01*
X173186281Y-99587135D01*
X173225500Y-99440767D01*
X173225500Y-99289234D01*
X173225500Y-95939234D01*
X173186281Y-95792865D01*
X173110515Y-95661635D01*
X173003365Y-95554485D01*
X172824936Y-95376056D01*
X172791451Y-95314733D01*
X172796435Y-95245041D01*
X172824933Y-95200696D01*
X172953871Y-95071760D01*
X172986999Y-95022180D01*
X172996982Y-94971992D01*
X173002560Y-94943951D01*
X173002560Y-94943946D01*
X172986999Y-94865718D01*
X172986999Y-94865717D01*
X172970377Y-94840842D01*
X172953871Y-94816138D01*
X172953869Y-94816136D01*
X172953866Y-94816132D01*
X171723867Y-93586133D01*
X171723863Y-93586130D01*
X171706571Y-93574576D01*
X171699072Y-93569565D01*
X171674281Y-93553000D01*
X171596053Y-93537440D01*
X171596049Y-93537440D01*
X171517820Y-93553000D01*
X171517819Y-93553000D01*
X171468242Y-93586127D01*
X171468240Y-93586129D01*
X171347854Y-93706513D01*
X171286533Y-93739997D01*
X171216841Y-93735013D01*
X171172494Y-93706512D01*
X167970469Y-90504487D01*
X167970467Y-90504485D01*
X167903614Y-90465887D01*
X167839238Y-90428719D01*
X167752294Y-90405423D01*
X167692868Y-90389500D01*
X167692867Y-90389500D01*
X166087185Y-90389500D01*
X166020146Y-90369815D01*
X166018295Y-90368602D01*
X165981812Y-90344225D01*
X165981809Y-90344223D01*
X165854332Y-90291421D01*
X165854322Y-90291418D01*
X165718995Y-90264500D01*
X165718993Y-90264500D01*
X165581007Y-90264500D01*
X165581005Y-90264500D01*
X165445677Y-90291418D01*
X165445667Y-90291421D01*
X165318195Y-90344221D01*
X165318182Y-90344228D01*
X165203458Y-90420885D01*
X165203454Y-90420888D01*
X165105888Y-90518454D01*
X165105885Y-90518458D01*
X165029228Y-90633182D01*
X165029221Y-90633195D01*
X164976421Y-90760667D01*
X164976418Y-90760677D01*
X164949500Y-90896004D01*
X164949500Y-91033997D01*
X164958115Y-91077307D01*
X164955425Y-91107359D01*
X164955146Y-91137536D01*
X164952343Y-91141809D01*
X164951888Y-91146898D01*
X164933376Y-91170728D01*
X164916827Y-91195961D01*
X164912160Y-91198040D01*
X164909025Y-91202076D01*
X164880565Y-91212115D01*
X164853005Y-91224394D01*
X164846352Y-91224184D01*
X164843135Y-91225320D01*
X164817712Y-91224067D01*
X164814997Y-91223651D01*
X164768993Y-91214500D01*
X164755293Y-91214500D01*
X164745956Y-91213069D01*
X164722521Y-91202102D01*
X164697703Y-91194815D01*
X164684897Y-91184496D01*
X164682673Y-91183455D01*
X164681712Y-91181929D01*
X164677061Y-91178181D01*
X159261819Y-85762939D01*
X159228334Y-85701616D01*
X159225500Y-85675258D01*
X159225500Y-84473200D01*
X159245185Y-84406161D01*
X159246398Y-84404309D01*
X159270775Y-84367827D01*
X159323580Y-84240344D01*
X159332389Y-84196057D01*
X159350500Y-84105011D01*
X159350500Y-83967020D01*
X159323581Y-83831693D01*
X159323580Y-83831692D01*
X159323580Y-83831688D01*
X159313025Y-83806205D01*
X159270778Y-83704211D01*
X159270771Y-83704198D01*
X159194114Y-83589474D01*
X159194111Y-83589470D01*
X159096545Y-83491904D01*
X159096541Y-83491901D01*
X158981817Y-83415244D01*
X158981804Y-83415237D01*
X158854332Y-83362437D01*
X158854322Y-83362434D01*
X158847699Y-83361117D01*
X158785788Y-83328732D01*
X158751214Y-83268016D01*
X158754955Y-83198246D01*
X158795821Y-83141574D01*
X158860840Y-83115993D01*
X158871891Y-83115500D01*
X165274167Y-83115500D01*
X165341206Y-83135185D01*
X165361848Y-83151819D01*
X166133295Y-83923266D01*
X166166780Y-83984589D01*
X166161796Y-84054281D01*
X166119924Y-84110214D01*
X166054460Y-84134631D01*
X165986187Y-84119779D01*
X165983615Y-84118335D01*
X165888777Y-84063581D01*
X165776703Y-84033551D01*
X165736050Y-84022658D01*
X165577936Y-84022658D01*
X165425209Y-84063581D01*
X165425202Y-84063584D01*
X165288283Y-84142633D01*
X165288275Y-84142639D01*
X165176474Y-84254440D01*
X165176468Y-84254448D01*
X165097419Y-84391367D01*
X165097416Y-84391374D01*
X165056493Y-84544101D01*
X165056493Y-84702214D01*
X165084551Y-84806930D01*
X165082888Y-84876780D01*
X165043725Y-84934642D01*
X164979496Y-84962146D01*
X164910594Y-84950559D01*
X164902776Y-84946410D01*
X164900368Y-84945020D01*
X164831784Y-84905423D01*
X164679057Y-84864500D01*
X164520943Y-84864500D01*
X164368216Y-84905423D01*
X164368209Y-84905426D01*
X164231290Y-84984475D01*
X164231282Y-84984481D01*
X164119481Y-85096282D01*
X164119475Y-85096290D01*
X164040426Y-85233209D01*
X164040423Y-85233216D01*
X163999500Y-85385943D01*
X163999500Y-85530500D01*
X163979815Y-85597539D01*
X163927011Y-85643294D01*
X163875500Y-85654500D01*
X163770943Y-85654500D01*
X163618216Y-85695423D01*
X163618209Y-85695426D01*
X163481290Y-85774475D01*
X163481282Y-85774481D01*
X163369481Y-85886282D01*
X163369475Y-85886290D01*
X163290426Y-86023209D01*
X163290423Y-86023216D01*
X163249500Y-86175943D01*
X163249500Y-86334057D01*
X163282551Y-86457403D01*
X163290423Y-86486783D01*
X163290426Y-86486790D01*
X163369475Y-86623709D01*
X163369479Y-86623714D01*
X163369480Y-86623716D01*
X163481284Y-86735520D01*
X163481286Y-86735521D01*
X163481290Y-86735524D01*
X163613581Y-86811901D01*
X163618216Y-86814577D01*
X163770943Y-86855500D01*
X163770945Y-86855500D01*
X163929055Y-86855500D01*
X163929057Y-86855500D01*
X164081784Y-86814577D01*
X164218716Y-86735520D01*
X164312417Y-86641819D01*
X164373740Y-86608334D01*
X164400098Y-86605500D01*
X165464167Y-86605500D01*
X165531206Y-86625185D01*
X165551848Y-86641819D01*
X174813181Y-95903152D01*
X174846666Y-95964475D01*
X174849500Y-95990833D01*
X174849500Y-102604562D01*
X174863152Y-102655513D01*
X174869979Y-102680990D01*
X174869982Y-102680995D01*
X174909535Y-102749504D01*
X174909539Y-102749509D01*
X174909540Y-102749511D01*
X178609540Y-106449511D01*
X178665489Y-106505460D01*
X178665491Y-106505461D01*
X178665495Y-106505464D01*
X178734004Y-106545017D01*
X178734011Y-106545021D01*
X178810438Y-106565500D01*
X181008706Y-106565500D01*
X181075745Y-106585185D01*
X181121500Y-106637989D01*
X181123267Y-106642047D01*
X181169058Y-106752596D01*
X181284024Y-106924657D01*
X181430342Y-107070975D01*
X181430345Y-107070977D01*
X181602402Y-107185941D01*
X181793580Y-107265130D01*
X181996530Y-107305499D01*
X181996534Y-107305500D01*
X181996535Y-107305500D01*
X182203466Y-107305500D01*
X182203467Y-107305499D01*
X182406420Y-107265130D01*
X182597598Y-107185941D01*
X182769655Y-107070977D01*
X182915977Y-106924655D01*
X183030941Y-106752598D01*
X183110130Y-106561420D01*
X183150500Y-106358465D01*
X183150500Y-106151535D01*
X183110130Y-105948580D01*
X183030941Y-105757402D01*
X182915977Y-105585345D01*
X182915975Y-105585342D01*
X182769657Y-105439024D01*
X182683626Y-105381541D01*
X182597598Y-105324059D01*
X182406420Y-105244870D01*
X182406412Y-105244868D01*
X182203469Y-105204500D01*
X182203465Y-105204500D01*
X181996535Y-105204500D01*
X181996530Y-105204500D01*
X181793587Y-105244868D01*
X181793579Y-105244870D01*
X181602403Y-105324058D01*
X181430342Y-105439024D01*
X181284024Y-105585342D01*
X181169058Y-105757403D01*
X181114983Y-105887953D01*
X181071142Y-105942356D01*
X181004848Y-105964421D01*
X181000422Y-105964500D01*
X179025833Y-105964500D01*
X178958794Y-105944815D01*
X178938152Y-105928181D01*
X175486819Y-102476848D01*
X175453334Y-102415525D01*
X175450500Y-102389167D01*
X175450500Y-96039833D01*
X175470185Y-95972794D01*
X175522989Y-95927039D01*
X175592147Y-95917095D01*
X175655703Y-95946120D01*
X175662181Y-95952152D01*
X175913181Y-96203152D01*
X175946666Y-96264475D01*
X175949500Y-96290833D01*
X175949500Y-99404562D01*
X175969979Y-99480989D01*
X176006437Y-99544136D01*
X176006439Y-99544139D01*
X176009542Y-99549514D01*
X178186649Y-101726620D01*
X180359540Y-103899511D01*
X180415489Y-103955460D01*
X180415491Y-103955461D01*
X180415495Y-103955464D01*
X180484004Y-103995017D01*
X180484011Y-103995021D01*
X180560438Y-104015500D01*
X181004564Y-104015500D01*
X181071603Y-104035185D01*
X181117358Y-104087989D01*
X181119121Y-104092039D01*
X181128906Y-104115660D01*
X181169058Y-104212596D01*
X181284024Y-104384657D01*
X181430342Y-104530975D01*
X181430345Y-104530977D01*
X181602402Y-104645941D01*
X181793580Y-104725130D01*
X181996530Y-104765499D01*
X181996534Y-104765500D01*
X181996535Y-104765500D01*
X182203466Y-104765500D01*
X182203467Y-104765499D01*
X182406420Y-104725130D01*
X182597598Y-104645941D01*
X182769655Y-104530977D01*
X182915977Y-104384655D01*
X183030941Y-104212598D01*
X183110130Y-104021420D01*
X183150500Y-103818465D01*
X183150500Y-103611535D01*
X183110130Y-103408580D01*
X183030941Y-103217402D01*
X182915977Y-103045345D01*
X182915975Y-103045342D01*
X182769657Y-102899024D01*
X182683626Y-102841541D01*
X182597598Y-102784059D01*
X182514175Y-102749504D01*
X182406420Y-102704870D01*
X182406412Y-102704868D01*
X182203469Y-102664500D01*
X182203465Y-102664500D01*
X181996535Y-102664500D01*
X181996530Y-102664500D01*
X181793587Y-102704868D01*
X181793579Y-102704870D01*
X181602403Y-102784058D01*
X181430342Y-102899024D01*
X181284024Y-103045342D01*
X181169058Y-103217403D01*
X181119125Y-103337953D01*
X181106581Y-103353518D01*
X181098277Y-103371703D01*
X181085106Y-103380167D01*
X181075284Y-103392356D01*
X181056316Y-103398668D01*
X181039499Y-103409477D01*
X181011938Y-103413439D01*
X181008990Y-103414421D01*
X181004564Y-103414500D01*
X180775833Y-103414500D01*
X180708794Y-103394815D01*
X180688152Y-103378181D01*
X176586819Y-99276848D01*
X176553334Y-99215525D01*
X176550500Y-99189167D01*
X176550500Y-98039833D01*
X176570185Y-97972794D01*
X176622989Y-97927039D01*
X176692147Y-97917095D01*
X176755703Y-97946120D01*
X176762181Y-97952152D01*
X180169540Y-101359511D01*
X180225489Y-101415460D01*
X180225491Y-101415461D01*
X180225495Y-101415464D01*
X180252386Y-101430989D01*
X180294011Y-101455021D01*
X180370438Y-101475500D01*
X180449562Y-101475500D01*
X181004564Y-101475500D01*
X181071603Y-101495185D01*
X181117358Y-101547989D01*
X181119121Y-101552039D01*
X181169059Y-101672598D01*
X181180064Y-101689068D01*
X181284024Y-101844657D01*
X181430342Y-101990975D01*
X181430345Y-101990977D01*
X181602402Y-102105941D01*
X181793580Y-102185130D01*
X181996530Y-102225499D01*
X181996534Y-102225500D01*
X181996535Y-102225500D01*
X182203466Y-102225500D01*
X182203467Y-102225499D01*
X182406420Y-102185130D01*
X182597598Y-102105941D01*
X182769655Y-101990977D01*
X182915977Y-101844655D01*
X183030941Y-101672598D01*
X183110130Y-101481420D01*
X183150500Y-101278465D01*
X183150500Y-101071535D01*
X183110130Y-100868580D01*
X183030941Y-100677402D01*
X182915977Y-100505345D01*
X182915975Y-100505342D01*
X182769657Y-100359024D01*
X182644560Y-100275438D01*
X182597598Y-100244059D01*
X182488838Y-100199009D01*
X182406420Y-100164870D01*
X182406412Y-100164868D01*
X182203469Y-100124500D01*
X182203465Y-100124500D01*
X181996535Y-100124500D01*
X181996530Y-100124500D01*
X181793587Y-100164868D01*
X181793579Y-100164870D01*
X181602403Y-100244058D01*
X181430342Y-100359024D01*
X181284024Y-100505342D01*
X181169058Y-100677403D01*
X181119125Y-100797953D01*
X181075284Y-100852356D01*
X181008990Y-100874421D01*
X181004564Y-100874500D01*
X180585833Y-100874500D01*
X180518794Y-100854815D01*
X180498152Y-100838181D01*
X177336819Y-97676848D01*
X177303334Y-97615525D01*
X177300500Y-97589167D01*
X177300500Y-95875439D01*
X177300259Y-95874540D01*
X177280021Y-95799011D01*
X177276473Y-95792865D01*
X177240464Y-95730495D01*
X177240458Y-95730487D01*
X166293812Y-84783841D01*
X166260327Y-84722518D01*
X166257493Y-84696160D01*
X166257493Y-84544103D01*
X166257493Y-84544101D01*
X166216570Y-84391374D01*
X166202973Y-84367823D01*
X166161816Y-84296535D01*
X166145343Y-84228635D01*
X166168196Y-84162608D01*
X166223117Y-84119418D01*
X166292671Y-84112777D01*
X166354773Y-84144793D01*
X166356884Y-84146855D01*
X178113181Y-95903152D01*
X178146666Y-95964475D01*
X178149500Y-95990833D01*
X178149500Y-97804562D01*
X178169979Y-97880989D01*
X178195642Y-97925438D01*
X178209540Y-97949511D01*
X178209542Y-97949514D01*
X178209543Y-97949515D01*
X178664589Y-98404560D01*
X179079540Y-98819511D01*
X179135489Y-98875460D01*
X179135491Y-98875461D01*
X179135495Y-98875464D01*
X179204004Y-98915017D01*
X179204011Y-98915021D01*
X179280438Y-98935500D01*
X181004564Y-98935500D01*
X181071603Y-98955185D01*
X181117358Y-99007989D01*
X181119121Y-99012039D01*
X181169059Y-99132598D01*
X181194905Y-99171280D01*
X181284024Y-99304657D01*
X181430342Y-99450975D01*
X181430345Y-99450977D01*
X181602402Y-99565941D01*
X181793580Y-99645130D01*
X181938052Y-99673867D01*
X181996530Y-99685499D01*
X181996534Y-99685500D01*
X181996535Y-99685500D01*
X182203466Y-99685500D01*
X182203467Y-99685499D01*
X182406420Y-99645130D01*
X182597598Y-99565941D01*
X182769655Y-99450977D01*
X182915977Y-99304655D01*
X183030941Y-99132598D01*
X183110130Y-98941420D01*
X183150500Y-98738465D01*
X183150500Y-98531535D01*
X183110130Y-98328580D01*
X183030941Y-98137402D01*
X182915977Y-97965345D01*
X182915975Y-97965342D01*
X182769657Y-97819024D01*
X182641224Y-97733209D01*
X182597598Y-97704059D01*
X182565501Y-97690764D01*
X182406420Y-97624870D01*
X182406412Y-97624868D01*
X182203469Y-97584500D01*
X182203465Y-97584500D01*
X181996535Y-97584500D01*
X181996530Y-97584500D01*
X181793587Y-97624868D01*
X181793579Y-97624870D01*
X181602403Y-97704058D01*
X181430342Y-97819024D01*
X181284024Y-97965342D01*
X181169058Y-98137403D01*
X181119125Y-98257953D01*
X181075284Y-98312356D01*
X181008990Y-98334421D01*
X181004564Y-98334500D01*
X179495833Y-98334500D01*
X179428794Y-98314815D01*
X179408152Y-98298181D01*
X178786819Y-97676848D01*
X178753334Y-97615525D01*
X178750500Y-97589167D01*
X178750500Y-95775439D01*
X178750500Y-95775438D01*
X178730021Y-95699011D01*
X178708442Y-95661635D01*
X178690464Y-95630495D01*
X178690458Y-95630487D01*
X178147152Y-95087181D01*
X178113667Y-95025858D01*
X178118651Y-94956166D01*
X178160523Y-94900233D01*
X178225987Y-94875816D01*
X178234833Y-94875500D01*
X181004564Y-94875500D01*
X181071603Y-94895185D01*
X181117358Y-94947989D01*
X181119121Y-94952039D01*
X181127389Y-94971998D01*
X181169058Y-95072596D01*
X181284024Y-95244657D01*
X181430342Y-95390975D01*
X181430345Y-95390977D01*
X181602402Y-95505941D01*
X181793580Y-95585130D01*
X181996530Y-95625499D01*
X181996534Y-95625500D01*
X181996535Y-95625500D01*
X182203466Y-95625500D01*
X182203467Y-95625499D01*
X182406420Y-95585130D01*
X182597598Y-95505941D01*
X182769655Y-95390977D01*
X182915977Y-95244655D01*
X183030941Y-95072598D01*
X183110130Y-94881420D01*
X183150500Y-94678465D01*
X183150500Y-94471535D01*
X183110130Y-94268580D01*
X183030941Y-94077402D01*
X182915977Y-93905345D01*
X182915975Y-93905342D01*
X182769657Y-93759024D01*
X182663344Y-93687989D01*
X182597598Y-93644059D01*
X182597168Y-93643881D01*
X182406420Y-93564870D01*
X182406412Y-93564868D01*
X182203469Y-93524500D01*
X182203465Y-93524500D01*
X181996535Y-93524500D01*
X181996530Y-93524500D01*
X181793587Y-93564868D01*
X181793579Y-93564870D01*
X181602403Y-93644058D01*
X181430342Y-93759024D01*
X181284024Y-93905342D01*
X181169058Y-94077403D01*
X181119125Y-94197953D01*
X181075284Y-94252356D01*
X181008990Y-94274421D01*
X181004564Y-94274500D01*
X178020148Y-94274500D01*
X177953109Y-94254815D01*
X177932467Y-94238181D01*
X176241467Y-92547181D01*
X176207982Y-92485858D01*
X176212966Y-92416166D01*
X176254838Y-92360233D01*
X176320302Y-92335816D01*
X176329148Y-92335500D01*
X181004564Y-92335500D01*
X181071603Y-92355185D01*
X181117358Y-92407989D01*
X181119121Y-92412039D01*
X181122650Y-92420557D01*
X181169058Y-92532596D01*
X181284024Y-92704657D01*
X181430342Y-92850975D01*
X181430345Y-92850977D01*
X181602402Y-92965941D01*
X181793580Y-93045130D01*
X181996530Y-93085499D01*
X181996534Y-93085500D01*
X181996535Y-93085500D01*
X182203466Y-93085500D01*
X182203467Y-93085499D01*
X182406420Y-93045130D01*
X182597598Y-92965941D01*
X182769655Y-92850977D01*
X182915977Y-92704655D01*
X183030941Y-92532598D01*
X183110130Y-92341420D01*
X183150500Y-92138465D01*
X183150500Y-91931535D01*
X183110130Y-91728580D01*
X183030941Y-91537402D01*
X182915977Y-91365345D01*
X182915975Y-91365342D01*
X182769657Y-91219024D01*
X182683626Y-91161541D01*
X182597598Y-91104059D01*
X182533013Y-91077307D01*
X182406420Y-91024870D01*
X182406412Y-91024868D01*
X182203469Y-90984500D01*
X182203465Y-90984500D01*
X181996535Y-90984500D01*
X181996530Y-90984500D01*
X181793587Y-91024868D01*
X181793579Y-91024870D01*
X181602403Y-91104058D01*
X181430342Y-91219024D01*
X181284024Y-91365342D01*
X181169058Y-91537403D01*
X181119125Y-91657953D01*
X181075284Y-91712356D01*
X181008990Y-91734421D01*
X181004564Y-91734500D01*
X177080961Y-91734500D01*
X177013922Y-91714815D01*
X176968167Y-91662011D01*
X176958223Y-91592853D01*
X176987248Y-91529297D01*
X177018960Y-91503113D01*
X177118716Y-91445520D01*
X177230520Y-91333716D01*
X177309577Y-91196784D01*
X177350500Y-91044057D01*
X177350500Y-90885943D01*
X177348642Y-90879008D01*
X177350303Y-90809161D01*
X177380733Y-90759236D01*
X178040460Y-90099511D01*
X178061225Y-90063544D01*
X178080021Y-90030989D01*
X178100500Y-89954562D01*
X178100500Y-89391530D01*
X181049500Y-89391530D01*
X181049500Y-89598469D01*
X181089868Y-89801412D01*
X181089870Y-89801420D01*
X181135183Y-89910816D01*
X181169059Y-89992598D01*
X181198024Y-90035947D01*
X181284024Y-90164657D01*
X181430342Y-90310975D01*
X181430345Y-90310977D01*
X181602402Y-90425941D01*
X181793580Y-90505130D01*
X181996530Y-90545499D01*
X181996534Y-90545500D01*
X181996535Y-90545500D01*
X182203466Y-90545500D01*
X182203467Y-90545499D01*
X182406420Y-90505130D01*
X182597598Y-90425941D01*
X182769655Y-90310977D01*
X182915977Y-90164655D01*
X183030941Y-89992598D01*
X183110130Y-89801420D01*
X183150500Y-89598465D01*
X183150500Y-89391535D01*
X183110130Y-89188580D01*
X183030941Y-88997402D01*
X182915977Y-88825345D01*
X182915975Y-88825342D01*
X182769657Y-88679024D01*
X182619164Y-88578469D01*
X182597598Y-88564059D01*
X182406420Y-88484870D01*
X182406412Y-88484868D01*
X182203469Y-88444500D01*
X182203465Y-88444500D01*
X181996535Y-88444500D01*
X181996530Y-88444500D01*
X181793587Y-88484868D01*
X181793579Y-88484870D01*
X181602403Y-88564058D01*
X181430342Y-88679024D01*
X181284024Y-88825342D01*
X181169058Y-88997403D01*
X181089870Y-89188579D01*
X181089868Y-89188587D01*
X181049500Y-89391530D01*
X178100500Y-89391530D01*
X178100500Y-88390948D01*
X178120185Y-88323909D01*
X178172989Y-88278154D01*
X178242147Y-88268210D01*
X178305703Y-88297235D01*
X178336357Y-88339747D01*
X178336359Y-88339746D01*
X178336368Y-88339763D01*
X178339062Y-88343498D01*
X178340424Y-88346788D01*
X178419475Y-88483709D01*
X178419479Y-88483714D01*
X178419480Y-88483716D01*
X178531284Y-88595520D01*
X178531286Y-88595521D01*
X178531290Y-88595524D01*
X178668209Y-88674573D01*
X178668216Y-88674577D01*
X178820943Y-88715500D01*
X178820945Y-88715500D01*
X178979055Y-88715500D01*
X178979057Y-88715500D01*
X179131784Y-88674577D01*
X179268716Y-88595520D01*
X179380520Y-88483716D01*
X179384108Y-88477500D01*
X179434675Y-88429285D01*
X179481676Y-88417882D01*
X179481503Y-88416561D01*
X179489559Y-88415500D01*
X179489562Y-88415500D01*
X179565989Y-88395021D01*
X179634511Y-88355460D01*
X179690460Y-88299511D01*
X180290460Y-87699511D01*
X180307671Y-87669700D01*
X180330021Y-87630989D01*
X180350500Y-87554562D01*
X180350500Y-86851530D01*
X181049500Y-86851530D01*
X181049500Y-87058469D01*
X181089868Y-87261412D01*
X181089870Y-87261420D01*
X181168203Y-87450533D01*
X181169059Y-87452598D01*
X181189517Y-87483216D01*
X181284024Y-87624657D01*
X181430342Y-87770975D01*
X181430345Y-87770977D01*
X181602402Y-87885941D01*
X181793580Y-87965130D01*
X181996530Y-88005499D01*
X181996534Y-88005500D01*
X181996535Y-88005500D01*
X182203466Y-88005500D01*
X182203467Y-88005499D01*
X182406420Y-87965130D01*
X182597598Y-87885941D01*
X182769655Y-87770977D01*
X182915977Y-87624655D01*
X183030941Y-87452598D01*
X183110130Y-87261420D01*
X183150500Y-87058465D01*
X183150500Y-86851535D01*
X183110130Y-86648580D01*
X183030941Y-86457402D01*
X182915977Y-86285345D01*
X182915975Y-86285342D01*
X182769657Y-86139024D01*
X182597963Y-86024303D01*
X182597598Y-86024059D01*
X182406420Y-85944870D01*
X182406412Y-85944868D01*
X182203469Y-85904500D01*
X182203465Y-85904500D01*
X181996535Y-85904500D01*
X181996530Y-85904500D01*
X181793587Y-85944868D01*
X181793579Y-85944870D01*
X181602403Y-86024058D01*
X181430342Y-86139024D01*
X181284024Y-86285342D01*
X181169058Y-86457403D01*
X181089870Y-86648579D01*
X181089868Y-86648587D01*
X181049500Y-86851530D01*
X180350500Y-86851530D01*
X180350500Y-84311530D01*
X181049500Y-84311530D01*
X181049500Y-84518469D01*
X181089868Y-84721412D01*
X181089870Y-84721420D01*
X181154222Y-84876780D01*
X181169059Y-84912598D01*
X181213080Y-84978480D01*
X181284024Y-85084657D01*
X181430342Y-85230975D01*
X181430345Y-85230977D01*
X181602402Y-85345941D01*
X181793580Y-85425130D01*
X181996530Y-85465499D01*
X181996534Y-85465500D01*
X181996535Y-85465500D01*
X182203466Y-85465500D01*
X182203467Y-85465499D01*
X182406420Y-85425130D01*
X182597598Y-85345941D01*
X182769655Y-85230977D01*
X182915977Y-85084655D01*
X183030941Y-84912598D01*
X183110130Y-84721420D01*
X183150500Y-84518465D01*
X183150500Y-84311535D01*
X183110130Y-84108580D01*
X183030941Y-83917402D01*
X182915977Y-83745345D01*
X182915975Y-83745342D01*
X182769657Y-83599024D01*
X182683626Y-83541541D01*
X182597598Y-83484059D01*
X182479606Y-83435185D01*
X182406420Y-83404870D01*
X182406412Y-83404868D01*
X182203469Y-83364500D01*
X182203465Y-83364500D01*
X181996535Y-83364500D01*
X181996530Y-83364500D01*
X181793587Y-83404868D01*
X181793579Y-83404870D01*
X181602403Y-83484058D01*
X181430342Y-83599024D01*
X181284024Y-83745342D01*
X181169058Y-83917403D01*
X181089870Y-84108579D01*
X181089868Y-84108587D01*
X181049500Y-84311530D01*
X180350500Y-84311530D01*
X180350500Y-82690833D01*
X180370185Y-82623794D01*
X180386819Y-82603152D01*
X180778152Y-82211819D01*
X180805079Y-82197115D01*
X180830898Y-82180523D01*
X180837098Y-82179631D01*
X180839475Y-82178334D01*
X180865833Y-82175500D01*
X181004564Y-82175500D01*
X181071603Y-82195185D01*
X181117358Y-82247989D01*
X181119121Y-82252039D01*
X181169059Y-82372598D01*
X181226541Y-82458626D01*
X181284024Y-82544657D01*
X181430342Y-82690975D01*
X181430345Y-82690977D01*
X181602402Y-82805941D01*
X181793580Y-82885130D01*
X181996530Y-82925499D01*
X181996534Y-82925500D01*
X181996535Y-82925500D01*
X182203466Y-82925500D01*
X182203467Y-82925499D01*
X182406420Y-82885130D01*
X182597598Y-82805941D01*
X182769655Y-82690977D01*
X182915977Y-82544655D01*
X183030941Y-82372598D01*
X183110130Y-82181420D01*
X183150500Y-81978465D01*
X183150500Y-81771535D01*
X183110130Y-81568580D01*
X183030941Y-81377402D01*
X182915977Y-81205345D01*
X182915975Y-81205342D01*
X182769657Y-81059024D01*
X182683484Y-81001446D01*
X182597598Y-80944059D01*
X182597593Y-80944057D01*
X182535891Y-80918499D01*
X182432890Y-80875834D01*
X182378488Y-80831994D01*
X182356423Y-80765700D01*
X182373702Y-80698001D01*
X182424839Y-80650390D01*
X182442026Y-80643343D01*
X182618217Y-80586095D01*
X182807554Y-80489622D01*
X182861716Y-80450270D01*
X182861717Y-80450270D01*
X182229408Y-79817962D01*
X182292993Y-79800925D01*
X182407007Y-79735099D01*
X182500099Y-79642007D01*
X182565925Y-79527993D01*
X182582962Y-79464408D01*
X183215270Y-80096717D01*
X183215270Y-80096716D01*
X183254622Y-80042554D01*
X183351095Y-79853217D01*
X183416757Y-79651130D01*
X183416757Y-79651127D01*
X183450000Y-79441246D01*
X183450000Y-79228753D01*
X183416757Y-79018872D01*
X183416757Y-79018869D01*
X183351095Y-78816782D01*
X183254624Y-78627449D01*
X183215270Y-78573282D01*
X183215269Y-78573282D01*
X182582962Y-79205590D01*
X182565925Y-79142007D01*
X182500099Y-79027993D01*
X182407007Y-78934901D01*
X182292993Y-78869075D01*
X182229409Y-78852037D01*
X182861716Y-78219728D01*
X182807550Y-78180375D01*
X182797954Y-78175486D01*
X182747157Y-78127512D01*
X182730361Y-78059692D01*
X182752897Y-77993556D01*
X182797954Y-77954514D01*
X182807554Y-77949622D01*
X182861716Y-77910270D01*
X182861717Y-77910270D01*
X182229408Y-77277962D01*
X182292993Y-77260925D01*
X182407007Y-77195099D01*
X182500099Y-77102007D01*
X182565925Y-76987993D01*
X182582962Y-76924409D01*
X183215270Y-77556717D01*
X183215270Y-77556716D01*
X183254622Y-77502554D01*
X183351095Y-77313217D01*
X183416757Y-77111130D01*
X183416757Y-77111127D01*
X183450000Y-76901246D01*
X183450000Y-76688753D01*
X183416757Y-76478872D01*
X183416757Y-76478869D01*
X183351095Y-76276782D01*
X183254620Y-76087442D01*
X183174479Y-75977135D01*
X183150999Y-75911328D01*
X183166825Y-75843275D01*
X183212799Y-75796862D01*
X183215986Y-75795021D01*
X183215989Y-75795021D01*
X183284511Y-75755460D01*
X183340460Y-75699511D01*
X183890460Y-75149511D01*
X183903166Y-75127503D01*
X183930021Y-75080989D01*
X183950500Y-75004562D01*
X183950500Y-72325438D01*
X183930021Y-72249011D01*
X183930017Y-72249004D01*
X183890464Y-72180495D01*
X183890458Y-72180487D01*
X183834511Y-72124540D01*
X183186819Y-71476847D01*
X183153334Y-71415524D01*
X183150500Y-71389166D01*
X183150500Y-70845249D01*
X183150499Y-70845247D01*
X183138868Y-70786770D01*
X183138867Y-70786769D01*
X183094552Y-70720447D01*
X183028230Y-70676132D01*
X183028229Y-70676131D01*
X182969752Y-70664500D01*
X182969748Y-70664500D01*
X181230252Y-70664500D01*
X181230247Y-70664500D01*
X181171770Y-70676131D01*
X181171769Y-70676132D01*
X181105447Y-70720447D01*
X181061132Y-70786769D01*
X181061131Y-70786770D01*
X181049500Y-70845247D01*
X181049500Y-72584752D01*
X181061131Y-72643229D01*
X181061132Y-72643230D01*
X181105447Y-72709552D01*
X181171769Y-72753867D01*
X181171770Y-72753868D01*
X181230247Y-72765499D01*
X181230250Y-72765500D01*
X181230252Y-72765500D01*
X182969750Y-72765500D01*
X182969751Y-72765499D01*
X182984568Y-72762552D01*
X183028229Y-72753868D01*
X183028229Y-72753867D01*
X183028231Y-72753867D01*
X183094552Y-72709552D01*
X183122398Y-72667877D01*
X183176010Y-72623073D01*
X183245335Y-72614366D01*
X183308362Y-72644520D01*
X183345082Y-72703963D01*
X183349500Y-72736769D01*
X183349500Y-73903080D01*
X183329815Y-73970119D01*
X183277011Y-74015874D01*
X183207853Y-74025818D01*
X183144297Y-73996793D01*
X183110939Y-73950533D01*
X183030942Y-73757403D01*
X182915975Y-73585342D01*
X182769657Y-73439024D01*
X182683626Y-73381541D01*
X182597598Y-73324059D01*
X182586461Y-73319446D01*
X182406420Y-73244870D01*
X182406412Y-73244868D01*
X182203469Y-73204500D01*
X182203465Y-73204500D01*
X181996535Y-73204500D01*
X181996530Y-73204500D01*
X181793587Y-73244868D01*
X181793579Y-73244870D01*
X181602403Y-73324058D01*
X181430342Y-73439024D01*
X181284024Y-73585342D01*
X181169058Y-73757403D01*
X181119125Y-73877953D01*
X181075284Y-73932356D01*
X181008990Y-73954421D01*
X181004564Y-73954500D01*
X178520438Y-73954500D01*
X178482224Y-73964739D01*
X178444009Y-73974979D01*
X178444004Y-73974982D01*
X178375495Y-74014535D01*
X178375487Y-74014541D01*
X176859541Y-75530487D01*
X176859535Y-75530495D01*
X176819982Y-75599004D01*
X176819979Y-75599009D01*
X176799500Y-75675439D01*
X176799500Y-89172687D01*
X176779815Y-89239726D01*
X176763181Y-89260368D01*
X176528968Y-89494580D01*
X176467645Y-89528065D01*
X176397953Y-89523081D01*
X176342020Y-89481209D01*
X176333897Y-89468894D01*
X176330520Y-89463044D01*
X176218717Y-89351241D01*
X176218709Y-89351235D01*
X176081790Y-89272186D01*
X176081786Y-89272184D01*
X176081784Y-89272183D01*
X175929057Y-89231260D01*
X175770943Y-89231260D01*
X175618216Y-89272183D01*
X175618209Y-89272186D01*
X175481290Y-89351235D01*
X175481282Y-89351241D01*
X175369481Y-89463042D01*
X175369475Y-89463050D01*
X175290426Y-89599969D01*
X175290423Y-89599976D01*
X175249500Y-89752703D01*
X175249500Y-89910817D01*
X175283029Y-90035947D01*
X175290423Y-90063543D01*
X175290426Y-90063550D01*
X175369475Y-90200469D01*
X175369478Y-90200473D01*
X175369480Y-90200476D01*
X175481284Y-90312280D01*
X175481286Y-90312281D01*
X175481290Y-90312284D01*
X175607042Y-90384886D01*
X175618216Y-90391337D01*
X175770943Y-90432260D01*
X175770945Y-90432260D01*
X175929055Y-90432260D01*
X175929057Y-90432260D01*
X176081784Y-90391337D01*
X176218716Y-90312280D01*
X176330520Y-90200476D01*
X176334108Y-90194260D01*
X176384675Y-90146045D01*
X176441496Y-90132260D01*
X176595802Y-90132260D01*
X176652360Y-90148867D01*
X176669362Y-90138980D01*
X176696527Y-90121523D01*
X176699321Y-90120738D01*
X176732749Y-90111781D01*
X176801271Y-90072220D01*
X176857220Y-90016271D01*
X177287819Y-89585672D01*
X177349142Y-89552187D01*
X177418834Y-89557171D01*
X177474767Y-89599043D01*
X177499184Y-89664507D01*
X177499500Y-89673353D01*
X177499500Y-89739166D01*
X177479815Y-89806205D01*
X177463181Y-89826847D01*
X176955764Y-90334263D01*
X176894441Y-90367748D01*
X176862568Y-90370459D01*
X176849051Y-90369857D01*
X176829057Y-90364500D01*
X176728710Y-90364500D01*
X176725947Y-90364377D01*
X176695397Y-90353910D01*
X176673793Y-90347566D01*
X176630737Y-90375237D01*
X176627921Y-90376027D01*
X176518216Y-90405423D01*
X176518215Y-90405423D01*
X176413486Y-90465887D01*
X176413480Y-90465891D01*
X176381284Y-90484480D01*
X176340307Y-90525456D01*
X176340302Y-90525461D01*
X176269478Y-90596286D01*
X176269475Y-90596290D01*
X176190426Y-90733209D01*
X176190423Y-90733216D01*
X176149500Y-90885943D01*
X176149500Y-91044057D01*
X176190203Y-91195961D01*
X176190423Y-91196783D01*
X176190426Y-91196790D01*
X176269475Y-91333709D01*
X176269479Y-91333714D01*
X176269480Y-91333716D01*
X176381284Y-91445520D01*
X176481038Y-91503113D01*
X176529254Y-91553679D01*
X176542478Y-91622286D01*
X176516510Y-91687151D01*
X176459596Y-91727680D01*
X176419039Y-91734500D01*
X176045834Y-91734500D01*
X175978795Y-91714815D01*
X175958153Y-91698181D01*
X166034516Y-81774543D01*
X166034509Y-81774538D01*
X166029306Y-81771534D01*
X166029305Y-81771534D01*
X165993907Y-81751097D01*
X165965991Y-81734979D01*
X165940514Y-81728152D01*
X165889563Y-81714500D01*
X157360438Y-81714500D01*
X157322224Y-81724739D01*
X157284009Y-81734979D01*
X157249162Y-81755099D01*
X157220696Y-81771534D01*
X157220695Y-81771534D01*
X157215491Y-81774538D01*
X157215484Y-81774543D01*
X154803917Y-84186112D01*
X154776989Y-84200815D01*
X154751171Y-84217408D01*
X154744970Y-84218299D01*
X154742594Y-84219597D01*
X154716236Y-84222431D01*
X154520921Y-84222431D01*
X154458921Y-84205818D01*
X154381786Y-84161284D01*
X154381785Y-84161283D01*
X154381784Y-84161283D01*
X154229057Y-84120360D01*
X154070943Y-84120360D01*
X153979758Y-84144793D01*
X153918216Y-84161283D01*
X153918209Y-84161286D01*
X153781290Y-84240335D01*
X153781282Y-84240341D01*
X153669481Y-84352142D01*
X153669475Y-84352150D01*
X153590426Y-84489069D01*
X153590423Y-84489076D01*
X153549500Y-84641803D01*
X153549500Y-84799917D01*
X153589865Y-84950559D01*
X153590423Y-84952643D01*
X153590426Y-84952650D01*
X153669475Y-85089569D01*
X153669479Y-85089574D01*
X153669480Y-85089576D01*
X153781284Y-85201380D01*
X153781286Y-85201381D01*
X153781290Y-85201384D01*
X153900074Y-85269963D01*
X153918216Y-85280437D01*
X154070943Y-85321360D01*
X154070945Y-85321360D01*
X154229054Y-85321360D01*
X154229057Y-85321360D01*
X154286201Y-85306048D01*
X154356048Y-85307711D01*
X154413910Y-85346873D01*
X154438066Y-85393728D01*
X154462429Y-85484651D01*
X154462432Y-85484658D01*
X154541481Y-85621577D01*
X154541485Y-85621582D01*
X154541486Y-85621584D01*
X154653290Y-85733388D01*
X154653292Y-85733389D01*
X154653296Y-85733392D01*
X154784096Y-85808908D01*
X154790222Y-85812445D01*
X154942949Y-85853368D01*
X154942951Y-85853368D01*
X155101061Y-85853368D01*
X155101063Y-85853368D01*
X155253790Y-85812445D01*
X155390722Y-85733388D01*
X155502526Y-85621584D01*
X155581583Y-85484652D01*
X155622506Y-85331925D01*
X155622506Y-85173811D01*
X155620648Y-85166876D01*
X155622309Y-85097029D01*
X155652739Y-85047104D01*
X156387819Y-84312024D01*
X156449142Y-84278540D01*
X156518834Y-84283524D01*
X156574767Y-84325396D01*
X156599184Y-84390860D01*
X156599500Y-84399706D01*
X156599500Y-85154562D01*
X156612045Y-85201378D01*
X156619979Y-85230990D01*
X156631229Y-85250475D01*
X156642480Y-85269962D01*
X156648527Y-85280436D01*
X156659539Y-85299510D01*
X157296651Y-85936622D01*
X157330136Y-85997945D01*
X157332970Y-86024303D01*
X157332970Y-86299460D01*
X157313285Y-86366499D01*
X157270971Y-86406846D01*
X157264760Y-86410431D01*
X157264751Y-86410438D01*
X157152951Y-86522238D01*
X157152945Y-86522246D01*
X157073896Y-86659165D01*
X157073893Y-86659172D01*
X157032970Y-86811899D01*
X157032970Y-86970013D01*
X157065460Y-87091265D01*
X157073893Y-87122739D01*
X157073896Y-87122746D01*
X157152945Y-87259665D01*
X157152949Y-87259670D01*
X157152950Y-87259672D01*
X157264754Y-87371476D01*
X157264756Y-87371477D01*
X157264760Y-87371480D01*
X157401679Y-87450529D01*
X157401686Y-87450533D01*
X157512828Y-87480313D01*
X157572487Y-87516677D01*
X157603016Y-87579524D01*
X157604732Y-87599635D01*
X157604792Y-87616191D01*
X157599500Y-87635943D01*
X157599500Y-87794057D01*
X157605522Y-87816533D01*
X157605581Y-87832631D01*
X157600157Y-87851353D01*
X157599693Y-87870842D01*
X157589821Y-87887037D01*
X157586141Y-87899742D01*
X157577455Y-87907323D01*
X157569263Y-87920764D01*
X156711848Y-88778181D01*
X156650525Y-88811666D01*
X156624167Y-88814500D01*
X155125833Y-88814500D01*
X155058794Y-88794815D01*
X155038152Y-88778181D01*
X150684512Y-84424541D01*
X150684511Y-84424540D01*
X150660364Y-84410599D01*
X150660364Y-84410597D01*
X150660361Y-84410597D01*
X150615994Y-84384981D01*
X150615991Y-84384979D01*
X150574247Y-84373794D01*
X150539562Y-84364500D01*
X150539560Y-84364500D01*
X143375833Y-84364500D01*
X143308794Y-84344815D01*
X143288152Y-84328181D01*
X141386819Y-82426848D01*
X141372115Y-82399920D01*
X141355523Y-82374102D01*
X141354631Y-82367901D01*
X141353334Y-82365525D01*
X141350500Y-82339167D01*
X141350500Y-82239833D01*
X141370185Y-82172794D01*
X141422989Y-82127039D01*
X141492147Y-82117095D01*
X141555703Y-82146120D01*
X141562181Y-82152152D01*
X142709540Y-83299511D01*
X142765489Y-83355460D01*
X142765491Y-83355461D01*
X142765495Y-83355464D01*
X142834004Y-83395017D01*
X142834011Y-83395021D01*
X142910438Y-83415500D01*
X153357067Y-83415500D01*
X153424106Y-83435185D01*
X153469861Y-83487989D01*
X153476840Y-83507401D01*
X153477465Y-83509736D01*
X153477469Y-83509746D01*
X153556519Y-83646665D01*
X153556523Y-83646670D01*
X153556524Y-83646672D01*
X153668328Y-83758476D01*
X153668330Y-83758477D01*
X153668334Y-83758480D01*
X153766141Y-83814948D01*
X153805260Y-83837533D01*
X153957987Y-83878456D01*
X153957989Y-83878456D01*
X154028800Y-83878456D01*
X154116101Y-83878456D01*
X154268828Y-83837533D01*
X154405760Y-83758476D01*
X154517564Y-83646672D01*
X154596621Y-83509740D01*
X154637544Y-83357013D01*
X154637544Y-83198899D01*
X154596621Y-83046172D01*
X154526952Y-82925500D01*
X154517568Y-82909246D01*
X154517562Y-82909238D01*
X154405761Y-82797437D01*
X154405753Y-82797431D01*
X154268834Y-82718382D01*
X154268830Y-82718380D01*
X154268828Y-82718379D01*
X154116101Y-82677456D01*
X153957987Y-82677456D01*
X153805260Y-82718379D01*
X153805259Y-82718379D01*
X153667545Y-82797888D01*
X153605546Y-82814500D01*
X143125833Y-82814500D01*
X143058794Y-82794815D01*
X143038152Y-82778181D01*
X142487143Y-82227172D01*
X142453658Y-82165849D01*
X142458642Y-82096157D01*
X142500514Y-82040224D01*
X142565978Y-82015807D01*
X142574915Y-82015928D01*
X142574915Y-82015500D01*
X142718995Y-82015500D01*
X142810041Y-81997389D01*
X142854328Y-81988580D01*
X142981811Y-81935775D01*
X143096542Y-81859114D01*
X143194114Y-81761542D01*
X143270775Y-81646811D01*
X143323580Y-81519328D01*
X143340510Y-81434210D01*
X143344556Y-81413876D01*
X143376941Y-81351965D01*
X143378436Y-81350442D01*
X143602060Y-81126819D01*
X143663383Y-81093334D01*
X143689741Y-81090500D01*
X149075764Y-81090500D01*
X149075766Y-81090500D01*
X149222135Y-81051281D01*
X149353365Y-80975515D01*
X157097804Y-73231074D01*
X157159125Y-73197591D01*
X157161194Y-73197159D01*
X157204328Y-73188580D01*
X157331811Y-73135775D01*
X157446542Y-73059114D01*
X157544114Y-72961542D01*
X157620775Y-72846811D01*
X157673580Y-72719328D01*
X157688717Y-72643229D01*
X157700500Y-72583995D01*
X157700500Y-72446004D01*
X157673581Y-72310677D01*
X157673580Y-72310676D01*
X157673580Y-72310672D01*
X157665213Y-72290471D01*
X157620778Y-72183195D01*
X157620771Y-72183182D01*
X157544114Y-72068458D01*
X157544111Y-72068454D01*
X157446545Y-71970888D01*
X157446541Y-71970885D01*
X157331817Y-71894228D01*
X157331804Y-71894221D01*
X157204332Y-71841421D01*
X157204322Y-71841418D01*
X157068995Y-71814500D01*
X157068993Y-71814500D01*
X156931007Y-71814500D01*
X156931005Y-71814500D01*
X156795677Y-71841418D01*
X156795667Y-71841421D01*
X156668195Y-71894221D01*
X156668182Y-71894228D01*
X156553458Y-71970885D01*
X156553454Y-71970888D01*
X156455888Y-72068454D01*
X156455885Y-72068458D01*
X156379228Y-72183182D01*
X156379221Y-72183195D01*
X156326420Y-72310669D01*
X156326418Y-72310677D01*
X156317859Y-72353706D01*
X156285473Y-72415617D01*
X156283923Y-72417195D01*
X148797939Y-79903181D01*
X148736616Y-79936666D01*
X148710258Y-79939500D01*
X143324233Y-79939500D01*
X143177863Y-79978719D01*
X143046635Y-80054485D01*
X143046632Y-80054487D01*
X142939483Y-80161637D01*
X142487059Y-80614059D01*
X142446831Y-80640939D01*
X142318192Y-80694223D01*
X142318182Y-80694228D01*
X142243391Y-80744203D01*
X142176714Y-80765081D01*
X142109333Y-80746597D01*
X142062643Y-80694618D01*
X142050500Y-80641101D01*
X142050500Y-79325439D01*
X142050500Y-79325438D01*
X142030021Y-79249011D01*
X142018325Y-79228753D01*
X141990464Y-79180495D01*
X141990458Y-79180487D01*
X141384512Y-78574541D01*
X141384504Y-78574535D01*
X141315995Y-78534982D01*
X141315990Y-78534979D01*
X141290513Y-78528152D01*
X141239562Y-78514500D01*
X141239560Y-78514500D01*
X140760436Y-78514500D01*
X140693397Y-78494815D01*
X140647642Y-78442011D01*
X140645875Y-78437953D01*
X140639500Y-78422562D01*
X140595941Y-78317402D01*
X140480977Y-78145345D01*
X140480975Y-78145342D01*
X140334657Y-77999024D01*
X140248626Y-77941541D01*
X140162598Y-77884059D01*
X139971420Y-77804870D01*
X139971412Y-77804868D01*
X139768469Y-77764500D01*
X139768465Y-77764500D01*
X139561535Y-77764500D01*
X139561530Y-77764500D01*
X139358587Y-77804868D01*
X139358579Y-77804870D01*
X139167403Y-77884058D01*
X138995342Y-77999024D01*
X138995341Y-77999025D01*
X138912181Y-78082186D01*
X138850858Y-78115671D01*
X138781166Y-78110687D01*
X138725233Y-78068815D01*
X138700816Y-78003351D01*
X138700500Y-77994505D01*
X138700500Y-77690832D01*
X138720185Y-77623793D01*
X138736815Y-77603155D01*
X139085217Y-77254752D01*
X139146540Y-77221268D01*
X139216232Y-77226252D01*
X139220335Y-77227866D01*
X139358580Y-77285130D01*
X139499784Y-77313217D01*
X139561530Y-77325499D01*
X139561534Y-77325500D01*
X139561535Y-77325500D01*
X139768466Y-77325500D01*
X139768467Y-77325499D01*
X139971420Y-77285130D01*
X140162598Y-77205941D01*
X140334655Y-77090977D01*
X140480977Y-76944655D01*
X140595941Y-76772598D01*
X140675130Y-76581420D01*
X140715500Y-76378465D01*
X140715500Y-76171535D01*
X140675130Y-75968580D01*
X140595941Y-75777402D01*
X140480977Y-75605345D01*
X140480975Y-75605342D01*
X140334657Y-75459024D01*
X140162596Y-75344057D01*
X140066035Y-75304061D01*
X140011632Y-75260220D01*
X139989567Y-75193926D01*
X140006846Y-75126226D01*
X140057984Y-75078616D01*
X140113488Y-75065500D01*
X145208481Y-75065500D01*
X145275520Y-75085185D01*
X145296162Y-75101819D01*
X146513181Y-76318838D01*
X146546666Y-76380161D01*
X146549500Y-76406519D01*
X146549500Y-77333993D01*
X146549500Y-77333995D01*
X146549499Y-77333995D01*
X146576418Y-77469322D01*
X146576421Y-77469332D01*
X146629221Y-77596804D01*
X146629228Y-77596817D01*
X146705885Y-77711541D01*
X146705888Y-77711545D01*
X146803454Y-77809111D01*
X146803458Y-77809114D01*
X146918182Y-77885771D01*
X146918195Y-77885778D01*
X146977325Y-77910270D01*
X147045672Y-77938580D01*
X147045676Y-77938580D01*
X147045677Y-77938581D01*
X147181004Y-77965500D01*
X147181007Y-77965500D01*
X147318995Y-77965500D01*
X147410041Y-77947389D01*
X147454328Y-77938580D01*
X147581811Y-77885775D01*
X147696542Y-77809114D01*
X147794114Y-77711542D01*
X147870775Y-77596811D01*
X147923580Y-77469328D01*
X147940541Y-77384059D01*
X147950500Y-77333995D01*
X147950500Y-75996006D01*
X147945044Y-75968581D01*
X147945044Y-75968578D01*
X147933656Y-75911328D01*
X147923580Y-75860672D01*
X147906043Y-75818334D01*
X147870777Y-75733192D01*
X147794112Y-75618454D01*
X145996545Y-73820887D01*
X145881807Y-73744222D01*
X145754332Y-73691421D01*
X145754322Y-73691418D01*
X145618996Y-73664500D01*
X145618994Y-73664500D01*
X145618993Y-73664500D01*
X138568994Y-73664500D01*
X138431006Y-73664500D01*
X138431004Y-73664500D01*
X138295677Y-73691418D01*
X138295667Y-73691421D01*
X138168192Y-73744222D01*
X138053454Y-73820887D01*
X138053453Y-73820888D01*
X136686162Y-75188181D01*
X136624839Y-75221666D01*
X136598481Y-75224500D01*
X136255247Y-75224500D01*
X136196770Y-75236131D01*
X136196769Y-75236132D01*
X136130447Y-75280447D01*
X136086132Y-75346769D01*
X136086131Y-75346770D01*
X136074500Y-75405247D01*
X136074500Y-75450500D01*
X136054815Y-75517539D01*
X136002011Y-75563294D01*
X135950500Y-75574500D01*
X135471004Y-75574500D01*
X135335677Y-75601418D01*
X135335667Y-75601421D01*
X135208192Y-75654223D01*
X135094028Y-75730504D01*
X135027350Y-75751381D01*
X134959970Y-75732896D01*
X134913281Y-75680917D01*
X134902105Y-75611947D01*
X134910577Y-75579949D01*
X134936428Y-75517539D01*
X134998057Y-75368753D01*
X135062700Y-75127503D01*
X135063453Y-75121789D01*
X135078885Y-75004562D01*
X135095300Y-74879880D01*
X135095300Y-74630120D01*
X135062700Y-74382497D01*
X134998057Y-74141247D01*
X134929187Y-73974979D01*
X134902482Y-73910507D01*
X134902474Y-73910491D01*
X134777602Y-73694208D01*
X134777598Y-73694201D01*
X134625554Y-73496053D01*
X134625549Y-73496047D01*
X134448952Y-73319450D01*
X134448945Y-73319444D01*
X134250807Y-73167408D01*
X134250805Y-73167406D01*
X134250799Y-73167402D01*
X134250794Y-73167399D01*
X134250791Y-73167397D01*
X134034508Y-73042525D01*
X134034492Y-73042517D01*
X133803753Y-72946943D01*
X133562499Y-72882299D01*
X133314890Y-72849701D01*
X133314885Y-72849700D01*
X133314880Y-72849700D01*
X133065120Y-72849700D01*
X133065114Y-72849700D01*
X133065109Y-72849701D01*
X132817500Y-72882299D01*
X132576246Y-72946943D01*
X132345507Y-73042517D01*
X132345491Y-73042525D01*
X132129208Y-73167397D01*
X132129192Y-73167408D01*
X131931054Y-73319444D01*
X131931047Y-73319450D01*
X131754450Y-73496047D01*
X131754444Y-73496054D01*
X131602408Y-73694192D01*
X131602397Y-73694208D01*
X131477525Y-73910491D01*
X131477517Y-73910507D01*
X131381943Y-74141246D01*
X131317299Y-74382500D01*
X131284701Y-74630109D01*
X131284700Y-74630126D01*
X130925300Y-74630126D01*
X130925300Y-67706504D01*
X138800000Y-67706504D01*
X138800000Y-68105000D01*
X139500000Y-68105000D01*
X139500000Y-68605000D01*
X138800000Y-68605000D01*
X138800000Y-69003495D01*
X138838427Y-69196681D01*
X138838430Y-69196693D01*
X138913807Y-69378671D01*
X138913814Y-69378684D01*
X139023248Y-69542462D01*
X139023251Y-69542466D01*
X139162533Y-69681748D01*
X139162537Y-69681751D01*
X139326315Y-69791185D01*
X139326328Y-69791192D01*
X139508308Y-69866569D01*
X139550000Y-69874862D01*
X139550000Y-69071988D01*
X139559940Y-69089205D01*
X139615795Y-69145060D01*
X139684204Y-69184556D01*
X139760504Y-69205000D01*
X139839496Y-69205000D01*
X139915796Y-69184556D01*
X139984205Y-69145060D01*
X140040060Y-69089205D01*
X140050000Y-69071988D01*
X140050000Y-69874862D01*
X140091690Y-69866569D01*
X140091692Y-69866569D01*
X140273671Y-69791192D01*
X140273684Y-69791185D01*
X140437462Y-69681751D01*
X140437466Y-69681748D01*
X140576748Y-69542466D01*
X140576751Y-69542462D01*
X140686185Y-69378684D01*
X140686192Y-69378671D01*
X140761569Y-69196693D01*
X140761572Y-69196681D01*
X140799999Y-69003495D01*
X140800000Y-69003492D01*
X140800000Y-68544699D01*
X140819685Y-68477660D01*
X140872489Y-68431905D01*
X140941647Y-68421961D01*
X140971449Y-68430137D01*
X141046148Y-68461078D01*
X141136249Y-68479000D01*
X141167916Y-68485299D01*
X141167920Y-68485300D01*
X141167921Y-68485300D01*
X141292080Y-68485300D01*
X141292081Y-68485299D01*
X141413852Y-68461078D01*
X141528559Y-68413565D01*
X141631793Y-68344586D01*
X141719586Y-68256793D01*
X141788565Y-68153559D01*
X141836078Y-68038852D01*
X141860300Y-67917079D01*
X141860300Y-67792921D01*
X141836078Y-67671148D01*
X141805275Y-67596783D01*
X141788568Y-67556447D01*
X141788561Y-67556434D01*
X141719586Y-67453207D01*
X141719583Y-67453203D01*
X141631796Y-67365416D01*
X141631792Y-67365413D01*
X141580167Y-67330918D01*
X141528565Y-67296438D01*
X141528552Y-67296431D01*
X141413856Y-67248923D01*
X141413844Y-67248920D01*
X141348605Y-67235943D01*
X142299500Y-67235943D01*
X142299500Y-67394057D01*
X142312898Y-67444057D01*
X142340423Y-67546783D01*
X142340426Y-67546790D01*
X142419475Y-67683709D01*
X142419479Y-67683714D01*
X142419480Y-67683716D01*
X142531284Y-67795520D01*
X142531286Y-67795521D01*
X142531290Y-67795524D01*
X142617887Y-67845520D01*
X142668216Y-67874577D01*
X142820943Y-67915500D01*
X142820945Y-67915500D01*
X142979055Y-67915500D01*
X142979057Y-67915500D01*
X143131784Y-67874577D01*
X143268716Y-67795520D01*
X143380520Y-67683716D01*
X143459577Y-67546784D01*
X143500500Y-67394057D01*
X143500500Y-67261543D01*
X143520185Y-67194504D01*
X143536819Y-67173862D01*
X144508862Y-66201819D01*
X144570185Y-66168334D01*
X144596543Y-66165500D01*
X146054456Y-66165500D01*
X146121495Y-66185185D01*
X146167250Y-66237989D01*
X146177194Y-66307147D01*
X146148169Y-66370703D01*
X146142138Y-66377179D01*
X145807651Y-66711666D01*
X145491136Y-67028181D01*
X145429813Y-67061666D01*
X145403455Y-67064500D01*
X145294638Y-67064500D01*
X145141911Y-67105423D01*
X145141904Y-67105426D01*
X145004985Y-67184475D01*
X145004977Y-67184481D01*
X144893176Y-67296282D01*
X144893170Y-67296290D01*
X144814121Y-67433209D01*
X144814118Y-67433216D01*
X144773195Y-67585943D01*
X144773195Y-67744057D01*
X144808168Y-67874576D01*
X144814118Y-67896783D01*
X144814121Y-67896790D01*
X144893170Y-68033709D01*
X144893174Y-68033714D01*
X144893175Y-68033716D01*
X145004979Y-68145520D01*
X145004981Y-68145521D01*
X145004985Y-68145524D01*
X145141904Y-68224573D01*
X145141911Y-68224577D01*
X145294638Y-68265500D01*
X145294640Y-68265500D01*
X145452750Y-68265500D01*
X145452752Y-68265500D01*
X145605479Y-68224577D01*
X145742411Y-68145520D01*
X145854215Y-68033716D01*
X145933272Y-67896784D01*
X145974195Y-67744057D01*
X145974195Y-67587848D01*
X145993880Y-67520809D01*
X146010514Y-67500167D01*
X146558863Y-66951819D01*
X146620186Y-66918334D01*
X146646544Y-66915500D01*
X147615923Y-66915500D01*
X147682962Y-66935185D01*
X147728717Y-66987989D01*
X147738661Y-67057147D01*
X147709636Y-67120703D01*
X147703604Y-67127181D01*
X147663251Y-67167533D01*
X147563117Y-67317393D01*
X147509504Y-67362197D01*
X147440179Y-67370904D01*
X147391124Y-67351603D01*
X147308565Y-67296438D01*
X147308552Y-67296431D01*
X147193856Y-67248923D01*
X147193844Y-67248920D01*
X147072083Y-67224700D01*
X147072079Y-67224700D01*
X146947921Y-67224700D01*
X146947916Y-67224700D01*
X146826155Y-67248920D01*
X146826143Y-67248923D01*
X146711447Y-67296431D01*
X146711434Y-67296438D01*
X146608207Y-67365413D01*
X146608203Y-67365416D01*
X146520416Y-67453203D01*
X146520413Y-67453207D01*
X146451438Y-67556434D01*
X146451431Y-67556447D01*
X146403923Y-67671143D01*
X146403920Y-67671155D01*
X146379700Y-67792916D01*
X146379700Y-67917083D01*
X146403920Y-68038844D01*
X146403923Y-68038856D01*
X146451431Y-68153552D01*
X146451438Y-68153565D01*
X146520413Y-68256792D01*
X146520416Y-68256796D01*
X146608203Y-68344583D01*
X146608207Y-68344586D01*
X146711434Y-68413561D01*
X146711447Y-68413568D01*
X146808925Y-68453944D01*
X146826148Y-68461078D01*
X146916249Y-68479000D01*
X146947916Y-68485299D01*
X146947920Y-68485300D01*
X146947921Y-68485300D01*
X147072080Y-68485300D01*
X147072081Y-68485299D01*
X147193852Y-68461078D01*
X147268548Y-68430137D01*
X147338016Y-68422669D01*
X147400496Y-68453944D01*
X147436148Y-68514033D01*
X147440000Y-68544699D01*
X147440000Y-69003495D01*
X147478427Y-69196681D01*
X147478430Y-69196693D01*
X147553807Y-69378671D01*
X147553814Y-69378684D01*
X147663248Y-69542462D01*
X147663251Y-69542466D01*
X147802533Y-69681748D01*
X147802537Y-69681751D01*
X147966315Y-69791185D01*
X147966328Y-69791192D01*
X148148308Y-69866569D01*
X148190000Y-69874862D01*
X148190000Y-69071988D01*
X148199940Y-69089205D01*
X148255795Y-69145060D01*
X148324204Y-69184556D01*
X148400504Y-69205000D01*
X148479496Y-69205000D01*
X148555796Y-69184556D01*
X148624205Y-69145060D01*
X148680060Y-69089205D01*
X148690000Y-69071988D01*
X148690000Y-69874862D01*
X148731690Y-69866569D01*
X148731692Y-69866569D01*
X148913671Y-69791192D01*
X148913684Y-69791185D01*
X149077462Y-69681751D01*
X149077466Y-69681748D01*
X149216748Y-69542466D01*
X149216751Y-69542462D01*
X149326185Y-69378684D01*
X149326192Y-69378671D01*
X149401569Y-69196693D01*
X149401572Y-69196681D01*
X149439999Y-69003495D01*
X149440000Y-69003492D01*
X149440000Y-68605000D01*
X148740000Y-68605000D01*
X148740000Y-68105000D01*
X149440000Y-68105000D01*
X149440000Y-67706508D01*
X149439999Y-67706504D01*
X165800000Y-67706504D01*
X165800000Y-68105000D01*
X166500000Y-68105000D01*
X166500000Y-68605000D01*
X165800000Y-68605000D01*
X165800000Y-69003495D01*
X165838427Y-69196681D01*
X165838430Y-69196693D01*
X165913807Y-69378671D01*
X165913814Y-69378684D01*
X166023248Y-69542462D01*
X166023251Y-69542466D01*
X166162533Y-69681748D01*
X166162537Y-69681751D01*
X166326315Y-69791185D01*
X166326328Y-69791192D01*
X166508308Y-69866569D01*
X166550000Y-69874862D01*
X166550000Y-69071988D01*
X166559940Y-69089205D01*
X166615795Y-69145060D01*
X166684204Y-69184556D01*
X166760504Y-69205000D01*
X166839496Y-69205000D01*
X166915796Y-69184556D01*
X166984205Y-69145060D01*
X167040060Y-69089205D01*
X167050000Y-69071988D01*
X167050000Y-69874862D01*
X167091690Y-69866569D01*
X167091692Y-69866569D01*
X167273671Y-69791192D01*
X167273684Y-69791185D01*
X167437462Y-69681751D01*
X167437466Y-69681748D01*
X167576748Y-69542466D01*
X167576751Y-69542462D01*
X167686185Y-69378684D01*
X167686192Y-69378671D01*
X167761569Y-69196693D01*
X167761572Y-69196681D01*
X167799999Y-69003495D01*
X167800000Y-69003492D01*
X167800000Y-68544699D01*
X167819685Y-68477660D01*
X167872489Y-68431905D01*
X167941647Y-68421961D01*
X167971449Y-68430137D01*
X168046148Y-68461078D01*
X168136249Y-68479000D01*
X168167916Y-68485299D01*
X168167920Y-68485300D01*
X168167921Y-68485300D01*
X168292080Y-68485300D01*
X168292081Y-68485299D01*
X168413852Y-68461078D01*
X168528559Y-68413565D01*
X168631793Y-68344586D01*
X168719586Y-68256793D01*
X168788565Y-68153559D01*
X168836078Y-68038852D01*
X168860300Y-67917079D01*
X168860300Y-67792921D01*
X168836078Y-67671148D01*
X168805275Y-67596783D01*
X168788568Y-67556447D01*
X168788561Y-67556434D01*
X168719586Y-67453207D01*
X168719583Y-67453203D01*
X168631796Y-67365416D01*
X168631792Y-67365413D01*
X168528565Y-67296438D01*
X168528552Y-67296431D01*
X168503231Y-67285943D01*
X169299500Y-67285943D01*
X169299500Y-67444057D01*
X169331891Y-67564940D01*
X169340423Y-67596783D01*
X169340426Y-67596790D01*
X169419475Y-67733709D01*
X169419479Y-67733714D01*
X169419480Y-67733716D01*
X169531284Y-67845520D01*
X169531286Y-67845521D01*
X169531290Y-67845524D01*
X169620087Y-67896790D01*
X169668216Y-67924577D01*
X169820943Y-67965500D01*
X169820945Y-67965500D01*
X169979055Y-67965500D01*
X169979057Y-67965500D01*
X170131784Y-67924577D01*
X170268716Y-67845520D01*
X170380520Y-67733716D01*
X170459577Y-67596784D01*
X170500500Y-67444057D01*
X170500500Y-67285943D01*
X170498642Y-67279008D01*
X170500303Y-67209161D01*
X170530733Y-67159236D01*
X171838152Y-65851819D01*
X171899475Y-65818334D01*
X171925833Y-65815500D01*
X172725167Y-65815500D01*
X172792206Y-65835185D01*
X172837961Y-65887989D01*
X172847905Y-65957147D01*
X172818880Y-66020703D01*
X172812848Y-66027181D01*
X172559541Y-66280487D01*
X172559535Y-66280495D01*
X172519982Y-66349004D01*
X172519979Y-66349009D01*
X172499500Y-66425439D01*
X172499500Y-66773504D01*
X172479815Y-66840543D01*
X172437501Y-66880890D01*
X172431290Y-66884475D01*
X172431281Y-66884482D01*
X172319481Y-66996282D01*
X172319475Y-66996290D01*
X172240426Y-67133209D01*
X172240423Y-67133216D01*
X172199500Y-67285943D01*
X172199500Y-67444057D01*
X172231891Y-67564940D01*
X172240423Y-67596783D01*
X172240426Y-67596790D01*
X172319475Y-67733709D01*
X172319479Y-67733714D01*
X172319480Y-67733716D01*
X172431284Y-67845520D01*
X172431286Y-67845521D01*
X172431290Y-67845524D01*
X172520087Y-67896790D01*
X172568216Y-67924577D01*
X172720943Y-67965500D01*
X172720945Y-67965500D01*
X172879055Y-67965500D01*
X172879057Y-67965500D01*
X173031784Y-67924577D01*
X173168716Y-67845520D01*
X173168976Y-67845259D01*
X173169248Y-67845110D01*
X173175161Y-67840574D01*
X173175868Y-67841495D01*
X173230293Y-67811772D01*
X173299985Y-67816751D01*
X173355922Y-67858617D01*
X173376471Y-67911509D01*
X173378511Y-67911104D01*
X173403920Y-68038844D01*
X173403923Y-68038856D01*
X173451431Y-68153552D01*
X173451438Y-68153565D01*
X173520413Y-68256792D01*
X173520416Y-68256796D01*
X173608203Y-68344583D01*
X173608207Y-68344586D01*
X173711434Y-68413561D01*
X173711447Y-68413568D01*
X173808925Y-68453944D01*
X173826148Y-68461078D01*
X173916249Y-68479000D01*
X173947916Y-68485299D01*
X173947920Y-68485300D01*
X173947921Y-68485300D01*
X174072080Y-68485300D01*
X174072081Y-68485299D01*
X174193852Y-68461078D01*
X174268548Y-68430137D01*
X174338016Y-68422669D01*
X174400496Y-68453944D01*
X174436148Y-68514033D01*
X174440000Y-68544699D01*
X174440000Y-69003495D01*
X174478427Y-69196681D01*
X174478430Y-69196693D01*
X174553807Y-69378671D01*
X174553814Y-69378684D01*
X174663248Y-69542462D01*
X174663251Y-69542466D01*
X174802533Y-69681748D01*
X174802537Y-69681751D01*
X174966315Y-69791185D01*
X174966328Y-69791192D01*
X175148308Y-69866569D01*
X175190000Y-69874862D01*
X175190000Y-69071988D01*
X175199940Y-69089205D01*
X175255795Y-69145060D01*
X175324204Y-69184556D01*
X175400504Y-69205000D01*
X175479496Y-69205000D01*
X175555796Y-69184556D01*
X175624205Y-69145060D01*
X175680060Y-69089205D01*
X175690000Y-69071988D01*
X175690000Y-69874862D01*
X175731690Y-69866569D01*
X175731692Y-69866569D01*
X175913671Y-69791192D01*
X175913684Y-69791185D01*
X176077462Y-69681751D01*
X176077466Y-69681748D01*
X176216748Y-69542466D01*
X176216751Y-69542462D01*
X176326185Y-69378684D01*
X176326192Y-69378671D01*
X176401569Y-69196693D01*
X176401572Y-69196681D01*
X176439999Y-69003495D01*
X176440000Y-69003492D01*
X176440000Y-68605000D01*
X175740000Y-68605000D01*
X175740000Y-68105000D01*
X176440000Y-68105000D01*
X176440000Y-67706508D01*
X176439999Y-67706504D01*
X176401572Y-67513318D01*
X176401569Y-67513306D01*
X176326192Y-67331328D01*
X176326185Y-67331315D01*
X176216751Y-67167537D01*
X176216748Y-67167533D01*
X176077466Y-67028251D01*
X176077462Y-67028248D01*
X175913684Y-66918814D01*
X175913671Y-66918807D01*
X175731691Y-66843429D01*
X175731683Y-66843427D01*
X175690000Y-66835135D01*
X175690000Y-67638011D01*
X175680060Y-67620795D01*
X175624205Y-67564940D01*
X175555796Y-67525444D01*
X175479496Y-67505000D01*
X175400504Y-67505000D01*
X175324204Y-67525444D01*
X175255795Y-67564940D01*
X175199940Y-67620795D01*
X175190000Y-67638011D01*
X175190000Y-66835136D01*
X175189999Y-66835135D01*
X175148316Y-66843427D01*
X175148308Y-66843429D01*
X174966328Y-66918807D01*
X174966315Y-66918814D01*
X174802537Y-67028248D01*
X174802533Y-67028251D01*
X174663251Y-67167533D01*
X174563117Y-67317393D01*
X174509504Y-67362197D01*
X174440179Y-67370904D01*
X174391124Y-67351603D01*
X174308565Y-67296438D01*
X174308552Y-67296431D01*
X174193856Y-67248923D01*
X174193844Y-67248920D01*
X174072083Y-67224700D01*
X174072079Y-67224700D01*
X173947921Y-67224700D01*
X173947916Y-67224700D01*
X173826155Y-67248920D01*
X173826143Y-67248923D01*
X173711447Y-67296431D01*
X173711434Y-67296438D01*
X173608207Y-67365413D01*
X173603497Y-67369279D01*
X173601872Y-67367299D01*
X173550310Y-67395413D01*
X173480621Y-67390385D01*
X173424714Y-67348479D01*
X173401087Y-67290409D01*
X173400500Y-67285955D01*
X173400500Y-67285943D01*
X173359577Y-67133216D01*
X173298976Y-67028251D01*
X173280524Y-66996290D01*
X173280518Y-66996282D01*
X173168718Y-66884482D01*
X173168716Y-66884480D01*
X173168713Y-66884478D01*
X173168709Y-66884475D01*
X173162499Y-66880890D01*
X173154216Y-66872203D01*
X173143297Y-66867217D01*
X173130550Y-66847383D01*
X173114284Y-66830323D01*
X173111068Y-66817067D01*
X173105523Y-66808439D01*
X173100500Y-66773504D01*
X173100500Y-66640833D01*
X173120185Y-66573794D01*
X173136819Y-66553152D01*
X173438152Y-66251819D01*
X173499475Y-66218334D01*
X173525833Y-66215500D01*
X177189560Y-66215500D01*
X177189562Y-66215500D01*
X177265989Y-66195021D01*
X177334511Y-66155460D01*
X177390460Y-66099511D01*
X177672579Y-65817390D01*
X177733898Y-65783908D01*
X177803590Y-65788892D01*
X177847938Y-65817393D01*
X177898714Y-65868169D01*
X177898716Y-65868170D01*
X177898720Y-65868173D01*
X178035639Y-65947222D01*
X178035646Y-65947226D01*
X178188373Y-65988149D01*
X178188375Y-65988149D01*
X178346485Y-65988149D01*
X178346487Y-65988149D01*
X178499214Y-65947226D01*
X178636146Y-65868169D01*
X178747950Y-65756365D01*
X178827007Y-65619433D01*
X178867930Y-65466706D01*
X178867930Y-65308592D01*
X178827007Y-65155865D01*
X178801951Y-65112466D01*
X178747954Y-65018939D01*
X178747948Y-65018931D01*
X178636147Y-64907130D01*
X178636139Y-64907124D01*
X178499220Y-64828075D01*
X178499216Y-64828073D01*
X178499214Y-64828072D01*
X178346487Y-64787149D01*
X178188373Y-64787149D01*
X178035646Y-64828072D01*
X178035639Y-64828075D01*
X177898720Y-64907124D01*
X177898712Y-64907130D01*
X177786909Y-65018933D01*
X177783322Y-65025148D01*
X177732755Y-65073364D01*
X177696724Y-65085394D01*
X177686405Y-65087149D01*
X177637789Y-65087149D01*
X177561362Y-65107628D01*
X177559430Y-65108743D01*
X177547613Y-65110753D01*
X177518433Y-65107319D01*
X177489067Y-65106620D01*
X177484136Y-65103283D01*
X177478222Y-65102587D01*
X177455531Y-65083922D01*
X177431204Y-65067457D01*
X177428859Y-65061983D01*
X177424262Y-65058201D01*
X177415265Y-65030237D01*
X177403700Y-65003229D01*
X177404687Y-64997356D01*
X177402864Y-64991689D01*
X177410413Y-64963301D01*
X177415286Y-64934327D01*
X177419809Y-64927975D01*
X177420822Y-64924167D01*
X177425673Y-64919740D01*
X177439138Y-64900831D01*
X177894236Y-64445733D01*
X177955557Y-64412250D01*
X178014008Y-64413641D01*
X178020943Y-64415500D01*
X178020945Y-64415500D01*
X178179055Y-64415500D01*
X178179057Y-64415500D01*
X178331784Y-64374577D01*
X178468716Y-64295520D01*
X178580520Y-64183716D01*
X178659577Y-64046784D01*
X178700500Y-63894057D01*
X178700500Y-63735943D01*
X178659577Y-63583216D01*
X178654834Y-63575000D01*
X178580524Y-63446290D01*
X178580518Y-63446282D01*
X178468717Y-63334481D01*
X178468709Y-63334475D01*
X178331790Y-63255426D01*
X178331786Y-63255424D01*
X178331784Y-63255423D01*
X178179057Y-63214500D01*
X178020943Y-63214500D01*
X177868216Y-63255423D01*
X177868209Y-63255426D01*
X177731290Y-63334475D01*
X177731282Y-63334481D01*
X177619481Y-63446282D01*
X177619475Y-63446290D01*
X177540426Y-63583209D01*
X177540423Y-63583216D01*
X177499500Y-63735943D01*
X177499500Y-63894057D01*
X177501358Y-63900992D01*
X177499693Y-63970842D01*
X177469263Y-64020764D01*
X176610720Y-64879307D01*
X176549397Y-64912792D01*
X176479705Y-64907808D01*
X176423772Y-64865936D01*
X176399355Y-64800472D01*
X176401422Y-64767434D01*
X176439999Y-64573492D01*
X176440000Y-64573492D01*
X176440000Y-64425000D01*
X175740000Y-64425000D01*
X175740000Y-63925000D01*
X176440000Y-63925000D01*
X176440000Y-63776508D01*
X176439999Y-63776504D01*
X176401572Y-63583318D01*
X176401569Y-63583306D01*
X176326192Y-63401328D01*
X176326185Y-63401315D01*
X176216751Y-63237537D01*
X176216748Y-63237533D01*
X176077466Y-63098251D01*
X176077462Y-63098248D01*
X175913684Y-62988814D01*
X175913671Y-62988807D01*
X175731691Y-62913429D01*
X175731683Y-62913427D01*
X175690000Y-62905135D01*
X175690000Y-63708011D01*
X175680060Y-63690795D01*
X175624205Y-63634940D01*
X175555796Y-63595444D01*
X175479496Y-63575000D01*
X175400504Y-63575000D01*
X175324204Y-63595444D01*
X175255795Y-63634940D01*
X175199940Y-63690795D01*
X175190000Y-63708011D01*
X175190000Y-62905136D01*
X175189999Y-62905135D01*
X175148316Y-62913427D01*
X175148308Y-62913429D01*
X174966328Y-62988807D01*
X174966315Y-62988814D01*
X174802537Y-63098248D01*
X174802533Y-63098251D01*
X174663251Y-63237533D01*
X174663248Y-63237537D01*
X174553814Y-63401315D01*
X174553807Y-63401328D01*
X174478430Y-63583306D01*
X174478427Y-63583318D01*
X174440000Y-63776504D01*
X174440000Y-63925000D01*
X175140000Y-63925000D01*
X175140000Y-64425000D01*
X174440000Y-64425000D01*
X174440000Y-64573495D01*
X174478427Y-64766681D01*
X174478430Y-64766693D01*
X174553807Y-64948671D01*
X174553814Y-64948683D01*
X174602542Y-65021609D01*
X174623420Y-65088286D01*
X174604936Y-65155666D01*
X174552957Y-65202357D01*
X174499440Y-65214500D01*
X171710438Y-65214500D01*
X171679867Y-65222691D01*
X171634008Y-65234979D01*
X171634005Y-65234981D01*
X171598602Y-65255422D01*
X171598601Y-65255423D01*
X171591891Y-65259297D01*
X171565489Y-65274539D01*
X171565487Y-65274541D01*
X170105764Y-66734263D01*
X170044441Y-66767748D01*
X169985992Y-66766358D01*
X169979057Y-66764500D01*
X169820943Y-66764500D01*
X169668216Y-66805423D01*
X169668209Y-66805426D01*
X169531290Y-66884475D01*
X169531284Y-66884480D01*
X169419481Y-66996282D01*
X169419475Y-66996290D01*
X169340426Y-67133209D01*
X169340423Y-67133216D01*
X169299500Y-67285943D01*
X168503231Y-67285943D01*
X168413856Y-67248923D01*
X168413844Y-67248920D01*
X168292083Y-67224700D01*
X168292079Y-67224700D01*
X168167921Y-67224700D01*
X168167916Y-67224700D01*
X168046155Y-67248920D01*
X168046143Y-67248923D01*
X167931447Y-67296431D01*
X167931434Y-67296438D01*
X167848875Y-67351603D01*
X167782197Y-67372481D01*
X167714817Y-67353996D01*
X167676882Y-67317392D01*
X167576751Y-67167537D01*
X167576748Y-67167533D01*
X167437466Y-67028251D01*
X167437462Y-67028248D01*
X167273684Y-66918814D01*
X167273671Y-66918807D01*
X167091691Y-66843429D01*
X167091683Y-66843427D01*
X167050000Y-66835135D01*
X167050000Y-67638011D01*
X167040060Y-67620795D01*
X166984205Y-67564940D01*
X166915796Y-67525444D01*
X166839496Y-67505000D01*
X166760504Y-67505000D01*
X166684204Y-67525444D01*
X166615795Y-67564940D01*
X166559940Y-67620795D01*
X166550000Y-67638011D01*
X166550000Y-66835136D01*
X166549999Y-66835135D01*
X166508316Y-66843427D01*
X166508308Y-66843429D01*
X166326328Y-66918807D01*
X166326315Y-66918814D01*
X166162537Y-67028248D01*
X166162533Y-67028251D01*
X166023251Y-67167533D01*
X166023248Y-67167537D01*
X165913814Y-67331315D01*
X165913807Y-67331328D01*
X165838430Y-67513306D01*
X165838427Y-67513318D01*
X165800000Y-67706504D01*
X149439999Y-67706504D01*
X149401572Y-67513318D01*
X149401569Y-67513306D01*
X149326192Y-67331328D01*
X149326185Y-67331315D01*
X149216751Y-67167537D01*
X149216748Y-67167533D01*
X149176396Y-67127181D01*
X149142911Y-67065858D01*
X149147895Y-66996166D01*
X149189767Y-66940233D01*
X149255231Y-66915816D01*
X149264077Y-66915500D01*
X153796142Y-66915500D01*
X153796144Y-66915500D01*
X153885288Y-66891614D01*
X153897644Y-66884480D01*
X153965212Y-66845470D01*
X155030470Y-65780212D01*
X155076614Y-65700288D01*
X155094113Y-65634979D01*
X155100500Y-65611144D01*
X155100500Y-65510769D01*
X155100801Y-65506460D01*
X155111513Y-65477589D01*
X155120185Y-65448059D01*
X155124423Y-65442799D01*
X155125108Y-65440954D01*
X155127141Y-65439426D01*
X155136819Y-65427417D01*
X155180402Y-65383834D01*
X155230520Y-65333716D01*
X155309577Y-65196784D01*
X155350500Y-65044057D01*
X155350500Y-64885943D01*
X155309577Y-64733216D01*
X155266847Y-64659205D01*
X155230524Y-64596290D01*
X155230518Y-64596282D01*
X155118717Y-64484481D01*
X155118712Y-64484477D01*
X155112734Y-64481026D01*
X155112733Y-64481025D01*
X155112732Y-64481025D01*
X154981786Y-64405424D01*
X154981785Y-64405423D01*
X154981784Y-64405423D01*
X154829057Y-64364500D01*
X154670943Y-64364500D01*
X154518216Y-64405423D01*
X154518209Y-64405426D01*
X154381290Y-64484475D01*
X154381282Y-64484481D01*
X154269481Y-64596282D01*
X154269475Y-64596290D01*
X154190426Y-64733209D01*
X154190423Y-64733216D01*
X154149500Y-64885943D01*
X154149500Y-65044057D01*
X154179406Y-65155666D01*
X154190423Y-65196783D01*
X154190426Y-65196790D01*
X154269475Y-65333709D01*
X154269481Y-65333717D01*
X154289860Y-65354096D01*
X154323345Y-65415419D01*
X154318361Y-65485111D01*
X154289860Y-65529458D01*
X153641137Y-66178181D01*
X153579814Y-66211666D01*
X153553456Y-66214500D01*
X150900686Y-66214500D01*
X150833647Y-66194815D01*
X150787892Y-66142011D01*
X150777948Y-66072853D01*
X150782912Y-66054752D01*
X150782473Y-66054635D01*
X150784577Y-66046784D01*
X150825500Y-65894057D01*
X150825500Y-65735943D01*
X150784577Y-65583216D01*
X150753540Y-65529458D01*
X150705524Y-65446290D01*
X150705518Y-65446282D01*
X150593717Y-65334481D01*
X150593709Y-65334475D01*
X150456790Y-65255426D01*
X150456786Y-65255424D01*
X150456784Y-65255423D01*
X150304057Y-65214500D01*
X150145943Y-65214500D01*
X149993216Y-65255423D01*
X149993209Y-65255426D01*
X149856290Y-65334475D01*
X149856282Y-65334481D01*
X149762583Y-65428181D01*
X149701260Y-65461666D01*
X149674902Y-65464500D01*
X149164077Y-65464500D01*
X149097038Y-65444815D01*
X149051283Y-65392011D01*
X149041339Y-65322853D01*
X149070364Y-65259297D01*
X149076396Y-65252819D01*
X149216748Y-65112466D01*
X149216751Y-65112462D01*
X149326185Y-64948684D01*
X149326192Y-64948671D01*
X149401569Y-64766693D01*
X149401572Y-64766681D01*
X149439999Y-64573495D01*
X149440000Y-64573492D01*
X149440000Y-64425000D01*
X148740000Y-64425000D01*
X148740000Y-63925000D01*
X149440000Y-63925000D01*
X149440000Y-63776508D01*
X149439999Y-63776504D01*
X165800000Y-63776504D01*
X165800000Y-63925000D01*
X166500000Y-63925000D01*
X166500000Y-64425000D01*
X165800000Y-64425000D01*
X165800000Y-64573495D01*
X165838427Y-64766681D01*
X165838430Y-64766693D01*
X165913807Y-64948671D01*
X165913814Y-64948684D01*
X166023248Y-65112462D01*
X166023251Y-65112466D01*
X166162533Y-65251748D01*
X166162537Y-65251751D01*
X166326315Y-65361185D01*
X166326328Y-65361192D01*
X166508308Y-65436569D01*
X166550000Y-65444862D01*
X166550000Y-64641988D01*
X166559940Y-64659205D01*
X166615795Y-64715060D01*
X166684204Y-64754556D01*
X166760504Y-64775000D01*
X166839496Y-64775000D01*
X166915796Y-64754556D01*
X166984205Y-64715060D01*
X167040060Y-64659205D01*
X167050000Y-64641988D01*
X167050000Y-65444862D01*
X167091690Y-65436569D01*
X167091692Y-65436569D01*
X167273671Y-65361192D01*
X167273684Y-65361185D01*
X167437462Y-65251751D01*
X167437466Y-65251748D01*
X167576748Y-65112466D01*
X167576751Y-65112462D01*
X167686185Y-64948684D01*
X167686192Y-64948671D01*
X167761569Y-64766693D01*
X167761572Y-64766681D01*
X167799999Y-64573495D01*
X167800000Y-64573492D01*
X167800000Y-64425000D01*
X167100000Y-64425000D01*
X167100000Y-63925000D01*
X167800000Y-63925000D01*
X167800000Y-63776508D01*
X167799999Y-63776504D01*
X167761572Y-63583318D01*
X167761569Y-63583306D01*
X167686192Y-63401328D01*
X167686185Y-63401315D01*
X167576751Y-63237537D01*
X167576748Y-63237533D01*
X167437466Y-63098251D01*
X167437462Y-63098248D01*
X167273684Y-62988814D01*
X167273671Y-62988807D01*
X167091691Y-62913429D01*
X167091683Y-62913427D01*
X167050000Y-62905135D01*
X167050000Y-63708011D01*
X167040060Y-63690795D01*
X166984205Y-63634940D01*
X166915796Y-63595444D01*
X166839496Y-63575000D01*
X166760504Y-63575000D01*
X166684204Y-63595444D01*
X166615795Y-63634940D01*
X166559940Y-63690795D01*
X166550000Y-63708011D01*
X166550000Y-62905136D01*
X166549999Y-62905135D01*
X166508316Y-62913427D01*
X166508308Y-62913429D01*
X166326328Y-62988807D01*
X166326315Y-62988814D01*
X166162537Y-63098248D01*
X166162533Y-63098251D01*
X166023251Y-63237533D01*
X166023248Y-63237537D01*
X165913814Y-63401315D01*
X165913807Y-63401328D01*
X165838430Y-63583306D01*
X165838427Y-63583318D01*
X165800000Y-63776504D01*
X149439999Y-63776504D01*
X149401572Y-63583318D01*
X149401569Y-63583306D01*
X149326192Y-63401328D01*
X149326185Y-63401315D01*
X149216751Y-63237537D01*
X149216748Y-63237533D01*
X149077466Y-63098251D01*
X149077462Y-63098248D01*
X148913684Y-62988814D01*
X148913671Y-62988807D01*
X148731691Y-62913429D01*
X148731683Y-62913427D01*
X148690000Y-62905135D01*
X148690000Y-63708011D01*
X148680060Y-63690795D01*
X148624205Y-63634940D01*
X148555796Y-63595444D01*
X148479496Y-63575000D01*
X148400504Y-63575000D01*
X148324204Y-63595444D01*
X148255795Y-63634940D01*
X148199940Y-63690795D01*
X148190000Y-63708011D01*
X148190000Y-62905136D01*
X148189999Y-62905135D01*
X148148316Y-62913427D01*
X148148308Y-62913429D01*
X147966328Y-62988807D01*
X147966315Y-62988814D01*
X147802537Y-63098248D01*
X147802533Y-63098251D01*
X147663251Y-63237533D01*
X147663248Y-63237537D01*
X147553814Y-63401315D01*
X147553807Y-63401328D01*
X147478430Y-63583306D01*
X147478427Y-63583318D01*
X147440000Y-63776504D01*
X147440000Y-63925000D01*
X148140000Y-63925000D01*
X148140000Y-64425000D01*
X147440000Y-64425000D01*
X147440000Y-64573495D01*
X147478427Y-64766681D01*
X147478430Y-64766693D01*
X147553807Y-64948671D01*
X147553814Y-64948684D01*
X147663248Y-65112462D01*
X147663251Y-65112466D01*
X147803604Y-65252819D01*
X147837089Y-65314142D01*
X147832105Y-65383834D01*
X147790233Y-65439767D01*
X147724769Y-65464184D01*
X147715923Y-65464500D01*
X144353856Y-65464500D01*
X144264712Y-65488386D01*
X144264711Y-65488386D01*
X144264709Y-65488387D01*
X144264706Y-65488388D01*
X144184794Y-65534526D01*
X144184785Y-65534533D01*
X143041136Y-66678181D01*
X142979813Y-66711666D01*
X142953455Y-66714500D01*
X142820943Y-66714500D01*
X142668216Y-66755423D01*
X142668209Y-66755426D01*
X142531290Y-66834475D01*
X142531282Y-66834481D01*
X142419481Y-66946282D01*
X142419475Y-66946290D01*
X142340426Y-67083209D01*
X142340423Y-67083216D01*
X142299500Y-67235943D01*
X141348605Y-67235943D01*
X141292083Y-67224700D01*
X141292079Y-67224700D01*
X141167921Y-67224700D01*
X141167916Y-67224700D01*
X141046155Y-67248920D01*
X141046143Y-67248923D01*
X140931447Y-67296431D01*
X140931434Y-67296438D01*
X140848875Y-67351603D01*
X140782197Y-67372481D01*
X140714817Y-67353996D01*
X140676882Y-67317392D01*
X140576751Y-67167537D01*
X140576748Y-67167533D01*
X140437466Y-67028251D01*
X140437462Y-67028248D01*
X140273684Y-66918814D01*
X140273671Y-66918807D01*
X140091691Y-66843429D01*
X140091683Y-66843427D01*
X140050000Y-66835135D01*
X140050000Y-67638011D01*
X140040060Y-67620795D01*
X139984205Y-67564940D01*
X139915796Y-67525444D01*
X139839496Y-67505000D01*
X139760504Y-67505000D01*
X139684204Y-67525444D01*
X139615795Y-67564940D01*
X139559940Y-67620795D01*
X139550000Y-67638011D01*
X139550000Y-66835136D01*
X139549999Y-66835135D01*
X139508316Y-66843427D01*
X139508308Y-66843429D01*
X139326328Y-66918807D01*
X139326315Y-66918814D01*
X139162537Y-67028248D01*
X139162533Y-67028251D01*
X139023251Y-67167533D01*
X139023248Y-67167537D01*
X138913814Y-67331315D01*
X138913807Y-67331328D01*
X138838430Y-67513306D01*
X138838427Y-67513318D01*
X138800000Y-67706504D01*
X130925300Y-67706504D01*
X130925300Y-63776504D01*
X138800000Y-63776504D01*
X138800000Y-63925000D01*
X139500000Y-63925000D01*
X139500000Y-64425000D01*
X138800000Y-64425000D01*
X138800000Y-64573495D01*
X138838427Y-64766681D01*
X138838430Y-64766693D01*
X138913807Y-64948671D01*
X138913814Y-64948684D01*
X139023248Y-65112462D01*
X139023251Y-65112466D01*
X139162533Y-65251748D01*
X139162537Y-65251751D01*
X139326315Y-65361185D01*
X139326328Y-65361192D01*
X139508308Y-65436569D01*
X139550000Y-65444862D01*
X139550000Y-64641988D01*
X139559940Y-64659205D01*
X139615795Y-64715060D01*
X139684204Y-64754556D01*
X139760504Y-64775000D01*
X139839496Y-64775000D01*
X139915796Y-64754556D01*
X139984205Y-64715060D01*
X140040060Y-64659205D01*
X140050000Y-64641988D01*
X140050000Y-65444862D01*
X140091690Y-65436569D01*
X140091692Y-65436569D01*
X140273671Y-65361192D01*
X140273684Y-65361185D01*
X140437462Y-65251751D01*
X140437466Y-65251748D01*
X140576748Y-65112466D01*
X140576751Y-65112462D01*
X140686185Y-64948684D01*
X140686192Y-64948671D01*
X140761569Y-64766693D01*
X140761572Y-64766681D01*
X140799999Y-64573495D01*
X140800000Y-64573492D01*
X140800000Y-64425000D01*
X140100000Y-64425000D01*
X140100000Y-63925000D01*
X140800000Y-63925000D01*
X140800000Y-63776508D01*
X140799999Y-63776504D01*
X140761572Y-63583318D01*
X140761569Y-63583306D01*
X140686192Y-63401328D01*
X140686185Y-63401315D01*
X140576751Y-63237537D01*
X140576748Y-63237533D01*
X140437466Y-63098251D01*
X140437462Y-63098248D01*
X140273684Y-62988814D01*
X140273671Y-62988807D01*
X140091691Y-62913429D01*
X140091683Y-62913427D01*
X140050000Y-62905135D01*
X140050000Y-63708011D01*
X140040060Y-63690795D01*
X139984205Y-63634940D01*
X139915796Y-63595444D01*
X139839496Y-63575000D01*
X139760504Y-63575000D01*
X139684204Y-63595444D01*
X139615795Y-63634940D01*
X139559940Y-63690795D01*
X139550000Y-63708011D01*
X139550000Y-62905136D01*
X139549999Y-62905135D01*
X139508316Y-62913427D01*
X139508308Y-62913429D01*
X139326328Y-62988807D01*
X139326315Y-62988814D01*
X139162537Y-63098248D01*
X139162533Y-63098251D01*
X139023251Y-63237533D01*
X139023248Y-63237537D01*
X138913814Y-63401315D01*
X138913807Y-63401328D01*
X138838430Y-63583306D01*
X138838427Y-63583318D01*
X138800000Y-63776504D01*
X130925300Y-63776504D01*
X130925300Y-63754427D01*
X130925616Y-63745581D01*
X130926305Y-63735943D01*
X130941916Y-63517656D01*
X130944432Y-63500159D01*
X130992063Y-63281207D01*
X130997042Y-63264248D01*
X131075351Y-63054293D01*
X131082691Y-63038221D01*
X131190081Y-62841550D01*
X131199637Y-62826682D01*
X131333921Y-62647299D01*
X131345495Y-62633942D01*
X131503942Y-62475495D01*
X131517299Y-62463921D01*
X131696682Y-62329637D01*
X131711550Y-62320081D01*
X131908221Y-62212691D01*
X131924293Y-62205351D01*
X132134248Y-62127042D01*
X132151207Y-62122063D01*
X132370159Y-62074432D01*
X132387658Y-62071916D01*
X132570993Y-62058804D01*
X132615583Y-62055616D01*
X132624428Y-62055300D01*
X132668355Y-62055300D01*
X182576645Y-62055300D01*
X182620572Y-62055300D01*
X182629418Y-62055616D01*
G37*
%TD.AperFunction*%
%TD*%
M02*
