%TF.GenerationSoftware,KiCad,Pcbnew,9.0.9*%
%TF.CreationDate,2026-09-14T23:42:05+05:30*%
%TF.ProjectId,featherbyte-uno-v1.0.0,66656174-6865-4726-9279-74652d756e6f,v1.2.0*%
%TF.SameCoordinates,Original*%
%TF.FileFunction,Legend,Bot*%
%TF.FilePolarity,Positive*%
%FSLAX46Y46*%
G04 Gerber Fmt 4.6, Leading zero omitted, Abs format (unit mm)*
G04 Created by KiCad (PCBNEW 9.0.9) date 2026-09-14 23:42:05*
%MOMM*%
%LPD*%
G01*
G04 APERTURE LIST*
%ADD10C,0.200000*%
%ADD11C,0.203200*%
%ADD12C,0.120000*%
G04 APERTURE END LIST*
D10*
X141350000Y-75002500D02*
X149822500Y-75002500D01*
X149822500Y-81727500D01*
X141350000Y-81727500D01*
X141350000Y-75002500D01*
X145175000Y-75015000D02*
X145175000Y-81740000D01*
X151550000Y-62477500D02*
X158672500Y-62477500D01*
X158672500Y-69202500D01*
X151550000Y-69202500D01*
X151550000Y-62477500D01*
X151550000Y-65865000D02*
X158672500Y-65840000D01*
X155900000Y-62490000D02*
X155900000Y-69215000D01*
X155900000Y-64090000D02*
X158675000Y-64090000D01*
X155925000Y-67540000D02*
X158675000Y-67540000D01*
G36*
X142387469Y-80706695D02*
G01*
X142313220Y-80706695D01*
X142236725Y-80681197D01*
X142188703Y-80633174D01*
X142162773Y-80581314D01*
X142130326Y-80451527D01*
X142130326Y-80361862D01*
X142162773Y-80232074D01*
X142188702Y-80180216D01*
X142236726Y-80132192D01*
X142313220Y-80106695D01*
X142387469Y-80106695D01*
X142387469Y-80706695D01*
G37*
G36*
X144363660Y-81006695D02*
G01*
X141830326Y-81006695D01*
X141830326Y-80349552D01*
X141930326Y-80349552D01*
X141930326Y-80463838D01*
X141930661Y-80467241D01*
X141930444Y-80468700D01*
X141931523Y-80475998D01*
X141932247Y-80483347D01*
X141932811Y-80484710D01*
X141933312Y-80488092D01*
X141971408Y-80640473D01*
X141971921Y-80641911D01*
X141971973Y-80642632D01*
X141975076Y-80650742D01*
X141978003Y-80658934D01*
X141978433Y-80659515D01*
X141978979Y-80660940D01*
X142017074Y-80737130D01*
X142022357Y-80745524D01*
X142023369Y-80747966D01*
X142025623Y-80750713D01*
X142027517Y-80753721D01*
X142029513Y-80755452D01*
X142035806Y-80763119D01*
X142111996Y-80839310D01*
X142127149Y-80851747D01*
X142130468Y-80853122D01*
X142133184Y-80855477D01*
X142151084Y-80863468D01*
X142265371Y-80901563D01*
X142275041Y-80903762D01*
X142277484Y-80904774D01*
X142281023Y-80905122D01*
X142284486Y-80905910D01*
X142287119Y-80905722D01*
X142296993Y-80906695D01*
X142487469Y-80906695D01*
X142506978Y-80904774D01*
X142543026Y-80889842D01*
X142570616Y-80862252D01*
X142585548Y-80826204D01*
X142587469Y-80806695D01*
X142587469Y-80006695D01*
X142768421Y-80006695D01*
X142768421Y-80806695D01*
X142768915Y-80811712D01*
X142768665Y-80813680D01*
X142769359Y-80816226D01*
X142770342Y-80826204D01*
X142775433Y-80838494D01*
X142778932Y-80851323D01*
X142782834Y-80856361D01*
X142785274Y-80862252D01*
X142794679Y-80871657D01*
X142802822Y-80882172D01*
X142808356Y-80885334D01*
X142812864Y-80889842D01*
X142825149Y-80894930D01*
X142836699Y-80901531D01*
X142843023Y-80902334D01*
X142848912Y-80904774D01*
X142862213Y-80904774D01*
X142875406Y-80906451D01*
X142881555Y-80904774D01*
X142887930Y-80904774D01*
X142900220Y-80899682D01*
X142913049Y-80896184D01*
X142918087Y-80892281D01*
X142923978Y-80889842D01*
X142933383Y-80880436D01*
X142943898Y-80872294D01*
X142949701Y-80864118D01*
X142951568Y-80862252D01*
X142952326Y-80860419D01*
X142955245Y-80856309D01*
X143225564Y-80383250D01*
X143225564Y-80806695D01*
X143227485Y-80826204D01*
X143242417Y-80862252D01*
X143270007Y-80889842D01*
X143306055Y-80904774D01*
X143345073Y-80904774D01*
X143381121Y-80889842D01*
X143408711Y-80862252D01*
X143423643Y-80826204D01*
X143425564Y-80806695D01*
X143425564Y-80463838D01*
X143568421Y-80463838D01*
X143568421Y-80730504D01*
X143570342Y-80750013D01*
X143585274Y-80786061D01*
X143597710Y-80801215D01*
X143635806Y-80839311D01*
X143650960Y-80851747D01*
X143654278Y-80853121D01*
X143656994Y-80855477D01*
X143674894Y-80863468D01*
X143789179Y-80901563D01*
X143798850Y-80903762D01*
X143801293Y-80904774D01*
X143804831Y-80905122D01*
X143808295Y-80905910D01*
X143810928Y-80905722D01*
X143820802Y-80906695D01*
X143896993Y-80906695D01*
X143906866Y-80905722D01*
X143909500Y-80905910D01*
X143912963Y-80905122D01*
X143916502Y-80904774D01*
X143918944Y-80903762D01*
X143928616Y-80901563D01*
X144042902Y-80863468D01*
X144060802Y-80855477D01*
X144063517Y-80853122D01*
X144066837Y-80851747D01*
X144081990Y-80839310D01*
X144158180Y-80763119D01*
X144164472Y-80755452D01*
X144166469Y-80753721D01*
X144168362Y-80750713D01*
X144170617Y-80747966D01*
X144171628Y-80745524D01*
X144176912Y-80737130D01*
X144215007Y-80660940D01*
X144215552Y-80659515D01*
X144215983Y-80658934D01*
X144218909Y-80650742D01*
X144222013Y-80642632D01*
X144222064Y-80641911D01*
X144222578Y-80640473D01*
X144260674Y-80488092D01*
X144261174Y-80484710D01*
X144261739Y-80483347D01*
X144262462Y-80475998D01*
X144263542Y-80468700D01*
X144263324Y-80467241D01*
X144263660Y-80463838D01*
X144263660Y-80349552D01*
X144263324Y-80346148D01*
X144263542Y-80344690D01*
X144262462Y-80337391D01*
X144261739Y-80330043D01*
X144261174Y-80328679D01*
X144260674Y-80325298D01*
X144222578Y-80172917D01*
X144222064Y-80171478D01*
X144222013Y-80170759D01*
X144218912Y-80162656D01*
X144215983Y-80154456D01*
X144215552Y-80153874D01*
X144215007Y-80152450D01*
X144176912Y-80076259D01*
X144171626Y-80067862D01*
X144170616Y-80065423D01*
X144168362Y-80062676D01*
X144166469Y-80059669D01*
X144164474Y-80057938D01*
X144158180Y-80050269D01*
X144081990Y-79974079D01*
X144066836Y-79961643D01*
X144063517Y-79960268D01*
X144060802Y-79957913D01*
X144042902Y-79949922D01*
X143928616Y-79911827D01*
X143918944Y-79909627D01*
X143916502Y-79908616D01*
X143912963Y-79908267D01*
X143909500Y-79907480D01*
X143906866Y-79907667D01*
X143896993Y-79906695D01*
X143782707Y-79906695D01*
X143763198Y-79908616D01*
X143759877Y-79909991D01*
X143756294Y-79910246D01*
X143737986Y-79917252D01*
X143661796Y-79955347D01*
X143645205Y-79965790D01*
X143619641Y-79995267D01*
X143607302Y-80032283D01*
X143610068Y-80071203D01*
X143627517Y-80106102D01*
X143656994Y-80131666D01*
X143694010Y-80144005D01*
X143732930Y-80141239D01*
X143751238Y-80134233D01*
X143806314Y-80106695D01*
X143880766Y-80106695D01*
X143957259Y-80132192D01*
X144005283Y-80180216D01*
X144031212Y-80232074D01*
X144063660Y-80361862D01*
X144063660Y-80451527D01*
X144031212Y-80581314D01*
X144005282Y-80633174D01*
X143957260Y-80681197D01*
X143880766Y-80706695D01*
X143837029Y-80706695D01*
X143768421Y-80683825D01*
X143768421Y-80563838D01*
X143820802Y-80563838D01*
X143840311Y-80561917D01*
X143876359Y-80546985D01*
X143903949Y-80519395D01*
X143918881Y-80483347D01*
X143918881Y-80444329D01*
X143903949Y-80408281D01*
X143876359Y-80380691D01*
X143840311Y-80365759D01*
X143820802Y-80363838D01*
X143668421Y-80363838D01*
X143648912Y-80365759D01*
X143612864Y-80380691D01*
X143585274Y-80408281D01*
X143570342Y-80444329D01*
X143568421Y-80463838D01*
X143425564Y-80463838D01*
X143425564Y-80006695D01*
X143425069Y-80001677D01*
X143425320Y-79999710D01*
X143424625Y-79997163D01*
X143423643Y-79987186D01*
X143418551Y-79974895D01*
X143415053Y-79962067D01*
X143411150Y-79957028D01*
X143408711Y-79951138D01*
X143399305Y-79941732D01*
X143391163Y-79931218D01*
X143385628Y-79928055D01*
X143381121Y-79923548D01*
X143368835Y-79918459D01*
X143357286Y-79911859D01*
X143350961Y-79911055D01*
X143345073Y-79908616D01*
X143331773Y-79908616D01*
X143318580Y-79906939D01*
X143312431Y-79908616D01*
X143306055Y-79908616D01*
X143293763Y-79913707D01*
X143280936Y-79917206D01*
X143275897Y-79921108D01*
X143270007Y-79923548D01*
X143260601Y-79932953D01*
X143250087Y-79941096D01*
X143244283Y-79949271D01*
X143242417Y-79951138D01*
X143241658Y-79952970D01*
X143238740Y-79957081D01*
X142968421Y-80430139D01*
X142968421Y-80006695D01*
X142966500Y-79987186D01*
X142951568Y-79951138D01*
X142923978Y-79923548D01*
X142887930Y-79908616D01*
X142848912Y-79908616D01*
X142812864Y-79923548D01*
X142785274Y-79951138D01*
X142770342Y-79987186D01*
X142768421Y-80006695D01*
X142587469Y-80006695D01*
X142585548Y-79987186D01*
X142570616Y-79951138D01*
X142543026Y-79923548D01*
X142506978Y-79908616D01*
X142487469Y-79906695D01*
X142296993Y-79906695D01*
X142287119Y-79907667D01*
X142284486Y-79907480D01*
X142281023Y-79908267D01*
X142277484Y-79908616D01*
X142275041Y-79909627D01*
X142265371Y-79911827D01*
X142151084Y-79949922D01*
X142133184Y-79957913D01*
X142130468Y-79960268D01*
X142127150Y-79961643D01*
X142111996Y-79974079D01*
X142035806Y-80050269D01*
X142029511Y-80057938D01*
X142027517Y-80059669D01*
X142025623Y-80062676D01*
X142023370Y-80065423D01*
X142022359Y-80067862D01*
X142017074Y-80076259D01*
X141978979Y-80152450D01*
X141978433Y-80153874D01*
X141978003Y-80154456D01*
X141975073Y-80162656D01*
X141971973Y-80170759D01*
X141971921Y-80171478D01*
X141971408Y-80172917D01*
X141933312Y-80325298D01*
X141932811Y-80328679D01*
X141932247Y-80330043D01*
X141931523Y-80337391D01*
X141930444Y-80344690D01*
X141930661Y-80346148D01*
X141930326Y-80349552D01*
X141830326Y-80349552D01*
X141830326Y-79806695D01*
X144363660Y-79806695D01*
X144363660Y-81006695D01*
G37*
G36*
X144552215Y-76806695D02*
G01*
X141754921Y-76806695D01*
X141754921Y-75819202D01*
X141854921Y-75819202D01*
X141859268Y-75838318D01*
X142125934Y-76638318D01*
X142133925Y-76656218D01*
X142138609Y-76661619D01*
X142141803Y-76668006D01*
X142151270Y-76676217D01*
X142159490Y-76685695D01*
X142165881Y-76688890D01*
X142171279Y-76693572D01*
X142183174Y-76697537D01*
X142194389Y-76703144D01*
X142201516Y-76703650D01*
X142208295Y-76705910D01*
X142220802Y-76705021D01*
X142233309Y-76705910D01*
X142240087Y-76703650D01*
X142247215Y-76703144D01*
X142258426Y-76697537D01*
X142270325Y-76693572D01*
X142275725Y-76688887D01*
X142282113Y-76685694D01*
X142290326Y-76676224D01*
X142299801Y-76668007D01*
X142302995Y-76661617D01*
X142307679Y-76656218D01*
X142315670Y-76638318D01*
X142440497Y-76263838D01*
X142616041Y-76263838D01*
X142616041Y-76454314D01*
X142617962Y-76473823D01*
X142619337Y-76477143D01*
X142619592Y-76480727D01*
X142626598Y-76499035D01*
X142664693Y-76575225D01*
X142669977Y-76583621D01*
X142670988Y-76586060D01*
X142673241Y-76588805D01*
X142675136Y-76591816D01*
X142677132Y-76593547D01*
X142683424Y-76601214D01*
X142721519Y-76639310D01*
X142729190Y-76645606D01*
X142730920Y-76647600D01*
X142733925Y-76649491D01*
X142736672Y-76651746D01*
X142739112Y-76652756D01*
X142747510Y-76658043D01*
X142823701Y-76696138D01*
X142842010Y-76703144D01*
X142845592Y-76703398D01*
X142848913Y-76704774D01*
X142868422Y-76706695D01*
X143096993Y-76706695D01*
X143116502Y-76704774D01*
X143119822Y-76703398D01*
X143123405Y-76703144D01*
X143141714Y-76696138D01*
X143217905Y-76658043D01*
X143226300Y-76652758D01*
X143228742Y-76651747D01*
X143231490Y-76649491D01*
X143234495Y-76647600D01*
X143236224Y-76645606D01*
X143243896Y-76639310D01*
X143281990Y-76601214D01*
X143294427Y-76586060D01*
X143309358Y-76550012D01*
X143309358Y-76549091D01*
X143379866Y-76549091D01*
X143379866Y-76588109D01*
X143385295Y-76601215D01*
X143394798Y-76624158D01*
X143394802Y-76624162D01*
X143407234Y-76639311D01*
X143445329Y-76677405D01*
X143460482Y-76689842D01*
X143475414Y-76696026D01*
X143496531Y-76704774D01*
X143535548Y-76704774D01*
X143535549Y-76704774D01*
X143556398Y-76696138D01*
X143571596Y-76689843D01*
X143586750Y-76677407D01*
X143624846Y-76639312D01*
X143637282Y-76624159D01*
X143640090Y-76617380D01*
X143652215Y-76588109D01*
X143652215Y-76549091D01*
X143643352Y-76527695D01*
X143637284Y-76513044D01*
X143637283Y-76513043D01*
X143624847Y-76497889D01*
X143586751Y-76459793D01*
X143571597Y-76447357D01*
X143571596Y-76447356D01*
X143550480Y-76438609D01*
X143535549Y-76432425D01*
X143496531Y-76432425D01*
X143460483Y-76447357D01*
X143460481Y-76447358D01*
X143445328Y-76459794D01*
X143407233Y-76497890D01*
X143394797Y-76513044D01*
X143388729Y-76527695D01*
X143379866Y-76549091D01*
X143309358Y-76549091D01*
X143309357Y-76510994D01*
X143294425Y-76474946D01*
X143266835Y-76447356D01*
X143230787Y-76432425D01*
X143191769Y-76432426D01*
X143155720Y-76447358D01*
X143140567Y-76459794D01*
X143113946Y-76486415D01*
X143073386Y-76506695D01*
X142892029Y-76506695D01*
X142851467Y-76486414D01*
X142836321Y-76471268D01*
X142816041Y-76430707D01*
X142816041Y-76287444D01*
X142827844Y-76263838D01*
X143758898Y-76263838D01*
X143758898Y-76454314D01*
X143760819Y-76473823D01*
X143762194Y-76477143D01*
X143762449Y-76480727D01*
X143769455Y-76499035D01*
X143807550Y-76575225D01*
X143812834Y-76583621D01*
X143813845Y-76586060D01*
X143816098Y-76588805D01*
X143817993Y-76591816D01*
X143819989Y-76593547D01*
X143826281Y-76601214D01*
X143864376Y-76639310D01*
X143872047Y-76645606D01*
X143873777Y-76647600D01*
X143876782Y-76649491D01*
X143879529Y-76651746D01*
X143881969Y-76652756D01*
X143890367Y-76658043D01*
X143966558Y-76696138D01*
X143984867Y-76703144D01*
X143988449Y-76703398D01*
X143991770Y-76704774D01*
X144011279Y-76706695D01*
X144239850Y-76706695D01*
X144259359Y-76704774D01*
X144262679Y-76703398D01*
X144266262Y-76703144D01*
X144284571Y-76696138D01*
X144360762Y-76658043D01*
X144369157Y-76652758D01*
X144371599Y-76651747D01*
X144374347Y-76649491D01*
X144377352Y-76647600D01*
X144379081Y-76645606D01*
X144386753Y-76639310D01*
X144424847Y-76601214D01*
X144437284Y-76586060D01*
X144452215Y-76550012D01*
X144452214Y-76510994D01*
X144437282Y-76474946D01*
X144409692Y-76447356D01*
X144373644Y-76432425D01*
X144334626Y-76432426D01*
X144298577Y-76447358D01*
X144283424Y-76459794D01*
X144256803Y-76486415D01*
X144216243Y-76506695D01*
X144034886Y-76506695D01*
X143994324Y-76486414D01*
X143979178Y-76471268D01*
X143958898Y-76430707D01*
X143958898Y-76287444D01*
X143979178Y-76246883D01*
X143994323Y-76231737D01*
X144034886Y-76211457D01*
X144125564Y-76211457D01*
X144135881Y-76210441D01*
X144138506Y-76210616D01*
X144140313Y-76210004D01*
X144145073Y-76209536D01*
X144160076Y-76203321D01*
X144175468Y-76198116D01*
X144178008Y-76195893D01*
X144181121Y-76194604D01*
X144192593Y-76183131D01*
X144204832Y-76172423D01*
X144206328Y-76169396D01*
X144208711Y-76167014D01*
X144214923Y-76152015D01*
X144222128Y-76137447D01*
X144222352Y-76134081D01*
X144223643Y-76130966D01*
X144223643Y-76114718D01*
X144224723Y-76098516D01*
X144223643Y-76095322D01*
X144223643Y-76091948D01*
X144217426Y-76076940D01*
X144212223Y-76061554D01*
X144209441Y-76057663D01*
X144208711Y-76055900D01*
X144206851Y-76054040D01*
X144200822Y-76045607D01*
X144079274Y-75906695D01*
X144354136Y-75906695D01*
X144373645Y-75904774D01*
X144409693Y-75889842D01*
X144437283Y-75862252D01*
X144452215Y-75826204D01*
X144452215Y-75787186D01*
X144437283Y-75751138D01*
X144409693Y-75723548D01*
X144373645Y-75708616D01*
X144354136Y-75706695D01*
X143858898Y-75706695D01*
X143848580Y-75707710D01*
X143845956Y-75707536D01*
X143844148Y-75708147D01*
X143839389Y-75708616D01*
X143824383Y-75714831D01*
X143808995Y-75720036D01*
X143806455Y-75722257D01*
X143803341Y-75723548D01*
X143791856Y-75735032D01*
X143779631Y-75745730D01*
X143778135Y-75748753D01*
X143775751Y-75751138D01*
X143769534Y-75766144D01*
X143762334Y-75780705D01*
X143762109Y-75784070D01*
X143760819Y-75787186D01*
X143760819Y-75803434D01*
X143759739Y-75819637D01*
X143760819Y-75822830D01*
X143760819Y-75826204D01*
X143767034Y-75841209D01*
X143772239Y-75856598D01*
X143775020Y-75860488D01*
X143775751Y-75862252D01*
X143777610Y-75864111D01*
X143783640Y-75872545D01*
X143930291Y-76040147D01*
X143890367Y-76060109D01*
X143881971Y-76065393D01*
X143879530Y-76066405D01*
X143876782Y-76068660D01*
X143873777Y-76070552D01*
X143872046Y-76072547D01*
X143864377Y-76078842D01*
X143826282Y-76116936D01*
X143819987Y-76124605D01*
X143817993Y-76126336D01*
X143816099Y-76129343D01*
X143813846Y-76132090D01*
X143812835Y-76134529D01*
X143807550Y-76142926D01*
X143769455Y-76219117D01*
X143762449Y-76237426D01*
X143762194Y-76241008D01*
X143760819Y-76244329D01*
X143758898Y-76263838D01*
X142827844Y-76263838D01*
X142836321Y-76246883D01*
X142851466Y-76231737D01*
X142892029Y-76211457D01*
X142982707Y-76211457D01*
X142993024Y-76210441D01*
X142995649Y-76210616D01*
X142997456Y-76210004D01*
X143002216Y-76209536D01*
X143017219Y-76203321D01*
X143032611Y-76198116D01*
X143035151Y-76195893D01*
X143038264Y-76194604D01*
X143049736Y-76183131D01*
X143061975Y-76172423D01*
X143063471Y-76169396D01*
X143065854Y-76167014D01*
X143072066Y-76152015D01*
X143079271Y-76137447D01*
X143079495Y-76134081D01*
X143080786Y-76130966D01*
X143080786Y-76114718D01*
X143081866Y-76098516D01*
X143080786Y-76095322D01*
X143080786Y-76091948D01*
X143074569Y-76076940D01*
X143069366Y-76061554D01*
X143066584Y-76057663D01*
X143065854Y-76055900D01*
X143063994Y-76054040D01*
X143057965Y-76045607D01*
X142936417Y-75906695D01*
X143211279Y-75906695D01*
X143230788Y-75904774D01*
X143266836Y-75889842D01*
X143294426Y-75862252D01*
X143309358Y-75826204D01*
X143309358Y-75787186D01*
X143294426Y-75751138D01*
X143266836Y-75723548D01*
X143230788Y-75708616D01*
X143211279Y-75706695D01*
X142716041Y-75706695D01*
X142705723Y-75707710D01*
X142703099Y-75707536D01*
X142701291Y-75708147D01*
X142696532Y-75708616D01*
X142681526Y-75714831D01*
X142666138Y-75720036D01*
X142663598Y-75722257D01*
X142660484Y-75723548D01*
X142648999Y-75735032D01*
X142636774Y-75745730D01*
X142635278Y-75748753D01*
X142632894Y-75751138D01*
X142626677Y-75766144D01*
X142619477Y-75780705D01*
X142619252Y-75784070D01*
X142617962Y-75787186D01*
X142617962Y-75803434D01*
X142616882Y-75819637D01*
X142617962Y-75822830D01*
X142617962Y-75826204D01*
X142624177Y-75841209D01*
X142629382Y-75856598D01*
X142632163Y-75860488D01*
X142632894Y-75862252D01*
X142634753Y-75864111D01*
X142640783Y-75872545D01*
X142787434Y-76040147D01*
X142747510Y-76060109D01*
X142739114Y-76065393D01*
X142736673Y-76066405D01*
X142733925Y-76068660D01*
X142730920Y-76070552D01*
X142729189Y-76072547D01*
X142721520Y-76078842D01*
X142683425Y-76116936D01*
X142677130Y-76124605D01*
X142675136Y-76126336D01*
X142673242Y-76129343D01*
X142670989Y-76132090D01*
X142669978Y-76134529D01*
X142664693Y-76142926D01*
X142626598Y-76219117D01*
X142619592Y-76237426D01*
X142619337Y-76241008D01*
X142617962Y-76244329D01*
X142616041Y-76263838D01*
X142440497Y-76263838D01*
X142582337Y-75838318D01*
X142586684Y-75819203D01*
X142583918Y-75780283D01*
X142566468Y-75745384D01*
X142536992Y-75719819D01*
X142499976Y-75707480D01*
X142461056Y-75710246D01*
X142426157Y-75727696D01*
X142400592Y-75757172D01*
X142392601Y-75775072D01*
X142220802Y-76290467D01*
X142049004Y-75775072D01*
X142041013Y-75757172D01*
X142015448Y-75727696D01*
X141980549Y-75710246D01*
X141941629Y-75707480D01*
X141904613Y-75719818D01*
X141875137Y-75745383D01*
X141857687Y-75780282D01*
X141854921Y-75819202D01*
X141754921Y-75819202D01*
X141754921Y-75606695D01*
X144552215Y-75606695D01*
X144552215Y-76806695D01*
G37*
G36*
X143658898Y-78175742D02*
G01*
X143477743Y-78175742D01*
X143437181Y-78155461D01*
X143422035Y-78140314D01*
X143401755Y-78099754D01*
X143401755Y-78032682D01*
X143422035Y-77992122D01*
X143437181Y-77976975D01*
X143477743Y-77956695D01*
X143658898Y-77956695D01*
X143658898Y-78175742D01*
G37*
G36*
X144796993Y-78856695D02*
G01*
X141656057Y-78856695D01*
X141656057Y-77837186D01*
X141756057Y-77837186D01*
X141756057Y-77876204D01*
X141770989Y-77912252D01*
X141798579Y-77939842D01*
X141834627Y-77954774D01*
X141854136Y-77956695D01*
X141982708Y-77956695D01*
X141982708Y-78656695D01*
X141984629Y-78676204D01*
X141999561Y-78712252D01*
X142027151Y-78739842D01*
X142063199Y-78754774D01*
X142102217Y-78754774D01*
X142138265Y-78739842D01*
X142165855Y-78712252D01*
X142180787Y-78676204D01*
X142182708Y-78656695D01*
X142182708Y-78428123D01*
X142439851Y-78428123D01*
X142439851Y-78504314D01*
X142441772Y-78523823D01*
X142443147Y-78527143D01*
X142443402Y-78530727D01*
X142450408Y-78549035D01*
X142488503Y-78625225D01*
X142493787Y-78633621D01*
X142494798Y-78636060D01*
X142497051Y-78638805D01*
X142498946Y-78641816D01*
X142500942Y-78643547D01*
X142507234Y-78651214D01*
X142545329Y-78689310D01*
X142553000Y-78695606D01*
X142554730Y-78697600D01*
X142557735Y-78699491D01*
X142560482Y-78701746D01*
X142562922Y-78702756D01*
X142571320Y-78708043D01*
X142647511Y-78746138D01*
X142665820Y-78753144D01*
X142669402Y-78753398D01*
X142672723Y-78754774D01*
X142692232Y-78756695D01*
X142882708Y-78756695D01*
X142892581Y-78755722D01*
X142895215Y-78755910D01*
X142898678Y-78755122D01*
X142902217Y-78754774D01*
X142904659Y-78753762D01*
X142914331Y-78751563D01*
X143028617Y-78713468D01*
X143046517Y-78705477D01*
X143075993Y-78679912D01*
X143093443Y-78645013D01*
X143096209Y-78606093D01*
X143083871Y-78569077D01*
X143058306Y-78539601D01*
X143023407Y-78522151D01*
X142984487Y-78519385D01*
X142965372Y-78523732D01*
X142866481Y-78556695D01*
X142715839Y-78556695D01*
X142675277Y-78536414D01*
X142660131Y-78521268D01*
X142639851Y-78480707D01*
X142639851Y-78451730D01*
X142660131Y-78411169D01*
X142675277Y-78396022D01*
X142727138Y-78370092D01*
X142868867Y-78334661D01*
X142870305Y-78334147D01*
X142871026Y-78334096D01*
X142879144Y-78330989D01*
X142887327Y-78328066D01*
X142887907Y-78327635D01*
X142889334Y-78327090D01*
X142965524Y-78288995D01*
X142973922Y-78283708D01*
X142976360Y-78282699D01*
X142979103Y-78280447D01*
X142982115Y-78278552D01*
X142983847Y-78276554D01*
X142991514Y-78270263D01*
X143029608Y-78232168D01*
X143035900Y-78224501D01*
X143037898Y-78222769D01*
X143039791Y-78219760D01*
X143042045Y-78217015D01*
X143043055Y-78214574D01*
X143048340Y-78206179D01*
X143086436Y-78129988D01*
X143093443Y-78111680D01*
X143093697Y-78108094D01*
X143095073Y-78104775D01*
X143096994Y-78085266D01*
X143096994Y-78009076D01*
X143201755Y-78009076D01*
X143201755Y-78123361D01*
X143203676Y-78142870D01*
X143205051Y-78146190D01*
X143205306Y-78149774D01*
X143212313Y-78168083D01*
X143250408Y-78244274D01*
X143255694Y-78252672D01*
X143256704Y-78255109D01*
X143258955Y-78257852D01*
X143260851Y-78260864D01*
X143262848Y-78262596D01*
X143269140Y-78270263D01*
X143307235Y-78308357D01*
X143314901Y-78314649D01*
X143316634Y-78316647D01*
X143319642Y-78318540D01*
X143322388Y-78320794D01*
X143324828Y-78321804D01*
X143333225Y-78327090D01*
X143390401Y-78355678D01*
X143219832Y-78599349D01*
X143210218Y-78616433D01*
X143201778Y-78654527D01*
X143208559Y-78692952D01*
X143229528Y-78725857D01*
X143261493Y-78748232D01*
X143299587Y-78756672D01*
X143338012Y-78749891D01*
X143370917Y-78728922D01*
X143383678Y-78714041D01*
X143620487Y-78375742D01*
X143658898Y-78375742D01*
X143658898Y-78656695D01*
X143660819Y-78676204D01*
X143675751Y-78712252D01*
X143703341Y-78739842D01*
X143739389Y-78754774D01*
X143778407Y-78754774D01*
X143814455Y-78739842D01*
X143842045Y-78712252D01*
X143856977Y-78676204D01*
X143858898Y-78656695D01*
X143858898Y-77856695D01*
X144039850Y-77856695D01*
X144039850Y-78656695D01*
X144040344Y-78661712D01*
X144040094Y-78663680D01*
X144040788Y-78666226D01*
X144041771Y-78676204D01*
X144046862Y-78688494D01*
X144050361Y-78701323D01*
X144054263Y-78706361D01*
X144056703Y-78712252D01*
X144066108Y-78721657D01*
X144074251Y-78732172D01*
X144079785Y-78735334D01*
X144084293Y-78739842D01*
X144096578Y-78744930D01*
X144108128Y-78751531D01*
X144114452Y-78752334D01*
X144120341Y-78754774D01*
X144133642Y-78754774D01*
X144146835Y-78756451D01*
X144152984Y-78754774D01*
X144159359Y-78754774D01*
X144171649Y-78749682D01*
X144184478Y-78746184D01*
X144189516Y-78742281D01*
X144195407Y-78739842D01*
X144204812Y-78730436D01*
X144215327Y-78722294D01*
X144221130Y-78714118D01*
X144222997Y-78712252D01*
X144223755Y-78710419D01*
X144226674Y-78706309D01*
X144496993Y-78233250D01*
X144496993Y-78656695D01*
X144498914Y-78676204D01*
X144513846Y-78712252D01*
X144541436Y-78739842D01*
X144577484Y-78754774D01*
X144616502Y-78754774D01*
X144652550Y-78739842D01*
X144680140Y-78712252D01*
X144695072Y-78676204D01*
X144696993Y-78656695D01*
X144696993Y-77856695D01*
X144696498Y-77851677D01*
X144696749Y-77849710D01*
X144696054Y-77847163D01*
X144695072Y-77837186D01*
X144689980Y-77824895D01*
X144686482Y-77812067D01*
X144682579Y-77807028D01*
X144680140Y-77801138D01*
X144670734Y-77791732D01*
X144662592Y-77781218D01*
X144657057Y-77778055D01*
X144652550Y-77773548D01*
X144640264Y-77768459D01*
X144628715Y-77761859D01*
X144622390Y-77761055D01*
X144616502Y-77758616D01*
X144603202Y-77758616D01*
X144590009Y-77756939D01*
X144583860Y-77758616D01*
X144577484Y-77758616D01*
X144565192Y-77763707D01*
X144552365Y-77767206D01*
X144547326Y-77771108D01*
X144541436Y-77773548D01*
X144532030Y-77782953D01*
X144521516Y-77791096D01*
X144515712Y-77799271D01*
X144513846Y-77801138D01*
X144513087Y-77802970D01*
X144510169Y-77807081D01*
X144239850Y-78280139D01*
X144239850Y-77856695D01*
X144237929Y-77837186D01*
X144222997Y-77801138D01*
X144195407Y-77773548D01*
X144159359Y-77758616D01*
X144120341Y-77758616D01*
X144084293Y-77773548D01*
X144056703Y-77801138D01*
X144041771Y-77837186D01*
X144039850Y-77856695D01*
X143858898Y-77856695D01*
X143856977Y-77837186D01*
X143842045Y-77801138D01*
X143814455Y-77773548D01*
X143778407Y-77758616D01*
X143758898Y-77756695D01*
X143454136Y-77756695D01*
X143434627Y-77758616D01*
X143431306Y-77759991D01*
X143427723Y-77760246D01*
X143409415Y-77767252D01*
X143333225Y-77805347D01*
X143324828Y-77810632D01*
X143322388Y-77811643D01*
X143319642Y-77813896D01*
X143316634Y-77815790D01*
X143314901Y-77817787D01*
X143307235Y-77824080D01*
X143269140Y-77862174D01*
X143262848Y-77869840D01*
X143260851Y-77871573D01*
X143258955Y-77874584D01*
X143256704Y-77877328D01*
X143255694Y-77879764D01*
X143250408Y-77888163D01*
X143212313Y-77964354D01*
X143205306Y-77982663D01*
X143205051Y-77986246D01*
X143203676Y-77989567D01*
X143201755Y-78009076D01*
X143096994Y-78009076D01*
X143095073Y-77989567D01*
X143093697Y-77986247D01*
X143093443Y-77982662D01*
X143086436Y-77964354D01*
X143048340Y-77888163D01*
X143043055Y-77879767D01*
X143042045Y-77877327D01*
X143039791Y-77874581D01*
X143037898Y-77871573D01*
X143035900Y-77869840D01*
X143029608Y-77862174D01*
X142991514Y-77824079D01*
X142983847Y-77817787D01*
X142982115Y-77815790D01*
X142979103Y-77813894D01*
X142976360Y-77811643D01*
X142973922Y-77810633D01*
X142965524Y-77805347D01*
X142889334Y-77767252D01*
X142871026Y-77760246D01*
X142867442Y-77759991D01*
X142864122Y-77758616D01*
X142844613Y-77756695D01*
X142654136Y-77756695D01*
X142644262Y-77757667D01*
X142641629Y-77757480D01*
X142638165Y-77758267D01*
X142634627Y-77758616D01*
X142632184Y-77759627D01*
X142622513Y-77761827D01*
X142508228Y-77799922D01*
X142490328Y-77807913D01*
X142460852Y-77833478D01*
X142443402Y-77868377D01*
X142440636Y-77907297D01*
X142452974Y-77944313D01*
X142478539Y-77973789D01*
X142513438Y-77991239D01*
X142552358Y-77994005D01*
X142571474Y-77989658D01*
X142670363Y-77956695D01*
X142821006Y-77956695D01*
X142861566Y-77976975D01*
X142876713Y-77992121D01*
X142896994Y-78032683D01*
X142896994Y-78061658D01*
X142876713Y-78102220D01*
X142861566Y-78117366D01*
X142809708Y-78143295D01*
X142667979Y-78178728D01*
X142666541Y-78179241D01*
X142665818Y-78179293D01*
X142657697Y-78182401D01*
X142649518Y-78185323D01*
X142648936Y-78185754D01*
X142647510Y-78186300D01*
X142571319Y-78224396D01*
X142562923Y-78229680D01*
X142560483Y-78230691D01*
X142557737Y-78232944D01*
X142554729Y-78234838D01*
X142552996Y-78236835D01*
X142545330Y-78243128D01*
X142507235Y-78281222D01*
X142500943Y-78288888D01*
X142498946Y-78290621D01*
X142497050Y-78293632D01*
X142494799Y-78296376D01*
X142493789Y-78298813D01*
X142488503Y-78307212D01*
X142450408Y-78383402D01*
X142443402Y-78401710D01*
X142443147Y-78405293D01*
X142441772Y-78408614D01*
X142439851Y-78428123D01*
X142182708Y-78428123D01*
X142182708Y-77956695D01*
X142311279Y-77956695D01*
X142330788Y-77954774D01*
X142366836Y-77939842D01*
X142394426Y-77912252D01*
X142409358Y-77876204D01*
X142409358Y-77837186D01*
X142394426Y-77801138D01*
X142366836Y-77773548D01*
X142330788Y-77758616D01*
X142311279Y-77756695D01*
X141854136Y-77756695D01*
X141834627Y-77758616D01*
X141798579Y-77773548D01*
X141770989Y-77801138D01*
X141756057Y-77837186D01*
X141656057Y-77837186D01*
X141656057Y-77656695D01*
X144796993Y-77656695D01*
X144796993Y-78856695D01*
G37*
G36*
X146239850Y-80606695D02*
G01*
X146165601Y-80606695D01*
X146089106Y-80581197D01*
X146041084Y-80533174D01*
X146015154Y-80481314D01*
X145982707Y-80351527D01*
X145982707Y-80261862D01*
X146015154Y-80132074D01*
X146041083Y-80080216D01*
X146089107Y-80032192D01*
X146165601Y-80006695D01*
X146239850Y-80006695D01*
X146239850Y-80606695D01*
G37*
G36*
X148216041Y-80906695D02*
G01*
X145682707Y-80906695D01*
X145682707Y-80249552D01*
X145782707Y-80249552D01*
X145782707Y-80363838D01*
X145783042Y-80367241D01*
X145782825Y-80368700D01*
X145783904Y-80375998D01*
X145784628Y-80383347D01*
X145785192Y-80384710D01*
X145785693Y-80388092D01*
X145823789Y-80540473D01*
X145824302Y-80541911D01*
X145824354Y-80542632D01*
X145827457Y-80550742D01*
X145830384Y-80558934D01*
X145830814Y-80559515D01*
X145831360Y-80560940D01*
X145869455Y-80637130D01*
X145874738Y-80645524D01*
X145875750Y-80647966D01*
X145878004Y-80650713D01*
X145879898Y-80653721D01*
X145881894Y-80655452D01*
X145888187Y-80663119D01*
X145964377Y-80739310D01*
X145979530Y-80751747D01*
X145982849Y-80753122D01*
X145985565Y-80755477D01*
X146003465Y-80763468D01*
X146117752Y-80801563D01*
X146127422Y-80803762D01*
X146129865Y-80804774D01*
X146133404Y-80805122D01*
X146136867Y-80805910D01*
X146139500Y-80805722D01*
X146149374Y-80806695D01*
X146339850Y-80806695D01*
X146359359Y-80804774D01*
X146395407Y-80789842D01*
X146422997Y-80762252D01*
X146437929Y-80726204D01*
X146439850Y-80706695D01*
X146439850Y-79906695D01*
X146620802Y-79906695D01*
X146620802Y-80706695D01*
X146621296Y-80711712D01*
X146621046Y-80713680D01*
X146621740Y-80716226D01*
X146622723Y-80726204D01*
X146627814Y-80738494D01*
X146631313Y-80751323D01*
X146635215Y-80756361D01*
X146637655Y-80762252D01*
X146647060Y-80771657D01*
X146655203Y-80782172D01*
X146660737Y-80785334D01*
X146665245Y-80789842D01*
X146677530Y-80794930D01*
X146689080Y-80801531D01*
X146695404Y-80802334D01*
X146701293Y-80804774D01*
X146714594Y-80804774D01*
X146727787Y-80806451D01*
X146733936Y-80804774D01*
X146740311Y-80804774D01*
X146752601Y-80799682D01*
X146765430Y-80796184D01*
X146770468Y-80792281D01*
X146776359Y-80789842D01*
X146785764Y-80780436D01*
X146796279Y-80772294D01*
X146802082Y-80764118D01*
X146803949Y-80762252D01*
X146804707Y-80760419D01*
X146807626Y-80756309D01*
X147077945Y-80283250D01*
X147077945Y-80706695D01*
X147079866Y-80726204D01*
X147094798Y-80762252D01*
X147122388Y-80789842D01*
X147158436Y-80804774D01*
X147197454Y-80804774D01*
X147233502Y-80789842D01*
X147261092Y-80762252D01*
X147276024Y-80726204D01*
X147277945Y-80706695D01*
X147277945Y-80363838D01*
X147420802Y-80363838D01*
X147420802Y-80630504D01*
X147422723Y-80650013D01*
X147437655Y-80686061D01*
X147450091Y-80701215D01*
X147488187Y-80739311D01*
X147503341Y-80751747D01*
X147506659Y-80753121D01*
X147509375Y-80755477D01*
X147527275Y-80763468D01*
X147641560Y-80801563D01*
X147651231Y-80803762D01*
X147653674Y-80804774D01*
X147657212Y-80805122D01*
X147660676Y-80805910D01*
X147663309Y-80805722D01*
X147673183Y-80806695D01*
X147749374Y-80806695D01*
X147759247Y-80805722D01*
X147761881Y-80805910D01*
X147765344Y-80805122D01*
X147768883Y-80804774D01*
X147771325Y-80803762D01*
X147780997Y-80801563D01*
X147895283Y-80763468D01*
X147913183Y-80755477D01*
X147915898Y-80753122D01*
X147919218Y-80751747D01*
X147934371Y-80739310D01*
X148010561Y-80663119D01*
X148016853Y-80655452D01*
X148018850Y-80653721D01*
X148020743Y-80650713D01*
X148022998Y-80647966D01*
X148024009Y-80645524D01*
X148029293Y-80637130D01*
X148067388Y-80560940D01*
X148067933Y-80559515D01*
X148068364Y-80558934D01*
X148071290Y-80550742D01*
X148074394Y-80542632D01*
X148074445Y-80541911D01*
X148074959Y-80540473D01*
X148113055Y-80388092D01*
X148113555Y-80384710D01*
X148114120Y-80383347D01*
X148114843Y-80375998D01*
X148115923Y-80368700D01*
X148115705Y-80367241D01*
X148116041Y-80363838D01*
X148116041Y-80249552D01*
X148115705Y-80246148D01*
X148115923Y-80244690D01*
X148114843Y-80237391D01*
X148114120Y-80230043D01*
X148113555Y-80228679D01*
X148113055Y-80225298D01*
X148074959Y-80072917D01*
X148074445Y-80071478D01*
X148074394Y-80070759D01*
X148071293Y-80062656D01*
X148068364Y-80054456D01*
X148067933Y-80053874D01*
X148067388Y-80052450D01*
X148029293Y-79976259D01*
X148024007Y-79967862D01*
X148022997Y-79965423D01*
X148020743Y-79962676D01*
X148018850Y-79959669D01*
X148016855Y-79957938D01*
X148010561Y-79950269D01*
X147934371Y-79874079D01*
X147919217Y-79861643D01*
X147915898Y-79860268D01*
X147913183Y-79857913D01*
X147895283Y-79849922D01*
X147780997Y-79811827D01*
X147771325Y-79809627D01*
X147768883Y-79808616D01*
X147765344Y-79808267D01*
X147761881Y-79807480D01*
X147759247Y-79807667D01*
X147749374Y-79806695D01*
X147635088Y-79806695D01*
X147615579Y-79808616D01*
X147612258Y-79809991D01*
X147608675Y-79810246D01*
X147590367Y-79817252D01*
X147514177Y-79855347D01*
X147497586Y-79865790D01*
X147472022Y-79895267D01*
X147459683Y-79932283D01*
X147462449Y-79971203D01*
X147479898Y-80006102D01*
X147509375Y-80031666D01*
X147546391Y-80044005D01*
X147585311Y-80041239D01*
X147603619Y-80034233D01*
X147658695Y-80006695D01*
X147733147Y-80006695D01*
X147809640Y-80032192D01*
X147857664Y-80080216D01*
X147883593Y-80132074D01*
X147916041Y-80261862D01*
X147916041Y-80351527D01*
X147883593Y-80481314D01*
X147857663Y-80533174D01*
X147809641Y-80581197D01*
X147733147Y-80606695D01*
X147689410Y-80606695D01*
X147620802Y-80583825D01*
X147620802Y-80463838D01*
X147673183Y-80463838D01*
X147692692Y-80461917D01*
X147728740Y-80446985D01*
X147756330Y-80419395D01*
X147771262Y-80383347D01*
X147771262Y-80344329D01*
X147756330Y-80308281D01*
X147728740Y-80280691D01*
X147692692Y-80265759D01*
X147673183Y-80263838D01*
X147520802Y-80263838D01*
X147501293Y-80265759D01*
X147465245Y-80280691D01*
X147437655Y-80308281D01*
X147422723Y-80344329D01*
X147420802Y-80363838D01*
X147277945Y-80363838D01*
X147277945Y-79906695D01*
X147277450Y-79901677D01*
X147277701Y-79899710D01*
X147277006Y-79897163D01*
X147276024Y-79887186D01*
X147270932Y-79874895D01*
X147267434Y-79862067D01*
X147263531Y-79857028D01*
X147261092Y-79851138D01*
X147251686Y-79841732D01*
X147243544Y-79831218D01*
X147238009Y-79828055D01*
X147233502Y-79823548D01*
X147221216Y-79818459D01*
X147209667Y-79811859D01*
X147203342Y-79811055D01*
X147197454Y-79808616D01*
X147184154Y-79808616D01*
X147170961Y-79806939D01*
X147164812Y-79808616D01*
X147158436Y-79808616D01*
X147146144Y-79813707D01*
X147133317Y-79817206D01*
X147128278Y-79821108D01*
X147122388Y-79823548D01*
X147112982Y-79832953D01*
X147102468Y-79841096D01*
X147096664Y-79849271D01*
X147094798Y-79851138D01*
X147094039Y-79852970D01*
X147091121Y-79857081D01*
X146820802Y-80330139D01*
X146820802Y-79906695D01*
X146818881Y-79887186D01*
X146803949Y-79851138D01*
X146776359Y-79823548D01*
X146740311Y-79808616D01*
X146701293Y-79808616D01*
X146665245Y-79823548D01*
X146637655Y-79851138D01*
X146622723Y-79887186D01*
X146620802Y-79906695D01*
X146439850Y-79906695D01*
X146437929Y-79887186D01*
X146422997Y-79851138D01*
X146395407Y-79823548D01*
X146359359Y-79808616D01*
X146339850Y-79806695D01*
X146149374Y-79806695D01*
X146139500Y-79807667D01*
X146136867Y-79807480D01*
X146133404Y-79808267D01*
X146129865Y-79808616D01*
X146127422Y-79809627D01*
X146117752Y-79811827D01*
X146003465Y-79849922D01*
X145985565Y-79857913D01*
X145982849Y-79860268D01*
X145979531Y-79861643D01*
X145964377Y-79874079D01*
X145888187Y-79950269D01*
X145881892Y-79957938D01*
X145879898Y-79959669D01*
X145878004Y-79962676D01*
X145875751Y-79965423D01*
X145874740Y-79967862D01*
X145869455Y-79976259D01*
X145831360Y-80052450D01*
X145830814Y-80053874D01*
X145830384Y-80054456D01*
X145827454Y-80062656D01*
X145824354Y-80070759D01*
X145824302Y-80071478D01*
X145823789Y-80072917D01*
X145785693Y-80225298D01*
X145785192Y-80228679D01*
X145784628Y-80230043D01*
X145783904Y-80237391D01*
X145782825Y-80244690D01*
X145783042Y-80246148D01*
X145782707Y-80249552D01*
X145682707Y-80249552D01*
X145682707Y-79706695D01*
X148216041Y-79706695D01*
X148216041Y-80906695D01*
G37*
G36*
X146142518Y-75926975D02*
G01*
X146187649Y-75972106D01*
X146216041Y-76085671D01*
X146216041Y-76327717D01*
X146187648Y-76441284D01*
X146142519Y-76486413D01*
X146101957Y-76506695D01*
X145996790Y-76506695D01*
X145956228Y-76486414D01*
X145911097Y-76441283D01*
X145882707Y-76327719D01*
X145882707Y-76085669D01*
X145911097Y-75972105D01*
X145956227Y-75926976D01*
X145996790Y-75906695D01*
X146101957Y-75906695D01*
X146142518Y-75926975D01*
G37*
G36*
X147358897Y-76506695D02*
G01*
X147284648Y-76506695D01*
X147208153Y-76481197D01*
X147160131Y-76433174D01*
X147134201Y-76381314D01*
X147101754Y-76251527D01*
X147101754Y-76161862D01*
X147134201Y-76032074D01*
X147160130Y-75980216D01*
X147208154Y-75932192D01*
X147284648Y-75906695D01*
X147358897Y-75906695D01*
X147358897Y-76506695D01*
G37*
G36*
X149373184Y-76806695D02*
G01*
X145582707Y-76806695D01*
X145582707Y-76073361D01*
X145682707Y-76073361D01*
X145682707Y-76340028D01*
X145683042Y-76343430D01*
X145682825Y-76344889D01*
X145683904Y-76352185D01*
X145684628Y-76359537D01*
X145685193Y-76360901D01*
X145685693Y-76364281D01*
X145723788Y-76516663D01*
X145730383Y-76535123D01*
X145734810Y-76541098D01*
X145737655Y-76547966D01*
X145750091Y-76563120D01*
X145826282Y-76639310D01*
X145833948Y-76645602D01*
X145835681Y-76647600D01*
X145838689Y-76649493D01*
X145841435Y-76651747D01*
X145843875Y-76652757D01*
X145852272Y-76658043D01*
X145928462Y-76696138D01*
X145946770Y-76703144D01*
X145950353Y-76703398D01*
X145953674Y-76704774D01*
X145973183Y-76706695D01*
X146125564Y-76706695D01*
X146145073Y-76704774D01*
X146148393Y-76703398D01*
X146151976Y-76703144D01*
X146170285Y-76696138D01*
X146246476Y-76658043D01*
X146254871Y-76652758D01*
X146257313Y-76651747D01*
X146260060Y-76649491D01*
X146263066Y-76647600D01*
X146264796Y-76645604D01*
X146272466Y-76639310D01*
X146348656Y-76563119D01*
X146361093Y-76547966D01*
X146363937Y-76541097D01*
X146368364Y-76535124D01*
X146374959Y-76516663D01*
X146413055Y-76364282D01*
X146413555Y-76360900D01*
X146414120Y-76359537D01*
X146414843Y-76352188D01*
X146415923Y-76344890D01*
X146415705Y-76343431D01*
X146416041Y-76340028D01*
X146416041Y-76073361D01*
X146415705Y-76069957D01*
X146415923Y-76068499D01*
X146414843Y-76061200D01*
X146414120Y-76053852D01*
X146413555Y-76052488D01*
X146413055Y-76049107D01*
X146374959Y-75896726D01*
X146368364Y-75878265D01*
X146363936Y-75872289D01*
X146361092Y-75865423D01*
X146348656Y-75850269D01*
X146305082Y-75806695D01*
X146558897Y-75806695D01*
X146558897Y-76606695D01*
X146560818Y-76626204D01*
X146575750Y-76662252D01*
X146603340Y-76689842D01*
X146639388Y-76704774D01*
X146678406Y-76704774D01*
X146714454Y-76689842D01*
X146742044Y-76662252D01*
X146756976Y-76626204D01*
X146758897Y-76606695D01*
X146758897Y-76149552D01*
X146901754Y-76149552D01*
X146901754Y-76263838D01*
X146902089Y-76267241D01*
X146901872Y-76268700D01*
X146902951Y-76275998D01*
X146903675Y-76283347D01*
X146904239Y-76284710D01*
X146904740Y-76288092D01*
X146942836Y-76440473D01*
X146943349Y-76441911D01*
X146943401Y-76442632D01*
X146946504Y-76450742D01*
X146949431Y-76458934D01*
X146949861Y-76459515D01*
X146950407Y-76460940D01*
X146988502Y-76537130D01*
X146993785Y-76545524D01*
X146994797Y-76547966D01*
X146997051Y-76550713D01*
X146998945Y-76553721D01*
X147000941Y-76555452D01*
X147007234Y-76563119D01*
X147083424Y-76639310D01*
X147098577Y-76651747D01*
X147101896Y-76653122D01*
X147104612Y-76655477D01*
X147122512Y-76663468D01*
X147236799Y-76701563D01*
X147246469Y-76703762D01*
X147248912Y-76704774D01*
X147252451Y-76705122D01*
X147255914Y-76705910D01*
X147258547Y-76705722D01*
X147268421Y-76706695D01*
X147458897Y-76706695D01*
X147478406Y-76704774D01*
X147514454Y-76689842D01*
X147542044Y-76662252D01*
X147556976Y-76626204D01*
X147558897Y-76606695D01*
X147558897Y-75810434D01*
X147663729Y-75810434D01*
X147666379Y-75829857D01*
X147856855Y-76629857D01*
X147859163Y-76636553D01*
X147859482Y-76638952D01*
X147860737Y-76641120D01*
X147863243Y-76648390D01*
X147871756Y-76660154D01*
X147879031Y-76672720D01*
X147883108Y-76675840D01*
X147886118Y-76680000D01*
X147898480Y-76687607D01*
X147910014Y-76696436D01*
X147914977Y-76697759D01*
X147919348Y-76700449D01*
X147933679Y-76702746D01*
X147947715Y-76706489D01*
X147952806Y-76705812D01*
X147957875Y-76706625D01*
X147972003Y-76703261D01*
X147986393Y-76701349D01*
X147990834Y-76698777D01*
X147995832Y-76697588D01*
X148007598Y-76689072D01*
X148020161Y-76681800D01*
X148023281Y-76677722D01*
X148027441Y-76674713D01*
X148035048Y-76662350D01*
X148043877Y-76650817D01*
X148046575Y-76643618D01*
X148047890Y-76641483D01*
X148048273Y-76639089D01*
X148050759Y-76632461D01*
X148106517Y-76423369D01*
X148162275Y-76632462D01*
X148164760Y-76639091D01*
X148165144Y-76641483D01*
X148166457Y-76643617D01*
X148169157Y-76650817D01*
X148177984Y-76662348D01*
X148185593Y-76674713D01*
X148189754Y-76677724D01*
X148192874Y-76681800D01*
X148205435Y-76689072D01*
X148217202Y-76697588D01*
X148222197Y-76698777D01*
X148226641Y-76701350D01*
X148241034Y-76703262D01*
X148255159Y-76706626D01*
X148260227Y-76705813D01*
X148265319Y-76706490D01*
X148279357Y-76702746D01*
X148293686Y-76700449D01*
X148298056Y-76697759D01*
X148303020Y-76696436D01*
X148314553Y-76687607D01*
X148326916Y-76680000D01*
X148329925Y-76675840D01*
X148334003Y-76672720D01*
X148341278Y-76660153D01*
X148349791Y-76648391D01*
X148352295Y-76641125D01*
X148353553Y-76638953D01*
X148353872Y-76636549D01*
X148356179Y-76629857D01*
X148416116Y-76378123D01*
X148616041Y-76378123D01*
X148616041Y-76454314D01*
X148617962Y-76473823D01*
X148619337Y-76477143D01*
X148619592Y-76480727D01*
X148626598Y-76499035D01*
X148664693Y-76575225D01*
X148669977Y-76583621D01*
X148670988Y-76586060D01*
X148673241Y-76588805D01*
X148675136Y-76591816D01*
X148677132Y-76593547D01*
X148683424Y-76601214D01*
X148721519Y-76639310D01*
X148729190Y-76645606D01*
X148730920Y-76647600D01*
X148733925Y-76649491D01*
X148736672Y-76651746D01*
X148739112Y-76652756D01*
X148747510Y-76658043D01*
X148823701Y-76696138D01*
X148842010Y-76703144D01*
X148845592Y-76703398D01*
X148848913Y-76704774D01*
X148868422Y-76706695D01*
X149058898Y-76706695D01*
X149068771Y-76705722D01*
X149071405Y-76705910D01*
X149074868Y-76705122D01*
X149078407Y-76704774D01*
X149080849Y-76703762D01*
X149090521Y-76701563D01*
X149204807Y-76663468D01*
X149222707Y-76655477D01*
X149252183Y-76629912D01*
X149269633Y-76595013D01*
X149272399Y-76556093D01*
X149260061Y-76519077D01*
X149234496Y-76489601D01*
X149199597Y-76472151D01*
X149160677Y-76469385D01*
X149141562Y-76473732D01*
X149042671Y-76506695D01*
X148892029Y-76506695D01*
X148851467Y-76486414D01*
X148836321Y-76471268D01*
X148816041Y-76430707D01*
X148816041Y-76401730D01*
X148836321Y-76361169D01*
X148851467Y-76346022D01*
X148903328Y-76320092D01*
X149045057Y-76284661D01*
X149046495Y-76284147D01*
X149047216Y-76284096D01*
X149055334Y-76280989D01*
X149063517Y-76278066D01*
X149064097Y-76277635D01*
X149065524Y-76277090D01*
X149141714Y-76238995D01*
X149150112Y-76233708D01*
X149152550Y-76232699D01*
X149155293Y-76230447D01*
X149158305Y-76228552D01*
X149160037Y-76226554D01*
X149167704Y-76220263D01*
X149205798Y-76182168D01*
X149212090Y-76174501D01*
X149214088Y-76172769D01*
X149215981Y-76169760D01*
X149218235Y-76167015D01*
X149219245Y-76164574D01*
X149224530Y-76156179D01*
X149262626Y-76079988D01*
X149269633Y-76061680D01*
X149269887Y-76058094D01*
X149271263Y-76054775D01*
X149273184Y-76035266D01*
X149273184Y-75959076D01*
X149271263Y-75939567D01*
X149269887Y-75936247D01*
X149269633Y-75932662D01*
X149262626Y-75914354D01*
X149224530Y-75838163D01*
X149219245Y-75829767D01*
X149218235Y-75827327D01*
X149215981Y-75824581D01*
X149214088Y-75821573D01*
X149212090Y-75819840D01*
X149205798Y-75812174D01*
X149167704Y-75774079D01*
X149160037Y-75767787D01*
X149158305Y-75765790D01*
X149155293Y-75763894D01*
X149152550Y-75761643D01*
X149150112Y-75760633D01*
X149141714Y-75755347D01*
X149065524Y-75717252D01*
X149047216Y-75710246D01*
X149043632Y-75709991D01*
X149040312Y-75708616D01*
X149020803Y-75706695D01*
X148830326Y-75706695D01*
X148820452Y-75707667D01*
X148817819Y-75707480D01*
X148814355Y-75708267D01*
X148810817Y-75708616D01*
X148808374Y-75709627D01*
X148798703Y-75711827D01*
X148684418Y-75749922D01*
X148666518Y-75757913D01*
X148637042Y-75783478D01*
X148619592Y-75818377D01*
X148616826Y-75857297D01*
X148629164Y-75894313D01*
X148654729Y-75923789D01*
X148689628Y-75941239D01*
X148728548Y-75944005D01*
X148747664Y-75939658D01*
X148846553Y-75906695D01*
X148997196Y-75906695D01*
X149037756Y-75926975D01*
X149052903Y-75942121D01*
X149073184Y-75982683D01*
X149073184Y-76011658D01*
X149052903Y-76052220D01*
X149037756Y-76067366D01*
X148985898Y-76093295D01*
X148844169Y-76128728D01*
X148842731Y-76129241D01*
X148842008Y-76129293D01*
X148833887Y-76132401D01*
X148825708Y-76135323D01*
X148825126Y-76135754D01*
X148823700Y-76136300D01*
X148747509Y-76174396D01*
X148739113Y-76179680D01*
X148736673Y-76180691D01*
X148733927Y-76182944D01*
X148730919Y-76184838D01*
X148729186Y-76186835D01*
X148721520Y-76193128D01*
X148683425Y-76231222D01*
X148677133Y-76238888D01*
X148675136Y-76240621D01*
X148673240Y-76243632D01*
X148670989Y-76246376D01*
X148669979Y-76248813D01*
X148664693Y-76257212D01*
X148626598Y-76333402D01*
X148619592Y-76351710D01*
X148619337Y-76355293D01*
X148617962Y-76358614D01*
X148616041Y-76378123D01*
X148416116Y-76378123D01*
X148546655Y-75829857D01*
X148549305Y-75810434D01*
X148543128Y-75771907D01*
X148522679Y-75738677D01*
X148491070Y-75715802D01*
X148453113Y-75706765D01*
X148414586Y-75712941D01*
X148381356Y-75733390D01*
X148358481Y-75765000D01*
X148352093Y-75783533D01*
X148253408Y-76198006D01*
X148203140Y-76009500D01*
X148201427Y-76004933D01*
X148201172Y-76003008D01*
X148199849Y-76000724D01*
X148196258Y-75991144D01*
X148188233Y-75980661D01*
X148181622Y-75969241D01*
X148176478Y-75965304D01*
X148172542Y-75960161D01*
X148161124Y-75953551D01*
X148150639Y-75945525D01*
X148144374Y-75943854D01*
X148138774Y-75940612D01*
X148125701Y-75938874D01*
X148112938Y-75935471D01*
X148106513Y-75936324D01*
X148100096Y-75935472D01*
X148087344Y-75938872D01*
X148074260Y-75940611D01*
X148068656Y-75943855D01*
X148062395Y-75945525D01*
X148051909Y-75953551D01*
X148040493Y-75960161D01*
X148036557Y-75965302D01*
X148031412Y-75969241D01*
X148024801Y-75980660D01*
X148016776Y-75991144D01*
X148013180Y-76000732D01*
X148011863Y-76003009D01*
X148011608Y-76004927D01*
X148009894Y-76009499D01*
X147959625Y-76198007D01*
X147860941Y-75783533D01*
X147854553Y-75764999D01*
X147831678Y-75733390D01*
X147798448Y-75712941D01*
X147759921Y-75706764D01*
X147721964Y-75715802D01*
X147690355Y-75738677D01*
X147669906Y-75771907D01*
X147663729Y-75810434D01*
X147558897Y-75810434D01*
X147558897Y-75806695D01*
X147556976Y-75787186D01*
X147542044Y-75751138D01*
X147514454Y-75723548D01*
X147478406Y-75708616D01*
X147458897Y-75706695D01*
X147268421Y-75706695D01*
X147258547Y-75707667D01*
X147255914Y-75707480D01*
X147252451Y-75708267D01*
X147248912Y-75708616D01*
X147246469Y-75709627D01*
X147236799Y-75711827D01*
X147122512Y-75749922D01*
X147104612Y-75757913D01*
X147101896Y-75760268D01*
X147098578Y-75761643D01*
X147083424Y-75774079D01*
X147007234Y-75850269D01*
X147000939Y-75857938D01*
X146998945Y-75859669D01*
X146997051Y-75862676D01*
X146994798Y-75865423D01*
X146993787Y-75867862D01*
X146988502Y-75876259D01*
X146950407Y-75952450D01*
X146949861Y-75953874D01*
X146949431Y-75954456D01*
X146946501Y-75962656D01*
X146943401Y-75970759D01*
X146943349Y-75971478D01*
X146942836Y-75972917D01*
X146904740Y-76125298D01*
X146904239Y-76128679D01*
X146903675Y-76130043D01*
X146902951Y-76137391D01*
X146901872Y-76144690D01*
X146902089Y-76146148D01*
X146901754Y-76149552D01*
X146758897Y-76149552D01*
X146758897Y-75806695D01*
X146756976Y-75787186D01*
X146742044Y-75751138D01*
X146714454Y-75723548D01*
X146678406Y-75708616D01*
X146639388Y-75708616D01*
X146603340Y-75723548D01*
X146575750Y-75751138D01*
X146560818Y-75787186D01*
X146558897Y-75806695D01*
X146305082Y-75806695D01*
X146272466Y-75774079D01*
X146264796Y-75767784D01*
X146263066Y-75765790D01*
X146260058Y-75763896D01*
X146257312Y-75761643D01*
X146254872Y-75760632D01*
X146246476Y-75755347D01*
X146170285Y-75717252D01*
X146151976Y-75710246D01*
X146148393Y-75709991D01*
X146145073Y-75708616D01*
X146125564Y-75706695D01*
X145973183Y-75706695D01*
X145953674Y-75708616D01*
X145950353Y-75709991D01*
X145946770Y-75710246D01*
X145928462Y-75717252D01*
X145852272Y-75755347D01*
X145843877Y-75760630D01*
X145841436Y-75761642D01*
X145838688Y-75763896D01*
X145835681Y-75765790D01*
X145833949Y-75767786D01*
X145826283Y-75774079D01*
X145750092Y-75850269D01*
X145737655Y-75865422D01*
X145734809Y-75872291D01*
X145730383Y-75878266D01*
X145723788Y-75896726D01*
X145685693Y-76049108D01*
X145685193Y-76052487D01*
X145684628Y-76053852D01*
X145683904Y-76061203D01*
X145682825Y-76068500D01*
X145683042Y-76069958D01*
X145682707Y-76073361D01*
X145582707Y-76073361D01*
X145582707Y-75606695D01*
X149373184Y-75606695D01*
X149373184Y-76806695D01*
G37*
G36*
X149516041Y-79006695D02*
G01*
X145497140Y-79006695D01*
X145497140Y-78801252D01*
X145597140Y-78801252D01*
X145602658Y-78839878D01*
X145622537Y-78873453D01*
X145653752Y-78896864D01*
X145691549Y-78906547D01*
X145730175Y-78901029D01*
X145763750Y-78881150D01*
X145776992Y-78866695D01*
X146050668Y-78501793D01*
X146054135Y-78505260D01*
X146054135Y-78806695D01*
X146056056Y-78826204D01*
X146070988Y-78862252D01*
X146098578Y-78889842D01*
X146134626Y-78904774D01*
X146173644Y-78904774D01*
X146209692Y-78889842D01*
X146237282Y-78862252D01*
X146252214Y-78826204D01*
X146254135Y-78806695D01*
X146254135Y-78787186D01*
X146322723Y-78787186D01*
X146322723Y-78826204D01*
X146337655Y-78862252D01*
X146365245Y-78889842D01*
X146401293Y-78904774D01*
X146420802Y-78906695D01*
X146801754Y-78906695D01*
X146821263Y-78904774D01*
X146857311Y-78889842D01*
X146884901Y-78862252D01*
X146899833Y-78826204D01*
X146901754Y-78806695D01*
X146901754Y-78102393D01*
X147046532Y-78102393D01*
X147061463Y-78138441D01*
X147089053Y-78166032D01*
X147125101Y-78180963D01*
X147164119Y-78180964D01*
X147200167Y-78166033D01*
X147215321Y-78153597D01*
X147236725Y-78132192D01*
X147313219Y-78106695D01*
X147356956Y-78106695D01*
X147433449Y-78132192D01*
X147481473Y-78180216D01*
X147507402Y-78232074D01*
X147539850Y-78361862D01*
X147539850Y-78451527D01*
X147507402Y-78581314D01*
X147481472Y-78633174D01*
X147433450Y-78681197D01*
X147356956Y-78706695D01*
X147313219Y-78706695D01*
X147236726Y-78681197D01*
X147215322Y-78659793D01*
X147200168Y-78647357D01*
X147164120Y-78632425D01*
X147125102Y-78632425D01*
X147089054Y-78647357D01*
X147061464Y-78674947D01*
X147046532Y-78710995D01*
X147046532Y-78750013D01*
X147061464Y-78786061D01*
X147073900Y-78801215D01*
X147111996Y-78839311D01*
X147127150Y-78851747D01*
X147130468Y-78853121D01*
X147133184Y-78855477D01*
X147151084Y-78863468D01*
X147265369Y-78901563D01*
X147275040Y-78903762D01*
X147277483Y-78904774D01*
X147281021Y-78905122D01*
X147284485Y-78905910D01*
X147287118Y-78905722D01*
X147296992Y-78906695D01*
X147373183Y-78906695D01*
X147383056Y-78905722D01*
X147385690Y-78905910D01*
X147389153Y-78905122D01*
X147392692Y-78904774D01*
X147395134Y-78903762D01*
X147404806Y-78901563D01*
X147519092Y-78863468D01*
X147536992Y-78855477D01*
X147539707Y-78853122D01*
X147543027Y-78851747D01*
X147558180Y-78839310D01*
X147634370Y-78763119D01*
X147640662Y-78755452D01*
X147642659Y-78753721D01*
X147644552Y-78750713D01*
X147646807Y-78747966D01*
X147647818Y-78745524D01*
X147653102Y-78737130D01*
X147691197Y-78660940D01*
X147691742Y-78659515D01*
X147692173Y-78658934D01*
X147695099Y-78650742D01*
X147698203Y-78642632D01*
X147698254Y-78641911D01*
X147698768Y-78640473D01*
X147736864Y-78488092D01*
X147737364Y-78484710D01*
X147737929Y-78483347D01*
X147738652Y-78475998D01*
X147739732Y-78468700D01*
X147739514Y-78467241D01*
X147739850Y-78463838D01*
X147739850Y-78349552D01*
X147739514Y-78346148D01*
X147739732Y-78344690D01*
X147738652Y-78337391D01*
X147737929Y-78330043D01*
X147737364Y-78328679D01*
X147736864Y-78325298D01*
X147698768Y-78172917D01*
X147698254Y-78171478D01*
X147698203Y-78170759D01*
X147695102Y-78162656D01*
X147692173Y-78154456D01*
X147691742Y-78153874D01*
X147691197Y-78152450D01*
X147653102Y-78076259D01*
X147647816Y-78067862D01*
X147646806Y-78065423D01*
X147644552Y-78062676D01*
X147642659Y-78059669D01*
X147640664Y-78057938D01*
X147634370Y-78050269D01*
X147594535Y-78010434D01*
X147806586Y-78010434D01*
X147809236Y-78029857D01*
X147999712Y-78829857D01*
X148002020Y-78836553D01*
X148002339Y-78838952D01*
X148003594Y-78841120D01*
X148006100Y-78848390D01*
X148014613Y-78860154D01*
X148021888Y-78872720D01*
X148025965Y-78875840D01*
X148028975Y-78880000D01*
X148041337Y-78887607D01*
X148052871Y-78896436D01*
X148057834Y-78897759D01*
X148062205Y-78900449D01*
X148076536Y-78902746D01*
X148090572Y-78906489D01*
X148095663Y-78905812D01*
X148100732Y-78906625D01*
X148114860Y-78903261D01*
X148129250Y-78901349D01*
X148133691Y-78898777D01*
X148138689Y-78897588D01*
X148150455Y-78889072D01*
X148163018Y-78881800D01*
X148166138Y-78877722D01*
X148170298Y-78874713D01*
X148177905Y-78862350D01*
X148186734Y-78850817D01*
X148189432Y-78843618D01*
X148190747Y-78841483D01*
X148191130Y-78839089D01*
X148193616Y-78832461D01*
X148249374Y-78623369D01*
X148305132Y-78832462D01*
X148307617Y-78839091D01*
X148308001Y-78841483D01*
X148309314Y-78843617D01*
X148312014Y-78850817D01*
X148320841Y-78862348D01*
X148328450Y-78874713D01*
X148332611Y-78877724D01*
X148335731Y-78881800D01*
X148348292Y-78889072D01*
X148360059Y-78897588D01*
X148365054Y-78898777D01*
X148369498Y-78901350D01*
X148383891Y-78903262D01*
X148398016Y-78906626D01*
X148403084Y-78905813D01*
X148408176Y-78906490D01*
X148422214Y-78902746D01*
X148436543Y-78900449D01*
X148440913Y-78897759D01*
X148445877Y-78896436D01*
X148457410Y-78887607D01*
X148469773Y-78880000D01*
X148472782Y-78875840D01*
X148476860Y-78872720D01*
X148484135Y-78860153D01*
X148492648Y-78848391D01*
X148495152Y-78841125D01*
X148496410Y-78838953D01*
X148496729Y-78836549D01*
X148499036Y-78829857D01*
X148558973Y-78578123D01*
X148758898Y-78578123D01*
X148758898Y-78654314D01*
X148760819Y-78673823D01*
X148762194Y-78677143D01*
X148762449Y-78680727D01*
X148769455Y-78699035D01*
X148807550Y-78775225D01*
X148812834Y-78783621D01*
X148813845Y-78786060D01*
X148816098Y-78788805D01*
X148817993Y-78791816D01*
X148819989Y-78793547D01*
X148826281Y-78801214D01*
X148864376Y-78839310D01*
X148872047Y-78845606D01*
X148873777Y-78847600D01*
X148876782Y-78849491D01*
X148879529Y-78851746D01*
X148881969Y-78852756D01*
X148890367Y-78858043D01*
X148966558Y-78896138D01*
X148984867Y-78903144D01*
X148988449Y-78903398D01*
X148991770Y-78904774D01*
X149011279Y-78906695D01*
X149201755Y-78906695D01*
X149211628Y-78905722D01*
X149214262Y-78905910D01*
X149217725Y-78905122D01*
X149221264Y-78904774D01*
X149223706Y-78903762D01*
X149233378Y-78901563D01*
X149347664Y-78863468D01*
X149365564Y-78855477D01*
X149395040Y-78829912D01*
X149412490Y-78795013D01*
X149415256Y-78756093D01*
X149402918Y-78719077D01*
X149377353Y-78689601D01*
X149342454Y-78672151D01*
X149303534Y-78669385D01*
X149284419Y-78673732D01*
X149185528Y-78706695D01*
X149034886Y-78706695D01*
X148994324Y-78686414D01*
X148979178Y-78671268D01*
X148958898Y-78630707D01*
X148958898Y-78601730D01*
X148979178Y-78561169D01*
X148994324Y-78546022D01*
X149046185Y-78520092D01*
X149187914Y-78484661D01*
X149189352Y-78484147D01*
X149190073Y-78484096D01*
X149198191Y-78480989D01*
X149206374Y-78478066D01*
X149206954Y-78477635D01*
X149208381Y-78477090D01*
X149284571Y-78438995D01*
X149292969Y-78433708D01*
X149295407Y-78432699D01*
X149298150Y-78430447D01*
X149301162Y-78428552D01*
X149302894Y-78426554D01*
X149310561Y-78420263D01*
X149348655Y-78382168D01*
X149354947Y-78374501D01*
X149356945Y-78372769D01*
X149358838Y-78369760D01*
X149361092Y-78367015D01*
X149362102Y-78364574D01*
X149367387Y-78356179D01*
X149405483Y-78279988D01*
X149412490Y-78261680D01*
X149412744Y-78258094D01*
X149414120Y-78254775D01*
X149416041Y-78235266D01*
X149416041Y-78159076D01*
X149414120Y-78139567D01*
X149412744Y-78136247D01*
X149412490Y-78132662D01*
X149405483Y-78114354D01*
X149367387Y-78038163D01*
X149362102Y-78029767D01*
X149361092Y-78027327D01*
X149358838Y-78024581D01*
X149356945Y-78021573D01*
X149354947Y-78019840D01*
X149348655Y-78012174D01*
X149310561Y-77974079D01*
X149302894Y-77967787D01*
X149301162Y-77965790D01*
X149298150Y-77963894D01*
X149295407Y-77961643D01*
X149292969Y-77960633D01*
X149284571Y-77955347D01*
X149208381Y-77917252D01*
X149190073Y-77910246D01*
X149186489Y-77909991D01*
X149183169Y-77908616D01*
X149163660Y-77906695D01*
X148973183Y-77906695D01*
X148963309Y-77907667D01*
X148960676Y-77907480D01*
X148957212Y-77908267D01*
X148953674Y-77908616D01*
X148951231Y-77909627D01*
X148941560Y-77911827D01*
X148827275Y-77949922D01*
X148809375Y-77957913D01*
X148779899Y-77983478D01*
X148762449Y-78018377D01*
X148759683Y-78057297D01*
X148772021Y-78094313D01*
X148797586Y-78123789D01*
X148832485Y-78141239D01*
X148871405Y-78144005D01*
X148890521Y-78139658D01*
X148989410Y-78106695D01*
X149140053Y-78106695D01*
X149180613Y-78126975D01*
X149195760Y-78142121D01*
X149216041Y-78182683D01*
X149216041Y-78211658D01*
X149195760Y-78252220D01*
X149180613Y-78267366D01*
X149128755Y-78293295D01*
X148987026Y-78328728D01*
X148985588Y-78329241D01*
X148984865Y-78329293D01*
X148976744Y-78332401D01*
X148968565Y-78335323D01*
X148967983Y-78335754D01*
X148966557Y-78336300D01*
X148890366Y-78374396D01*
X148881970Y-78379680D01*
X148879530Y-78380691D01*
X148876784Y-78382944D01*
X148873776Y-78384838D01*
X148872043Y-78386835D01*
X148864377Y-78393128D01*
X148826282Y-78431222D01*
X148819990Y-78438888D01*
X148817993Y-78440621D01*
X148816097Y-78443632D01*
X148813846Y-78446376D01*
X148812836Y-78448813D01*
X148807550Y-78457212D01*
X148769455Y-78533402D01*
X148762449Y-78551710D01*
X148762194Y-78555293D01*
X148760819Y-78558614D01*
X148758898Y-78578123D01*
X148558973Y-78578123D01*
X148689512Y-78029857D01*
X148692162Y-78010434D01*
X148685985Y-77971907D01*
X148665536Y-77938677D01*
X148633927Y-77915802D01*
X148595970Y-77906765D01*
X148557443Y-77912941D01*
X148524213Y-77933390D01*
X148501338Y-77965000D01*
X148494950Y-77983533D01*
X148396265Y-78398006D01*
X148345997Y-78209500D01*
X148344284Y-78204933D01*
X148344029Y-78203008D01*
X148342706Y-78200724D01*
X148339115Y-78191144D01*
X148331090Y-78180661D01*
X148324479Y-78169241D01*
X148319335Y-78165304D01*
X148315399Y-78160161D01*
X148303981Y-78153551D01*
X148293496Y-78145525D01*
X148287231Y-78143854D01*
X148281631Y-78140612D01*
X148268558Y-78138874D01*
X148255795Y-78135471D01*
X148249370Y-78136324D01*
X148242953Y-78135472D01*
X148230201Y-78138872D01*
X148217117Y-78140611D01*
X148211513Y-78143855D01*
X148205252Y-78145525D01*
X148194766Y-78153551D01*
X148183350Y-78160161D01*
X148179414Y-78165302D01*
X148174269Y-78169241D01*
X148167658Y-78180660D01*
X148159633Y-78191144D01*
X148156037Y-78200732D01*
X148154720Y-78203009D01*
X148154465Y-78204927D01*
X148152751Y-78209499D01*
X148102482Y-78398007D01*
X148003798Y-77983533D01*
X147997410Y-77964999D01*
X147974535Y-77933390D01*
X147941305Y-77912941D01*
X147902778Y-77906764D01*
X147864821Y-77915802D01*
X147833212Y-77938677D01*
X147812763Y-77971907D01*
X147806586Y-78010434D01*
X147594535Y-78010434D01*
X147558180Y-77974079D01*
X147543026Y-77961643D01*
X147539707Y-77960268D01*
X147536992Y-77957913D01*
X147519092Y-77949922D01*
X147404806Y-77911827D01*
X147395134Y-77909627D01*
X147392692Y-77908616D01*
X147389153Y-77908267D01*
X147385690Y-77907480D01*
X147383056Y-77907667D01*
X147373183Y-77906695D01*
X147296992Y-77906695D01*
X147287118Y-77907667D01*
X147284485Y-77907480D01*
X147281021Y-77908267D01*
X147277483Y-77908616D01*
X147275040Y-77909627D01*
X147265369Y-77911827D01*
X147151084Y-77949922D01*
X147133184Y-77957913D01*
X147130469Y-77960267D01*
X147127151Y-77961642D01*
X147111997Y-77974079D01*
X147073901Y-78012173D01*
X147061464Y-78027327D01*
X147046533Y-78063375D01*
X147046532Y-78102393D01*
X146901754Y-78102393D01*
X146901754Y-78006695D01*
X146899833Y-77987186D01*
X146884901Y-77951138D01*
X146857311Y-77923548D01*
X146821263Y-77908616D01*
X146782245Y-77908616D01*
X146746197Y-77923548D01*
X146718607Y-77951138D01*
X146703675Y-77987186D01*
X146701754Y-78006695D01*
X146701754Y-78706695D01*
X146420802Y-78706695D01*
X146401293Y-78708616D01*
X146365245Y-78723548D01*
X146337655Y-78751138D01*
X146322723Y-78787186D01*
X146254135Y-78787186D01*
X146254135Y-78006695D01*
X146252214Y-77987186D01*
X146237282Y-77951138D01*
X146209692Y-77923548D01*
X146173644Y-77908616D01*
X146134626Y-77908616D01*
X146098578Y-77923548D01*
X146070988Y-77951138D01*
X146056056Y-77987186D01*
X146054135Y-78006695D01*
X146054135Y-78222416D01*
X145767703Y-77935984D01*
X145752549Y-77923548D01*
X145716501Y-77908616D01*
X145677483Y-77908616D01*
X145641435Y-77923548D01*
X145613845Y-77951138D01*
X145598913Y-77987186D01*
X145598913Y-78026204D01*
X145613845Y-78062252D01*
X145626281Y-78077406D01*
X145907811Y-78358936D01*
X145616992Y-78746695D01*
X145606823Y-78763455D01*
X145597140Y-78801252D01*
X145497140Y-78801252D01*
X145497140Y-77806695D01*
X149516041Y-77806695D01*
X149516041Y-79006695D01*
G37*
G36*
X154316041Y-63973362D02*
G01*
X151860819Y-63973362D01*
X151860819Y-63753853D01*
X151960819Y-63753853D01*
X151960819Y-63792871D01*
X151975751Y-63828919D01*
X152003341Y-63856509D01*
X152039389Y-63871441D01*
X152058898Y-63873362D01*
X152516041Y-63873362D01*
X152535550Y-63871441D01*
X152571598Y-63856509D01*
X152599188Y-63828919D01*
X152614120Y-63792871D01*
X152614120Y-63753853D01*
X152599188Y-63717805D01*
X152571598Y-63690215D01*
X152535550Y-63675283D01*
X152516041Y-63673362D01*
X152387469Y-63673362D01*
X152387469Y-63248459D01*
X152395129Y-63253281D01*
X152471320Y-63291376D01*
X152489629Y-63298382D01*
X152528549Y-63301148D01*
X152565565Y-63288809D01*
X152595041Y-63263244D01*
X152612490Y-63228345D01*
X152615256Y-63189425D01*
X152602917Y-63152409D01*
X152577352Y-63122933D01*
X152560762Y-63112490D01*
X152499085Y-63081651D01*
X152486494Y-63069060D01*
X152722723Y-63069060D01*
X152737654Y-63105108D01*
X152765244Y-63132699D01*
X152801292Y-63147630D01*
X152840310Y-63147631D01*
X152876358Y-63132700D01*
X152891512Y-63120264D01*
X152912916Y-63098859D01*
X152989410Y-63073362D01*
X153033147Y-63073362D01*
X153109640Y-63098859D01*
X153157664Y-63146883D01*
X153183593Y-63198741D01*
X153216041Y-63328529D01*
X153216041Y-63418194D01*
X153183593Y-63547981D01*
X153157663Y-63599841D01*
X153109641Y-63647864D01*
X153033147Y-63673362D01*
X152989410Y-63673362D01*
X152912917Y-63647864D01*
X152891513Y-63626460D01*
X152876359Y-63614024D01*
X152840311Y-63599092D01*
X152801293Y-63599092D01*
X152765245Y-63614024D01*
X152737655Y-63641614D01*
X152722723Y-63677662D01*
X152722723Y-63716680D01*
X152737655Y-63752728D01*
X152750091Y-63767882D01*
X152788187Y-63805978D01*
X152803341Y-63818414D01*
X152806659Y-63819788D01*
X152809375Y-63822144D01*
X152827275Y-63830135D01*
X152941560Y-63868230D01*
X152951231Y-63870429D01*
X152953674Y-63871441D01*
X152957212Y-63871789D01*
X152960676Y-63872577D01*
X152963309Y-63872389D01*
X152973183Y-63873362D01*
X153049374Y-63873362D01*
X153059247Y-63872389D01*
X153061881Y-63872577D01*
X153065344Y-63871789D01*
X153068883Y-63871441D01*
X153071325Y-63870429D01*
X153080997Y-63868230D01*
X153195283Y-63830135D01*
X153213183Y-63822144D01*
X153215898Y-63819789D01*
X153219218Y-63818414D01*
X153234371Y-63805977D01*
X153310561Y-63729786D01*
X153316853Y-63722119D01*
X153318850Y-63720388D01*
X153320743Y-63717380D01*
X153322998Y-63714633D01*
X153324009Y-63712191D01*
X153329293Y-63703797D01*
X153367388Y-63627607D01*
X153367933Y-63626182D01*
X153368364Y-63625601D01*
X153371290Y-63617409D01*
X153374394Y-63609299D01*
X153374445Y-63608578D01*
X153374959Y-63607140D01*
X153413055Y-63454759D01*
X153413555Y-63451377D01*
X153414120Y-63450014D01*
X153414843Y-63442665D01*
X153415923Y-63435367D01*
X153415705Y-63433908D01*
X153416041Y-63430505D01*
X153416041Y-63316219D01*
X153415705Y-63312815D01*
X153415923Y-63311357D01*
X153414843Y-63304058D01*
X153414120Y-63296710D01*
X153413555Y-63295346D01*
X153413055Y-63291965D01*
X153374959Y-63139584D01*
X153374445Y-63138145D01*
X153374394Y-63137426D01*
X153371293Y-63129323D01*
X153368364Y-63121123D01*
X153367933Y-63120541D01*
X153367388Y-63119117D01*
X153342360Y-63069060D01*
X153522723Y-63069060D01*
X153537654Y-63105108D01*
X153565244Y-63132699D01*
X153601292Y-63147630D01*
X153640310Y-63147631D01*
X153676358Y-63132700D01*
X153691512Y-63120264D01*
X153712916Y-63098859D01*
X153789410Y-63073362D01*
X153833147Y-63073362D01*
X153909640Y-63098859D01*
X153957664Y-63146883D01*
X153983593Y-63198741D01*
X154016041Y-63328529D01*
X154016041Y-63418194D01*
X153983593Y-63547981D01*
X153957663Y-63599841D01*
X153909641Y-63647864D01*
X153833147Y-63673362D01*
X153789410Y-63673362D01*
X153712917Y-63647864D01*
X153691513Y-63626460D01*
X153676359Y-63614024D01*
X153640311Y-63599092D01*
X153601293Y-63599092D01*
X153565245Y-63614024D01*
X153537655Y-63641614D01*
X153522723Y-63677662D01*
X153522723Y-63716680D01*
X153537655Y-63752728D01*
X153550091Y-63767882D01*
X153588187Y-63805978D01*
X153603341Y-63818414D01*
X153606659Y-63819788D01*
X153609375Y-63822144D01*
X153627275Y-63830135D01*
X153741560Y-63868230D01*
X153751231Y-63870429D01*
X153753674Y-63871441D01*
X153757212Y-63871789D01*
X153760676Y-63872577D01*
X153763309Y-63872389D01*
X153773183Y-63873362D01*
X153849374Y-63873362D01*
X153859247Y-63872389D01*
X153861881Y-63872577D01*
X153865344Y-63871789D01*
X153868883Y-63871441D01*
X153871325Y-63870429D01*
X153880997Y-63868230D01*
X153995283Y-63830135D01*
X154013183Y-63822144D01*
X154015898Y-63819789D01*
X154019218Y-63818414D01*
X154034371Y-63805977D01*
X154110561Y-63729786D01*
X154116853Y-63722119D01*
X154118850Y-63720388D01*
X154120743Y-63717380D01*
X154122998Y-63714633D01*
X154124009Y-63712191D01*
X154129293Y-63703797D01*
X154167388Y-63627607D01*
X154167933Y-63626182D01*
X154168364Y-63625601D01*
X154171290Y-63617409D01*
X154174394Y-63609299D01*
X154174445Y-63608578D01*
X154174959Y-63607140D01*
X154213055Y-63454759D01*
X154213555Y-63451377D01*
X154214120Y-63450014D01*
X154214843Y-63442665D01*
X154215923Y-63435367D01*
X154215705Y-63433908D01*
X154216041Y-63430505D01*
X154216041Y-63316219D01*
X154215705Y-63312815D01*
X154215923Y-63311357D01*
X154214843Y-63304058D01*
X154214120Y-63296710D01*
X154213555Y-63295346D01*
X154213055Y-63291965D01*
X154174959Y-63139584D01*
X154174445Y-63138145D01*
X154174394Y-63137426D01*
X154171293Y-63129323D01*
X154168364Y-63121123D01*
X154167933Y-63120541D01*
X154167388Y-63119117D01*
X154129293Y-63042926D01*
X154124007Y-63034529D01*
X154122997Y-63032090D01*
X154120743Y-63029343D01*
X154118850Y-63026336D01*
X154116855Y-63024605D01*
X154110561Y-63016936D01*
X154034371Y-62940746D01*
X154019217Y-62928310D01*
X154015898Y-62926935D01*
X154013183Y-62924580D01*
X153995283Y-62916589D01*
X153880997Y-62878494D01*
X153871325Y-62876294D01*
X153868883Y-62875283D01*
X153865344Y-62874934D01*
X153861881Y-62874147D01*
X153859247Y-62874334D01*
X153849374Y-62873362D01*
X153773183Y-62873362D01*
X153763309Y-62874334D01*
X153760676Y-62874147D01*
X153757212Y-62874934D01*
X153753674Y-62875283D01*
X153751231Y-62876294D01*
X153741560Y-62878494D01*
X153627275Y-62916589D01*
X153609375Y-62924580D01*
X153606660Y-62926934D01*
X153603342Y-62928309D01*
X153588188Y-62940746D01*
X153550092Y-62978840D01*
X153537655Y-62993994D01*
X153522724Y-63030042D01*
X153522723Y-63069060D01*
X153342360Y-63069060D01*
X153329293Y-63042926D01*
X153324007Y-63034529D01*
X153322997Y-63032090D01*
X153320743Y-63029343D01*
X153318850Y-63026336D01*
X153316855Y-63024605D01*
X153310561Y-63016936D01*
X153234371Y-62940746D01*
X153219217Y-62928310D01*
X153215898Y-62926935D01*
X153213183Y-62924580D01*
X153195283Y-62916589D01*
X153080997Y-62878494D01*
X153071325Y-62876294D01*
X153068883Y-62875283D01*
X153065344Y-62874934D01*
X153061881Y-62874147D01*
X153059247Y-62874334D01*
X153049374Y-62873362D01*
X152973183Y-62873362D01*
X152963309Y-62874334D01*
X152960676Y-62874147D01*
X152957212Y-62874934D01*
X152953674Y-62875283D01*
X152951231Y-62876294D01*
X152941560Y-62878494D01*
X152827275Y-62916589D01*
X152809375Y-62924580D01*
X152806660Y-62926934D01*
X152803342Y-62928309D01*
X152788188Y-62940746D01*
X152750092Y-62978840D01*
X152737655Y-62993994D01*
X152722724Y-63030042D01*
X152722723Y-63069060D01*
X152486494Y-63069060D01*
X152441374Y-63023941D01*
X152370674Y-62917891D01*
X152370628Y-62917835D01*
X152370616Y-62917805D01*
X152370547Y-62917736D01*
X152358254Y-62902725D01*
X152350026Y-62897215D01*
X152343026Y-62890215D01*
X152333972Y-62886465D01*
X152325833Y-62881014D01*
X152316127Y-62879072D01*
X152306978Y-62875283D01*
X152297178Y-62875283D01*
X152287573Y-62873362D01*
X152277862Y-62875283D01*
X152267960Y-62875283D01*
X152258908Y-62879032D01*
X152249296Y-62880934D01*
X152241056Y-62886427D01*
X152231912Y-62890215D01*
X152224986Y-62897140D01*
X152216832Y-62902577D01*
X152211322Y-62910804D01*
X152204322Y-62917805D01*
X152200572Y-62926858D01*
X152195121Y-62934998D01*
X152193179Y-62944703D01*
X152189390Y-62953853D01*
X152187489Y-62973157D01*
X152187469Y-62973258D01*
X152187475Y-62973292D01*
X152187469Y-62973362D01*
X152187469Y-63673362D01*
X152058898Y-63673362D01*
X152039389Y-63675283D01*
X152003341Y-63690215D01*
X151975751Y-63717805D01*
X151960819Y-63753853D01*
X151860819Y-63753853D01*
X151860819Y-62773362D01*
X154316041Y-62773362D01*
X154316041Y-63973362D01*
G37*
G36*
X154316041Y-65506695D02*
G01*
X151860819Y-65506695D01*
X151860819Y-65287186D01*
X151960819Y-65287186D01*
X151960819Y-65326204D01*
X151975751Y-65362252D01*
X152003341Y-65389842D01*
X152039389Y-65404774D01*
X152058898Y-65406695D01*
X152516041Y-65406695D01*
X152535550Y-65404774D01*
X152571598Y-65389842D01*
X152599188Y-65362252D01*
X152614120Y-65326204D01*
X152614120Y-65287186D01*
X152599188Y-65251138D01*
X152571598Y-65223548D01*
X152535550Y-65208616D01*
X152516041Y-65206695D01*
X152387469Y-65206695D01*
X152387469Y-64781792D01*
X152395129Y-64786614D01*
X152471320Y-64824709D01*
X152489629Y-64831715D01*
X152528549Y-64834481D01*
X152565565Y-64822142D01*
X152595041Y-64796577D01*
X152612490Y-64761678D01*
X152615256Y-64722758D01*
X152602917Y-64685742D01*
X152577352Y-64656266D01*
X152560762Y-64645823D01*
X152499085Y-64614984D01*
X152486494Y-64602393D01*
X152722723Y-64602393D01*
X152737654Y-64638441D01*
X152765244Y-64666032D01*
X152801292Y-64680963D01*
X152840310Y-64680964D01*
X152876358Y-64666033D01*
X152891512Y-64653597D01*
X152912916Y-64632192D01*
X152989410Y-64606695D01*
X153033147Y-64606695D01*
X153109640Y-64632192D01*
X153157664Y-64680216D01*
X153183593Y-64732074D01*
X153216041Y-64861862D01*
X153216041Y-64951527D01*
X153183593Y-65081314D01*
X153157663Y-65133174D01*
X153109641Y-65181197D01*
X153033147Y-65206695D01*
X152989410Y-65206695D01*
X152912917Y-65181197D01*
X152891513Y-65159793D01*
X152876359Y-65147357D01*
X152840311Y-65132425D01*
X152801293Y-65132425D01*
X152765245Y-65147357D01*
X152737655Y-65174947D01*
X152722723Y-65210995D01*
X152722723Y-65250013D01*
X152737655Y-65286061D01*
X152750091Y-65301215D01*
X152788187Y-65339311D01*
X152803341Y-65351747D01*
X152806659Y-65353121D01*
X152809375Y-65355477D01*
X152827275Y-65363468D01*
X152941560Y-65401563D01*
X152951231Y-65403762D01*
X152953674Y-65404774D01*
X152957212Y-65405122D01*
X152960676Y-65405910D01*
X152963309Y-65405722D01*
X152973183Y-65406695D01*
X153049374Y-65406695D01*
X153059247Y-65405722D01*
X153061881Y-65405910D01*
X153065344Y-65405122D01*
X153068883Y-65404774D01*
X153071325Y-65403762D01*
X153080997Y-65401563D01*
X153195283Y-65363468D01*
X153213183Y-65355477D01*
X153215898Y-65353122D01*
X153219218Y-65351747D01*
X153234371Y-65339310D01*
X153310561Y-65263119D01*
X153316853Y-65255452D01*
X153318850Y-65253721D01*
X153320743Y-65250713D01*
X153322998Y-65247966D01*
X153324009Y-65245524D01*
X153329293Y-65237130D01*
X153367388Y-65160940D01*
X153367933Y-65159515D01*
X153368364Y-65158934D01*
X153371290Y-65150742D01*
X153374394Y-65142632D01*
X153374445Y-65141911D01*
X153374959Y-65140473D01*
X153413055Y-64988092D01*
X153413555Y-64984710D01*
X153414120Y-64983347D01*
X153414843Y-64975998D01*
X153415923Y-64968700D01*
X153415705Y-64967241D01*
X153416041Y-64963838D01*
X153416041Y-64849552D01*
X153415705Y-64846148D01*
X153415923Y-64844690D01*
X153414843Y-64837391D01*
X153414120Y-64830043D01*
X153413555Y-64828679D01*
X153413055Y-64825298D01*
X153374959Y-64672917D01*
X153374445Y-64671478D01*
X153374394Y-64670759D01*
X153371293Y-64662656D01*
X153368364Y-64654456D01*
X153367933Y-64653874D01*
X153367388Y-64652450D01*
X153342360Y-64602393D01*
X153522723Y-64602393D01*
X153537654Y-64638441D01*
X153565244Y-64666032D01*
X153601292Y-64680963D01*
X153640310Y-64680964D01*
X153676358Y-64666033D01*
X153691512Y-64653597D01*
X153712916Y-64632192D01*
X153789410Y-64606695D01*
X153833147Y-64606695D01*
X153909640Y-64632192D01*
X153957664Y-64680216D01*
X153983593Y-64732074D01*
X154016041Y-64861862D01*
X154016041Y-64951527D01*
X153983593Y-65081314D01*
X153957663Y-65133174D01*
X153909641Y-65181197D01*
X153833147Y-65206695D01*
X153789410Y-65206695D01*
X153712917Y-65181197D01*
X153691513Y-65159793D01*
X153676359Y-65147357D01*
X153640311Y-65132425D01*
X153601293Y-65132425D01*
X153565245Y-65147357D01*
X153537655Y-65174947D01*
X153522723Y-65210995D01*
X153522723Y-65250013D01*
X153537655Y-65286061D01*
X153550091Y-65301215D01*
X153588187Y-65339311D01*
X153603341Y-65351747D01*
X153606659Y-65353121D01*
X153609375Y-65355477D01*
X153627275Y-65363468D01*
X153741560Y-65401563D01*
X153751231Y-65403762D01*
X153753674Y-65404774D01*
X153757212Y-65405122D01*
X153760676Y-65405910D01*
X153763309Y-65405722D01*
X153773183Y-65406695D01*
X153849374Y-65406695D01*
X153859247Y-65405722D01*
X153861881Y-65405910D01*
X153865344Y-65405122D01*
X153868883Y-65404774D01*
X153871325Y-65403762D01*
X153880997Y-65401563D01*
X153995283Y-65363468D01*
X154013183Y-65355477D01*
X154015898Y-65353122D01*
X154019218Y-65351747D01*
X154034371Y-65339310D01*
X154110561Y-65263119D01*
X154116853Y-65255452D01*
X154118850Y-65253721D01*
X154120743Y-65250713D01*
X154122998Y-65247966D01*
X154124009Y-65245524D01*
X154129293Y-65237130D01*
X154167388Y-65160940D01*
X154167933Y-65159515D01*
X154168364Y-65158934D01*
X154171290Y-65150742D01*
X154174394Y-65142632D01*
X154174445Y-65141911D01*
X154174959Y-65140473D01*
X154213055Y-64988092D01*
X154213555Y-64984710D01*
X154214120Y-64983347D01*
X154214843Y-64975998D01*
X154215923Y-64968700D01*
X154215705Y-64967241D01*
X154216041Y-64963838D01*
X154216041Y-64849552D01*
X154215705Y-64846148D01*
X154215923Y-64844690D01*
X154214843Y-64837391D01*
X154214120Y-64830043D01*
X154213555Y-64828679D01*
X154213055Y-64825298D01*
X154174959Y-64672917D01*
X154174445Y-64671478D01*
X154174394Y-64670759D01*
X154171293Y-64662656D01*
X154168364Y-64654456D01*
X154167933Y-64653874D01*
X154167388Y-64652450D01*
X154129293Y-64576259D01*
X154124007Y-64567862D01*
X154122997Y-64565423D01*
X154120743Y-64562676D01*
X154118850Y-64559669D01*
X154116855Y-64557938D01*
X154110561Y-64550269D01*
X154034371Y-64474079D01*
X154019217Y-64461643D01*
X154015898Y-64460268D01*
X154013183Y-64457913D01*
X153995283Y-64449922D01*
X153880997Y-64411827D01*
X153871325Y-64409627D01*
X153868883Y-64408616D01*
X153865344Y-64408267D01*
X153861881Y-64407480D01*
X153859247Y-64407667D01*
X153849374Y-64406695D01*
X153773183Y-64406695D01*
X153763309Y-64407667D01*
X153760676Y-64407480D01*
X153757212Y-64408267D01*
X153753674Y-64408616D01*
X153751231Y-64409627D01*
X153741560Y-64411827D01*
X153627275Y-64449922D01*
X153609375Y-64457913D01*
X153606660Y-64460267D01*
X153603342Y-64461642D01*
X153588188Y-64474079D01*
X153550092Y-64512173D01*
X153537655Y-64527327D01*
X153522724Y-64563375D01*
X153522723Y-64602393D01*
X153342360Y-64602393D01*
X153329293Y-64576259D01*
X153324007Y-64567862D01*
X153322997Y-64565423D01*
X153320743Y-64562676D01*
X153318850Y-64559669D01*
X153316855Y-64557938D01*
X153310561Y-64550269D01*
X153234371Y-64474079D01*
X153219217Y-64461643D01*
X153215898Y-64460268D01*
X153213183Y-64457913D01*
X153195283Y-64449922D01*
X153080997Y-64411827D01*
X153071325Y-64409627D01*
X153068883Y-64408616D01*
X153065344Y-64408267D01*
X153061881Y-64407480D01*
X153059247Y-64407667D01*
X153049374Y-64406695D01*
X152973183Y-64406695D01*
X152963309Y-64407667D01*
X152960676Y-64407480D01*
X152957212Y-64408267D01*
X152953674Y-64408616D01*
X152951231Y-64409627D01*
X152941560Y-64411827D01*
X152827275Y-64449922D01*
X152809375Y-64457913D01*
X152806660Y-64460267D01*
X152803342Y-64461642D01*
X152788188Y-64474079D01*
X152750092Y-64512173D01*
X152737655Y-64527327D01*
X152722724Y-64563375D01*
X152722723Y-64602393D01*
X152486494Y-64602393D01*
X152441374Y-64557274D01*
X152370674Y-64451224D01*
X152370628Y-64451168D01*
X152370616Y-64451138D01*
X152370547Y-64451069D01*
X152358254Y-64436058D01*
X152350026Y-64430548D01*
X152343026Y-64423548D01*
X152333972Y-64419798D01*
X152325833Y-64414347D01*
X152316127Y-64412405D01*
X152306978Y-64408616D01*
X152297178Y-64408616D01*
X152287573Y-64406695D01*
X152277862Y-64408616D01*
X152267960Y-64408616D01*
X152258908Y-64412365D01*
X152249296Y-64414267D01*
X152241056Y-64419760D01*
X152231912Y-64423548D01*
X152224986Y-64430473D01*
X152216832Y-64435910D01*
X152211322Y-64444137D01*
X152204322Y-64451138D01*
X152200572Y-64460191D01*
X152195121Y-64468331D01*
X152193179Y-64478036D01*
X152189390Y-64487186D01*
X152187489Y-64506490D01*
X152187469Y-64506591D01*
X152187475Y-64506625D01*
X152187469Y-64506695D01*
X152187469Y-65206695D01*
X152058898Y-65206695D01*
X152039389Y-65208616D01*
X152003341Y-65223548D01*
X151975751Y-65251138D01*
X151960819Y-65287186D01*
X151860819Y-65287186D01*
X151860819Y-64306695D01*
X154316041Y-64306695D01*
X154316041Y-65506695D01*
G37*
G36*
X154316041Y-67406695D02*
G01*
X151858898Y-67406695D01*
X151858898Y-66559076D01*
X151958898Y-66559076D01*
X151958898Y-66635266D01*
X151959870Y-66645139D01*
X151959683Y-66647773D01*
X151960470Y-66651236D01*
X151960819Y-66654775D01*
X151961830Y-66657217D01*
X151964030Y-66666889D01*
X152002125Y-66781175D01*
X152010116Y-66799075D01*
X152012471Y-66801790D01*
X152013846Y-66805109D01*
X152026282Y-66820263D01*
X152312714Y-67106695D01*
X152058898Y-67106695D01*
X152039389Y-67108616D01*
X152003341Y-67123548D01*
X151975751Y-67151138D01*
X151960819Y-67187186D01*
X151960819Y-67226204D01*
X151975751Y-67262252D01*
X152003341Y-67289842D01*
X152039389Y-67304774D01*
X152058898Y-67306695D01*
X152554136Y-67306695D01*
X152573645Y-67304774D01*
X152609693Y-67289842D01*
X152637283Y-67262252D01*
X152652215Y-67226204D01*
X152652215Y-67187186D01*
X152637283Y-67151138D01*
X152624847Y-67135984D01*
X152184395Y-66695532D01*
X152158898Y-66619039D01*
X152158898Y-66582682D01*
X152179178Y-66542121D01*
X152194323Y-66526975D01*
X152234886Y-66506695D01*
X152378148Y-66506695D01*
X152418709Y-66526975D01*
X152445331Y-66553596D01*
X152460485Y-66566033D01*
X152496533Y-66580964D01*
X152535551Y-66580963D01*
X152571599Y-66566031D01*
X152599189Y-66538441D01*
X152614120Y-66502393D01*
X152722723Y-66502393D01*
X152737654Y-66538441D01*
X152765244Y-66566032D01*
X152801292Y-66580963D01*
X152840310Y-66580964D01*
X152876358Y-66566033D01*
X152891512Y-66553597D01*
X152912916Y-66532192D01*
X152989410Y-66506695D01*
X153033147Y-66506695D01*
X153109640Y-66532192D01*
X153157664Y-66580216D01*
X153183593Y-66632074D01*
X153216041Y-66761862D01*
X153216041Y-66851527D01*
X153183593Y-66981314D01*
X153157663Y-67033174D01*
X153109641Y-67081197D01*
X153033147Y-67106695D01*
X152989410Y-67106695D01*
X152912917Y-67081197D01*
X152891513Y-67059793D01*
X152876359Y-67047357D01*
X152840311Y-67032425D01*
X152801293Y-67032425D01*
X152765245Y-67047357D01*
X152737655Y-67074947D01*
X152722723Y-67110995D01*
X152722723Y-67150013D01*
X152737655Y-67186061D01*
X152750091Y-67201215D01*
X152788187Y-67239311D01*
X152803341Y-67251747D01*
X152806659Y-67253121D01*
X152809375Y-67255477D01*
X152827275Y-67263468D01*
X152941560Y-67301563D01*
X152951231Y-67303762D01*
X152953674Y-67304774D01*
X152957212Y-67305122D01*
X152960676Y-67305910D01*
X152963309Y-67305722D01*
X152973183Y-67306695D01*
X153049374Y-67306695D01*
X153059247Y-67305722D01*
X153061881Y-67305910D01*
X153065344Y-67305122D01*
X153068883Y-67304774D01*
X153071325Y-67303762D01*
X153080997Y-67301563D01*
X153195283Y-67263468D01*
X153213183Y-67255477D01*
X153215898Y-67253122D01*
X153219218Y-67251747D01*
X153234371Y-67239310D01*
X153310561Y-67163119D01*
X153316853Y-67155452D01*
X153318850Y-67153721D01*
X153320743Y-67150713D01*
X153322998Y-67147966D01*
X153324009Y-67145524D01*
X153329293Y-67137130D01*
X153367388Y-67060940D01*
X153367933Y-67059515D01*
X153368364Y-67058934D01*
X153371290Y-67050742D01*
X153374394Y-67042632D01*
X153374445Y-67041911D01*
X153374959Y-67040473D01*
X153413055Y-66888092D01*
X153413555Y-66884710D01*
X153414120Y-66883347D01*
X153414843Y-66875998D01*
X153415923Y-66868700D01*
X153415705Y-66867241D01*
X153416041Y-66863838D01*
X153416041Y-66749552D01*
X153415705Y-66746148D01*
X153415923Y-66744690D01*
X153414843Y-66737391D01*
X153414120Y-66730043D01*
X153413555Y-66728679D01*
X153413055Y-66725298D01*
X153374959Y-66572917D01*
X153374445Y-66571478D01*
X153374394Y-66570759D01*
X153371293Y-66562656D01*
X153368364Y-66554456D01*
X153367933Y-66553874D01*
X153367388Y-66552450D01*
X153342360Y-66502393D01*
X153522723Y-66502393D01*
X153537654Y-66538441D01*
X153565244Y-66566032D01*
X153601292Y-66580963D01*
X153640310Y-66580964D01*
X153676358Y-66566033D01*
X153691512Y-66553597D01*
X153712916Y-66532192D01*
X153789410Y-66506695D01*
X153833147Y-66506695D01*
X153909640Y-66532192D01*
X153957664Y-66580216D01*
X153983593Y-66632074D01*
X154016041Y-66761862D01*
X154016041Y-66851527D01*
X153983593Y-66981314D01*
X153957663Y-67033174D01*
X153909641Y-67081197D01*
X153833147Y-67106695D01*
X153789410Y-67106695D01*
X153712917Y-67081197D01*
X153691513Y-67059793D01*
X153676359Y-67047357D01*
X153640311Y-67032425D01*
X153601293Y-67032425D01*
X153565245Y-67047357D01*
X153537655Y-67074947D01*
X153522723Y-67110995D01*
X153522723Y-67150013D01*
X153537655Y-67186061D01*
X153550091Y-67201215D01*
X153588187Y-67239311D01*
X153603341Y-67251747D01*
X153606659Y-67253121D01*
X153609375Y-67255477D01*
X153627275Y-67263468D01*
X153741560Y-67301563D01*
X153751231Y-67303762D01*
X153753674Y-67304774D01*
X153757212Y-67305122D01*
X153760676Y-67305910D01*
X153763309Y-67305722D01*
X153773183Y-67306695D01*
X153849374Y-67306695D01*
X153859247Y-67305722D01*
X153861881Y-67305910D01*
X153865344Y-67305122D01*
X153868883Y-67304774D01*
X153871325Y-67303762D01*
X153880997Y-67301563D01*
X153995283Y-67263468D01*
X154013183Y-67255477D01*
X154015898Y-67253122D01*
X154019218Y-67251747D01*
X154034371Y-67239310D01*
X154110561Y-67163119D01*
X154116853Y-67155452D01*
X154118850Y-67153721D01*
X154120743Y-67150713D01*
X154122998Y-67147966D01*
X154124009Y-67145524D01*
X154129293Y-67137130D01*
X154167388Y-67060940D01*
X154167933Y-67059515D01*
X154168364Y-67058934D01*
X154171290Y-67050742D01*
X154174394Y-67042632D01*
X154174445Y-67041911D01*
X154174959Y-67040473D01*
X154213055Y-66888092D01*
X154213555Y-66884710D01*
X154214120Y-66883347D01*
X154214843Y-66875998D01*
X154215923Y-66868700D01*
X154215705Y-66867241D01*
X154216041Y-66863838D01*
X154216041Y-66749552D01*
X154215705Y-66746148D01*
X154215923Y-66744690D01*
X154214843Y-66737391D01*
X154214120Y-66730043D01*
X154213555Y-66728679D01*
X154213055Y-66725298D01*
X154174959Y-66572917D01*
X154174445Y-66571478D01*
X154174394Y-66570759D01*
X154171293Y-66562656D01*
X154168364Y-66554456D01*
X154167933Y-66553874D01*
X154167388Y-66552450D01*
X154129293Y-66476259D01*
X154124007Y-66467862D01*
X154122997Y-66465423D01*
X154120743Y-66462676D01*
X154118850Y-66459669D01*
X154116855Y-66457938D01*
X154110561Y-66450269D01*
X154034371Y-66374079D01*
X154019217Y-66361643D01*
X154015898Y-66360268D01*
X154013183Y-66357913D01*
X153995283Y-66349922D01*
X153880997Y-66311827D01*
X153871325Y-66309627D01*
X153868883Y-66308616D01*
X153865344Y-66308267D01*
X153861881Y-66307480D01*
X153859247Y-66307667D01*
X153849374Y-66306695D01*
X153773183Y-66306695D01*
X153763309Y-66307667D01*
X153760676Y-66307480D01*
X153757212Y-66308267D01*
X153753674Y-66308616D01*
X153751231Y-66309627D01*
X153741560Y-66311827D01*
X153627275Y-66349922D01*
X153609375Y-66357913D01*
X153606660Y-66360267D01*
X153603342Y-66361642D01*
X153588188Y-66374079D01*
X153550092Y-66412173D01*
X153537655Y-66427327D01*
X153522724Y-66463375D01*
X153522723Y-66502393D01*
X153342360Y-66502393D01*
X153329293Y-66476259D01*
X153324007Y-66467862D01*
X153322997Y-66465423D01*
X153320743Y-66462676D01*
X153318850Y-66459669D01*
X153316855Y-66457938D01*
X153310561Y-66450269D01*
X153234371Y-66374079D01*
X153219217Y-66361643D01*
X153215898Y-66360268D01*
X153213183Y-66357913D01*
X153195283Y-66349922D01*
X153080997Y-66311827D01*
X153071325Y-66309627D01*
X153068883Y-66308616D01*
X153065344Y-66308267D01*
X153061881Y-66307480D01*
X153059247Y-66307667D01*
X153049374Y-66306695D01*
X152973183Y-66306695D01*
X152963309Y-66307667D01*
X152960676Y-66307480D01*
X152957212Y-66308267D01*
X152953674Y-66308616D01*
X152951231Y-66309627D01*
X152941560Y-66311827D01*
X152827275Y-66349922D01*
X152809375Y-66357913D01*
X152806660Y-66360267D01*
X152803342Y-66361642D01*
X152788188Y-66374079D01*
X152750092Y-66412173D01*
X152737655Y-66427327D01*
X152722724Y-66463375D01*
X152722723Y-66502393D01*
X152614120Y-66502393D01*
X152614119Y-66463375D01*
X152599187Y-66427326D01*
X152586751Y-66412173D01*
X152548655Y-66374078D01*
X152540988Y-66367786D01*
X152539257Y-66365790D01*
X152536246Y-66363895D01*
X152533501Y-66361642D01*
X152531062Y-66360631D01*
X152522666Y-66355347D01*
X152446476Y-66317252D01*
X152428168Y-66310246D01*
X152424584Y-66309991D01*
X152421264Y-66308616D01*
X152401755Y-66306695D01*
X152211279Y-66306695D01*
X152191770Y-66308616D01*
X152188449Y-66309991D01*
X152184867Y-66310246D01*
X152166558Y-66317252D01*
X152090367Y-66355347D01*
X152081971Y-66360631D01*
X152079530Y-66361643D01*
X152076782Y-66363898D01*
X152073777Y-66365790D01*
X152072046Y-66367785D01*
X152064377Y-66374080D01*
X152026282Y-66412174D01*
X152019987Y-66419843D01*
X152017993Y-66421574D01*
X152016099Y-66424581D01*
X152013846Y-66427328D01*
X152012835Y-66429767D01*
X152007550Y-66438164D01*
X151969455Y-66514355D01*
X151962449Y-66532664D01*
X151962194Y-66536246D01*
X151960819Y-66539567D01*
X151958898Y-66559076D01*
X151858898Y-66559076D01*
X151858898Y-66206695D01*
X154316041Y-66206695D01*
X154316041Y-67406695D01*
G37*
G36*
X154316041Y-68906695D02*
G01*
X151858898Y-68906695D01*
X151858898Y-68059076D01*
X151958898Y-68059076D01*
X151958898Y-68135266D01*
X151959870Y-68145139D01*
X151959683Y-68147773D01*
X151960470Y-68151236D01*
X151960819Y-68154775D01*
X151961830Y-68157217D01*
X151964030Y-68166889D01*
X152002125Y-68281175D01*
X152010116Y-68299075D01*
X152012471Y-68301790D01*
X152013846Y-68305109D01*
X152026282Y-68320263D01*
X152312714Y-68606695D01*
X152058898Y-68606695D01*
X152039389Y-68608616D01*
X152003341Y-68623548D01*
X151975751Y-68651138D01*
X151960819Y-68687186D01*
X151960819Y-68726204D01*
X151975751Y-68762252D01*
X152003341Y-68789842D01*
X152039389Y-68804774D01*
X152058898Y-68806695D01*
X152554136Y-68806695D01*
X152573645Y-68804774D01*
X152609693Y-68789842D01*
X152637283Y-68762252D01*
X152652215Y-68726204D01*
X152652215Y-68687186D01*
X152637283Y-68651138D01*
X152624847Y-68635984D01*
X152184395Y-68195532D01*
X152158898Y-68119039D01*
X152158898Y-68082682D01*
X152179178Y-68042121D01*
X152194323Y-68026975D01*
X152234886Y-68006695D01*
X152378148Y-68006695D01*
X152418709Y-68026975D01*
X152445331Y-68053596D01*
X152460485Y-68066033D01*
X152496533Y-68080964D01*
X152535551Y-68080963D01*
X152571599Y-68066031D01*
X152599189Y-68038441D01*
X152614120Y-68002393D01*
X152722723Y-68002393D01*
X152737654Y-68038441D01*
X152765244Y-68066032D01*
X152801292Y-68080963D01*
X152840310Y-68080964D01*
X152876358Y-68066033D01*
X152891512Y-68053597D01*
X152912916Y-68032192D01*
X152989410Y-68006695D01*
X153033147Y-68006695D01*
X153109640Y-68032192D01*
X153157664Y-68080216D01*
X153183593Y-68132074D01*
X153216041Y-68261862D01*
X153216041Y-68351527D01*
X153183593Y-68481314D01*
X153157663Y-68533174D01*
X153109641Y-68581197D01*
X153033147Y-68606695D01*
X152989410Y-68606695D01*
X152912917Y-68581197D01*
X152891513Y-68559793D01*
X152876359Y-68547357D01*
X152840311Y-68532425D01*
X152801293Y-68532425D01*
X152765245Y-68547357D01*
X152737655Y-68574947D01*
X152722723Y-68610995D01*
X152722723Y-68650013D01*
X152737655Y-68686061D01*
X152750091Y-68701215D01*
X152788187Y-68739311D01*
X152803341Y-68751747D01*
X152806659Y-68753121D01*
X152809375Y-68755477D01*
X152827275Y-68763468D01*
X152941560Y-68801563D01*
X152951231Y-68803762D01*
X152953674Y-68804774D01*
X152957212Y-68805122D01*
X152960676Y-68805910D01*
X152963309Y-68805722D01*
X152973183Y-68806695D01*
X153049374Y-68806695D01*
X153059247Y-68805722D01*
X153061881Y-68805910D01*
X153065344Y-68805122D01*
X153068883Y-68804774D01*
X153071325Y-68803762D01*
X153080997Y-68801563D01*
X153195283Y-68763468D01*
X153213183Y-68755477D01*
X153215898Y-68753122D01*
X153219218Y-68751747D01*
X153234371Y-68739310D01*
X153310561Y-68663119D01*
X153316853Y-68655452D01*
X153318850Y-68653721D01*
X153320743Y-68650713D01*
X153322998Y-68647966D01*
X153324009Y-68645524D01*
X153329293Y-68637130D01*
X153367388Y-68560940D01*
X153367933Y-68559515D01*
X153368364Y-68558934D01*
X153371290Y-68550742D01*
X153374394Y-68542632D01*
X153374445Y-68541911D01*
X153374959Y-68540473D01*
X153413055Y-68388092D01*
X153413555Y-68384710D01*
X153414120Y-68383347D01*
X153414843Y-68375998D01*
X153415923Y-68368700D01*
X153415705Y-68367241D01*
X153416041Y-68363838D01*
X153416041Y-68249552D01*
X153415705Y-68246148D01*
X153415923Y-68244690D01*
X153414843Y-68237391D01*
X153414120Y-68230043D01*
X153413555Y-68228679D01*
X153413055Y-68225298D01*
X153374959Y-68072917D01*
X153374445Y-68071478D01*
X153374394Y-68070759D01*
X153371293Y-68062656D01*
X153368364Y-68054456D01*
X153367933Y-68053874D01*
X153367388Y-68052450D01*
X153342360Y-68002393D01*
X153522723Y-68002393D01*
X153537654Y-68038441D01*
X153565244Y-68066032D01*
X153601292Y-68080963D01*
X153640310Y-68080964D01*
X153676358Y-68066033D01*
X153691512Y-68053597D01*
X153712916Y-68032192D01*
X153789410Y-68006695D01*
X153833147Y-68006695D01*
X153909640Y-68032192D01*
X153957664Y-68080216D01*
X153983593Y-68132074D01*
X154016041Y-68261862D01*
X154016041Y-68351527D01*
X153983593Y-68481314D01*
X153957663Y-68533174D01*
X153909641Y-68581197D01*
X153833147Y-68606695D01*
X153789410Y-68606695D01*
X153712917Y-68581197D01*
X153691513Y-68559793D01*
X153676359Y-68547357D01*
X153640311Y-68532425D01*
X153601293Y-68532425D01*
X153565245Y-68547357D01*
X153537655Y-68574947D01*
X153522723Y-68610995D01*
X153522723Y-68650013D01*
X153537655Y-68686061D01*
X153550091Y-68701215D01*
X153588187Y-68739311D01*
X153603341Y-68751747D01*
X153606659Y-68753121D01*
X153609375Y-68755477D01*
X153627275Y-68763468D01*
X153741560Y-68801563D01*
X153751231Y-68803762D01*
X153753674Y-68804774D01*
X153757212Y-68805122D01*
X153760676Y-68805910D01*
X153763309Y-68805722D01*
X153773183Y-68806695D01*
X153849374Y-68806695D01*
X153859247Y-68805722D01*
X153861881Y-68805910D01*
X153865344Y-68805122D01*
X153868883Y-68804774D01*
X153871325Y-68803762D01*
X153880997Y-68801563D01*
X153995283Y-68763468D01*
X154013183Y-68755477D01*
X154015898Y-68753122D01*
X154019218Y-68751747D01*
X154034371Y-68739310D01*
X154110561Y-68663119D01*
X154116853Y-68655452D01*
X154118850Y-68653721D01*
X154120743Y-68650713D01*
X154122998Y-68647966D01*
X154124009Y-68645524D01*
X154129293Y-68637130D01*
X154167388Y-68560940D01*
X154167933Y-68559515D01*
X154168364Y-68558934D01*
X154171290Y-68550742D01*
X154174394Y-68542632D01*
X154174445Y-68541911D01*
X154174959Y-68540473D01*
X154213055Y-68388092D01*
X154213555Y-68384710D01*
X154214120Y-68383347D01*
X154214843Y-68375998D01*
X154215923Y-68368700D01*
X154215705Y-68367241D01*
X154216041Y-68363838D01*
X154216041Y-68249552D01*
X154215705Y-68246148D01*
X154215923Y-68244690D01*
X154214843Y-68237391D01*
X154214120Y-68230043D01*
X154213555Y-68228679D01*
X154213055Y-68225298D01*
X154174959Y-68072917D01*
X154174445Y-68071478D01*
X154174394Y-68070759D01*
X154171293Y-68062656D01*
X154168364Y-68054456D01*
X154167933Y-68053874D01*
X154167388Y-68052450D01*
X154129293Y-67976259D01*
X154124007Y-67967862D01*
X154122997Y-67965423D01*
X154120743Y-67962676D01*
X154118850Y-67959669D01*
X154116855Y-67957938D01*
X154110561Y-67950269D01*
X154034371Y-67874079D01*
X154019217Y-67861643D01*
X154015898Y-67860268D01*
X154013183Y-67857913D01*
X153995283Y-67849922D01*
X153880997Y-67811827D01*
X153871325Y-67809627D01*
X153868883Y-67808616D01*
X153865344Y-67808267D01*
X153861881Y-67807480D01*
X153859247Y-67807667D01*
X153849374Y-67806695D01*
X153773183Y-67806695D01*
X153763309Y-67807667D01*
X153760676Y-67807480D01*
X153757212Y-67808267D01*
X153753674Y-67808616D01*
X153751231Y-67809627D01*
X153741560Y-67811827D01*
X153627275Y-67849922D01*
X153609375Y-67857913D01*
X153606660Y-67860267D01*
X153603342Y-67861642D01*
X153588188Y-67874079D01*
X153550092Y-67912173D01*
X153537655Y-67927327D01*
X153522724Y-67963375D01*
X153522723Y-68002393D01*
X153342360Y-68002393D01*
X153329293Y-67976259D01*
X153324007Y-67967862D01*
X153322997Y-67965423D01*
X153320743Y-67962676D01*
X153318850Y-67959669D01*
X153316855Y-67957938D01*
X153310561Y-67950269D01*
X153234371Y-67874079D01*
X153219217Y-67861643D01*
X153215898Y-67860268D01*
X153213183Y-67857913D01*
X153195283Y-67849922D01*
X153080997Y-67811827D01*
X153071325Y-67809627D01*
X153068883Y-67808616D01*
X153065344Y-67808267D01*
X153061881Y-67807480D01*
X153059247Y-67807667D01*
X153049374Y-67806695D01*
X152973183Y-67806695D01*
X152963309Y-67807667D01*
X152960676Y-67807480D01*
X152957212Y-67808267D01*
X152953674Y-67808616D01*
X152951231Y-67809627D01*
X152941560Y-67811827D01*
X152827275Y-67849922D01*
X152809375Y-67857913D01*
X152806660Y-67860267D01*
X152803342Y-67861642D01*
X152788188Y-67874079D01*
X152750092Y-67912173D01*
X152737655Y-67927327D01*
X152722724Y-67963375D01*
X152722723Y-68002393D01*
X152614120Y-68002393D01*
X152614119Y-67963375D01*
X152599187Y-67927326D01*
X152586751Y-67912173D01*
X152548655Y-67874078D01*
X152540988Y-67867786D01*
X152539257Y-67865790D01*
X152536246Y-67863895D01*
X152533501Y-67861642D01*
X152531062Y-67860631D01*
X152522666Y-67855347D01*
X152446476Y-67817252D01*
X152428168Y-67810246D01*
X152424584Y-67809991D01*
X152421264Y-67808616D01*
X152401755Y-67806695D01*
X152211279Y-67806695D01*
X152191770Y-67808616D01*
X152188449Y-67809991D01*
X152184867Y-67810246D01*
X152166558Y-67817252D01*
X152090367Y-67855347D01*
X152081971Y-67860631D01*
X152079530Y-67861643D01*
X152076782Y-67863898D01*
X152073777Y-67865790D01*
X152072046Y-67867785D01*
X152064377Y-67874080D01*
X152026282Y-67912174D01*
X152019987Y-67919843D01*
X152017993Y-67921574D01*
X152016099Y-67924581D01*
X152013846Y-67927328D01*
X152012835Y-67929767D01*
X152007550Y-67938164D01*
X151969455Y-68014355D01*
X151962449Y-68032664D01*
X151962194Y-68036246D01*
X151960819Y-68039567D01*
X151958898Y-68059076D01*
X151858898Y-68059076D01*
X151858898Y-67706695D01*
X154316041Y-67706695D01*
X154316041Y-68906695D01*
G37*
X156858898Y-63706695D02*
X157316041Y-63706695D01*
X157087469Y-63706695D02*
X157087469Y-62906695D01*
X157087469Y-62906695D02*
X157163660Y-63020980D01*
X157163660Y-63020980D02*
X157239850Y-63097171D01*
X157239850Y-63097171D02*
X157316041Y-63135266D01*
X157125564Y-64506695D02*
X157049374Y-64506695D01*
X157049374Y-64506695D02*
X156973183Y-64544790D01*
X156973183Y-64544790D02*
X156935088Y-64582885D01*
X156935088Y-64582885D02*
X156896993Y-64659076D01*
X156896993Y-64659076D02*
X156858898Y-64811457D01*
X156858898Y-64811457D02*
X156858898Y-65001933D01*
X156858898Y-65001933D02*
X156896993Y-65154314D01*
X156896993Y-65154314D02*
X156935088Y-65230504D01*
X156935088Y-65230504D02*
X156973183Y-65268600D01*
X156973183Y-65268600D02*
X157049374Y-65306695D01*
X157049374Y-65306695D02*
X157125564Y-65306695D01*
X157125564Y-65306695D02*
X157201755Y-65268600D01*
X157201755Y-65268600D02*
X157239850Y-65230504D01*
X157239850Y-65230504D02*
X157277945Y-65154314D01*
X157277945Y-65154314D02*
X157316041Y-65001933D01*
X157316041Y-65001933D02*
X157316041Y-64811457D01*
X157316041Y-64811457D02*
X157277945Y-64659076D01*
X157277945Y-64659076D02*
X157239850Y-64582885D01*
X157239850Y-64582885D02*
X157201755Y-64544790D01*
X157201755Y-64544790D02*
X157125564Y-64506695D01*
X157125564Y-66306695D02*
X157049374Y-66306695D01*
X157049374Y-66306695D02*
X156973183Y-66344790D01*
X156973183Y-66344790D02*
X156935088Y-66382885D01*
X156935088Y-66382885D02*
X156896993Y-66459076D01*
X156896993Y-66459076D02*
X156858898Y-66611457D01*
X156858898Y-66611457D02*
X156858898Y-66801933D01*
X156858898Y-66801933D02*
X156896993Y-66954314D01*
X156896993Y-66954314D02*
X156935088Y-67030504D01*
X156935088Y-67030504D02*
X156973183Y-67068600D01*
X156973183Y-67068600D02*
X157049374Y-67106695D01*
X157049374Y-67106695D02*
X157125564Y-67106695D01*
X157125564Y-67106695D02*
X157201755Y-67068600D01*
X157201755Y-67068600D02*
X157239850Y-67030504D01*
X157239850Y-67030504D02*
X157277945Y-66954314D01*
X157277945Y-66954314D02*
X157316041Y-66801933D01*
X157316041Y-66801933D02*
X157316041Y-66611457D01*
X157316041Y-66611457D02*
X157277945Y-66459076D01*
X157277945Y-66459076D02*
X157239850Y-66382885D01*
X157239850Y-66382885D02*
X157201755Y-66344790D01*
X157201755Y-66344790D02*
X157125564Y-66306695D01*
X156858898Y-68706695D02*
X157316041Y-68706695D01*
X157087469Y-68706695D02*
X157087469Y-67906695D01*
X157087469Y-67906695D02*
X157163660Y-68020980D01*
X157163660Y-68020980D02*
X157239850Y-68097171D01*
X157239850Y-68097171D02*
X157316041Y-68135266D01*
G36*
X137288589Y-99493330D02*
G01*
X135343810Y-99493330D01*
X135343810Y-98294726D01*
X135454921Y-98294726D01*
X135459268Y-98313842D01*
X135792601Y-99313841D01*
X135800592Y-99331742D01*
X135805275Y-99337141D01*
X135808470Y-99343531D01*
X135817941Y-99351746D01*
X135826157Y-99361218D01*
X135832545Y-99364412D01*
X135837946Y-99369096D01*
X135849847Y-99373063D01*
X135861056Y-99378667D01*
X135868180Y-99379173D01*
X135874962Y-99381434D01*
X135887471Y-99380544D01*
X135899976Y-99381434D01*
X135906754Y-99379174D01*
X135913882Y-99378668D01*
X135925098Y-99373059D01*
X135936992Y-99369095D01*
X135942389Y-99364414D01*
X135948781Y-99361218D01*
X135956999Y-99351742D01*
X135966468Y-99343530D01*
X135969661Y-99337143D01*
X135974346Y-99331742D01*
X135982337Y-99313842D01*
X136135735Y-98853647D01*
X136406517Y-98853647D01*
X136406517Y-99091742D01*
X136408438Y-99111251D01*
X136409813Y-99114571D01*
X136410068Y-99118155D01*
X136417074Y-99136463D01*
X136464693Y-99231701D01*
X136469976Y-99240093D01*
X136470988Y-99242537D01*
X136473244Y-99245286D01*
X136475136Y-99248291D01*
X136477130Y-99250020D01*
X136483425Y-99257690D01*
X136531043Y-99305310D01*
X136538711Y-99311603D01*
X136540443Y-99313600D01*
X136543451Y-99315493D01*
X136546197Y-99317747D01*
X136548637Y-99318757D01*
X136557034Y-99324043D01*
X136652271Y-99371662D01*
X136670580Y-99378668D01*
X136674163Y-99378922D01*
X136677484Y-99380298D01*
X136696993Y-99382219D01*
X136935088Y-99382219D01*
X136954597Y-99380298D01*
X136957917Y-99378922D01*
X136961501Y-99378668D01*
X136979809Y-99371662D01*
X137075047Y-99324043D01*
X137083442Y-99318758D01*
X137085884Y-99317747D01*
X137088631Y-99315491D01*
X137091637Y-99313600D01*
X137093367Y-99311605D01*
X137101037Y-99305310D01*
X137148656Y-99257690D01*
X137161093Y-99242537D01*
X137176024Y-99206488D01*
X137176023Y-99167470D01*
X137161092Y-99131422D01*
X137133501Y-99103832D01*
X137097453Y-99088901D01*
X137058435Y-99088902D01*
X137022387Y-99103833D01*
X137007233Y-99116270D01*
X136971090Y-99152413D01*
X136911481Y-99182219D01*
X136720600Y-99182219D01*
X136660990Y-99152414D01*
X136636323Y-99127746D01*
X136606517Y-99068134D01*
X136606517Y-98877254D01*
X136636322Y-98817644D01*
X136660990Y-98792975D01*
X136720600Y-98763171D01*
X136911481Y-98763171D01*
X136971090Y-98792976D01*
X137007234Y-98829119D01*
X137022387Y-98841556D01*
X137027041Y-98843483D01*
X137030937Y-98846671D01*
X137044930Y-98850893D01*
X137058436Y-98856487D01*
X137063470Y-98856487D01*
X137068292Y-98857942D01*
X137082843Y-98856487D01*
X137097454Y-98856487D01*
X137102103Y-98854561D01*
X137107116Y-98854060D01*
X137119999Y-98847148D01*
X137133502Y-98841556D01*
X137137062Y-98837995D01*
X137141500Y-98835615D01*
X137150755Y-98824302D01*
X137161092Y-98813966D01*
X137163019Y-98809313D01*
X137166207Y-98805417D01*
X137170429Y-98791422D01*
X137176023Y-98777918D01*
X137176023Y-98772884D01*
X137177478Y-98768062D01*
X137177449Y-98748459D01*
X137129830Y-98272269D01*
X137128405Y-98265160D01*
X137128405Y-98262710D01*
X137127453Y-98260412D01*
X137125977Y-98253048D01*
X137119067Y-98240167D01*
X137113473Y-98226662D01*
X137109912Y-98223101D01*
X137107532Y-98218664D01*
X137096219Y-98209408D01*
X137085883Y-98199072D01*
X137081230Y-98197144D01*
X137077334Y-98193957D01*
X137063344Y-98189736D01*
X137049835Y-98184140D01*
X137042357Y-98183403D01*
X137039979Y-98182686D01*
X137037542Y-98182929D01*
X137030326Y-98182219D01*
X136554136Y-98182219D01*
X136534627Y-98184140D01*
X136498579Y-98199072D01*
X136470989Y-98226662D01*
X136456057Y-98262710D01*
X136456057Y-98301728D01*
X136470989Y-98337776D01*
X136498579Y-98365366D01*
X136534627Y-98380298D01*
X136554136Y-98382219D01*
X136939827Y-98382219D01*
X136958254Y-98566491D01*
X136957917Y-98566467D01*
X136954597Y-98565092D01*
X136935088Y-98563171D01*
X136696993Y-98563171D01*
X136677484Y-98565092D01*
X136674163Y-98566467D01*
X136670580Y-98566722D01*
X136652271Y-98573728D01*
X136557034Y-98621347D01*
X136548637Y-98626632D01*
X136546197Y-98627643D01*
X136543451Y-98629896D01*
X136540443Y-98631790D01*
X136538710Y-98633787D01*
X136531044Y-98640080D01*
X136483425Y-98687698D01*
X136477130Y-98695368D01*
X136475136Y-98697098D01*
X136473242Y-98700105D01*
X136470989Y-98702852D01*
X136469978Y-98705291D01*
X136464693Y-98713688D01*
X136417074Y-98808926D01*
X136410068Y-98827234D01*
X136409813Y-98830817D01*
X136408438Y-98834138D01*
X136406517Y-98853647D01*
X136135735Y-98853647D01*
X136315670Y-98313842D01*
X136320017Y-98294727D01*
X136317251Y-98255807D01*
X136299801Y-98220908D01*
X136270325Y-98195343D01*
X136233309Y-98183004D01*
X136194389Y-98185771D01*
X136159490Y-98203220D01*
X136133925Y-98232696D01*
X136125934Y-98250597D01*
X135887469Y-98965991D01*
X135649004Y-98250596D01*
X135641013Y-98232696D01*
X135615448Y-98203220D01*
X135580549Y-98185770D01*
X135541629Y-98183004D01*
X135504613Y-98195342D01*
X135475137Y-98220907D01*
X135457687Y-98255806D01*
X135454921Y-98294726D01*
X135343810Y-98294726D01*
X135343810Y-98071108D01*
X137288589Y-98071108D01*
X137288589Y-99493330D01*
G37*
G36*
X137388589Y-91593330D02*
G01*
X135443810Y-91593330D01*
X135443810Y-90394726D01*
X135554921Y-90394726D01*
X135559268Y-90413842D01*
X135892601Y-91413841D01*
X135900592Y-91431742D01*
X135905275Y-91437141D01*
X135908470Y-91443531D01*
X135917941Y-91451746D01*
X135926157Y-91461218D01*
X135932545Y-91464412D01*
X135937946Y-91469096D01*
X135949847Y-91473063D01*
X135961056Y-91478667D01*
X135968180Y-91479173D01*
X135974962Y-91481434D01*
X135987471Y-91480544D01*
X135999976Y-91481434D01*
X136006754Y-91479174D01*
X136013882Y-91478668D01*
X136025098Y-91473059D01*
X136036992Y-91469095D01*
X136042389Y-91464414D01*
X136048781Y-91461218D01*
X136056999Y-91451742D01*
X136066468Y-91443530D01*
X136069661Y-91437143D01*
X136074346Y-91431742D01*
X136082337Y-91413842D01*
X136235735Y-90953647D01*
X136506517Y-90953647D01*
X136506517Y-91191742D01*
X136508438Y-91211251D01*
X136509813Y-91214571D01*
X136510068Y-91218155D01*
X136517074Y-91236463D01*
X136564693Y-91331701D01*
X136569976Y-91340093D01*
X136570988Y-91342537D01*
X136573244Y-91345286D01*
X136575136Y-91348291D01*
X136577130Y-91350020D01*
X136583425Y-91357690D01*
X136631043Y-91405310D01*
X136638711Y-91411603D01*
X136640443Y-91413600D01*
X136643451Y-91415493D01*
X136646197Y-91417747D01*
X136648637Y-91418757D01*
X136657034Y-91424043D01*
X136752271Y-91471662D01*
X136770580Y-91478668D01*
X136774163Y-91478922D01*
X136777484Y-91480298D01*
X136796993Y-91482219D01*
X137035088Y-91482219D01*
X137054597Y-91480298D01*
X137057917Y-91478922D01*
X137061501Y-91478668D01*
X137079809Y-91471662D01*
X137175047Y-91424043D01*
X137183442Y-91418758D01*
X137185884Y-91417747D01*
X137188631Y-91415491D01*
X137191637Y-91413600D01*
X137193367Y-91411605D01*
X137201037Y-91405310D01*
X137248656Y-91357690D01*
X137261093Y-91342537D01*
X137276024Y-91306488D01*
X137276023Y-91267470D01*
X137261092Y-91231422D01*
X137233501Y-91203832D01*
X137197453Y-91188901D01*
X137158435Y-91188902D01*
X137122387Y-91203833D01*
X137107233Y-91216270D01*
X137071090Y-91252413D01*
X137011481Y-91282219D01*
X136820600Y-91282219D01*
X136760990Y-91252414D01*
X136736323Y-91227746D01*
X136706517Y-91168134D01*
X136706517Y-90977254D01*
X136736322Y-90917644D01*
X136760990Y-90892975D01*
X136820600Y-90863171D01*
X137011481Y-90863171D01*
X137071090Y-90892976D01*
X137107234Y-90929119D01*
X137122387Y-90941556D01*
X137127041Y-90943483D01*
X137130937Y-90946671D01*
X137144930Y-90950893D01*
X137158436Y-90956487D01*
X137163470Y-90956487D01*
X137168292Y-90957942D01*
X137182843Y-90956487D01*
X137197454Y-90956487D01*
X137202103Y-90954561D01*
X137207116Y-90954060D01*
X137219999Y-90947148D01*
X137233502Y-90941556D01*
X137237062Y-90937995D01*
X137241500Y-90935615D01*
X137250755Y-90924302D01*
X137261092Y-90913966D01*
X137263019Y-90909313D01*
X137266207Y-90905417D01*
X137270429Y-90891422D01*
X137276023Y-90877918D01*
X137276023Y-90872884D01*
X137277478Y-90868062D01*
X137277449Y-90848459D01*
X137229830Y-90372269D01*
X137228405Y-90365160D01*
X137228405Y-90362710D01*
X137227453Y-90360412D01*
X137225977Y-90353048D01*
X137219067Y-90340167D01*
X137213473Y-90326662D01*
X137209912Y-90323101D01*
X137207532Y-90318664D01*
X137196219Y-90309408D01*
X137185883Y-90299072D01*
X137181230Y-90297144D01*
X137177334Y-90293957D01*
X137163344Y-90289736D01*
X137149835Y-90284140D01*
X137142357Y-90283403D01*
X137139979Y-90282686D01*
X137137542Y-90282929D01*
X137130326Y-90282219D01*
X136654136Y-90282219D01*
X136634627Y-90284140D01*
X136598579Y-90299072D01*
X136570989Y-90326662D01*
X136556057Y-90362710D01*
X136556057Y-90401728D01*
X136570989Y-90437776D01*
X136598579Y-90465366D01*
X136634627Y-90480298D01*
X136654136Y-90482219D01*
X137039827Y-90482219D01*
X137058254Y-90666491D01*
X137057917Y-90666467D01*
X137054597Y-90665092D01*
X137035088Y-90663171D01*
X136796993Y-90663171D01*
X136777484Y-90665092D01*
X136774163Y-90666467D01*
X136770580Y-90666722D01*
X136752271Y-90673728D01*
X136657034Y-90721347D01*
X136648637Y-90726632D01*
X136646197Y-90727643D01*
X136643451Y-90729896D01*
X136640443Y-90731790D01*
X136638710Y-90733787D01*
X136631044Y-90740080D01*
X136583425Y-90787698D01*
X136577130Y-90795368D01*
X136575136Y-90797098D01*
X136573242Y-90800105D01*
X136570989Y-90802852D01*
X136569978Y-90805291D01*
X136564693Y-90813688D01*
X136517074Y-90908926D01*
X136510068Y-90927234D01*
X136509813Y-90930817D01*
X136508438Y-90934138D01*
X136506517Y-90953647D01*
X136235735Y-90953647D01*
X136415670Y-90413842D01*
X136420017Y-90394727D01*
X136417251Y-90355807D01*
X136399801Y-90320908D01*
X136370325Y-90295343D01*
X136333309Y-90283004D01*
X136294389Y-90285771D01*
X136259490Y-90303220D01*
X136233925Y-90332696D01*
X136225934Y-90350597D01*
X135987469Y-91065991D01*
X135749004Y-90350596D01*
X135741013Y-90332696D01*
X135715448Y-90303220D01*
X135680549Y-90285770D01*
X135641629Y-90283004D01*
X135604613Y-90295342D01*
X135575137Y-90320907D01*
X135557687Y-90355806D01*
X135554921Y-90394726D01*
X135443810Y-90394726D01*
X135443810Y-90171108D01*
X137388589Y-90171108D01*
X137388589Y-91593330D01*
G37*
X137630326Y-104082219D02*
X137630326Y-103082219D01*
X137630326Y-103082219D02*
X137249374Y-103082219D01*
X137249374Y-103082219D02*
X137154136Y-103129838D01*
X137154136Y-103129838D02*
X137106517Y-103177457D01*
X137106517Y-103177457D02*
X137058898Y-103272695D01*
X137058898Y-103272695D02*
X137058898Y-103415552D01*
X137058898Y-103415552D02*
X137106517Y-103510790D01*
X137106517Y-103510790D02*
X137154136Y-103558409D01*
X137154136Y-103558409D02*
X137249374Y-103606028D01*
X137249374Y-103606028D02*
X137630326Y-103606028D01*
X136677945Y-103796504D02*
X136201755Y-103796504D01*
X136773183Y-104082219D02*
X136439850Y-103082219D01*
X136439850Y-103082219D02*
X136106517Y-104082219D01*
X135582707Y-103082219D02*
X135487469Y-103082219D01*
X135487469Y-103082219D02*
X135392231Y-103129838D01*
X135392231Y-103129838D02*
X135344612Y-103177457D01*
X135344612Y-103177457D02*
X135296993Y-103272695D01*
X135296993Y-103272695D02*
X135249374Y-103463171D01*
X135249374Y-103463171D02*
X135249374Y-103701266D01*
X135249374Y-103701266D02*
X135296993Y-103891742D01*
X135296993Y-103891742D02*
X135344612Y-103986980D01*
X135344612Y-103986980D02*
X135392231Y-104034600D01*
X135392231Y-104034600D02*
X135487469Y-104082219D01*
X135487469Y-104082219D02*
X135582707Y-104082219D01*
X135582707Y-104082219D02*
X135677945Y-104034600D01*
X135677945Y-104034600D02*
X135725564Y-103986980D01*
X135725564Y-103986980D02*
X135773183Y-103891742D01*
X135773183Y-103891742D02*
X135820802Y-103701266D01*
X135820802Y-103701266D02*
X135820802Y-103463171D01*
X135820802Y-103463171D02*
X135773183Y-103272695D01*
X135773183Y-103272695D02*
X135725564Y-103177457D01*
X135725564Y-103177457D02*
X135677945Y-103129838D01*
X135677945Y-103129838D02*
X135582707Y-103082219D01*
X137630326Y-106682219D02*
X137630326Y-105682219D01*
X137630326Y-105682219D02*
X137249374Y-105682219D01*
X137249374Y-105682219D02*
X137154136Y-105729838D01*
X137154136Y-105729838D02*
X137106517Y-105777457D01*
X137106517Y-105777457D02*
X137058898Y-105872695D01*
X137058898Y-105872695D02*
X137058898Y-106015552D01*
X137058898Y-106015552D02*
X137106517Y-106110790D01*
X137106517Y-106110790D02*
X137154136Y-106158409D01*
X137154136Y-106158409D02*
X137249374Y-106206028D01*
X137249374Y-106206028D02*
X137630326Y-106206028D01*
X136677945Y-106396504D02*
X136201755Y-106396504D01*
X136773183Y-106682219D02*
X136439850Y-105682219D01*
X136439850Y-105682219D02*
X136106517Y-106682219D01*
X135249374Y-106682219D02*
X135820802Y-106682219D01*
X135535088Y-106682219D02*
X135535088Y-105682219D01*
X135535088Y-105682219D02*
X135630326Y-105825076D01*
X135630326Y-105825076D02*
X135725564Y-105920314D01*
X135725564Y-105920314D02*
X135820802Y-105967933D01*
X137630326Y-114342219D02*
X137630326Y-113342219D01*
X137630326Y-113342219D02*
X137249374Y-113342219D01*
X137249374Y-113342219D02*
X137154136Y-113389838D01*
X137154136Y-113389838D02*
X137106517Y-113437457D01*
X137106517Y-113437457D02*
X137058898Y-113532695D01*
X137058898Y-113532695D02*
X137058898Y-113675552D01*
X137058898Y-113675552D02*
X137106517Y-113770790D01*
X137106517Y-113770790D02*
X137154136Y-113818409D01*
X137154136Y-113818409D02*
X137249374Y-113866028D01*
X137249374Y-113866028D02*
X137630326Y-113866028D01*
X136677945Y-114056504D02*
X136201755Y-114056504D01*
X136773183Y-114342219D02*
X136439850Y-113342219D01*
X136439850Y-113342219D02*
X136106517Y-114342219D01*
X135344612Y-113675552D02*
X135344612Y-114342219D01*
X135582707Y-113294600D02*
X135820802Y-114008885D01*
X135820802Y-114008885D02*
X135201755Y-114008885D01*
X137730326Y-109282219D02*
X137730326Y-108282219D01*
X137730326Y-108282219D02*
X137349374Y-108282219D01*
X137349374Y-108282219D02*
X137254136Y-108329838D01*
X137254136Y-108329838D02*
X137206517Y-108377457D01*
X137206517Y-108377457D02*
X137158898Y-108472695D01*
X137158898Y-108472695D02*
X137158898Y-108615552D01*
X137158898Y-108615552D02*
X137206517Y-108710790D01*
X137206517Y-108710790D02*
X137254136Y-108758409D01*
X137254136Y-108758409D02*
X137349374Y-108806028D01*
X137349374Y-108806028D02*
X137730326Y-108806028D01*
X136777945Y-108996504D02*
X136301755Y-108996504D01*
X136873183Y-109282219D02*
X136539850Y-108282219D01*
X136539850Y-108282219D02*
X136206517Y-109282219D01*
X135920802Y-108377457D02*
X135873183Y-108329838D01*
X135873183Y-108329838D02*
X135777945Y-108282219D01*
X135777945Y-108282219D02*
X135539850Y-108282219D01*
X135539850Y-108282219D02*
X135444612Y-108329838D01*
X135444612Y-108329838D02*
X135396993Y-108377457D01*
X135396993Y-108377457D02*
X135349374Y-108472695D01*
X135349374Y-108472695D02*
X135349374Y-108567933D01*
X135349374Y-108567933D02*
X135396993Y-108710790D01*
X135396993Y-108710790D02*
X135968421Y-109282219D01*
X135968421Y-109282219D02*
X135349374Y-109282219D01*
X137730326Y-111802219D02*
X137730326Y-110802219D01*
X137730326Y-110802219D02*
X137349374Y-110802219D01*
X137349374Y-110802219D02*
X137254136Y-110849838D01*
X137254136Y-110849838D02*
X137206517Y-110897457D01*
X137206517Y-110897457D02*
X137158898Y-110992695D01*
X137158898Y-110992695D02*
X137158898Y-111135552D01*
X137158898Y-111135552D02*
X137206517Y-111230790D01*
X137206517Y-111230790D02*
X137254136Y-111278409D01*
X137254136Y-111278409D02*
X137349374Y-111326028D01*
X137349374Y-111326028D02*
X137730326Y-111326028D01*
X136777945Y-111516504D02*
X136301755Y-111516504D01*
X136873183Y-111802219D02*
X136539850Y-110802219D01*
X136539850Y-110802219D02*
X136206517Y-111802219D01*
X135968421Y-110802219D02*
X135349374Y-110802219D01*
X135349374Y-110802219D02*
X135682707Y-111183171D01*
X135682707Y-111183171D02*
X135539850Y-111183171D01*
X135539850Y-111183171D02*
X135444612Y-111230790D01*
X135444612Y-111230790D02*
X135396993Y-111278409D01*
X135396993Y-111278409D02*
X135349374Y-111373647D01*
X135349374Y-111373647D02*
X135349374Y-111611742D01*
X135349374Y-111611742D02*
X135396993Y-111706980D01*
X135396993Y-111706980D02*
X135444612Y-111754600D01*
X135444612Y-111754600D02*
X135539850Y-111802219D01*
X135539850Y-111802219D02*
X135825564Y-111802219D01*
X135825564Y-111802219D02*
X135920802Y-111754600D01*
X135920802Y-111754600D02*
X135968421Y-111706980D01*
X137730326Y-116882219D02*
X137730326Y-115882219D01*
X137730326Y-115882219D02*
X137349374Y-115882219D01*
X137349374Y-115882219D02*
X137254136Y-115929838D01*
X137254136Y-115929838D02*
X137206517Y-115977457D01*
X137206517Y-115977457D02*
X137158898Y-116072695D01*
X137158898Y-116072695D02*
X137158898Y-116215552D01*
X137158898Y-116215552D02*
X137206517Y-116310790D01*
X137206517Y-116310790D02*
X137254136Y-116358409D01*
X137254136Y-116358409D02*
X137349374Y-116406028D01*
X137349374Y-116406028D02*
X137730326Y-116406028D01*
X136777945Y-116596504D02*
X136301755Y-116596504D01*
X136873183Y-116882219D02*
X136539850Y-115882219D01*
X136539850Y-115882219D02*
X136206517Y-116882219D01*
X135396993Y-115882219D02*
X135873183Y-115882219D01*
X135873183Y-115882219D02*
X135920802Y-116358409D01*
X135920802Y-116358409D02*
X135873183Y-116310790D01*
X135873183Y-116310790D02*
X135777945Y-116263171D01*
X135777945Y-116263171D02*
X135539850Y-116263171D01*
X135539850Y-116263171D02*
X135444612Y-116310790D01*
X135444612Y-116310790D02*
X135396993Y-116358409D01*
X135396993Y-116358409D02*
X135349374Y-116453647D01*
X135349374Y-116453647D02*
X135349374Y-116691742D01*
X135349374Y-116691742D02*
X135396993Y-116786980D01*
X135396993Y-116786980D02*
X135444612Y-116834600D01*
X135444612Y-116834600D02*
X135539850Y-116882219D01*
X135539850Y-116882219D02*
X135777945Y-116882219D01*
X135777945Y-116882219D02*
X135873183Y-116834600D01*
X135873183Y-116834600D02*
X135920802Y-116786980D01*
G36*
X135982707Y-96582219D02*
G01*
X135860838Y-96582219D01*
X135755773Y-96547197D01*
X135688703Y-96480127D01*
X135653249Y-96409218D01*
X135611279Y-96241337D01*
X135611279Y-96123100D01*
X135653249Y-95955218D01*
X135688702Y-95884312D01*
X135755774Y-95817240D01*
X135860838Y-95782219D01*
X135982707Y-95782219D01*
X135982707Y-96582219D01*
G37*
G36*
X138389056Y-96893330D02*
G01*
X135300168Y-96893330D01*
X135300168Y-96110790D01*
X135411279Y-96110790D01*
X135411279Y-96253647D01*
X135411614Y-96257049D01*
X135411397Y-96258508D01*
X135412476Y-96265805D01*
X135413200Y-96273156D01*
X135413764Y-96274519D01*
X135414265Y-96277901D01*
X135461884Y-96468376D01*
X135462397Y-96469813D01*
X135462449Y-96470536D01*
X135465557Y-96478660D01*
X135468479Y-96486837D01*
X135468909Y-96487417D01*
X135469455Y-96488844D01*
X135517074Y-96584082D01*
X135522356Y-96592474D01*
X135523369Y-96594918D01*
X135525625Y-96597667D01*
X135527517Y-96600672D01*
X135529511Y-96602401D01*
X135535806Y-96610071D01*
X135631044Y-96705311D01*
X135646197Y-96717747D01*
X135649516Y-96719122D01*
X135652232Y-96721477D01*
X135670132Y-96729468D01*
X135812989Y-96777087D01*
X135822661Y-96779286D01*
X135825103Y-96780298D01*
X135828640Y-96780646D01*
X135832104Y-96781434D01*
X135834738Y-96781246D01*
X135844612Y-96782219D01*
X136082707Y-96782219D01*
X136102216Y-96780298D01*
X136138264Y-96765366D01*
X136165854Y-96737776D01*
X136180786Y-96701728D01*
X136182707Y-96682219D01*
X136182707Y-95682219D01*
X136458898Y-95682219D01*
X136458898Y-96682219D01*
X136459392Y-96687236D01*
X136459142Y-96689204D01*
X136459836Y-96691750D01*
X136460819Y-96701728D01*
X136465910Y-96714018D01*
X136469409Y-96726847D01*
X136473311Y-96731885D01*
X136475751Y-96737776D01*
X136485156Y-96747181D01*
X136493299Y-96757696D01*
X136498833Y-96760858D01*
X136503341Y-96765366D01*
X136515626Y-96770454D01*
X136527176Y-96777055D01*
X136533500Y-96777858D01*
X136539389Y-96780298D01*
X136552690Y-96780298D01*
X136565883Y-96781975D01*
X136572032Y-96780298D01*
X136578407Y-96780298D01*
X136590697Y-96775206D01*
X136603526Y-96771708D01*
X136608564Y-96767805D01*
X136614455Y-96765366D01*
X136623860Y-96755960D01*
X136634375Y-96747818D01*
X136640178Y-96739642D01*
X136642045Y-96737776D01*
X136642803Y-96735943D01*
X136645722Y-96731833D01*
X137030326Y-96058775D01*
X137030326Y-96682219D01*
X137032247Y-96701728D01*
X137047179Y-96737776D01*
X137074769Y-96765366D01*
X137110817Y-96780298D01*
X137149835Y-96780298D01*
X137185883Y-96765366D01*
X137213473Y-96737776D01*
X137228405Y-96701728D01*
X137230326Y-96682219D01*
X137230326Y-96253647D01*
X137458898Y-96253647D01*
X137458898Y-96586980D01*
X137460819Y-96606488D01*
X137475750Y-96642537D01*
X137488187Y-96657690D01*
X137535805Y-96705310D01*
X137550959Y-96717747D01*
X137554278Y-96719122D01*
X137556994Y-96721477D01*
X137574894Y-96729468D01*
X137717751Y-96777087D01*
X137727423Y-96779286D01*
X137729865Y-96780298D01*
X137733402Y-96780646D01*
X137736866Y-96781434D01*
X137739500Y-96781246D01*
X137749374Y-96782219D01*
X137844612Y-96782219D01*
X137854485Y-96781246D01*
X137857119Y-96781434D01*
X137860582Y-96780646D01*
X137864121Y-96780298D01*
X137866563Y-96779286D01*
X137876235Y-96777087D01*
X138019091Y-96729468D01*
X138036992Y-96721477D01*
X138039707Y-96719122D01*
X138043027Y-96717747D01*
X138058180Y-96705310D01*
X138153418Y-96610071D01*
X138159710Y-96602404D01*
X138161707Y-96600673D01*
X138163600Y-96597665D01*
X138165855Y-96594918D01*
X138166866Y-96592476D01*
X138172150Y-96584082D01*
X138219769Y-96488845D01*
X138220315Y-96487416D01*
X138220745Y-96486837D01*
X138223666Y-96478660D01*
X138226775Y-96470536D01*
X138226826Y-96469815D01*
X138227340Y-96468377D01*
X138274959Y-96277901D01*
X138275459Y-96274519D01*
X138276024Y-96273156D01*
X138276747Y-96265805D01*
X138277827Y-96258508D01*
X138277609Y-96257049D01*
X138277945Y-96253647D01*
X138277945Y-96110790D01*
X138277609Y-96107387D01*
X138277827Y-96105929D01*
X138276747Y-96098631D01*
X138276024Y-96091281D01*
X138275459Y-96089917D01*
X138274959Y-96086536D01*
X138227340Y-95896060D01*
X138226826Y-95894621D01*
X138226775Y-95893901D01*
X138223666Y-95885776D01*
X138220745Y-95877600D01*
X138220315Y-95877020D01*
X138219769Y-95875592D01*
X138172150Y-95780355D01*
X138166863Y-95771956D01*
X138165854Y-95769519D01*
X138163602Y-95766775D01*
X138161707Y-95763764D01*
X138159709Y-95762031D01*
X138153418Y-95754365D01*
X138058180Y-95659127D01*
X138043026Y-95646691D01*
X138039707Y-95645316D01*
X138036992Y-95642961D01*
X138019091Y-95634970D01*
X137876235Y-95587351D01*
X137866563Y-95585151D01*
X137864121Y-95584140D01*
X137860582Y-95583791D01*
X137857119Y-95583004D01*
X137854485Y-95583191D01*
X137844612Y-95582219D01*
X137701755Y-95582219D01*
X137682246Y-95584140D01*
X137678925Y-95585515D01*
X137675342Y-95585770D01*
X137657033Y-95592776D01*
X137561796Y-95640395D01*
X137545205Y-95650838D01*
X137519641Y-95680315D01*
X137507302Y-95717331D01*
X137510068Y-95756251D01*
X137527517Y-95791150D01*
X137556994Y-95816714D01*
X137594010Y-95829053D01*
X137632930Y-95826287D01*
X137651238Y-95819281D01*
X137725362Y-95782219D01*
X137828385Y-95782219D01*
X137933449Y-95817240D01*
X138000522Y-95884313D01*
X138035974Y-95955218D01*
X138077945Y-96123099D01*
X138077945Y-96241337D01*
X138035974Y-96409218D01*
X138000521Y-96480124D01*
X137933450Y-96547197D01*
X137828385Y-96582219D01*
X137765600Y-96582219D01*
X137660535Y-96547197D01*
X137658898Y-96545559D01*
X137658898Y-96353647D01*
X137749374Y-96353647D01*
X137768883Y-96351726D01*
X137804931Y-96336794D01*
X137832521Y-96309204D01*
X137847453Y-96273156D01*
X137847453Y-96234138D01*
X137832521Y-96198090D01*
X137804931Y-96170500D01*
X137768883Y-96155568D01*
X137749374Y-96153647D01*
X137558898Y-96153647D01*
X137539389Y-96155568D01*
X137503341Y-96170500D01*
X137475751Y-96198090D01*
X137460819Y-96234138D01*
X137458898Y-96253647D01*
X137230326Y-96253647D01*
X137230326Y-95682219D01*
X137229831Y-95677201D01*
X137230082Y-95675234D01*
X137229387Y-95672687D01*
X137228405Y-95662710D01*
X137223315Y-95650423D01*
X137219816Y-95637591D01*
X137215911Y-95632549D01*
X137213473Y-95626662D01*
X137204069Y-95617258D01*
X137195925Y-95606742D01*
X137190390Y-95603579D01*
X137185883Y-95599072D01*
X137173597Y-95593983D01*
X137162048Y-95587383D01*
X137155723Y-95586579D01*
X137149835Y-95584140D01*
X137136535Y-95584140D01*
X137123342Y-95582463D01*
X137117193Y-95584140D01*
X137110817Y-95584140D01*
X137098530Y-95589229D01*
X137085698Y-95592729D01*
X137080656Y-95596633D01*
X137074769Y-95599072D01*
X137065365Y-95608475D01*
X137054849Y-95616620D01*
X137049045Y-95624795D01*
X137047179Y-95626662D01*
X137046420Y-95628494D01*
X137043502Y-95632605D01*
X136658898Y-96305662D01*
X136658898Y-95682219D01*
X136656977Y-95662710D01*
X136642045Y-95626662D01*
X136614455Y-95599072D01*
X136578407Y-95584140D01*
X136539389Y-95584140D01*
X136503341Y-95599072D01*
X136475751Y-95626662D01*
X136460819Y-95662710D01*
X136458898Y-95682219D01*
X136182707Y-95682219D01*
X136180786Y-95662710D01*
X136165854Y-95626662D01*
X136138264Y-95599072D01*
X136102216Y-95584140D01*
X136082707Y-95582219D01*
X135844612Y-95582219D01*
X135834738Y-95583191D01*
X135832104Y-95583004D01*
X135828640Y-95583791D01*
X135825103Y-95584140D01*
X135822661Y-95585151D01*
X135812989Y-95587351D01*
X135670132Y-95634970D01*
X135652232Y-95642961D01*
X135649516Y-95645316D01*
X135646198Y-95646691D01*
X135631044Y-95659127D01*
X135535806Y-95754365D01*
X135529511Y-95762035D01*
X135527517Y-95763765D01*
X135525623Y-95766772D01*
X135523370Y-95769519D01*
X135522359Y-95771958D01*
X135517074Y-95780355D01*
X135469455Y-95875593D01*
X135468909Y-95877019D01*
X135468479Y-95877600D01*
X135465557Y-95885776D01*
X135462449Y-95893901D01*
X135462397Y-95894623D01*
X135461884Y-95896061D01*
X135414265Y-96086536D01*
X135413764Y-96089917D01*
X135413200Y-96091281D01*
X135412476Y-96098631D01*
X135411397Y-96105929D01*
X135411614Y-96107387D01*
X135411279Y-96110790D01*
X135300168Y-96110790D01*
X135300168Y-95471108D01*
X138389056Y-95471108D01*
X138389056Y-96893330D01*
G37*
G36*
X136082707Y-93882219D02*
G01*
X135960838Y-93882219D01*
X135855773Y-93847197D01*
X135788703Y-93780127D01*
X135753249Y-93709218D01*
X135711279Y-93541337D01*
X135711279Y-93423100D01*
X135753249Y-93255218D01*
X135788702Y-93184312D01*
X135855774Y-93117240D01*
X135960838Y-93082219D01*
X136082707Y-93082219D01*
X136082707Y-93882219D01*
G37*
G36*
X138489056Y-94193330D02*
G01*
X135400168Y-94193330D01*
X135400168Y-93410790D01*
X135511279Y-93410790D01*
X135511279Y-93553647D01*
X135511614Y-93557049D01*
X135511397Y-93558508D01*
X135512476Y-93565805D01*
X135513200Y-93573156D01*
X135513764Y-93574519D01*
X135514265Y-93577901D01*
X135561884Y-93768376D01*
X135562397Y-93769813D01*
X135562449Y-93770536D01*
X135565557Y-93778660D01*
X135568479Y-93786837D01*
X135568909Y-93787417D01*
X135569455Y-93788844D01*
X135617074Y-93884082D01*
X135622356Y-93892474D01*
X135623369Y-93894918D01*
X135625625Y-93897667D01*
X135627517Y-93900672D01*
X135629511Y-93902401D01*
X135635806Y-93910071D01*
X135731044Y-94005311D01*
X135746197Y-94017747D01*
X135749516Y-94019122D01*
X135752232Y-94021477D01*
X135770132Y-94029468D01*
X135912989Y-94077087D01*
X135922661Y-94079286D01*
X135925103Y-94080298D01*
X135928640Y-94080646D01*
X135932104Y-94081434D01*
X135934738Y-94081246D01*
X135944612Y-94082219D01*
X136182707Y-94082219D01*
X136202216Y-94080298D01*
X136238264Y-94065366D01*
X136265854Y-94037776D01*
X136280786Y-94001728D01*
X136282707Y-93982219D01*
X136282707Y-92982219D01*
X136558898Y-92982219D01*
X136558898Y-93982219D01*
X136559392Y-93987236D01*
X136559142Y-93989204D01*
X136559836Y-93991750D01*
X136560819Y-94001728D01*
X136565910Y-94014018D01*
X136569409Y-94026847D01*
X136573311Y-94031885D01*
X136575751Y-94037776D01*
X136585156Y-94047181D01*
X136593299Y-94057696D01*
X136598833Y-94060858D01*
X136603341Y-94065366D01*
X136615626Y-94070454D01*
X136627176Y-94077055D01*
X136633500Y-94077858D01*
X136639389Y-94080298D01*
X136652690Y-94080298D01*
X136665883Y-94081975D01*
X136672032Y-94080298D01*
X136678407Y-94080298D01*
X136690697Y-94075206D01*
X136703526Y-94071708D01*
X136708564Y-94067805D01*
X136714455Y-94065366D01*
X136723860Y-94055960D01*
X136734375Y-94047818D01*
X136740178Y-94039642D01*
X136742045Y-94037776D01*
X136742803Y-94035943D01*
X136745722Y-94031833D01*
X137130326Y-93358775D01*
X137130326Y-93982219D01*
X137132247Y-94001728D01*
X137147179Y-94037776D01*
X137174769Y-94065366D01*
X137210817Y-94080298D01*
X137249835Y-94080298D01*
X137285883Y-94065366D01*
X137313473Y-94037776D01*
X137328405Y-94001728D01*
X137330326Y-93982219D01*
X137330326Y-93553647D01*
X137558898Y-93553647D01*
X137558898Y-93886980D01*
X137560819Y-93906488D01*
X137575750Y-93942537D01*
X137588187Y-93957690D01*
X137635805Y-94005310D01*
X137650959Y-94017747D01*
X137654278Y-94019122D01*
X137656994Y-94021477D01*
X137674894Y-94029468D01*
X137817751Y-94077087D01*
X137827423Y-94079286D01*
X137829865Y-94080298D01*
X137833402Y-94080646D01*
X137836866Y-94081434D01*
X137839500Y-94081246D01*
X137849374Y-94082219D01*
X137944612Y-94082219D01*
X137954485Y-94081246D01*
X137957119Y-94081434D01*
X137960582Y-94080646D01*
X137964121Y-94080298D01*
X137966563Y-94079286D01*
X137976235Y-94077087D01*
X138119091Y-94029468D01*
X138136992Y-94021477D01*
X138139707Y-94019122D01*
X138143027Y-94017747D01*
X138158180Y-94005310D01*
X138253418Y-93910071D01*
X138259710Y-93902404D01*
X138261707Y-93900673D01*
X138263600Y-93897665D01*
X138265855Y-93894918D01*
X138266866Y-93892476D01*
X138272150Y-93884082D01*
X138319769Y-93788845D01*
X138320315Y-93787416D01*
X138320745Y-93786837D01*
X138323666Y-93778660D01*
X138326775Y-93770536D01*
X138326826Y-93769815D01*
X138327340Y-93768377D01*
X138374959Y-93577901D01*
X138375459Y-93574519D01*
X138376024Y-93573156D01*
X138376747Y-93565805D01*
X138377827Y-93558508D01*
X138377609Y-93557049D01*
X138377945Y-93553647D01*
X138377945Y-93410790D01*
X138377609Y-93407387D01*
X138377827Y-93405929D01*
X138376747Y-93398631D01*
X138376024Y-93391281D01*
X138375459Y-93389917D01*
X138374959Y-93386536D01*
X138327340Y-93196060D01*
X138326826Y-93194621D01*
X138326775Y-93193901D01*
X138323666Y-93185776D01*
X138320745Y-93177600D01*
X138320315Y-93177020D01*
X138319769Y-93175592D01*
X138272150Y-93080355D01*
X138266863Y-93071956D01*
X138265854Y-93069519D01*
X138263602Y-93066775D01*
X138261707Y-93063764D01*
X138259709Y-93062031D01*
X138253418Y-93054365D01*
X138158180Y-92959127D01*
X138143026Y-92946691D01*
X138139707Y-92945316D01*
X138136992Y-92942961D01*
X138119091Y-92934970D01*
X137976235Y-92887351D01*
X137966563Y-92885151D01*
X137964121Y-92884140D01*
X137960582Y-92883791D01*
X137957119Y-92883004D01*
X137954485Y-92883191D01*
X137944612Y-92882219D01*
X137801755Y-92882219D01*
X137782246Y-92884140D01*
X137778925Y-92885515D01*
X137775342Y-92885770D01*
X137757033Y-92892776D01*
X137661796Y-92940395D01*
X137645205Y-92950838D01*
X137619641Y-92980315D01*
X137607302Y-93017331D01*
X137610068Y-93056251D01*
X137627517Y-93091150D01*
X137656994Y-93116714D01*
X137694010Y-93129053D01*
X137732930Y-93126287D01*
X137751238Y-93119281D01*
X137825362Y-93082219D01*
X137928385Y-93082219D01*
X138033449Y-93117240D01*
X138100522Y-93184313D01*
X138135974Y-93255218D01*
X138177945Y-93423099D01*
X138177945Y-93541337D01*
X138135974Y-93709218D01*
X138100521Y-93780124D01*
X138033450Y-93847197D01*
X137928385Y-93882219D01*
X137865600Y-93882219D01*
X137760535Y-93847197D01*
X137758898Y-93845559D01*
X137758898Y-93653647D01*
X137849374Y-93653647D01*
X137868883Y-93651726D01*
X137904931Y-93636794D01*
X137932521Y-93609204D01*
X137947453Y-93573156D01*
X137947453Y-93534138D01*
X137932521Y-93498090D01*
X137904931Y-93470500D01*
X137868883Y-93455568D01*
X137849374Y-93453647D01*
X137658898Y-93453647D01*
X137639389Y-93455568D01*
X137603341Y-93470500D01*
X137575751Y-93498090D01*
X137560819Y-93534138D01*
X137558898Y-93553647D01*
X137330326Y-93553647D01*
X137330326Y-92982219D01*
X137329831Y-92977201D01*
X137330082Y-92975234D01*
X137329387Y-92972687D01*
X137328405Y-92962710D01*
X137323315Y-92950423D01*
X137319816Y-92937591D01*
X137315911Y-92932549D01*
X137313473Y-92926662D01*
X137304069Y-92917258D01*
X137295925Y-92906742D01*
X137290390Y-92903579D01*
X137285883Y-92899072D01*
X137273597Y-92893983D01*
X137262048Y-92887383D01*
X137255723Y-92886579D01*
X137249835Y-92884140D01*
X137236535Y-92884140D01*
X137223342Y-92882463D01*
X137217193Y-92884140D01*
X137210817Y-92884140D01*
X137198530Y-92889229D01*
X137185698Y-92892729D01*
X137180656Y-92896633D01*
X137174769Y-92899072D01*
X137165365Y-92908475D01*
X137154849Y-92916620D01*
X137149045Y-92924795D01*
X137147179Y-92926662D01*
X137146420Y-92928494D01*
X137143502Y-92932605D01*
X136758898Y-93605662D01*
X136758898Y-92982219D01*
X136756977Y-92962710D01*
X136742045Y-92926662D01*
X136714455Y-92899072D01*
X136678407Y-92884140D01*
X136639389Y-92884140D01*
X136603341Y-92899072D01*
X136575751Y-92926662D01*
X136560819Y-92962710D01*
X136558898Y-92982219D01*
X136282707Y-92982219D01*
X136280786Y-92962710D01*
X136265854Y-92926662D01*
X136238264Y-92899072D01*
X136202216Y-92884140D01*
X136182707Y-92882219D01*
X135944612Y-92882219D01*
X135934738Y-92883191D01*
X135932104Y-92883004D01*
X135928640Y-92883791D01*
X135925103Y-92884140D01*
X135922661Y-92885151D01*
X135912989Y-92887351D01*
X135770132Y-92934970D01*
X135752232Y-92942961D01*
X135749516Y-92945316D01*
X135746198Y-92946691D01*
X135731044Y-92959127D01*
X135635806Y-93054365D01*
X135629511Y-93062035D01*
X135627517Y-93063765D01*
X135625623Y-93066772D01*
X135623370Y-93069519D01*
X135622359Y-93071958D01*
X135617074Y-93080355D01*
X135569455Y-93175593D01*
X135568909Y-93177019D01*
X135568479Y-93177600D01*
X135565557Y-93185776D01*
X135562449Y-93193901D01*
X135562397Y-93194623D01*
X135561884Y-93196061D01*
X135514265Y-93386536D01*
X135513764Y-93389917D01*
X135513200Y-93391281D01*
X135512476Y-93398631D01*
X135511397Y-93405929D01*
X135511614Y-93407387D01*
X135511279Y-93410790D01*
X135400168Y-93410790D01*
X135400168Y-92771108D01*
X138489056Y-92771108D01*
X138489056Y-94193330D01*
G37*
G36*
X138634754Y-88993330D02*
G01*
X135215239Y-88993330D01*
X135215239Y-87794726D01*
X135326350Y-87794726D01*
X135330697Y-87813842D01*
X135664030Y-88813841D01*
X135672021Y-88831742D01*
X135676704Y-88837141D01*
X135679899Y-88843531D01*
X135689370Y-88851746D01*
X135697586Y-88861218D01*
X135703974Y-88864412D01*
X135709375Y-88869096D01*
X135721276Y-88873063D01*
X135732485Y-88878667D01*
X135739609Y-88879173D01*
X135746391Y-88881434D01*
X135758900Y-88880544D01*
X135771405Y-88881434D01*
X135778183Y-88879174D01*
X135785311Y-88878668D01*
X135796527Y-88873059D01*
X135808421Y-88869095D01*
X135813818Y-88864414D01*
X135820210Y-88861218D01*
X135828428Y-88851742D01*
X135837897Y-88843530D01*
X135841090Y-88837143D01*
X135845775Y-88831742D01*
X135853766Y-88813842D01*
X136007164Y-88353647D01*
X136277946Y-88353647D01*
X136277946Y-88591742D01*
X136279867Y-88611251D01*
X136281242Y-88614571D01*
X136281497Y-88618155D01*
X136288503Y-88636463D01*
X136336122Y-88731701D01*
X136341405Y-88740093D01*
X136342417Y-88742537D01*
X136344673Y-88745286D01*
X136346565Y-88748291D01*
X136348559Y-88750020D01*
X136354854Y-88757690D01*
X136402472Y-88805310D01*
X136410140Y-88811603D01*
X136411872Y-88813600D01*
X136414880Y-88815493D01*
X136417626Y-88817747D01*
X136420066Y-88818757D01*
X136428463Y-88824043D01*
X136523700Y-88871662D01*
X136542009Y-88878668D01*
X136545592Y-88878922D01*
X136548913Y-88880298D01*
X136568422Y-88882219D01*
X136854136Y-88882219D01*
X136873645Y-88880298D01*
X136876965Y-88878922D01*
X136880549Y-88878668D01*
X136898857Y-88871662D01*
X136994095Y-88824043D01*
X137002490Y-88818758D01*
X137004932Y-88817747D01*
X137007679Y-88815491D01*
X137010685Y-88813600D01*
X137012415Y-88811605D01*
X137020085Y-88805310D01*
X137067704Y-88757690D01*
X137080141Y-88742537D01*
X137091509Y-88715091D01*
X137232247Y-88715091D01*
X137232247Y-88754109D01*
X137238710Y-88769711D01*
X137247179Y-88790158D01*
X137247183Y-88790162D01*
X137259615Y-88805311D01*
X137307234Y-88852929D01*
X137322387Y-88865366D01*
X137331390Y-88869095D01*
X137358436Y-88880298D01*
X137397454Y-88880298D01*
X137433502Y-88865366D01*
X137448656Y-88852930D01*
X137496274Y-88805311D01*
X137508711Y-88790158D01*
X137515463Y-88773856D01*
X137523642Y-88754110D01*
X137523643Y-88715092D01*
X137508712Y-88679043D01*
X137496275Y-88663890D01*
X137448656Y-88616270D01*
X137433503Y-88603833D01*
X137418571Y-88597648D01*
X137397454Y-88588901D01*
X137358436Y-88588901D01*
X137347878Y-88593274D01*
X137322388Y-88603832D01*
X137322387Y-88603833D01*
X137307233Y-88616270D01*
X137259615Y-88663890D01*
X137247178Y-88679043D01*
X137237165Y-88703219D01*
X137232247Y-88715091D01*
X137091509Y-88715091D01*
X137095072Y-88706488D01*
X137095071Y-88667470D01*
X137080140Y-88631422D01*
X137052549Y-88603832D01*
X137016501Y-88588901D01*
X136977483Y-88588902D01*
X136941435Y-88603833D01*
X136926281Y-88616270D01*
X136890138Y-88652413D01*
X136830529Y-88682219D01*
X136592029Y-88682219D01*
X136532419Y-88652414D01*
X136507752Y-88627746D01*
X136477946Y-88568134D01*
X136477946Y-88377254D01*
X136489750Y-88353647D01*
X137706517Y-88353647D01*
X137706517Y-88591742D01*
X137708438Y-88611251D01*
X137709813Y-88614571D01*
X137710068Y-88618155D01*
X137717074Y-88636463D01*
X137764693Y-88731701D01*
X137769976Y-88740093D01*
X137770988Y-88742537D01*
X137773244Y-88745286D01*
X137775136Y-88748291D01*
X137777130Y-88750020D01*
X137783425Y-88757690D01*
X137831043Y-88805310D01*
X137838711Y-88811603D01*
X137840443Y-88813600D01*
X137843451Y-88815493D01*
X137846197Y-88817747D01*
X137848637Y-88818757D01*
X137857034Y-88824043D01*
X137952271Y-88871662D01*
X137970580Y-88878668D01*
X137974163Y-88878922D01*
X137977484Y-88880298D01*
X137996993Y-88882219D01*
X138282707Y-88882219D01*
X138302216Y-88880298D01*
X138305536Y-88878922D01*
X138309120Y-88878668D01*
X138327428Y-88871662D01*
X138422666Y-88824043D01*
X138431061Y-88818758D01*
X138433503Y-88817747D01*
X138436250Y-88815491D01*
X138439256Y-88813600D01*
X138440986Y-88811605D01*
X138448656Y-88805310D01*
X138496275Y-88757690D01*
X138508712Y-88742537D01*
X138523643Y-88706488D01*
X138523642Y-88667470D01*
X138508711Y-88631422D01*
X138481120Y-88603832D01*
X138445072Y-88588901D01*
X138406054Y-88588902D01*
X138370006Y-88603833D01*
X138354852Y-88616270D01*
X138318709Y-88652413D01*
X138259100Y-88682219D01*
X138020600Y-88682219D01*
X137960990Y-88652414D01*
X137936323Y-88627746D01*
X137906517Y-88568134D01*
X137906517Y-88377254D01*
X137936322Y-88317644D01*
X137960990Y-88292975D01*
X138020600Y-88263171D01*
X138139850Y-88263171D01*
X138150167Y-88262155D01*
X138152792Y-88262330D01*
X138154599Y-88261718D01*
X138159359Y-88261250D01*
X138174362Y-88255035D01*
X138189754Y-88249830D01*
X138192293Y-88247607D01*
X138195407Y-88246318D01*
X138206884Y-88234840D01*
X138219118Y-88224136D01*
X138220613Y-88221111D01*
X138222997Y-88218728D01*
X138229211Y-88203726D01*
X138236414Y-88189161D01*
X138236638Y-88185795D01*
X138237929Y-88182680D01*
X138237929Y-88166431D01*
X138239009Y-88150229D01*
X138237929Y-88147035D01*
X138237929Y-88143662D01*
X138231713Y-88128656D01*
X138226509Y-88113268D01*
X138223727Y-88109377D01*
X138222997Y-88107614D01*
X138221137Y-88105754D01*
X138215108Y-88097321D01*
X138026894Y-87882219D01*
X138425564Y-87882219D01*
X138445073Y-87880298D01*
X138481121Y-87865366D01*
X138508711Y-87837776D01*
X138523643Y-87801728D01*
X138523643Y-87762710D01*
X138508711Y-87726662D01*
X138481121Y-87699072D01*
X138445073Y-87684140D01*
X138425564Y-87682219D01*
X137806517Y-87682219D01*
X137796199Y-87683234D01*
X137793575Y-87683060D01*
X137791767Y-87683671D01*
X137787008Y-87684140D01*
X137772002Y-87690355D01*
X137756614Y-87695560D01*
X137754074Y-87697781D01*
X137750960Y-87699072D01*
X137739475Y-87710556D01*
X137727250Y-87721254D01*
X137725754Y-87724277D01*
X137723370Y-87726662D01*
X137717153Y-87741668D01*
X137709953Y-87756229D01*
X137709728Y-87759594D01*
X137708438Y-87762710D01*
X137708438Y-87778958D01*
X137707358Y-87795161D01*
X137708438Y-87798354D01*
X137708438Y-87801728D01*
X137714653Y-87816733D01*
X137719858Y-87832122D01*
X137722639Y-87836012D01*
X137723370Y-87837776D01*
X137725229Y-87839635D01*
X137731259Y-87848069D01*
X137935880Y-88081923D01*
X137857034Y-88121347D01*
X137848637Y-88126632D01*
X137846197Y-88127643D01*
X137843451Y-88129896D01*
X137840443Y-88131790D01*
X137838710Y-88133787D01*
X137831044Y-88140080D01*
X137783425Y-88187698D01*
X137777130Y-88195368D01*
X137775136Y-88197098D01*
X137773242Y-88200105D01*
X137770989Y-88202852D01*
X137769978Y-88205291D01*
X137764693Y-88213688D01*
X137717074Y-88308926D01*
X137710068Y-88327234D01*
X137709813Y-88330817D01*
X137708438Y-88334138D01*
X137706517Y-88353647D01*
X136489750Y-88353647D01*
X136507751Y-88317644D01*
X136532419Y-88292975D01*
X136592029Y-88263171D01*
X136711279Y-88263171D01*
X136721596Y-88262155D01*
X136724221Y-88262330D01*
X136726028Y-88261718D01*
X136730788Y-88261250D01*
X136745791Y-88255035D01*
X136761183Y-88249830D01*
X136763722Y-88247607D01*
X136766836Y-88246318D01*
X136778313Y-88234840D01*
X136790547Y-88224136D01*
X136792042Y-88221111D01*
X136794426Y-88218728D01*
X136800640Y-88203726D01*
X136807843Y-88189161D01*
X136808067Y-88185795D01*
X136809358Y-88182680D01*
X136809358Y-88166431D01*
X136810438Y-88150229D01*
X136809358Y-88147035D01*
X136809358Y-88143662D01*
X136803142Y-88128656D01*
X136797938Y-88113268D01*
X136795156Y-88109377D01*
X136794426Y-88107614D01*
X136792566Y-88105754D01*
X136786537Y-88097321D01*
X136598323Y-87882219D01*
X136996993Y-87882219D01*
X137016502Y-87880298D01*
X137052550Y-87865366D01*
X137080140Y-87837776D01*
X137095072Y-87801728D01*
X137095072Y-87762710D01*
X137080140Y-87726662D01*
X137052550Y-87699072D01*
X137016502Y-87684140D01*
X136996993Y-87682219D01*
X136377946Y-87682219D01*
X136367628Y-87683234D01*
X136365004Y-87683060D01*
X136363196Y-87683671D01*
X136358437Y-87684140D01*
X136343431Y-87690355D01*
X136328043Y-87695560D01*
X136325503Y-87697781D01*
X136322389Y-87699072D01*
X136310904Y-87710556D01*
X136298679Y-87721254D01*
X136297183Y-87724277D01*
X136294799Y-87726662D01*
X136288582Y-87741668D01*
X136281382Y-87756229D01*
X136281157Y-87759594D01*
X136279867Y-87762710D01*
X136279867Y-87778958D01*
X136278787Y-87795161D01*
X136279867Y-87798354D01*
X136279867Y-87801728D01*
X136286082Y-87816733D01*
X136291287Y-87832122D01*
X136294068Y-87836012D01*
X136294799Y-87837776D01*
X136296658Y-87839635D01*
X136302688Y-87848069D01*
X136507309Y-88081923D01*
X136428463Y-88121347D01*
X136420066Y-88126632D01*
X136417626Y-88127643D01*
X136414880Y-88129896D01*
X136411872Y-88131790D01*
X136410139Y-88133787D01*
X136402473Y-88140080D01*
X136354854Y-88187698D01*
X136348559Y-88195368D01*
X136346565Y-88197098D01*
X136344671Y-88200105D01*
X136342418Y-88202852D01*
X136341407Y-88205291D01*
X136336122Y-88213688D01*
X136288503Y-88308926D01*
X136281497Y-88327234D01*
X136281242Y-88330817D01*
X136279867Y-88334138D01*
X136277946Y-88353647D01*
X136007164Y-88353647D01*
X136187099Y-87813842D01*
X136191446Y-87794727D01*
X136188680Y-87755807D01*
X136171230Y-87720908D01*
X136141754Y-87695343D01*
X136104738Y-87683004D01*
X136065818Y-87685771D01*
X136030919Y-87703220D01*
X136005354Y-87732696D01*
X135997363Y-87750597D01*
X135758898Y-88465991D01*
X135520433Y-87750596D01*
X135512442Y-87732696D01*
X135486877Y-87703220D01*
X135451978Y-87685770D01*
X135413058Y-87683004D01*
X135376042Y-87695342D01*
X135346566Y-87720907D01*
X135329116Y-87755806D01*
X135326350Y-87794726D01*
X135215239Y-87794726D01*
X135215239Y-87571108D01*
X138634754Y-87571108D01*
X138634754Y-88993330D01*
G37*
X179730326Y-87398219D02*
X179730326Y-86398219D01*
X179730326Y-86398219D02*
X179349374Y-86398219D01*
X179349374Y-86398219D02*
X179254136Y-86445838D01*
X179254136Y-86445838D02*
X179206517Y-86493457D01*
X179206517Y-86493457D02*
X179158898Y-86588695D01*
X179158898Y-86588695D02*
X179158898Y-86731552D01*
X179158898Y-86731552D02*
X179206517Y-86826790D01*
X179206517Y-86826790D02*
X179254136Y-86874409D01*
X179254136Y-86874409D02*
X179349374Y-86922028D01*
X179349374Y-86922028D02*
X179730326Y-86922028D01*
X178396993Y-86874409D02*
X178254136Y-86922028D01*
X178254136Y-86922028D02*
X178206517Y-86969647D01*
X178206517Y-86969647D02*
X178158898Y-87064885D01*
X178158898Y-87064885D02*
X178158898Y-87207742D01*
X178158898Y-87207742D02*
X178206517Y-87302980D01*
X178206517Y-87302980D02*
X178254136Y-87350600D01*
X178254136Y-87350600D02*
X178349374Y-87398219D01*
X178349374Y-87398219D02*
X178730326Y-87398219D01*
X178730326Y-87398219D02*
X178730326Y-86398219D01*
X178730326Y-86398219D02*
X178396993Y-86398219D01*
X178396993Y-86398219D02*
X178301755Y-86445838D01*
X178301755Y-86445838D02*
X178254136Y-86493457D01*
X178254136Y-86493457D02*
X178206517Y-86588695D01*
X178206517Y-86588695D02*
X178206517Y-86683933D01*
X178206517Y-86683933D02*
X178254136Y-86779171D01*
X178254136Y-86779171D02*
X178301755Y-86826790D01*
X178301755Y-86826790D02*
X178396993Y-86874409D01*
X178396993Y-86874409D02*
X178730326Y-86874409D01*
X177206517Y-87398219D02*
X177777945Y-87398219D01*
X177492231Y-87398219D02*
X177492231Y-86398219D01*
X177492231Y-86398219D02*
X177587469Y-86541076D01*
X177587469Y-86541076D02*
X177682707Y-86636314D01*
X177682707Y-86636314D02*
X177777945Y-86683933D01*
X176301755Y-86398219D02*
X176777945Y-86398219D01*
X176777945Y-86398219D02*
X176825564Y-86874409D01*
X176825564Y-86874409D02*
X176777945Y-86826790D01*
X176777945Y-86826790D02*
X176682707Y-86779171D01*
X176682707Y-86779171D02*
X176444612Y-86779171D01*
X176444612Y-86779171D02*
X176349374Y-86826790D01*
X176349374Y-86826790D02*
X176301755Y-86874409D01*
X176301755Y-86874409D02*
X176254136Y-86969647D01*
X176254136Y-86969647D02*
X176254136Y-87207742D01*
X176254136Y-87207742D02*
X176301755Y-87302980D01*
X176301755Y-87302980D02*
X176349374Y-87350600D01*
X176349374Y-87350600D02*
X176444612Y-87398219D01*
X176444612Y-87398219D02*
X176682707Y-87398219D01*
X176682707Y-87398219D02*
X176777945Y-87350600D01*
X176777945Y-87350600D02*
X176825564Y-87302980D01*
X179930326Y-84814219D02*
X179930326Y-83814219D01*
X179930326Y-83814219D02*
X179549374Y-83814219D01*
X179549374Y-83814219D02*
X179454136Y-83861838D01*
X179454136Y-83861838D02*
X179406517Y-83909457D01*
X179406517Y-83909457D02*
X179358898Y-84004695D01*
X179358898Y-84004695D02*
X179358898Y-84147552D01*
X179358898Y-84147552D02*
X179406517Y-84242790D01*
X179406517Y-84242790D02*
X179454136Y-84290409D01*
X179454136Y-84290409D02*
X179549374Y-84338028D01*
X179549374Y-84338028D02*
X179930326Y-84338028D01*
X178596993Y-84290409D02*
X178454136Y-84338028D01*
X178454136Y-84338028D02*
X178406517Y-84385647D01*
X178406517Y-84385647D02*
X178358898Y-84480885D01*
X178358898Y-84480885D02*
X178358898Y-84623742D01*
X178358898Y-84623742D02*
X178406517Y-84718980D01*
X178406517Y-84718980D02*
X178454136Y-84766600D01*
X178454136Y-84766600D02*
X178549374Y-84814219D01*
X178549374Y-84814219D02*
X178930326Y-84814219D01*
X178930326Y-84814219D02*
X178930326Y-83814219D01*
X178930326Y-83814219D02*
X178596993Y-83814219D01*
X178596993Y-83814219D02*
X178501755Y-83861838D01*
X178501755Y-83861838D02*
X178454136Y-83909457D01*
X178454136Y-83909457D02*
X178406517Y-84004695D01*
X178406517Y-84004695D02*
X178406517Y-84099933D01*
X178406517Y-84099933D02*
X178454136Y-84195171D01*
X178454136Y-84195171D02*
X178501755Y-84242790D01*
X178501755Y-84242790D02*
X178596993Y-84290409D01*
X178596993Y-84290409D02*
X178930326Y-84290409D01*
X177406517Y-84814219D02*
X177977945Y-84814219D01*
X177692231Y-84814219D02*
X177692231Y-83814219D01*
X177692231Y-83814219D02*
X177787469Y-83957076D01*
X177787469Y-83957076D02*
X177882707Y-84052314D01*
X177882707Y-84052314D02*
X177977945Y-84099933D01*
X176549374Y-84147552D02*
X176549374Y-84814219D01*
X176787469Y-83766600D02*
X177025564Y-84480885D01*
X177025564Y-84480885D02*
X176406517Y-84480885D01*
X180030326Y-72082219D02*
X180030326Y-71082219D01*
X180030326Y-71082219D02*
X179649374Y-71082219D01*
X179649374Y-71082219D02*
X179554136Y-71129838D01*
X179554136Y-71129838D02*
X179506517Y-71177457D01*
X179506517Y-71177457D02*
X179458898Y-71272695D01*
X179458898Y-71272695D02*
X179458898Y-71415552D01*
X179458898Y-71415552D02*
X179506517Y-71510790D01*
X179506517Y-71510790D02*
X179554136Y-71558409D01*
X179554136Y-71558409D02*
X179649374Y-71606028D01*
X179649374Y-71606028D02*
X180030326Y-71606028D01*
X178696993Y-71558409D02*
X178554136Y-71606028D01*
X178554136Y-71606028D02*
X178506517Y-71653647D01*
X178506517Y-71653647D02*
X178458898Y-71748885D01*
X178458898Y-71748885D02*
X178458898Y-71891742D01*
X178458898Y-71891742D02*
X178506517Y-71986980D01*
X178506517Y-71986980D02*
X178554136Y-72034600D01*
X178554136Y-72034600D02*
X178649374Y-72082219D01*
X178649374Y-72082219D02*
X179030326Y-72082219D01*
X179030326Y-72082219D02*
X179030326Y-71082219D01*
X179030326Y-71082219D02*
X178696993Y-71082219D01*
X178696993Y-71082219D02*
X178601755Y-71129838D01*
X178601755Y-71129838D02*
X178554136Y-71177457D01*
X178554136Y-71177457D02*
X178506517Y-71272695D01*
X178506517Y-71272695D02*
X178506517Y-71367933D01*
X178506517Y-71367933D02*
X178554136Y-71463171D01*
X178554136Y-71463171D02*
X178601755Y-71510790D01*
X178601755Y-71510790D02*
X178696993Y-71558409D01*
X178696993Y-71558409D02*
X179030326Y-71558409D01*
X177506517Y-72082219D02*
X178077945Y-72082219D01*
X177792231Y-72082219D02*
X177792231Y-71082219D01*
X177792231Y-71082219D02*
X177887469Y-71225076D01*
X177887469Y-71225076D02*
X177982707Y-71320314D01*
X177982707Y-71320314D02*
X178077945Y-71367933D01*
X176887469Y-71082219D02*
X176792231Y-71082219D01*
X176792231Y-71082219D02*
X176696993Y-71129838D01*
X176696993Y-71129838D02*
X176649374Y-71177457D01*
X176649374Y-71177457D02*
X176601755Y-71272695D01*
X176601755Y-71272695D02*
X176554136Y-71463171D01*
X176554136Y-71463171D02*
X176554136Y-71701266D01*
X176554136Y-71701266D02*
X176601755Y-71891742D01*
X176601755Y-71891742D02*
X176649374Y-71986980D01*
X176649374Y-71986980D02*
X176696993Y-72034600D01*
X176696993Y-72034600D02*
X176792231Y-72082219D01*
X176792231Y-72082219D02*
X176887469Y-72082219D01*
X176887469Y-72082219D02*
X176982707Y-72034600D01*
X176982707Y-72034600D02*
X177030326Y-71986980D01*
X177030326Y-71986980D02*
X177077945Y-71891742D01*
X177077945Y-71891742D02*
X177125564Y-71701266D01*
X177125564Y-71701266D02*
X177125564Y-71463171D01*
X177125564Y-71463171D02*
X177077945Y-71272695D01*
X177077945Y-71272695D02*
X177030326Y-71177457D01*
X177030326Y-71177457D02*
X176982707Y-71129838D01*
X176982707Y-71129838D02*
X176887469Y-71082219D01*
X180030326Y-74682219D02*
X180030326Y-73682219D01*
X180030326Y-73682219D02*
X179649374Y-73682219D01*
X179649374Y-73682219D02*
X179554136Y-73729838D01*
X179554136Y-73729838D02*
X179506517Y-73777457D01*
X179506517Y-73777457D02*
X179458898Y-73872695D01*
X179458898Y-73872695D02*
X179458898Y-74015552D01*
X179458898Y-74015552D02*
X179506517Y-74110790D01*
X179506517Y-74110790D02*
X179554136Y-74158409D01*
X179554136Y-74158409D02*
X179649374Y-74206028D01*
X179649374Y-74206028D02*
X180030326Y-74206028D01*
X178696993Y-74158409D02*
X178554136Y-74206028D01*
X178554136Y-74206028D02*
X178506517Y-74253647D01*
X178506517Y-74253647D02*
X178458898Y-74348885D01*
X178458898Y-74348885D02*
X178458898Y-74491742D01*
X178458898Y-74491742D02*
X178506517Y-74586980D01*
X178506517Y-74586980D02*
X178554136Y-74634600D01*
X178554136Y-74634600D02*
X178649374Y-74682219D01*
X178649374Y-74682219D02*
X179030326Y-74682219D01*
X179030326Y-74682219D02*
X179030326Y-73682219D01*
X179030326Y-73682219D02*
X178696993Y-73682219D01*
X178696993Y-73682219D02*
X178601755Y-73729838D01*
X178601755Y-73729838D02*
X178554136Y-73777457D01*
X178554136Y-73777457D02*
X178506517Y-73872695D01*
X178506517Y-73872695D02*
X178506517Y-73967933D01*
X178506517Y-73967933D02*
X178554136Y-74063171D01*
X178554136Y-74063171D02*
X178601755Y-74110790D01*
X178601755Y-74110790D02*
X178696993Y-74158409D01*
X178696993Y-74158409D02*
X179030326Y-74158409D01*
X177506517Y-74682219D02*
X178077945Y-74682219D01*
X177792231Y-74682219D02*
X177792231Y-73682219D01*
X177792231Y-73682219D02*
X177887469Y-73825076D01*
X177887469Y-73825076D02*
X177982707Y-73920314D01*
X177982707Y-73920314D02*
X178077945Y-73967933D01*
X176554136Y-74682219D02*
X177125564Y-74682219D01*
X176839850Y-74682219D02*
X176839850Y-73682219D01*
X176839850Y-73682219D02*
X176935088Y-73825076D01*
X176935088Y-73825076D02*
X177030326Y-73920314D01*
X177030326Y-73920314D02*
X177125564Y-73967933D01*
X180030326Y-82282219D02*
X180030326Y-81282219D01*
X180030326Y-81282219D02*
X179649374Y-81282219D01*
X179649374Y-81282219D02*
X179554136Y-81329838D01*
X179554136Y-81329838D02*
X179506517Y-81377457D01*
X179506517Y-81377457D02*
X179458898Y-81472695D01*
X179458898Y-81472695D02*
X179458898Y-81615552D01*
X179458898Y-81615552D02*
X179506517Y-81710790D01*
X179506517Y-81710790D02*
X179554136Y-81758409D01*
X179554136Y-81758409D02*
X179649374Y-81806028D01*
X179649374Y-81806028D02*
X180030326Y-81806028D01*
X178696993Y-81758409D02*
X178554136Y-81806028D01*
X178554136Y-81806028D02*
X178506517Y-81853647D01*
X178506517Y-81853647D02*
X178458898Y-81948885D01*
X178458898Y-81948885D02*
X178458898Y-82091742D01*
X178458898Y-82091742D02*
X178506517Y-82186980D01*
X178506517Y-82186980D02*
X178554136Y-82234600D01*
X178554136Y-82234600D02*
X178649374Y-82282219D01*
X178649374Y-82282219D02*
X179030326Y-82282219D01*
X179030326Y-82282219D02*
X179030326Y-81282219D01*
X179030326Y-81282219D02*
X178696993Y-81282219D01*
X178696993Y-81282219D02*
X178601755Y-81329838D01*
X178601755Y-81329838D02*
X178554136Y-81377457D01*
X178554136Y-81377457D02*
X178506517Y-81472695D01*
X178506517Y-81472695D02*
X178506517Y-81567933D01*
X178506517Y-81567933D02*
X178554136Y-81663171D01*
X178554136Y-81663171D02*
X178601755Y-81710790D01*
X178601755Y-81710790D02*
X178696993Y-81758409D01*
X178696993Y-81758409D02*
X179030326Y-81758409D01*
X177506517Y-82282219D02*
X178077945Y-82282219D01*
X177792231Y-82282219D02*
X177792231Y-81282219D01*
X177792231Y-81282219D02*
X177887469Y-81425076D01*
X177887469Y-81425076D02*
X177982707Y-81520314D01*
X177982707Y-81520314D02*
X178077945Y-81567933D01*
X177173183Y-81282219D02*
X176554136Y-81282219D01*
X176554136Y-81282219D02*
X176887469Y-81663171D01*
X176887469Y-81663171D02*
X176744612Y-81663171D01*
X176744612Y-81663171D02*
X176649374Y-81710790D01*
X176649374Y-81710790D02*
X176601755Y-81758409D01*
X176601755Y-81758409D02*
X176554136Y-81853647D01*
X176554136Y-81853647D02*
X176554136Y-82091742D01*
X176554136Y-82091742D02*
X176601755Y-82186980D01*
X176601755Y-82186980D02*
X176649374Y-82234600D01*
X176649374Y-82234600D02*
X176744612Y-82282219D01*
X176744612Y-82282219D02*
X177030326Y-82282219D01*
X177030326Y-82282219D02*
X177125564Y-82234600D01*
X177125564Y-82234600D02*
X177173183Y-82186980D01*
X180030326Y-89982219D02*
X180030326Y-88982219D01*
X180030326Y-88982219D02*
X179649374Y-88982219D01*
X179649374Y-88982219D02*
X179554136Y-89029838D01*
X179554136Y-89029838D02*
X179506517Y-89077457D01*
X179506517Y-89077457D02*
X179458898Y-89172695D01*
X179458898Y-89172695D02*
X179458898Y-89315552D01*
X179458898Y-89315552D02*
X179506517Y-89410790D01*
X179506517Y-89410790D02*
X179554136Y-89458409D01*
X179554136Y-89458409D02*
X179649374Y-89506028D01*
X179649374Y-89506028D02*
X180030326Y-89506028D01*
X178696993Y-89458409D02*
X178554136Y-89506028D01*
X178554136Y-89506028D02*
X178506517Y-89553647D01*
X178506517Y-89553647D02*
X178458898Y-89648885D01*
X178458898Y-89648885D02*
X178458898Y-89791742D01*
X178458898Y-89791742D02*
X178506517Y-89886980D01*
X178506517Y-89886980D02*
X178554136Y-89934600D01*
X178554136Y-89934600D02*
X178649374Y-89982219D01*
X178649374Y-89982219D02*
X179030326Y-89982219D01*
X179030326Y-89982219D02*
X179030326Y-88982219D01*
X179030326Y-88982219D02*
X178696993Y-88982219D01*
X178696993Y-88982219D02*
X178601755Y-89029838D01*
X178601755Y-89029838D02*
X178554136Y-89077457D01*
X178554136Y-89077457D02*
X178506517Y-89172695D01*
X178506517Y-89172695D02*
X178506517Y-89267933D01*
X178506517Y-89267933D02*
X178554136Y-89363171D01*
X178554136Y-89363171D02*
X178601755Y-89410790D01*
X178601755Y-89410790D02*
X178696993Y-89458409D01*
X178696993Y-89458409D02*
X179030326Y-89458409D01*
X177506517Y-89982219D02*
X178077945Y-89982219D01*
X177792231Y-89982219D02*
X177792231Y-88982219D01*
X177792231Y-88982219D02*
X177887469Y-89125076D01*
X177887469Y-89125076D02*
X177982707Y-89220314D01*
X177982707Y-89220314D02*
X178077945Y-89267933D01*
X177125564Y-89077457D02*
X177077945Y-89029838D01*
X177077945Y-89029838D02*
X176982707Y-88982219D01*
X176982707Y-88982219D02*
X176744612Y-88982219D01*
X176744612Y-88982219D02*
X176649374Y-89029838D01*
X176649374Y-89029838D02*
X176601755Y-89077457D01*
X176601755Y-89077457D02*
X176554136Y-89172695D01*
X176554136Y-89172695D02*
X176554136Y-89267933D01*
X176554136Y-89267933D02*
X176601755Y-89410790D01*
X176601755Y-89410790D02*
X177173183Y-89982219D01*
X177173183Y-89982219D02*
X176554136Y-89982219D01*
X180030326Y-92482219D02*
X180030326Y-91482219D01*
X180030326Y-91482219D02*
X179649374Y-91482219D01*
X179649374Y-91482219D02*
X179554136Y-91529838D01*
X179554136Y-91529838D02*
X179506517Y-91577457D01*
X179506517Y-91577457D02*
X179458898Y-91672695D01*
X179458898Y-91672695D02*
X179458898Y-91815552D01*
X179458898Y-91815552D02*
X179506517Y-91910790D01*
X179506517Y-91910790D02*
X179554136Y-91958409D01*
X179554136Y-91958409D02*
X179649374Y-92006028D01*
X179649374Y-92006028D02*
X180030326Y-92006028D01*
X178696993Y-91958409D02*
X178554136Y-92006028D01*
X178554136Y-92006028D02*
X178506517Y-92053647D01*
X178506517Y-92053647D02*
X178458898Y-92148885D01*
X178458898Y-92148885D02*
X178458898Y-92291742D01*
X178458898Y-92291742D02*
X178506517Y-92386980D01*
X178506517Y-92386980D02*
X178554136Y-92434600D01*
X178554136Y-92434600D02*
X178649374Y-92482219D01*
X178649374Y-92482219D02*
X179030326Y-92482219D01*
X179030326Y-92482219D02*
X179030326Y-91482219D01*
X179030326Y-91482219D02*
X178696993Y-91482219D01*
X178696993Y-91482219D02*
X178601755Y-91529838D01*
X178601755Y-91529838D02*
X178554136Y-91577457D01*
X178554136Y-91577457D02*
X178506517Y-91672695D01*
X178506517Y-91672695D02*
X178506517Y-91767933D01*
X178506517Y-91767933D02*
X178554136Y-91863171D01*
X178554136Y-91863171D02*
X178601755Y-91910790D01*
X178601755Y-91910790D02*
X178696993Y-91958409D01*
X178696993Y-91958409D02*
X179030326Y-91958409D01*
X177601755Y-91815552D02*
X177601755Y-92482219D01*
X177839850Y-91434600D02*
X178077945Y-92148885D01*
X178077945Y-92148885D02*
X177458898Y-92148885D01*
X180030326Y-95082219D02*
X180030326Y-94082219D01*
X180030326Y-94082219D02*
X179649374Y-94082219D01*
X179649374Y-94082219D02*
X179554136Y-94129838D01*
X179554136Y-94129838D02*
X179506517Y-94177457D01*
X179506517Y-94177457D02*
X179458898Y-94272695D01*
X179458898Y-94272695D02*
X179458898Y-94415552D01*
X179458898Y-94415552D02*
X179506517Y-94510790D01*
X179506517Y-94510790D02*
X179554136Y-94558409D01*
X179554136Y-94558409D02*
X179649374Y-94606028D01*
X179649374Y-94606028D02*
X180030326Y-94606028D01*
X178696993Y-94558409D02*
X178554136Y-94606028D01*
X178554136Y-94606028D02*
X178506517Y-94653647D01*
X178506517Y-94653647D02*
X178458898Y-94748885D01*
X178458898Y-94748885D02*
X178458898Y-94891742D01*
X178458898Y-94891742D02*
X178506517Y-94986980D01*
X178506517Y-94986980D02*
X178554136Y-95034600D01*
X178554136Y-95034600D02*
X178649374Y-95082219D01*
X178649374Y-95082219D02*
X179030326Y-95082219D01*
X179030326Y-95082219D02*
X179030326Y-94082219D01*
X179030326Y-94082219D02*
X178696993Y-94082219D01*
X178696993Y-94082219D02*
X178601755Y-94129838D01*
X178601755Y-94129838D02*
X178554136Y-94177457D01*
X178554136Y-94177457D02*
X178506517Y-94272695D01*
X178506517Y-94272695D02*
X178506517Y-94367933D01*
X178506517Y-94367933D02*
X178554136Y-94463171D01*
X178554136Y-94463171D02*
X178601755Y-94510790D01*
X178601755Y-94510790D02*
X178696993Y-94558409D01*
X178696993Y-94558409D02*
X179030326Y-94558409D01*
X178125564Y-94082219D02*
X177506517Y-94082219D01*
X177506517Y-94082219D02*
X177839850Y-94463171D01*
X177839850Y-94463171D02*
X177696993Y-94463171D01*
X177696993Y-94463171D02*
X177601755Y-94510790D01*
X177601755Y-94510790D02*
X177554136Y-94558409D01*
X177554136Y-94558409D02*
X177506517Y-94653647D01*
X177506517Y-94653647D02*
X177506517Y-94891742D01*
X177506517Y-94891742D02*
X177554136Y-94986980D01*
X177554136Y-94986980D02*
X177601755Y-95034600D01*
X177601755Y-95034600D02*
X177696993Y-95082219D01*
X177696993Y-95082219D02*
X177982707Y-95082219D01*
X177982707Y-95082219D02*
X178077945Y-95034600D01*
X178077945Y-95034600D02*
X178125564Y-94986980D01*
X180030326Y-99082219D02*
X180030326Y-98082219D01*
X180030326Y-98082219D02*
X179649374Y-98082219D01*
X179649374Y-98082219D02*
X179554136Y-98129838D01*
X179554136Y-98129838D02*
X179506517Y-98177457D01*
X179506517Y-98177457D02*
X179458898Y-98272695D01*
X179458898Y-98272695D02*
X179458898Y-98415552D01*
X179458898Y-98415552D02*
X179506517Y-98510790D01*
X179506517Y-98510790D02*
X179554136Y-98558409D01*
X179554136Y-98558409D02*
X179649374Y-98606028D01*
X179649374Y-98606028D02*
X180030326Y-98606028D01*
X179077945Y-98796504D02*
X178601755Y-98796504D01*
X179173183Y-99082219D02*
X178839850Y-98082219D01*
X178839850Y-98082219D02*
X178506517Y-99082219D01*
X177649374Y-99082219D02*
X178220802Y-99082219D01*
X177935088Y-99082219D02*
X177935088Y-98082219D01*
X177935088Y-98082219D02*
X178030326Y-98225076D01*
X178030326Y-98225076D02*
X178125564Y-98320314D01*
X178125564Y-98320314D02*
X178220802Y-98367933D01*
X176744612Y-98082219D02*
X177220802Y-98082219D01*
X177220802Y-98082219D02*
X177268421Y-98558409D01*
X177268421Y-98558409D02*
X177220802Y-98510790D01*
X177220802Y-98510790D02*
X177125564Y-98463171D01*
X177125564Y-98463171D02*
X176887469Y-98463171D01*
X176887469Y-98463171D02*
X176792231Y-98510790D01*
X176792231Y-98510790D02*
X176744612Y-98558409D01*
X176744612Y-98558409D02*
X176696993Y-98653647D01*
X176696993Y-98653647D02*
X176696993Y-98891742D01*
X176696993Y-98891742D02*
X176744612Y-98986980D01*
X176744612Y-98986980D02*
X176792231Y-99034600D01*
X176792231Y-99034600D02*
X176887469Y-99082219D01*
X176887469Y-99082219D02*
X177125564Y-99082219D01*
X177125564Y-99082219D02*
X177220802Y-99034600D01*
X177220802Y-99034600D02*
X177268421Y-98986980D01*
X180030326Y-101510790D02*
X180030326Y-100510790D01*
X180030326Y-100510790D02*
X179649374Y-100510790D01*
X179649374Y-100510790D02*
X179554136Y-100558409D01*
X179554136Y-100558409D02*
X179506517Y-100606028D01*
X179506517Y-100606028D02*
X179458898Y-100701266D01*
X179458898Y-100701266D02*
X179458898Y-100844123D01*
X179458898Y-100844123D02*
X179506517Y-100939361D01*
X179506517Y-100939361D02*
X179554136Y-100986980D01*
X179554136Y-100986980D02*
X179649374Y-101034599D01*
X179649374Y-101034599D02*
X180030326Y-101034599D01*
X179077945Y-101225075D02*
X178601755Y-101225075D01*
X179173183Y-101510790D02*
X178839850Y-100510790D01*
X178839850Y-100510790D02*
X178506517Y-101510790D01*
X177649374Y-101510790D02*
X178220802Y-101510790D01*
X177935088Y-101510790D02*
X177935088Y-100510790D01*
X177935088Y-100510790D02*
X178030326Y-100653647D01*
X178030326Y-100653647D02*
X178125564Y-100748885D01*
X178125564Y-100748885D02*
X178220802Y-100796504D01*
X177030326Y-100510790D02*
X176935088Y-100510790D01*
X176935088Y-100510790D02*
X176839850Y-100558409D01*
X176839850Y-100558409D02*
X176792231Y-100606028D01*
X176792231Y-100606028D02*
X176744612Y-100701266D01*
X176744612Y-100701266D02*
X176696993Y-100891742D01*
X176696993Y-100891742D02*
X176696993Y-101129837D01*
X176696993Y-101129837D02*
X176744612Y-101320313D01*
X176744612Y-101320313D02*
X176792231Y-101415551D01*
X176792231Y-101415551D02*
X176839850Y-101463171D01*
X176839850Y-101463171D02*
X176935088Y-101510790D01*
X176935088Y-101510790D02*
X177030326Y-101510790D01*
X177030326Y-101510790D02*
X177125564Y-101463171D01*
X177125564Y-101463171D02*
X177173183Y-101415551D01*
X177173183Y-101415551D02*
X177220802Y-101320313D01*
X177220802Y-101320313D02*
X177268421Y-101129837D01*
X177268421Y-101129837D02*
X177268421Y-100891742D01*
X177268421Y-100891742D02*
X177220802Y-100701266D01*
X177220802Y-100701266D02*
X177173183Y-100606028D01*
X177173183Y-100606028D02*
X177125564Y-100558409D01*
X177125564Y-100558409D02*
X177030326Y-100510790D01*
X180030326Y-104039362D02*
X180030326Y-103039362D01*
X180030326Y-103039362D02*
X179649374Y-103039362D01*
X179649374Y-103039362D02*
X179554136Y-103086981D01*
X179554136Y-103086981D02*
X179506517Y-103134600D01*
X179506517Y-103134600D02*
X179458898Y-103229838D01*
X179458898Y-103229838D02*
X179458898Y-103372695D01*
X179458898Y-103372695D02*
X179506517Y-103467933D01*
X179506517Y-103467933D02*
X179554136Y-103515552D01*
X179554136Y-103515552D02*
X179649374Y-103563171D01*
X179649374Y-103563171D02*
X180030326Y-103563171D01*
X179077945Y-103753647D02*
X178601755Y-103753647D01*
X179173183Y-104039362D02*
X178839850Y-103039362D01*
X178839850Y-103039362D02*
X178506517Y-104039362D01*
X178125564Y-104039362D02*
X177935088Y-104039362D01*
X177935088Y-104039362D02*
X177839850Y-103991743D01*
X177839850Y-103991743D02*
X177792231Y-103944123D01*
X177792231Y-103944123D02*
X177696993Y-103801266D01*
X177696993Y-103801266D02*
X177649374Y-103610790D01*
X177649374Y-103610790D02*
X177649374Y-103229838D01*
X177649374Y-103229838D02*
X177696993Y-103134600D01*
X177696993Y-103134600D02*
X177744612Y-103086981D01*
X177744612Y-103086981D02*
X177839850Y-103039362D01*
X177839850Y-103039362D02*
X178030326Y-103039362D01*
X178030326Y-103039362D02*
X178125564Y-103086981D01*
X178125564Y-103086981D02*
X178173183Y-103134600D01*
X178173183Y-103134600D02*
X178220802Y-103229838D01*
X178220802Y-103229838D02*
X178220802Y-103467933D01*
X178220802Y-103467933D02*
X178173183Y-103563171D01*
X178173183Y-103563171D02*
X178125564Y-103610790D01*
X178125564Y-103610790D02*
X178030326Y-103658409D01*
X178030326Y-103658409D02*
X177839850Y-103658409D01*
X177839850Y-103658409D02*
X177744612Y-103610790D01*
X177744612Y-103610790D02*
X177696993Y-103563171D01*
X177696993Y-103563171D02*
X177649374Y-103467933D01*
X180030326Y-106682219D02*
X180030326Y-105682219D01*
X180030326Y-105682219D02*
X179649374Y-105682219D01*
X179649374Y-105682219D02*
X179554136Y-105729838D01*
X179554136Y-105729838D02*
X179506517Y-105777457D01*
X179506517Y-105777457D02*
X179458898Y-105872695D01*
X179458898Y-105872695D02*
X179458898Y-106015552D01*
X179458898Y-106015552D02*
X179506517Y-106110790D01*
X179506517Y-106110790D02*
X179554136Y-106158409D01*
X179554136Y-106158409D02*
X179649374Y-106206028D01*
X179649374Y-106206028D02*
X180030326Y-106206028D01*
X179077945Y-106396504D02*
X178601755Y-106396504D01*
X179173183Y-106682219D02*
X178839850Y-105682219D01*
X178839850Y-105682219D02*
X178506517Y-106682219D01*
X178030326Y-106110790D02*
X178125564Y-106063171D01*
X178125564Y-106063171D02*
X178173183Y-106015552D01*
X178173183Y-106015552D02*
X178220802Y-105920314D01*
X178220802Y-105920314D02*
X178220802Y-105872695D01*
X178220802Y-105872695D02*
X178173183Y-105777457D01*
X178173183Y-105777457D02*
X178125564Y-105729838D01*
X178125564Y-105729838D02*
X178030326Y-105682219D01*
X178030326Y-105682219D02*
X177839850Y-105682219D01*
X177839850Y-105682219D02*
X177744612Y-105729838D01*
X177744612Y-105729838D02*
X177696993Y-105777457D01*
X177696993Y-105777457D02*
X177649374Y-105872695D01*
X177649374Y-105872695D02*
X177649374Y-105920314D01*
X177649374Y-105920314D02*
X177696993Y-106015552D01*
X177696993Y-106015552D02*
X177744612Y-106063171D01*
X177744612Y-106063171D02*
X177839850Y-106110790D01*
X177839850Y-106110790D02*
X178030326Y-106110790D01*
X178030326Y-106110790D02*
X178125564Y-106158409D01*
X178125564Y-106158409D02*
X178173183Y-106206028D01*
X178173183Y-106206028D02*
X178220802Y-106301266D01*
X178220802Y-106301266D02*
X178220802Y-106491742D01*
X178220802Y-106491742D02*
X178173183Y-106586980D01*
X178173183Y-106586980D02*
X178125564Y-106634600D01*
X178125564Y-106634600D02*
X178030326Y-106682219D01*
X178030326Y-106682219D02*
X177839850Y-106682219D01*
X177839850Y-106682219D02*
X177744612Y-106634600D01*
X177744612Y-106634600D02*
X177696993Y-106586980D01*
X177696993Y-106586980D02*
X177649374Y-106491742D01*
X177649374Y-106491742D02*
X177649374Y-106301266D01*
X177649374Y-106301266D02*
X177696993Y-106206028D01*
X177696993Y-106206028D02*
X177744612Y-106158409D01*
X177744612Y-106158409D02*
X177839850Y-106110790D01*
X180030326Y-109182219D02*
X180030326Y-108182219D01*
X180030326Y-108182219D02*
X179649374Y-108182219D01*
X179649374Y-108182219D02*
X179554136Y-108229838D01*
X179554136Y-108229838D02*
X179506517Y-108277457D01*
X179506517Y-108277457D02*
X179458898Y-108372695D01*
X179458898Y-108372695D02*
X179458898Y-108515552D01*
X179458898Y-108515552D02*
X179506517Y-108610790D01*
X179506517Y-108610790D02*
X179554136Y-108658409D01*
X179554136Y-108658409D02*
X179649374Y-108706028D01*
X179649374Y-108706028D02*
X180030326Y-108706028D01*
X179077945Y-108896504D02*
X178601755Y-108896504D01*
X179173183Y-109182219D02*
X178839850Y-108182219D01*
X178839850Y-108182219D02*
X178506517Y-109182219D01*
X178268421Y-108182219D02*
X177601755Y-108182219D01*
X177601755Y-108182219D02*
X178030326Y-109182219D01*
X180030326Y-111782219D02*
X180030326Y-110782219D01*
X180030326Y-110782219D02*
X179649374Y-110782219D01*
X179649374Y-110782219D02*
X179554136Y-110829838D01*
X179554136Y-110829838D02*
X179506517Y-110877457D01*
X179506517Y-110877457D02*
X179458898Y-110972695D01*
X179458898Y-110972695D02*
X179458898Y-111115552D01*
X179458898Y-111115552D02*
X179506517Y-111210790D01*
X179506517Y-111210790D02*
X179554136Y-111258409D01*
X179554136Y-111258409D02*
X179649374Y-111306028D01*
X179649374Y-111306028D02*
X180030326Y-111306028D01*
X179077945Y-111496504D02*
X178601755Y-111496504D01*
X179173183Y-111782219D02*
X178839850Y-110782219D01*
X178839850Y-110782219D02*
X178506517Y-111782219D01*
X177744612Y-110782219D02*
X177935088Y-110782219D01*
X177935088Y-110782219D02*
X178030326Y-110829838D01*
X178030326Y-110829838D02*
X178077945Y-110877457D01*
X178077945Y-110877457D02*
X178173183Y-111020314D01*
X178173183Y-111020314D02*
X178220802Y-111210790D01*
X178220802Y-111210790D02*
X178220802Y-111591742D01*
X178220802Y-111591742D02*
X178173183Y-111686980D01*
X178173183Y-111686980D02*
X178125564Y-111734600D01*
X178125564Y-111734600D02*
X178030326Y-111782219D01*
X178030326Y-111782219D02*
X177839850Y-111782219D01*
X177839850Y-111782219D02*
X177744612Y-111734600D01*
X177744612Y-111734600D02*
X177696993Y-111686980D01*
X177696993Y-111686980D02*
X177649374Y-111591742D01*
X177649374Y-111591742D02*
X177649374Y-111353647D01*
X177649374Y-111353647D02*
X177696993Y-111258409D01*
X177696993Y-111258409D02*
X177744612Y-111210790D01*
X177744612Y-111210790D02*
X177839850Y-111163171D01*
X177839850Y-111163171D02*
X178030326Y-111163171D01*
X178030326Y-111163171D02*
X178125564Y-111210790D01*
X178125564Y-111210790D02*
X178173183Y-111258409D01*
X178173183Y-111258409D02*
X178220802Y-111353647D01*
X180030326Y-114282219D02*
X180030326Y-113282219D01*
X180030326Y-113282219D02*
X179649374Y-113282219D01*
X179649374Y-113282219D02*
X179554136Y-113329838D01*
X179554136Y-113329838D02*
X179506517Y-113377457D01*
X179506517Y-113377457D02*
X179458898Y-113472695D01*
X179458898Y-113472695D02*
X179458898Y-113615552D01*
X179458898Y-113615552D02*
X179506517Y-113710790D01*
X179506517Y-113710790D02*
X179554136Y-113758409D01*
X179554136Y-113758409D02*
X179649374Y-113806028D01*
X179649374Y-113806028D02*
X180030326Y-113806028D01*
X178696993Y-113758409D02*
X178554136Y-113806028D01*
X178554136Y-113806028D02*
X178506517Y-113853647D01*
X178506517Y-113853647D02*
X178458898Y-113948885D01*
X178458898Y-113948885D02*
X178458898Y-114091742D01*
X178458898Y-114091742D02*
X178506517Y-114186980D01*
X178506517Y-114186980D02*
X178554136Y-114234600D01*
X178554136Y-114234600D02*
X178649374Y-114282219D01*
X178649374Y-114282219D02*
X179030326Y-114282219D01*
X179030326Y-114282219D02*
X179030326Y-113282219D01*
X179030326Y-113282219D02*
X178696993Y-113282219D01*
X178696993Y-113282219D02*
X178601755Y-113329838D01*
X178601755Y-113329838D02*
X178554136Y-113377457D01*
X178554136Y-113377457D02*
X178506517Y-113472695D01*
X178506517Y-113472695D02*
X178506517Y-113567933D01*
X178506517Y-113567933D02*
X178554136Y-113663171D01*
X178554136Y-113663171D02*
X178601755Y-113710790D01*
X178601755Y-113710790D02*
X178696993Y-113758409D01*
X178696993Y-113758409D02*
X179030326Y-113758409D01*
X177839850Y-113282219D02*
X177744612Y-113282219D01*
X177744612Y-113282219D02*
X177649374Y-113329838D01*
X177649374Y-113329838D02*
X177601755Y-113377457D01*
X177601755Y-113377457D02*
X177554136Y-113472695D01*
X177554136Y-113472695D02*
X177506517Y-113663171D01*
X177506517Y-113663171D02*
X177506517Y-113901266D01*
X177506517Y-113901266D02*
X177554136Y-114091742D01*
X177554136Y-114091742D02*
X177601755Y-114186980D01*
X177601755Y-114186980D02*
X177649374Y-114234600D01*
X177649374Y-114234600D02*
X177744612Y-114282219D01*
X177744612Y-114282219D02*
X177839850Y-114282219D01*
X177839850Y-114282219D02*
X177935088Y-114234600D01*
X177935088Y-114234600D02*
X177982707Y-114186980D01*
X177982707Y-114186980D02*
X178030326Y-114091742D01*
X178030326Y-114091742D02*
X178077945Y-113901266D01*
X178077945Y-113901266D02*
X178077945Y-113663171D01*
X178077945Y-113663171D02*
X178030326Y-113472695D01*
X178030326Y-113472695D02*
X177982707Y-113377457D01*
X177982707Y-113377457D02*
X177935088Y-113329838D01*
X177935088Y-113329838D02*
X177839850Y-113282219D01*
X180030326Y-116882219D02*
X180030326Y-115882219D01*
X180030326Y-115882219D02*
X179649374Y-115882219D01*
X179649374Y-115882219D02*
X179554136Y-115929838D01*
X179554136Y-115929838D02*
X179506517Y-115977457D01*
X179506517Y-115977457D02*
X179458898Y-116072695D01*
X179458898Y-116072695D02*
X179458898Y-116215552D01*
X179458898Y-116215552D02*
X179506517Y-116310790D01*
X179506517Y-116310790D02*
X179554136Y-116358409D01*
X179554136Y-116358409D02*
X179649374Y-116406028D01*
X179649374Y-116406028D02*
X180030326Y-116406028D01*
X178696993Y-116358409D02*
X178554136Y-116406028D01*
X178554136Y-116406028D02*
X178506517Y-116453647D01*
X178506517Y-116453647D02*
X178458898Y-116548885D01*
X178458898Y-116548885D02*
X178458898Y-116691742D01*
X178458898Y-116691742D02*
X178506517Y-116786980D01*
X178506517Y-116786980D02*
X178554136Y-116834600D01*
X178554136Y-116834600D02*
X178649374Y-116882219D01*
X178649374Y-116882219D02*
X179030326Y-116882219D01*
X179030326Y-116882219D02*
X179030326Y-115882219D01*
X179030326Y-115882219D02*
X178696993Y-115882219D01*
X178696993Y-115882219D02*
X178601755Y-115929838D01*
X178601755Y-115929838D02*
X178554136Y-115977457D01*
X178554136Y-115977457D02*
X178506517Y-116072695D01*
X178506517Y-116072695D02*
X178506517Y-116167933D01*
X178506517Y-116167933D02*
X178554136Y-116263171D01*
X178554136Y-116263171D02*
X178601755Y-116310790D01*
X178601755Y-116310790D02*
X178696993Y-116358409D01*
X178696993Y-116358409D02*
X179030326Y-116358409D01*
X177506517Y-116882219D02*
X178077945Y-116882219D01*
X177792231Y-116882219D02*
X177792231Y-115882219D01*
X177792231Y-115882219D02*
X177887469Y-116025076D01*
X177887469Y-116025076D02*
X177982707Y-116120314D01*
X177982707Y-116120314D02*
X178077945Y-116167933D01*
G36*
X177982707Y-77082219D02*
G01*
X177860838Y-77082219D01*
X177755773Y-77047197D01*
X177688703Y-76980127D01*
X177653249Y-76909218D01*
X177611279Y-76741337D01*
X177611279Y-76623100D01*
X177653249Y-76455218D01*
X177688702Y-76384312D01*
X177755774Y-76317240D01*
X177860838Y-76282219D01*
X177982707Y-76282219D01*
X177982707Y-77082219D01*
G37*
G36*
X180389056Y-77393330D02*
G01*
X177300168Y-77393330D01*
X177300168Y-76610790D01*
X177411279Y-76610790D01*
X177411279Y-76753647D01*
X177411614Y-76757049D01*
X177411397Y-76758508D01*
X177412476Y-76765805D01*
X177413200Y-76773156D01*
X177413764Y-76774519D01*
X177414265Y-76777901D01*
X177461884Y-76968376D01*
X177462397Y-76969813D01*
X177462449Y-76970536D01*
X177465557Y-76978660D01*
X177468479Y-76986837D01*
X177468909Y-76987417D01*
X177469455Y-76988844D01*
X177517074Y-77084082D01*
X177522356Y-77092474D01*
X177523369Y-77094918D01*
X177525625Y-77097667D01*
X177527517Y-77100672D01*
X177529511Y-77102401D01*
X177535806Y-77110071D01*
X177631044Y-77205311D01*
X177646197Y-77217747D01*
X177649516Y-77219122D01*
X177652232Y-77221477D01*
X177670132Y-77229468D01*
X177812989Y-77277087D01*
X177822661Y-77279286D01*
X177825103Y-77280298D01*
X177828640Y-77280646D01*
X177832104Y-77281434D01*
X177834738Y-77281246D01*
X177844612Y-77282219D01*
X178082707Y-77282219D01*
X178102216Y-77280298D01*
X178138264Y-77265366D01*
X178165854Y-77237776D01*
X178180786Y-77201728D01*
X178182707Y-77182219D01*
X178182707Y-76182219D01*
X178458898Y-76182219D01*
X178458898Y-77182219D01*
X178459392Y-77187236D01*
X178459142Y-77189204D01*
X178459836Y-77191750D01*
X178460819Y-77201728D01*
X178465910Y-77214018D01*
X178469409Y-77226847D01*
X178473311Y-77231885D01*
X178475751Y-77237776D01*
X178485156Y-77247181D01*
X178493299Y-77257696D01*
X178498833Y-77260858D01*
X178503341Y-77265366D01*
X178515626Y-77270454D01*
X178527176Y-77277055D01*
X178533500Y-77277858D01*
X178539389Y-77280298D01*
X178552690Y-77280298D01*
X178565883Y-77281975D01*
X178572032Y-77280298D01*
X178578407Y-77280298D01*
X178590697Y-77275206D01*
X178603526Y-77271708D01*
X178608564Y-77267805D01*
X178614455Y-77265366D01*
X178623860Y-77255960D01*
X178634375Y-77247818D01*
X178640178Y-77239642D01*
X178642045Y-77237776D01*
X178642803Y-77235943D01*
X178645722Y-77231833D01*
X179030326Y-76558775D01*
X179030326Y-77182219D01*
X179032247Y-77201728D01*
X179047179Y-77237776D01*
X179074769Y-77265366D01*
X179110817Y-77280298D01*
X179149835Y-77280298D01*
X179185883Y-77265366D01*
X179213473Y-77237776D01*
X179228405Y-77201728D01*
X179230326Y-77182219D01*
X179230326Y-76753647D01*
X179458898Y-76753647D01*
X179458898Y-77086980D01*
X179460819Y-77106488D01*
X179475750Y-77142537D01*
X179488187Y-77157690D01*
X179535805Y-77205310D01*
X179550959Y-77217747D01*
X179554278Y-77219122D01*
X179556994Y-77221477D01*
X179574894Y-77229468D01*
X179717751Y-77277087D01*
X179727423Y-77279286D01*
X179729865Y-77280298D01*
X179733402Y-77280646D01*
X179736866Y-77281434D01*
X179739500Y-77281246D01*
X179749374Y-77282219D01*
X179844612Y-77282219D01*
X179854485Y-77281246D01*
X179857119Y-77281434D01*
X179860582Y-77280646D01*
X179864121Y-77280298D01*
X179866563Y-77279286D01*
X179876235Y-77277087D01*
X180019091Y-77229468D01*
X180036992Y-77221477D01*
X180039707Y-77219122D01*
X180043027Y-77217747D01*
X180058180Y-77205310D01*
X180153418Y-77110071D01*
X180159710Y-77102404D01*
X180161707Y-77100673D01*
X180163600Y-77097665D01*
X180165855Y-77094918D01*
X180166866Y-77092476D01*
X180172150Y-77084082D01*
X180219769Y-76988845D01*
X180220315Y-76987416D01*
X180220745Y-76986837D01*
X180223666Y-76978660D01*
X180226775Y-76970536D01*
X180226826Y-76969815D01*
X180227340Y-76968377D01*
X180274959Y-76777901D01*
X180275459Y-76774519D01*
X180276024Y-76773156D01*
X180276747Y-76765805D01*
X180277827Y-76758508D01*
X180277609Y-76757049D01*
X180277945Y-76753647D01*
X180277945Y-76610790D01*
X180277609Y-76607387D01*
X180277827Y-76605929D01*
X180276747Y-76598631D01*
X180276024Y-76591281D01*
X180275459Y-76589917D01*
X180274959Y-76586536D01*
X180227340Y-76396060D01*
X180226826Y-76394621D01*
X180226775Y-76393901D01*
X180223666Y-76385776D01*
X180220745Y-76377600D01*
X180220315Y-76377020D01*
X180219769Y-76375592D01*
X180172150Y-76280355D01*
X180166863Y-76271956D01*
X180165854Y-76269519D01*
X180163602Y-76266775D01*
X180161707Y-76263764D01*
X180159709Y-76262031D01*
X180153418Y-76254365D01*
X180058180Y-76159127D01*
X180043026Y-76146691D01*
X180039707Y-76145316D01*
X180036992Y-76142961D01*
X180019091Y-76134970D01*
X179876235Y-76087351D01*
X179866563Y-76085151D01*
X179864121Y-76084140D01*
X179860582Y-76083791D01*
X179857119Y-76083004D01*
X179854485Y-76083191D01*
X179844612Y-76082219D01*
X179701755Y-76082219D01*
X179682246Y-76084140D01*
X179678925Y-76085515D01*
X179675342Y-76085770D01*
X179657033Y-76092776D01*
X179561796Y-76140395D01*
X179545205Y-76150838D01*
X179519641Y-76180315D01*
X179507302Y-76217331D01*
X179510068Y-76256251D01*
X179527517Y-76291150D01*
X179556994Y-76316714D01*
X179594010Y-76329053D01*
X179632930Y-76326287D01*
X179651238Y-76319281D01*
X179725362Y-76282219D01*
X179828385Y-76282219D01*
X179933449Y-76317240D01*
X180000522Y-76384313D01*
X180035974Y-76455218D01*
X180077945Y-76623099D01*
X180077945Y-76741337D01*
X180035974Y-76909218D01*
X180000521Y-76980124D01*
X179933450Y-77047197D01*
X179828385Y-77082219D01*
X179765600Y-77082219D01*
X179660535Y-77047197D01*
X179658898Y-77045559D01*
X179658898Y-76853647D01*
X179749374Y-76853647D01*
X179768883Y-76851726D01*
X179804931Y-76836794D01*
X179832521Y-76809204D01*
X179847453Y-76773156D01*
X179847453Y-76734138D01*
X179832521Y-76698090D01*
X179804931Y-76670500D01*
X179768883Y-76655568D01*
X179749374Y-76653647D01*
X179558898Y-76653647D01*
X179539389Y-76655568D01*
X179503341Y-76670500D01*
X179475751Y-76698090D01*
X179460819Y-76734138D01*
X179458898Y-76753647D01*
X179230326Y-76753647D01*
X179230326Y-76182219D01*
X179229831Y-76177201D01*
X179230082Y-76175234D01*
X179229387Y-76172687D01*
X179228405Y-76162710D01*
X179223315Y-76150423D01*
X179219816Y-76137591D01*
X179215911Y-76132549D01*
X179213473Y-76126662D01*
X179204069Y-76117258D01*
X179195925Y-76106742D01*
X179190390Y-76103579D01*
X179185883Y-76099072D01*
X179173597Y-76093983D01*
X179162048Y-76087383D01*
X179155723Y-76086579D01*
X179149835Y-76084140D01*
X179136535Y-76084140D01*
X179123342Y-76082463D01*
X179117193Y-76084140D01*
X179110817Y-76084140D01*
X179098530Y-76089229D01*
X179085698Y-76092729D01*
X179080656Y-76096633D01*
X179074769Y-76099072D01*
X179065365Y-76108475D01*
X179054849Y-76116620D01*
X179049045Y-76124795D01*
X179047179Y-76126662D01*
X179046420Y-76128494D01*
X179043502Y-76132605D01*
X178658898Y-76805662D01*
X178658898Y-76182219D01*
X178656977Y-76162710D01*
X178642045Y-76126662D01*
X178614455Y-76099072D01*
X178578407Y-76084140D01*
X178539389Y-76084140D01*
X178503341Y-76099072D01*
X178475751Y-76126662D01*
X178460819Y-76162710D01*
X178458898Y-76182219D01*
X178182707Y-76182219D01*
X178180786Y-76162710D01*
X178165854Y-76126662D01*
X178138264Y-76099072D01*
X178102216Y-76084140D01*
X178082707Y-76082219D01*
X177844612Y-76082219D01*
X177834738Y-76083191D01*
X177832104Y-76083004D01*
X177828640Y-76083791D01*
X177825103Y-76084140D01*
X177822661Y-76085151D01*
X177812989Y-76087351D01*
X177670132Y-76134970D01*
X177652232Y-76142961D01*
X177649516Y-76145316D01*
X177646198Y-76146691D01*
X177631044Y-76159127D01*
X177535806Y-76254365D01*
X177529511Y-76262035D01*
X177527517Y-76263765D01*
X177525623Y-76266772D01*
X177523370Y-76269519D01*
X177522359Y-76271958D01*
X177517074Y-76280355D01*
X177469455Y-76375593D01*
X177468909Y-76377019D01*
X177468479Y-76377600D01*
X177465557Y-76385776D01*
X177462449Y-76393901D01*
X177462397Y-76394623D01*
X177461884Y-76396061D01*
X177414265Y-76586536D01*
X177413764Y-76589917D01*
X177413200Y-76591281D01*
X177412476Y-76598631D01*
X177411397Y-76605929D01*
X177411614Y-76607387D01*
X177411279Y-76610790D01*
X177300168Y-76610790D01*
X177300168Y-75971108D01*
X180389056Y-75971108D01*
X180389056Y-77393330D01*
G37*
G36*
X177982707Y-79682219D02*
G01*
X177860838Y-79682219D01*
X177755773Y-79647197D01*
X177688703Y-79580127D01*
X177653249Y-79509218D01*
X177611279Y-79341337D01*
X177611279Y-79223100D01*
X177653249Y-79055218D01*
X177688702Y-78984312D01*
X177755774Y-78917240D01*
X177860838Y-78882219D01*
X177982707Y-78882219D01*
X177982707Y-79682219D01*
G37*
G36*
X180389056Y-79993330D02*
G01*
X177300168Y-79993330D01*
X177300168Y-79210790D01*
X177411279Y-79210790D01*
X177411279Y-79353647D01*
X177411614Y-79357049D01*
X177411397Y-79358508D01*
X177412476Y-79365805D01*
X177413200Y-79373156D01*
X177413764Y-79374519D01*
X177414265Y-79377901D01*
X177461884Y-79568376D01*
X177462397Y-79569813D01*
X177462449Y-79570536D01*
X177465557Y-79578660D01*
X177468479Y-79586837D01*
X177468909Y-79587417D01*
X177469455Y-79588844D01*
X177517074Y-79684082D01*
X177522356Y-79692474D01*
X177523369Y-79694918D01*
X177525625Y-79697667D01*
X177527517Y-79700672D01*
X177529511Y-79702401D01*
X177535806Y-79710071D01*
X177631044Y-79805311D01*
X177646197Y-79817747D01*
X177649516Y-79819122D01*
X177652232Y-79821477D01*
X177670132Y-79829468D01*
X177812989Y-79877087D01*
X177822661Y-79879286D01*
X177825103Y-79880298D01*
X177828640Y-79880646D01*
X177832104Y-79881434D01*
X177834738Y-79881246D01*
X177844612Y-79882219D01*
X178082707Y-79882219D01*
X178102216Y-79880298D01*
X178138264Y-79865366D01*
X178165854Y-79837776D01*
X178180786Y-79801728D01*
X178182707Y-79782219D01*
X178182707Y-78782219D01*
X178458898Y-78782219D01*
X178458898Y-79782219D01*
X178459392Y-79787236D01*
X178459142Y-79789204D01*
X178459836Y-79791750D01*
X178460819Y-79801728D01*
X178465910Y-79814018D01*
X178469409Y-79826847D01*
X178473311Y-79831885D01*
X178475751Y-79837776D01*
X178485156Y-79847181D01*
X178493299Y-79857696D01*
X178498833Y-79860858D01*
X178503341Y-79865366D01*
X178515626Y-79870454D01*
X178527176Y-79877055D01*
X178533500Y-79877858D01*
X178539389Y-79880298D01*
X178552690Y-79880298D01*
X178565883Y-79881975D01*
X178572032Y-79880298D01*
X178578407Y-79880298D01*
X178590697Y-79875206D01*
X178603526Y-79871708D01*
X178608564Y-79867805D01*
X178614455Y-79865366D01*
X178623860Y-79855960D01*
X178634375Y-79847818D01*
X178640178Y-79839642D01*
X178642045Y-79837776D01*
X178642803Y-79835943D01*
X178645722Y-79831833D01*
X179030326Y-79158775D01*
X179030326Y-79782219D01*
X179032247Y-79801728D01*
X179047179Y-79837776D01*
X179074769Y-79865366D01*
X179110817Y-79880298D01*
X179149835Y-79880298D01*
X179185883Y-79865366D01*
X179213473Y-79837776D01*
X179228405Y-79801728D01*
X179230326Y-79782219D01*
X179230326Y-79353647D01*
X179458898Y-79353647D01*
X179458898Y-79686980D01*
X179460819Y-79706488D01*
X179475750Y-79742537D01*
X179488187Y-79757690D01*
X179535805Y-79805310D01*
X179550959Y-79817747D01*
X179554278Y-79819122D01*
X179556994Y-79821477D01*
X179574894Y-79829468D01*
X179717751Y-79877087D01*
X179727423Y-79879286D01*
X179729865Y-79880298D01*
X179733402Y-79880646D01*
X179736866Y-79881434D01*
X179739500Y-79881246D01*
X179749374Y-79882219D01*
X179844612Y-79882219D01*
X179854485Y-79881246D01*
X179857119Y-79881434D01*
X179860582Y-79880646D01*
X179864121Y-79880298D01*
X179866563Y-79879286D01*
X179876235Y-79877087D01*
X180019091Y-79829468D01*
X180036992Y-79821477D01*
X180039707Y-79819122D01*
X180043027Y-79817747D01*
X180058180Y-79805310D01*
X180153418Y-79710071D01*
X180159710Y-79702404D01*
X180161707Y-79700673D01*
X180163600Y-79697665D01*
X180165855Y-79694918D01*
X180166866Y-79692476D01*
X180172150Y-79684082D01*
X180219769Y-79588845D01*
X180220315Y-79587416D01*
X180220745Y-79586837D01*
X180223666Y-79578660D01*
X180226775Y-79570536D01*
X180226826Y-79569815D01*
X180227340Y-79568377D01*
X180274959Y-79377901D01*
X180275459Y-79374519D01*
X180276024Y-79373156D01*
X180276747Y-79365805D01*
X180277827Y-79358508D01*
X180277609Y-79357049D01*
X180277945Y-79353647D01*
X180277945Y-79210790D01*
X180277609Y-79207387D01*
X180277827Y-79205929D01*
X180276747Y-79198631D01*
X180276024Y-79191281D01*
X180275459Y-79189917D01*
X180274959Y-79186536D01*
X180227340Y-78996060D01*
X180226826Y-78994621D01*
X180226775Y-78993901D01*
X180223666Y-78985776D01*
X180220745Y-78977600D01*
X180220315Y-78977020D01*
X180219769Y-78975592D01*
X180172150Y-78880355D01*
X180166863Y-78871956D01*
X180165854Y-78869519D01*
X180163602Y-78866775D01*
X180161707Y-78863764D01*
X180159709Y-78862031D01*
X180153418Y-78854365D01*
X180058180Y-78759127D01*
X180043026Y-78746691D01*
X180039707Y-78745316D01*
X180036992Y-78742961D01*
X180019091Y-78734970D01*
X179876235Y-78687351D01*
X179866563Y-78685151D01*
X179864121Y-78684140D01*
X179860582Y-78683791D01*
X179857119Y-78683004D01*
X179854485Y-78683191D01*
X179844612Y-78682219D01*
X179701755Y-78682219D01*
X179682246Y-78684140D01*
X179678925Y-78685515D01*
X179675342Y-78685770D01*
X179657033Y-78692776D01*
X179561796Y-78740395D01*
X179545205Y-78750838D01*
X179519641Y-78780315D01*
X179507302Y-78817331D01*
X179510068Y-78856251D01*
X179527517Y-78891150D01*
X179556994Y-78916714D01*
X179594010Y-78929053D01*
X179632930Y-78926287D01*
X179651238Y-78919281D01*
X179725362Y-78882219D01*
X179828385Y-78882219D01*
X179933449Y-78917240D01*
X180000522Y-78984313D01*
X180035974Y-79055218D01*
X180077945Y-79223099D01*
X180077945Y-79341337D01*
X180035974Y-79509218D01*
X180000521Y-79580124D01*
X179933450Y-79647197D01*
X179828385Y-79682219D01*
X179765600Y-79682219D01*
X179660535Y-79647197D01*
X179658898Y-79645559D01*
X179658898Y-79453647D01*
X179749374Y-79453647D01*
X179768883Y-79451726D01*
X179804931Y-79436794D01*
X179832521Y-79409204D01*
X179847453Y-79373156D01*
X179847453Y-79334138D01*
X179832521Y-79298090D01*
X179804931Y-79270500D01*
X179768883Y-79255568D01*
X179749374Y-79253647D01*
X179558898Y-79253647D01*
X179539389Y-79255568D01*
X179503341Y-79270500D01*
X179475751Y-79298090D01*
X179460819Y-79334138D01*
X179458898Y-79353647D01*
X179230326Y-79353647D01*
X179230326Y-78782219D01*
X179229831Y-78777201D01*
X179230082Y-78775234D01*
X179229387Y-78772687D01*
X179228405Y-78762710D01*
X179223315Y-78750423D01*
X179219816Y-78737591D01*
X179215911Y-78732549D01*
X179213473Y-78726662D01*
X179204069Y-78717258D01*
X179195925Y-78706742D01*
X179190390Y-78703579D01*
X179185883Y-78699072D01*
X179173597Y-78693983D01*
X179162048Y-78687383D01*
X179155723Y-78686579D01*
X179149835Y-78684140D01*
X179136535Y-78684140D01*
X179123342Y-78682463D01*
X179117193Y-78684140D01*
X179110817Y-78684140D01*
X179098530Y-78689229D01*
X179085698Y-78692729D01*
X179080656Y-78696633D01*
X179074769Y-78699072D01*
X179065365Y-78708475D01*
X179054849Y-78716620D01*
X179049045Y-78724795D01*
X179047179Y-78726662D01*
X179046420Y-78728494D01*
X179043502Y-78732605D01*
X178658898Y-79405662D01*
X178658898Y-78782219D01*
X178656977Y-78762710D01*
X178642045Y-78726662D01*
X178614455Y-78699072D01*
X178578407Y-78684140D01*
X178539389Y-78684140D01*
X178503341Y-78699072D01*
X178475751Y-78726662D01*
X178460819Y-78762710D01*
X178458898Y-78782219D01*
X178182707Y-78782219D01*
X178180786Y-78762710D01*
X178165854Y-78726662D01*
X178138264Y-78699072D01*
X178102216Y-78684140D01*
X178082707Y-78682219D01*
X177844612Y-78682219D01*
X177834738Y-78683191D01*
X177832104Y-78683004D01*
X177828640Y-78683791D01*
X177825103Y-78684140D01*
X177822661Y-78685151D01*
X177812989Y-78687351D01*
X177670132Y-78734970D01*
X177652232Y-78742961D01*
X177649516Y-78745316D01*
X177646198Y-78746691D01*
X177631044Y-78759127D01*
X177535806Y-78854365D01*
X177529511Y-78862035D01*
X177527517Y-78863765D01*
X177525623Y-78866772D01*
X177523370Y-78869519D01*
X177522359Y-78871958D01*
X177517074Y-78880355D01*
X177469455Y-78975593D01*
X177468909Y-78977019D01*
X177468479Y-78977600D01*
X177465557Y-78985776D01*
X177462449Y-78993901D01*
X177462397Y-78994623D01*
X177461884Y-78996061D01*
X177414265Y-79186536D01*
X177413764Y-79189917D01*
X177413200Y-79191281D01*
X177412476Y-79198631D01*
X177411397Y-79205929D01*
X177411614Y-79207387D01*
X177411279Y-79210790D01*
X177300168Y-79210790D01*
X177300168Y-78571108D01*
X180389056Y-78571108D01*
X180389056Y-79993330D01*
G37*
D11*
X164476713Y-96891798D02*
X163971637Y-97396874D01*
X163971637Y-97396874D02*
X163904293Y-97531561D01*
X163904293Y-97531561D02*
X163904293Y-97666248D01*
X163904293Y-97666248D02*
X163971637Y-97800935D01*
X163971637Y-97800935D02*
X164038980Y-97868278D01*
X163432889Y-97262187D02*
X164139995Y-96555080D01*
X164139995Y-96555080D02*
X163870621Y-96285706D01*
X163870621Y-96285706D02*
X163769606Y-96252034D01*
X163769606Y-96252034D02*
X163702263Y-96252034D01*
X163702263Y-96252034D02*
X163601247Y-96285706D01*
X163601247Y-96285706D02*
X163500232Y-96386721D01*
X163500232Y-96386721D02*
X163466560Y-96487736D01*
X163466560Y-96487736D02*
X163466560Y-96555080D01*
X163466560Y-96555080D02*
X163500232Y-96656095D01*
X163500232Y-96656095D02*
X163769606Y-96925469D01*
X163500232Y-95915317D02*
X163062499Y-95477584D01*
X163062499Y-95477584D02*
X163028827Y-95982660D01*
X163028827Y-95982660D02*
X162927812Y-95881645D01*
X162927812Y-95881645D02*
X162826797Y-95847973D01*
X162826797Y-95847973D02*
X162759453Y-95847973D01*
X162759453Y-95847973D02*
X162658438Y-95881645D01*
X162658438Y-95881645D02*
X162490079Y-96050004D01*
X162490079Y-96050004D02*
X162456408Y-96151019D01*
X162456408Y-96151019D02*
X162456408Y-96218362D01*
X162456408Y-96218362D02*
X162490079Y-96319378D01*
X162490079Y-96319378D02*
X162692110Y-96521408D01*
X162692110Y-96521408D02*
X162793125Y-96555080D01*
X162793125Y-96555080D02*
X162860469Y-96555080D01*
X169189365Y-92304450D02*
X168684289Y-92809526D01*
X168684289Y-92809526D02*
X168616945Y-92944213D01*
X168616945Y-92944213D02*
X168616945Y-93078900D01*
X168616945Y-93078900D02*
X168684289Y-93213587D01*
X168684289Y-93213587D02*
X168751632Y-93280930D01*
X168145541Y-92674839D02*
X168852647Y-91967732D01*
X168852647Y-91967732D02*
X168583273Y-91698358D01*
X168583273Y-91698358D02*
X168482258Y-91664686D01*
X168482258Y-91664686D02*
X168414915Y-91664686D01*
X168414915Y-91664686D02*
X168313899Y-91698358D01*
X168313899Y-91698358D02*
X168212884Y-91799373D01*
X168212884Y-91799373D02*
X168179212Y-91900388D01*
X168179212Y-91900388D02*
X168179212Y-91967732D01*
X168179212Y-91967732D02*
X168212884Y-92068747D01*
X168212884Y-92068747D02*
X168482258Y-92338121D01*
X168111869Y-91361640D02*
X168111869Y-91294297D01*
X168111869Y-91294297D02*
X168078197Y-91193282D01*
X168078197Y-91193282D02*
X167909838Y-91024923D01*
X167909838Y-91024923D02*
X167808823Y-90991251D01*
X167808823Y-90991251D02*
X167741479Y-90991251D01*
X167741479Y-90991251D02*
X167640464Y-91024923D01*
X167640464Y-91024923D02*
X167573121Y-91092266D01*
X167573121Y-91092266D02*
X167505777Y-91226953D01*
X167505777Y-91226953D02*
X167505777Y-92035075D01*
X167505777Y-92035075D02*
X167068044Y-91597343D01*
D12*
%TO.C,JP3*%
X163152944Y-94957157D02*
X165132843Y-96937056D01*
X164567157Y-93542944D02*
X163152944Y-94957157D01*
X165132843Y-96937056D02*
X166547056Y-95522843D01*
X166547056Y-95522843D02*
X164567157Y-93542944D01*
%TO.C,JP2*%
X165002944Y-93157157D02*
X166982843Y-95137056D01*
X166417157Y-91742944D02*
X165002944Y-93157157D01*
X166982843Y-95137056D02*
X168397056Y-93722843D01*
X168397056Y-93722843D02*
X166417157Y-91742944D01*
%TD*%
M02*
