M48
; DRILL file {KiCad 9.0.9} date 2026-09-14T23:42:08+0530
; FORMAT={-:-/ absolute / metric / decimal}
; #@! TF.CreationDate,2026-09-14T23:42:08+05:30
; #@! TF.GenerationSoftware,Kicad,Pcbnew,9.0.9
; #@! TF.FileFunction,Plated,1,2,PTH
FMAT,2
METRIC
; #@! TA.AperFunction,Plated,PTH,ViaDrill
T1C0.400
; #@! TA.AperFunction,Plated,PTH,ViaDrill
T2C0.600
; #@! TA.AperFunction,Plated,PTH,ComponentDrill
T3C0.600
; #@! TA.AperFunction,Plated,PTH,ComponentDrill
T4C1.000
; #@! TA.AperFunction,Plated,PTH,ComponentDrill
T5C1.300
%
G90
G05
T1
X132.2Y-63.243
X132.2Y-65.328
X132.2Y-67.413
X132.2Y-69.498
X132.2Y-71.583
X132.2Y-120.415
X134.6Y-120.415
X135.1Y-66.815
X135.85Y-70.865
X137.5Y-72.515
X137.9Y-86.865
X137.9Y-91.115
X137.9Y-94.915
X137.9Y-97.465
X137.9Y-100.015
X138.35Y-109.865
X138.35Y-112.365
X138.5Y-114.115
X138.56Y-68.355
X139.0Y-104.315
X139.8Y-62.615
X139.8Y-66.915
X139.9Y-70.115
X139.9Y-112.815
X140.1Y-93.815
X140.2Y-72.915
X140.2Y-108.765
X140.65Y-97.715
X140.65Y-98.765
X140.8Y-83.665
X140.8Y-94.465
X140.85Y-85.015
X140.85Y-92.965
X141.5Y-96.915
X141.52Y-62.615
X141.55Y-99.765
X141.6Y-64.215
X141.6Y-95.315
X141.75Y-110.365
X141.8Y-92.065
X141.95Y-77.265
X142.2Y-75.465
X142.3Y-95.965
X142.45Y-72.915
X142.6Y-71.315
X142.6Y-100.765
X142.75Y-91.165
X142.9Y-67.315
X143.1Y-108.715
X143.1Y-112.948
X143.24Y-62.615
X143.3Y-64.215
X143.4Y-79.215
X143.5Y-77.315
X143.55Y-91.965
X143.65Y-82.165
X143.75Y-83.965
X143.8Y-101.915
X143.85Y-100.115
X144.1Y-119.915
X144.2Y-118.115
X144.262Y-110.315
X144.35Y-92.815
X144.8Y-102.815
X144.96Y-62.615
X145.0Y-64.215
X145.15Y-93.665
X145.374Y-67.665
X145.5Y-70.915
X145.667Y-112.948
X145.7Y-79.315
X145.7Y-90.865
X145.8Y-92.415
X145.8Y-103.565
X145.85Y-77.265
X146.0Y-94.615
X146.5Y-72.315
X146.68Y-62.615
X146.7Y-64.215
X146.75Y-79.265
X146.75Y-95.415
X146.75Y-102.815
X146.775Y-110.315
X147.05Y-89.515
X147.2Y-90.965
X147.65Y-96.215
X147.75Y-101.765
X148.0Y-79.315
X148.1Y-87.115
X148.233Y-112.948
X148.3Y-120.015
X148.4Y-62.615
X148.4Y-70.515
X148.4Y-118.215
X148.75Y-102.715
X148.85Y-96.315
X149.27Y-86.195
X149.287Y-110.315
X149.4Y-90.115
X149.7Y-103.715
X150.0Y-96.115
X150.15Y-117.565
X150.225Y-65.815
X150.45Y-90.965
X150.6Y-98.515
X150.633Y-81.515
X150.8Y-112.948
X150.85Y-95.315
X150.9Y-103.415
X151.25Y-99.715
X151.35Y-97.715
X151.45Y-91.815
X151.75Y-94.465
X151.8Y-110.315
X151.805Y-102.57
X152.077Y-98.436
X152.17Y-96.835
X152.217Y-81.515
X152.25Y-100.715
X152.3Y-74.115
X152.3Y-80.215
X152.619Y-87.796
X152.68Y-101.695
X152.92Y-96.085
X153.4Y-99.615
X153.5Y-74.115
X153.75Y-80.215
X153.8Y-81.515
X153.97Y-95.035
X154.037Y-83.278
X154.15Y-84.721
X154.21Y-90.14
X154.75Y-64.965
X154.75Y-107.765
X154.897Y-90.818
X155.022Y-85.253
X155.1Y-63.315
X155.1Y-66.815
X155.1Y-68.315
X155.383Y-81.465
X155.597Y-91.518
X155.6Y-92.565
X155.979Y-89.886
X156.35Y-88.165
X156.6Y-93.015
X157.25Y-91.175
X157.3Y-90.115
X157.3Y-80.315
X157.5Y-107.315
X157.633Y-86.891
X157.85Y-89.215
X158.2Y-87.715
X158.25Y-81.315
X158.7Y-90.815
X158.7Y-101.765
X158.767Y-107.215
X158.85Y-89.765
X159.05Y-88.415
X159.132Y-92.857
X159.184Y-91.815
X159.4Y-81.315
X159.85Y-89.215
X159.85Y-90.865
X160.033Y-107.215
X160.17Y-101.775
X160.2Y-105.715
X160.409Y-85.274
X160.5Y-81.315
X160.7Y-90.015
X161.0Y-100.015
X161.134Y-84.549
X161.15Y-91.098
X161.2Y-96.965
X161.3Y-107.215
X161.4Y-105.715
X161.882Y-83.801
X162.0Y-97.965
X163.1Y-104.69
X163.824Y-96.391
X163.85Y-86.255
X164.05Y-89.215
X164.45Y-75.415
X164.5Y-81.315
X164.6Y-85.465
X164.65Y-63.265
X164.65Y-64.765
X165.6Y-75.415
X165.65Y-79.915
X165.65Y-89.215
X165.657Y-84.623
X165.775Y-77.44
X165.8Y-68.365
X166.316Y-96.5
X166.8Y-62.515
X166.8Y-66.815
X166.8Y-70.115
X166.8Y-105.815
X166.8Y-107.915
X166.8Y-109.915
X166.825Y-113.04
X167.3Y-81.815
X167.7Y-89.615
X167.95Y-72.415
X168.0Y-94.815
X168.35Y-112.865
X168.52Y-62.515
X168.6Y-64.115
X168.8Y-66.865
X169.0Y-83.615
X169.1Y-73.165
X169.2Y-71.915
X169.2Y-91.015
X169.35Y-79.615
X169.375Y-76.679
X169.55Y-70.715
X169.55Y-114.015
X169.7Y-116.615
X169.8Y-108.315
X169.9Y-67.365
X170.24Y-62.515
X170.3Y-64.115
X170.4Y-82.375
X170.4Y-84.715
X170.5Y-104.315
X170.9Y-114.515
X171.0Y-112.315
X171.5Y-119.915
X171.55Y-67.065
X171.55Y-110.115
X171.6Y-118.115
X171.7Y-83.775
X171.7Y-86.115
X171.8Y-76.755
X171.8Y-79.095
X171.8Y-81.435
X171.95Y-71.965
X171.95Y-105.815
X171.96Y-62.515
X172.0Y-64.115
X172.35Y-74.265
X172.65Y-70.815
X172.8Y-67.365
X172.8Y-102.115
X173.65Y-107.465
X173.68Y-62.515
X173.7Y-64.115
X173.8Y-114.515
X173.833Y-112.315
X174.3Y-99.515
X174.4Y-72.915
X174.4Y-110.065
X174.95Y-104.215
X175.4Y-62.515
X175.4Y-66.815
X175.4Y-70.215
X175.7Y-120.015
X175.8Y-118.215
X175.85Y-89.832
X176.15Y-85.715
X176.2Y-78.135
X176.2Y-80.415
X176.2Y-83.065
X176.5Y-105.965
X176.55Y-68.365
X176.6Y-102.515
X176.667Y-112.315
X176.7Y-114.515
X176.75Y-90.965
X176.8Y-110.015
X176.975Y-72.915
X177.85Y-99.765
X178.1Y-63.815
X178.267Y-65.388
X178.9Y-88.115
X179.1Y-77.965
X179.1Y-80.565
X179.1Y-83.115
X179.1Y-85.665
X179.2Y-90.715
X179.25Y-107.415
X179.3Y-93.215
X179.5Y-96.415
X179.5Y-104.965
X179.5Y-112.615
X179.5Y-115.215
X179.55Y-72.915
X179.7Y-69.748
X180.95Y-66.665
X181.975Y-65.39
X182.0Y-63.79
X183.15Y-63.132
X183.15Y-67.898
X183.2Y-65.515
T2
X139.1Y-87.615
X142.65Y-81.315
X147.25Y-77.265
X151.85Y-108.915
X156.1Y-99.915
X157.0Y-72.515
X158.65Y-84.036
X164.7Y-91.915
X165.65Y-90.965
X165.8Y-104.715
X169.1Y-102.915
T4
X133.19Y-78.315
X133.19Y-80.855
X133.19Y-83.395
X133.19Y-85.935
X133.19Y-88.475
X133.19Y-91.015
X133.19Y-93.555
X133.19Y-96.095
X133.19Y-98.635
X133.19Y-103.715
X133.19Y-106.255
X133.19Y-108.795
X133.19Y-111.335
X133.19Y-113.875
X133.19Y-116.415
X137.125Y-76.275
X137.125Y-78.815
X137.125Y-81.355
X139.665Y-76.275
X139.665Y-78.815
X139.665Y-81.355
X168.004Y-98.536
X169.8Y-96.74
X171.596Y-94.944
X182.1Y-71.715
X182.1Y-74.255
X182.1Y-76.795
X182.1Y-79.335
X182.1Y-81.875
X182.1Y-84.415
X182.1Y-86.955
X182.1Y-89.495
X182.1Y-92.035
X182.1Y-94.575
X182.1Y-98.635
X182.1Y-101.175
X182.1Y-103.715
X182.1Y-106.255
X182.1Y-108.795
X182.1Y-111.335
X182.1Y-113.875
X182.1Y-116.415
T5
X156.05Y-117.332
X161.05Y-117.332
T3
G00X139.8Y-64.475
M15
G01X139.8Y-63.875
M16
G05
G00X139.8Y-68.905
M15
G01X139.8Y-67.805
M16
G05
G00X148.44Y-64.475
M15
G01X148.44Y-63.875
M16
G05
G00X148.44Y-68.905
M15
G01X148.44Y-67.805
M16
G05
G00X166.8Y-64.475
M15
G01X166.8Y-63.875
M16
G05
G00X166.8Y-68.905
M15
G01X166.8Y-67.805
M16
G05
G00X175.44Y-64.475
M15
G01X175.44Y-63.875
M16
G05
G00X175.44Y-68.905
M15
G01X175.44Y-67.805
M16
G05
M30
